<svg xmlns="http://www.w3.org/2000/svg" viewBox="0 0 550 470">
    <g data-paper-data="{&quot;isGlobalGroup&quot;:true,&quot;bounds&quot;:{&quot;x&quot;:171.50896870465493,&quot;y&quot;:106,&quot;width&quot;:206.9820625906902,&quot;height&quot;:258}}"
        fill="#f60" fill-rule="none" stroke-miterlimit="10" font-family="none" font-weight="none" font-size="none"
        text-anchor="none">
        <g
            data-paper-data="{&quot;fillRule&quot;:&quot;undefined&quot;,&quot;isIcon&quot;:&quot;true&quot;,&quot;rawInitialId&quot;:&quot;314&quot;,&quot;iconType&quot;:&quot;initial&quot;,&quot;initialText&quot;:&quot;DT&quot;,&quot;selectedEffects&quot;:{&quot;container&quot;:&quot;&quot;,&quot;transformation&quot;:&quot;&quot;,&quot;pattern&quot;:&quot;&quot;},&quot;iconStyle&quot;:&quot;standalone&quot;,&quot;bounds&quot;:{&quot;x&quot;:235.63121126928922,&quot;y&quot;:156.52654593279465,&quot;width&quot;:78.73715688186905,&quot;height&quot;:46.21209160536796},&quot;suitableAsStandaloneIcon&quot;:true}">
            <path
                d="M238.28 171.906c0-.441-.294-.883-.662-1.104v-12.877h23.032c6.035 0 10.965 4.856 10.965 10.89v15.674h1.324v-15.674c0-6.77-5.519-12.288-12.289-12.288h-24.43v14.275c-.368.295-.589.663-.589 1.104 0 .736.589 1.325 1.325 1.325s1.324-.59 1.324-1.325zm22.37-12.657h-21.634v40.767h21.634a9.547 9.547 0 009.567-9.566v-21.635a9.547 9.547 0 00-9.567-9.566zm-1.913 34.218h-12.215v-27.742h12.142c2.207 0 4.047 1.84 4.047 4.12 0 13.467.073 7.433.073 19.501 0 2.281-1.766 4.12-4.047 4.12zm-.073-26.344H247.92v24.946h10.817a2.716 2.716 0 002.723-2.723c0-6.476-.074-13.025-.074-19.5 0-1.472-1.25-2.723-2.722-2.723zm.073 23.621h-9.492v-22.296h9.419c.736 0 1.324.662 1.324 1.398 0 6.475.074 13.024.074 19.5 0 .81-.589 1.398-1.325 1.398zm13.467-3.09a1.24 1.24 0 00-1.251 1.25c0 .516.22.957.662 1.178v.368c0 6.034-4.93 10.964-10.965 10.964h-23.032v-24.21h-1.398v25.535h24.43c6.77 0 12.29-5.52 12.29-12.29v-.44c.367-.222.588-.59.588-1.105 0-.662-.589-1.25-1.324-1.25zm29.728.22c-.736 0-1.324.589-1.324 1.325 0 .441.294.883.662 1.104v11.111h-10.228v-24.21h-1.399v25.535h13.025v-12.51c.294-.22.515-.589.515-1.03 0-.736-.515-1.325-1.25-1.325zm-23.989-31.347v13.024h11.7v.957c-.367.22-.588.662-.588 1.104 0 .736.588 1.324 1.25 1.324.737 0 1.325-.588 1.325-1.324 0-.442-.22-.883-.588-1.104v-2.355h-11.7v-10.228h33.628v10.228h-11.7v16.336h1.398v-14.938h11.7v-13.024zm22.002 43.489v-33.187h11.7v-7.58h-30.98v7.58h11.701v33.187z"
                data-paper-data="{&quot;isPathIcon&quot;:true}" fill-rule="undefined" />
        </g>
        <g data-paper-data="{&quot;isContainerElementsWrapper&quot;:true}">
            <path
                d="M183.125 114.048c61.265-10.73 122.53-10.73 183.794 0 .737.129 1.438.36 2.106.694 4.746 2.373 7.69 5.846 8.833 10.419.043.17.08.34.11.511.358 1.985.533 21.697.523 59.138-.01 37.294-.173 57.691-.492 61.192-.01.101-.022.201-.035.3-1.616 12.283-5.357 25.076-11.222 38.375-5.935 13.46-13.045 25.128-21.331 35.007-16.064 18.74-35.963 32.726-59.697 41.956-4.01 1.604-7.573 2.39-10.692 2.36-3.197 0-6.738-.78-10.623-2.334-23.78-9.247-43.718-23.261-59.817-42.043-8.251-9.838-15.344-21.487-21.28-34.946-5.865-13.3-9.605-26.091-11.222-38.375a7.712 7.712 0 01-.027-.237c-.353-3.524-.534-23.942-.544-61.255-.01-37.493.188-57.254.594-59.284.063-.312.144-.618.245-.92 1.474-4.422 4.364-7.71 8.671-9.864a7.626 7.626 0 012.106-.694zm.794 4.53a3.05 3.05 0 00-.843.278c-3.17 1.586-5.292 3.987-6.365 7.204-.04.121-.073.244-.098.368-.346 1.732-.514 21.192-.504 58.381.01 37.16.183 57.426.52 60.798l.011.095c1.56 11.848 5.183 24.221 10.87 37.118 5.76 13.06 12.625 24.343 20.596 33.847 15.577 18.174 34.897 31.745 57.96 40.713 3.365 1.346 6.35 2.019 8.956 2.019 2.543.025 5.537-.651 8.984-2.03 23.045-8.962 42.349-22.52 57.911-40.678 7.985-9.52 14.857-20.81 20.617-33.87 5.687-12.898 9.31-25.27 10.87-37.12.006-.044.01-.086.014-.127.305-3.355.462-23.61.472-60.765.01-37.167-.14-56.608-.448-58.323a3.482 3.482 0 00-.041-.19c-.804-3.217-2.948-5.697-6.433-7.44a3.055 3.055 0 00-.841-.277c-60.736-10.638-121.472-10.638-182.208 0zm186.864 89.638H179.22c.07 19.116.223 34.698.462 37.086 3.017 22.93 15.085 50.687 30.774 69.394 14.483 16.895 35 31.378 56.723 39.826 3.017 1.207 5.43 1.811 7.844 1.811 2.414.023 4.828-.604 7.845-1.81 21.723-8.45 42.24-22.932 56.722-39.827 15.69-18.707 27.758-46.464 30.775-69.394.217-2.388.356-17.97.42-37.086zm-177.037 5.614c.1-.091.208-.136.344-.136h7.64c2.555 0 4.739.906 6.56 2.718 1.813 1.822 2.72 4.006 2.72 6.561 0 2.556-.907 4.74-2.72 6.561-1.821 1.812-4.005 2.719-6.56 2.719h-7.64a.487.487 0 01-.344-.136.487.487 0 01-.136-.345.45.45 0 01.136-.335.46.46 0 01.344-.145h7.64c2.292 0 4.259-.815 5.88-2.438 1.623-1.622 2.438-3.588 2.438-5.88 0-2.293-.815-4.26-2.437-5.882-1.622-1.622-3.589-2.438-5.881-2.438h-7.16v12.696h2.991v-9.225c0-.136.045-.245.136-.344.1-.09.209-.136.344-.136h3.689c1.468 0 2.718.516 3.76 1.558 1.042 1.043 1.568 2.302 1.568 3.77s-.526 2.728-1.568 3.77c-1.042 1.042-2.292 1.559-3.76 1.559h-7.64a.487.487 0 01-.344-.136.487.487 0 01-.136-.345v-13.556s0-.018.01-.046c-.01-.027-.01-.045-.01-.045 0-.136.045-.245.136-.344zm35.142 14.136l.01.01 1.45 3.624a.435.435 0 01-.046.444.467.467 0 01-.399.209h-4.259a.441.441 0 01-.444-.3l-1.332-3.325h-6.398l-1.332 3.326a.441.441 0 01-.444.299h-4.268a.44.44 0 01-.39-.209.437.437 0 01-.054-.444l7.068-17.607a.441.441 0 01.444-.3h4.35c.217 0 .363.1.444.3l3.97 9.895v-.002.002c0 .004.002.019.008.037.01.027.018.045.018.054 0 .01 0 .036.01.064v.036c0 .009 0 .036-.01.063-.009.027-.009.036 0 .027 0 0-.009.01-.018.037a.52.52 0 01-.118.208c-.009 0-.009 0-.009.01l-.063.044-.01.01-.072.036.004-.002a.557.557 0 00-.022.01l-.072.019h-.046c-.027.009-.045.009-.045.009h-8.029c-.027 0-.063 0-.09-.01-.01 0-.019 0-.046-.008l-.045-.018c-.01-.01-.036-.018-.063-.027l-.028-.02-.003-.002.003.003s-.009-.009-.036-.027l-.032-.024c.004.001-.001-.009-.022-.03l-.037-.045-.027-.055c-.009-.027-.018-.036-.018-.027 0 0 0-.01-.009-.036-.009-.027-.018-.046-.018-.055v-.027c-.01-.027-.01-.054-.01-.063v-.036c.01-.028.01-.055.01-.064 0-.009.01-.027.018-.054.006-.018.008-.033.009-.037v-.002.002l1.885-4.694a.441.441 0 01.444-.299c.209 0 .363.1.444.3l1.758 4.394h3.235l-3.588-8.935h-3.707l-6.67 16.638h3.227l1.341-3.326c.1-.244.272-.335.526-.29h11.218a.415.415 0 01.417.254zm-10.444-3.549l-.004-.003zm26.692-1.462l6.915-8.482a.454.454 0 00.063-.507c-.081-.182-.226-.272-.435-.272h-5.102a.455.455 0 00-.371.172l-4.223 5.21-4.232-5.21a.455.455 0 00-.372-.172h-5.101c-.2 0-.345.09-.435.272a.454.454 0 00.063.507l6.914 8.482-6.914 8.518a.454.454 0 00-.063.508c.09.181.235.272.435.272h5.056a.455.455 0 00.372-.173l4.277-5.246 4.268 5.246a.483.483 0 00.68.064c.1-.082.163-.19.172-.317a.486.486 0 00-.109-.354l-13.71-16.819h3.869l14.155 17.417c.1.118.217.182.371.182a.474.474 0 00.308-.109c.1-.082.163-.19.172-.317a.486.486 0 00-.108-.354zm24.368-9.125a.45.45 0 01.335-.136h7.295a.45.45 0 01.336.136c.1.1.145.208.145.344v3.951a.454.454 0 01-.145.335.45.45 0 01-.336.136h-6.814v13.176a.46.46 0 01-.145.345c-.091.09-.2.136-.336.136h-3.95a.451.451 0 01-.336-.136.46.46 0 01-.145-.345v-13.176h-6.815a.486.486 0 01-.344-.136.48.48 0 01-.136-.335v-3.951c0-.136.045-.245.136-.344.1-.091.209-.136.345-.136h7.294a.45.45 0 01.336.136c.1.1.145.208.145.344v17.118h2.99v-17.118c0-.136.045-.245.145-.344zm21.332 11.481c1.377-.244 2.52-.915 3.435-1.993a5.692 5.692 0 001.377-3.77c0-1.613-.57-2.99-1.713-4.141-1.15-1.142-2.528-1.713-4.141-1.713h-8.781a.486.486 0 00-.345.136.486.486 0 00-.135.344v6.833a.45.45 0 00.135.335c.1.1.209.145.345.145h8.772c.027 0 .063 0 .1-.009a1.85 1.85 0 001.286-.598c.354-.372.535-.807.535-1.323 0-.526-.19-.979-.562-1.36a1.854 1.854 0 00-1.36-.561l-4.838-.01a.427.427 0 00-.336.146c-.1.09-.145.199-.145.335v2.42h-2.972v-5.873h8.3c1.351 0 2.511.48 3.463 1.432.96.952 1.44 2.112 1.44 3.462s-.48 2.5-1.44 3.461c-.952.952-2.112 1.432-3.462 1.432-.036 0-.082.01-.127.018h-8.654a.46.46 0 00-.345.145.45.45 0 00-.135.336v6.832c0 .136.045.245.135.345.1.09.209.136.345.136h3.933a.451.451 0 00.335-.136.46.46 0 00.145-.345v-5.527l4.359 5.745c.1.127.226.19.38.19h4.966c.2 0 .345-.09.426-.263a.45.45 0 00-.045-.507zm12.315 6.806a.481.481 0 01-.335.136h-3.951a.487.487 0 01-.344-.136.487.487 0 01-.136-.345v-17.598c0-.136.045-.245.136-.344.1-.091.208-.136.344-.136a.45.45 0 01.335.136c.1.1.145.208.145.344v17.118h2.99v-17.118c0-.136.046-.245.137-.344.1-.091.208-.136.344-.136a.48.48 0 01.335.136c.09.1.136.208.136.344v17.598a.487.487 0 01-.136.345zm17.127.136a.487.487 0 00.345-.136c.09-.1.136-.209.136-.345v-4.304a.486.486 0 00-.136-.344.486.486 0 00-.345-.136h-5.428c-1.105 0-2.048-.39-2.836-1.178-.789-.789-1.178-1.731-1.178-2.837 0-1.105.39-2.048 1.178-2.836.788-.789 1.73-1.178 2.836-1.178h5.428a.486.486 0 00.345-.136c.09-.1.136-.209.136-.345a.45.45 0 00-.136-.335.46.46 0 00-.345-.145h-5.428c-1.368 0-2.546.49-3.516 1.46-.97.969-1.459 2.147-1.459 3.515 0 1.369.49 2.547 1.46 3.516.969.97 2.147 1.46 3.515 1.46h4.957v3.343h-4.567c-2.293 0-4.26-.815-5.881-2.438-1.622-1.622-2.438-3.588-2.438-5.88 0-2.293.816-4.26 2.438-5.882 1.622-1.622 3.588-2.438 5.88-2.438h5.04a.46.46 0 00.344-.145.45.45 0 00.136-.335.486.486 0 00-.136-.344.486.486 0 00-.345-.136h-5.038c-2.555 0-4.74.906-6.561 2.718-1.812 1.822-2.719 4.006-2.719 6.561 0 2.556.907 4.74 2.719 6.561 1.821 1.812 4.006 2.719 6.56 2.719zm14.617-18.487h5.582c.227 0 .372.11.453.317.073.209.027.39-.144.526l-9.334 7.694 9.07 9.134a.431.431 0 01.1.517.442.442 0 01-.444.299h-5.509a.455.455 0 01-.336-.136l-5.908-5.827v5.482a.489.489 0 01-.136.345.482.482 0 01-.335.136h-3.95a.488.488 0 01-.345-.136.489.489 0 01-.136-.345v-3.969c0-.018 0-.036.008-.054 0-.018 0-.036.01-.045 0-.01 0-.028.009-.046l.018-.036.028-.045.017-.037.037-.036.036-.036c.016-.015.017-.024.013-.021l15.446-12.73h-4.077l-10.75 8.76a.14.14 0 00-.034.022l-.036.027-.046.027c-.008.01-.027.01-.046.018-.008.01-.027.01-.044.01-.01.008-.019.008-.037.008-.017.01-.036.01-.054.01h-.045c-.01-.01-.027-.01-.046-.01-.018 0-.035 0-.045-.009-.009-.009-.028-.009-.045-.009-.018-.009-.037-.009-.046-.018l-.035-.027-.046-.027-.027-.027c-.019-.01-.027-.028-.036-.037l-.019-.018c.009.01 0 .01-.008-.009l-.027-.045-.028-.045-.018-.037c-.009-.018-.009-.036-.009-.045-.01-.009-.01-.027-.01-.045-.008-.018-.008-.037-.008-.055v-8.962c0-.136.045-.245.136-.344.1-.091.208-.136.344-.136h3.951c.126 0 .235.045.335.136.09.1.136.208.136.344v4.721l6.163-5.02a.473.473 0 01.307-.109zm-10.577 9.711c.002 0-.004.005-.016.013zm23.174-3.938c-.272-.154-.38-.354-.318-.58.063-.236.254-.354.59-.354h6.978a.425.425 0 00.334-.145c.1-.09.145-.2.145-.335l-.009-3.951a.462.462 0 00-.144-.344.454.454 0 00-.336-.136s-.018 0-.045.009v-.01h-6.526c-1.522 0-2.763.363-3.723 1.088-1.152.87-1.813 2.003-1.967 3.39a5.21 5.21 0 00.39 2.7c.371.86.915 1.55 1.64 2.066.78.553 2.673 1.486 5.682 2.782l.499.227c.67.28.951.598.851.933-.063.2-.144.335-.253.399-.182.117-.508.172-.97.172h-.037c-.37-.01-2.808-.01-7.313-.01a.45.45 0 00-.335.137c-.1.1-.145.208-.145.344 0 .127.045.236.145.335.09.091.2.136.335.136 4.495 0 6.924.01 7.296.018h.054c.625 0 1.096-.1 1.432-.299.335-.19.57-.507.707-.951.127-.408.063-.807-.182-1.178-.245-.372-.644-.67-1.205-.915l-.499-.227c-2.945-1.269-4.775-2.166-5.509-2.682-.589-.417-1.024-.979-1.323-1.677a4.269 4.269 0 01-.309-2.202c.128-1.115.663-2.03 1.595-2.737.788-.589 1.831-.888 3.144-.888h6.09l.01 2.99h-6.497c-.372 0-.698.1-.979.29-.273.191-.453.454-.535.78-.091.317-.064.634.082.934.136.298.372.543.688.724.244.136 2.121.952 5.637 2.447a4.937 4.937 0 011.658 1.17c.897.95 1.26 2.093 1.069 3.416-.172 1.25-.815 2.229-1.911 2.945-.961.625-2.067.942-3.317.942h-7.196a.425.425 0 00-.335.145c-.1.09-.145.2-.145.335 0 .136.045.245.145.345a.45.45 0 00.335.136h7.196c1.477 0 2.782-.38 3.915-1.142 1.296-.87 2.057-2.057 2.266-3.57.19-1.396-.128-2.647-.953-3.743a5.637 5.637 0 00-2.346-1.858c-3.453-1.477-5.301-2.274-5.546-2.401zm-100.688-4.885h3.87l-6.154 7.549-1.92-2.374zm18.604 0h-6.334v2.99h6.334zm4.912 2.99h6.334v-2.99h-6.334zm57.154 2.03v-5.02h-2.991v7.458zm-42.048-1.087l4.359.01c.263 0 .49.09.68.28.19.19.28.417.28.68 0 .263-.09.49-.28.68a.924.924 0 01-.68.28l-.046.01h-4.313zm-83.696.01h-3.217v8.753h3.217c1.205 0 2.229-.426 3.09-1.287.852-.851 1.277-1.885 1.277-3.09 0-1.205-.425-2.238-1.277-3.09-.861-.86-1.885-1.287-3.09-1.287zm20.117 4.992l-1.178-2.936-1.178 2.936zm113.02 7.703h4.17l-8.329-8.373-2.365 1.94zm-97.76 0h-3.824l6.154-7.576 1.93 2.356zm44.386-5.872h2.972v5.872h-2.972zm8.917 5.8l-4.404-5.8h3.724a.187.187 0 00.055.09l4.377 5.71zm34.073-3.172v3.244h2.99v-5.709zm-99.59.58l1.068 2.664h3.235l-1.069-2.664zm23.809 8.908a.404.404 0 00-.535.091l-2.842 3.82-2.842-3.82c-.13-.169-.378-.208-.535-.09-.182.143-.221.39-.078.547v-.013l3.155 4.237v-.026c0 .039.026.078.04.09.051.04.09.066.117.066a.14.14 0 00.078.026h.143l.052-.026c.053 0 .079-.026.105-.052a.284.284 0 00.052-.065l3.168-4.25c.104-.157.091-.404-.078-.535zm84.484 4.772l-3.156-4.237v.013c-.143-.157-.104-.404.079-.548.156-.117.405-.078.535.091l2.84 3.82 2.843-3.82a.405.405 0 01.535-.09c.169.13.182.377.077.534l-3.167 4.25a.252.252 0 01-.053.065c-.025.026-.051.052-.103.052l-.053.026h-.143a.142.142 0 01-.078-.026c-.026 0-.065-.026-.118-.065a.15.15 0 01-.038-.091zm-119.807-4.563h2.79a2.495 2.495 0 012.49 2.516 2.481 2.481 0 01-2.49 2.49h-1.37a.384.384 0 110-.77h1.37a1.73 1.73 0 001.733-1.72c0-.965-.782-1.747-1.733-1.747h-2.412v8.682a.387.387 0 01-.378.378.381.381 0 01-.391-.378v-9.06c0-.209.17-.391.39-.391zm48.377 9.686l-4.394-8.89a.418.418 0 01.17-.51.38.38 0 01.508.183l4.133 8.33c1.043-1.055 1.942-1.994 2.985-3.05l-.978-.978v.013a.378.378 0 010-.547l1.265-1.252a.414.414 0 01.534 0l1.252 1.252a.378.378 0 010 .547v-.013l-.978.978c1.017 1.03 1.956 2.008 2.986 3.05l4.132-8.33c.104-.195.326-.274.509-.182a.423.423 0 01.182.508l-4.38 8.813a.374.374 0 01-.235.208c-.026.013-.065.013-.091.013a.383.383 0 01-.287-.117l-3.363-3.442-3.364 3.442a.383.383 0 01-.287.117c-.026 0-.039 0-.065-.013-.104-.013-.195-.065-.234-.13zm46.564-.235a.387.387 0 01-.378.378.381.381 0 01-.39-.378v-8.76c0-.222.155-.378.39-.378h2.933l.404.026.444.052.456.104.378.118.482.234.405.222s.052.026.065.052c.104.078.221.182.339.26l.378.34.339.365.273.404.248.417.17.352.195.535.091.39.066.444.013.43-.013.43-.052.47-.118.417-.13.365-.235.56-.248.391-.273.378-.34.378-.39.326-.378.3-.379.222-.521.221-.365.118-.417.117-.47.052-.417.026-.678-.013a.378.378 0 01-.378-.378c0-.195.17-.365.378-.365h.652l.391-.026h-.013l.378-.052h-.013l.365-.091.391-.13-.013.012.352-.182h-.013l.378-.196-.013.013c.105-.078.222-.182.34-.26h-.014l.313-.287c.078-.091.209-.209.287-.3v.013l.235-.339-.013.013.221-.365v.013c.052-.13.13-.26.183-.378l-.013.013.117-.39.091-.366v.013l.052-.378c.001-.115.014-.252.014-.365l-.027-.365v.013l-.052-.391v.013l-.078-.365-.13-.391.013.013-.17-.365v.013l-.221-.352.013.013-.235-.352v.013l-.3-.313-.3-.26h.013c-.117-.079-.234-.183-.339-.261l.013.013-.378-.209h.013c-.117-.039-.247-.117-.378-.17l.013.014c-.13-.04-.247-.105-.378-.144h.013l-.39-.078c-.118-.013-.248-.052-.366-.065-.117 0-.247-.013-.352-.013h-2.529zm-81.042-.378h-4.915v-8.37a.387.387 0 00-.378-.377.381.381 0 00-.39.378v8.747c0 .209.168.378.39.378h5.293a.378.378 0 000-.756zm3.744.756a.279.279 0 01-.157-.039c-.195-.078-.274-.274-.182-.508l4.38-8.76a.424.424 0 01.339-.196c.143 0 .274.091.339.195 1.447 2.881 2.933 5.893 4.38 8.76.104.235 0 .431-.17.51-.169.09-.403 0-.508-.183l-4.041-8.057-4.002 8.03c-.118.17-.235.248-.378.248zm46.849-.756h-.248a.37.37 0 00-.378.378.37.37 0 00.378.378h1.278a.378.378 0 000-.756h-.26v-7.991h.26a.37.37 0 00.378-.378.378.378 0 00-.378-.378h-1.278a.37.37 0 00-.378.378c0 .221.157.378.378.378h.248zm4.67-8.747h3.402c.195 0 .378.17.378.378v8.747a.387.387 0 01-.378.378.37.37 0 01-.378-.378v-8.37h-3.025a.37.37 0 01-.378-.377c0-.209.17-.378.378-.378zm4.314 0h2.477c.209 0 .378.17.378.378a.37.37 0 01-.378.378h-2.477a.363.363 0 01-.378-.378.37.37 0 01.378-.378zm10.797 4.602h-4.198v-4.224a.378.378 0 00-.378-.378.37.37 0 00-.378.378v8.747a.37.37 0 00.378.378c.209 0 .378-.169.378-.378v-3.767h4.198a.378.378 0 00.378-.378.387.387 0 00-.378-.378zm1.147-4.602a.381.381 0 00-.391.378v8.747c0 .209.17.378.391.378.196 0 .378-.169.378-.378v-8.747a.387.387 0 00-.378-.378zm18.818 9.464c.04.026.092.04.157.04.143 0 .26-.079.378-.248l4.002-8.03 4.04 8.056c.105.182.34.274.51.182.169-.078.273-.274.169-.508-1.446-2.868-2.933-5.88-4.38-8.76a.416.416 0 00-.34-.196.423.423 0 00-.338.195l-4.38 8.76c-.091.235-.013.431.182.51zm-51.911-5.996l-.717.716.717.717.73-.717zm-20.381 1.03a.378.378 0 00-.378.377v4.25a.37.37 0 00.378.378c.209 0 .378-.169.378-.378v-4.25a.387.387 0 00-.378-.378zm88.46.156l3.154 4.237c.118.182.092.404-.077.534-.079.04-.144.078-.222.078a.409.409 0 01-.313-.156l-2.842-3.833-2.841 3.833a.409.409 0 01-.314.156c-.078 0-.143-.039-.221-.078a.393.393 0 01-.079-.534l3.164-4.244a.315.315 0 01.096-.097c.013-.013.039-.013.064-.027a.204.204 0 01.105-.026h.053s.026 0 .051.013c.026 0 .053.013.118.04l.038.026z"
                data-paper-data="{&quot;isBaseLogoContainer&quot;:true}" fill-rule="evenodd" />
        </g>
    </g>
</svg>