<svg version="1.1" xmlns="http://www.w3.org/2000/svg" xmlns:xlink="http://www.w3.org/1999/xlink" viewBox="0 0 550 470">
    <g fill="#ff6600" fill-rule="none" stroke="none" stroke-width="1" stroke-linecap="butt" stroke-linejoin="miter"
        stroke-miterlimit="10" stroke-dasharray="" stroke-dashoffset="0" font-family="none" font-weight="none"
        font-size="none" text-anchor="none" style="mix-blend-mode: normal">
        <g
            data-paper-data="{&quot;isGlobalGroup&quot;:true,&quot;bounds&quot;:{&quot;x&quot;:171.50896870465493,&quot;y&quot;:106,&quot;width&quot;:206.9820625906902,&quot;height&quot;:258}}">
            <g data-paper-data="{&quot;fillRule&quot;:&quot;undefined&quot;,&quot;isIcon&quot;:&quot;true&quot;,&quot;rawInitialId&quot;:&quot;314&quot;,&quot;iconType&quot;:&quot;initial&quot;,&quot;initialText&quot;:&quot;DT&quot;,&quot;selectedEffects&quot;:{&quot;container&quot;:&quot;&quot;,&quot;transformation&quot;:&quot;&quot;,&quot;pattern&quot;:&quot;&quot;},&quot;iconStyle&quot;:&quot;standalone&quot;,&quot;bounds&quot;:{&quot;x&quot;:235.63121126928922,&quot;y&quot;:156.52654593279465,&quot;width&quot;:78.73715688186905,&quot;height&quot;:46.21209160536796},&quot;suitableAsStandaloneIcon&quot;:true}"
                fill-rule="undefined">
                <path
                    d="M238.28031,171.90605c0,-0.44152 -0.29434,-0.88303 -0.66227,-1.10379v-12.87757h23.03246c6.03406,0 10.96433,4.85669 10.96433,10.89075v15.67384h1.32455v-15.67384c0,-6.76992 -5.51896,-12.28888 -12.28888,-12.28888h-24.43059v14.27571c-0.36793,0.29434 -0.58869,0.66227 -0.58869,1.10379c0,0.73586 0.58869,1.32455 1.32455,1.32455c0.73586,0 1.32455,-0.58869 1.32455,-1.32455zM260.65049,159.24923h-14.12854h-2.06041h-5.44538v40.76672h5.44538h2.06041h14.12854c5.2982,0 9.5662,-4.268 9.5662,-9.5662v-21.63432c0,-5.2982 -4.268,-9.5662 -9.5662,-9.5662zM258.73725,193.46679h-12.2153v-27.74197h12.14171c2.20759,0 4.04724,1.83965 4.04724,4.12082c0,13.46626 0.07359,7.4322 0.07359,19.50032c0,2.28117 -1.76607,4.12082 -4.04724,4.12082zM258.66367,167.12295h-10.74358v24.9457h10.81716c1.47172,0 2.72269,-1.17738 2.72269,-2.72269c0,-6.47558 -0.07359,-13.02474 -0.07359,-19.50032c0,-1.47172 -1.25096,-2.72269 -2.72269,-2.72269zM258.73725,190.7441h-9.49261v-22.2966h9.41902c0.73586,0 1.32455,0.66227 1.32455,1.39814c0,6.47558 0.07359,13.02474 0.07359,19.50032c0,0.80945 -0.58869,1.39814 -1.32455,1.39814zM272.20352,187.65348c-0.73586,0 -1.25096,0.58869 -1.25096,1.25096c0,0.5151 0.22076,0.95662 0.66227,1.17738v0.36793c0,6.03406 -4.93027,10.96433 -10.96433,10.96433h-23.03246v-24.20984h-1.39814v25.53439h24.43059c6.76992,0 12.28888,-5.51896 12.28888,-12.28888v-0.44152c0.36793,-0.22076 0.58869,-0.58869 0.58869,-1.10379c0,-0.66227 -0.58869,-1.25096 -1.32455,-1.25096zM301.93231,187.87424c-0.73586,0 -1.32455,0.58869 -1.32455,1.32455c0,0.44152 0.29434,0.88303 0.66227,1.10379v11.11151h-10.22847v-24.20984h-1.39814v25.53439h13.02474v-12.50964c0.29434,-0.22076 0.5151,-0.58869 0.5151,-1.0302c0,-0.73586 -0.5151,-1.32455 -1.25096,-1.32455zM277.94323,156.52655v13.02474h11.7002v0.95662c-0.36793,0.22076 -0.58869,0.66227 -0.58869,1.10379c0,0.73586 0.58869,1.32455 1.25096,1.32455c0.73586,0 1.32455,-0.58869 1.32455,-1.32455c0,-0.44152 -0.22076,-0.88303 -0.58869,-1.10379v-2.35476h-11.7002v-10.22847h33.62886v10.22847h-11.7002v16.33612h1.39814v-14.93799h11.7002v-13.02474zM299.94549,200.01595v-33.18735h11.7002v-7.57937h-30.97976v7.57937h11.7002v33.18735z"
                    data-paper-data="{&quot;isPathIcon&quot;:true}"></path>
            </g>
            <g data-paper-data="{&quot;isContainerElementsWrapper&quot;:true}" fill-rule="evenodd">
                <path
                    d="M183.12517,114.04802c61.2646,-10.7307 122.52935,-10.7307 183.79425,0.00001c0.7367,0.12891 1.43764,0.36037 2.10568,0.69437c4.7454,2.37299 7.68982,5.84575 8.83326,10.41826c0.04291,0.17016 0.08011,0.34058 0.11015,0.51131c0.35762,1.98473 0.53214,21.69745 0.52213,59.13816c-0.01001,37.2938 -0.17309,57.69097 -0.49209,61.19137c-0.01001,0.10171 -0.02146,0.20184 -0.03433,0.3004c-1.61645,12.28316 -5.35717,25.07601 -11.22217,38.37525c-5.93461,13.45898 -13.04509,25.12793 -21.33142,35.00688c-16.06399,18.74033 -35.96282,32.72573 -59.69651,41.95618c-4.00966,1.60405 -7.57357,2.39034 -10.69175,2.35887c-3.197,0 -6.73802,-0.77818 -10.62308,-2.33312c-23.77956,-9.24667 -43.71869,-23.26115 -59.81739,-42.04344c-8.251,-9.83794 -15.34434,-21.48639 -21.28001,-34.94537c-5.86482,-13.29971 -9.60537,-26.09146 -11.22166,-38.37525c-0.01039,-0.07896 -0.01954,-0.15807 -0.02748,-0.23732c-0.35236,-3.52358 -0.5335,-23.94177 -0.54341,-61.25445c-0.00998,-37.49297 0.18799,-57.25419 0.5939,-59.28366c0.0624,-0.31202 0.14391,-0.61894 0.24453,-0.92079c1.474,-4.422 4.36458,-7.70978 8.67173,-9.86334c0.66807,-0.33402 1.36996,-0.56546 2.10569,-0.69433zM183.91872,118.57864c-0.29429,0.05154 -0.57507,0.14412 -0.84231,0.27774c-3.17106,1.58552 -5.29275,3.9868 -6.36509,7.20383c-0.04025,0.12075 -0.07285,0.24351 -0.09782,0.36828c-0.34628,1.73139 -0.51447,21.19156 -0.50458,58.38051c0.00988,37.16024 0.18341,57.42618 0.52058,60.79784c0.00318,0.03176 0.00684,0.06337 0.01097,0.09484c1.559,11.84853 5.18232,24.22143 10.86996,37.11871c5.75973,13.06035 12.62493,24.3426 20.59561,33.84675c15.57714,18.17386 34.89725,31.74489 57.96033,40.71309c3.36451,1.34561 6.34984,2.01842 8.95599,2.01842c2.5424,0.02575 5.5367,-0.65087 8.98317,-2.02986c23.04515,-8.96152 42.34909,-22.52063 57.91184,-40.67733c7.98498,-9.52037 14.85704,-20.81072 20.61618,-33.87107c5.68762,-12.89727 9.31104,-25.26955 10.87027,-37.11871c0.00572,-0.0442 0.01001,-0.08683 0.0143,-0.12789c0.30469,-3.35464 0.46205,-23.60947 0.47206,-60.7648c0.01001,-37.16677 -0.14019,-56.60752 -0.44774,-58.3225c-0.01287,-0.06542 -0.02575,-0.12886 -0.04148,-0.19034c-0.80393,-3.21764 -2.94823,-5.69756 -6.4329,-7.43979c-0.2675,-0.13365 -0.54788,-0.22622 -0.84113,-0.27773c-60.73628,-10.63806 -121.47235,-10.63806 -182.20821,0zM370.78316,208.2162h-191.56393c0.0698,19.11588 0.22268,34.69804 0.46144,37.08566c3.01714,22.93042 15.08564,50.68759 30.77479,69.39407c14.48225,16.89548 34.99887,31.37773 56.72224,39.82619c3.01718,1.20733 5.43084,1.811 7.84465,1.811c2.41366,0.02289 4.82732,-0.60367 7.8445,-1.811c21.72338,-8.44846 42.23942,-22.93071 56.72167,-39.82619c15.68958,-18.70648 27.7586,-46.46365 30.7755,-69.39407c0.21743,-2.38763 0.35619,-17.96978 0.41913,-37.08566zM193.74595,213.82971c0.0997,-0.09069 0.20842,-0.1359 0.34446,-0.1359h7.63923c2.55542,0 4.73935,0.90607 6.56079,2.7185c1.81243,1.82144 2.71864,4.00551 2.71864,6.56093c0,2.55542 -0.90621,4.73935 -2.71864,6.56093c-1.82144,1.81228 -4.00536,2.7185 -6.56079,2.7185h-7.63923c-0.13604,0 -0.24476,-0.04535 -0.34446,-0.1359c-0.09055,-0.0997 -0.1359,-0.20842 -0.1359,-0.34432c0,-0.13604 0.04535,-0.24476 0.1359,-0.33531c0.0997,-0.0997 0.20842,-0.14505 0.34446,-0.14505h7.63923c2.29264,0 4.25913,-0.81552 5.88116,-2.43769c1.62217,-1.62203 2.43769,-3.58852 2.43769,-5.88116c0,-2.29264 -0.81552,-4.25913 -2.43769,-5.8813c-1.62203,-1.62203 -3.58852,-2.43755 -5.88116,-2.43755h-7.15902v12.69572h2.99043v-9.22507c0,-0.1359 0.04535,-0.24461 0.13604,-0.34432c0.09956,-0.09055 0.20842,-0.1359 0.34432,-0.1359h3.68822c1.46797,0 2.7185,0.51655 3.76075,1.55866c1.04211,1.04211 1.56767,2.30165 1.56767,3.76976c0,1.46797 -0.52556,2.72765 -1.56767,3.76976c-1.04225,1.04211 -2.29278,1.55866 -3.76075,1.55866h-7.63923c-0.13604,0 -0.24476,-0.04535 -0.34446,-0.1359c-0.09055,-0.0997 -0.1359,-0.20842 -0.1359,-0.34432v-13.55673c0,0 0,-0.01817 0.00916,-0.04535c-0.00916,-0.02718 -0.00916,-0.04535 -0.00916,-0.04535c0,-0.1359 0.04535,-0.24461 0.1359,-0.34432zM228.88829,227.96636l0.00916,0.00901l1.44994,3.62485c0.06337,0.15406 0.05436,0.30813 -0.04535,0.44402c-0.0997,0.1359 -0.22659,0.20842 -0.39882,0.20842h-4.25899c-0.21758,0 -0.36249,-0.0997 -0.44417,-0.29897l-1.33207,-3.32574h-6.39771l-1.33207,3.32574c-0.08168,0.19927 -0.22659,0.29897 -0.44417,0.29897h-4.26814c-0.17223,0 -0.29897,-0.07253 -0.38966,-0.20842c-0.0997,-0.1359 -0.11773,-0.28996 -0.05436,-0.44402l7.06832,-17.60744c0.08154,-0.19941 0.22659,-0.29897 0.44402,-0.29897h4.34982c0.21743,0 0.36249,0.09956 0.44402,0.29897l3.96917,9.89568v-0.00229l0.00029,0.00157c0.00072,0.00472 0.00272,0.01888 0.00873,0.03691c0.00901,0.02732 0.01817,0.04535 0.01817,0.0545c0,0.00901 0,0.03619 0.00901,0.06337v0.03619c0,0.00916 0,0.03633 -0.00901,0.06351c-0.00916,0.02718 -0.00916,0.03619 0,0.02718c0,0 -0.00916,0.00901 -0.01817,0.03619c-0.02718,0.08154 -0.06337,0.15406 -0.11787,0.20842c-0.00901,0 -0.00901,0 -0.00901,0.00916l-0.06337,0.0452l-0.00916,0.00916l-0.07253,0.03619l0.00401,-0.00129c-0.00544,0.00243 -0.01287,0.00586 -0.02203,0.01044l-0.07253,0.01802h-0.04535c-0.02718,0.00916 -0.0452,0.00916 -0.0452,0.00916h-8.02904c-0.02718,0 -0.06337,0 -0.09055,-0.00916c-0.00901,0 -0.01817,0 -0.04535,-0.00901l-0.04535,-0.01817c-0.00901,-0.00901 -0.03619,-0.01802 -0.06337,-0.02718c-0.01359,-0.00901 -0.0226,-0.01588 -0.02718,-0.01917l-0.00343,-0.00243l0.00343,0.00343c0,0 -0.00901,-0.00901 -0.03619,-0.02718l-0.0319,-0.02375c0.00329,0.00086 -0.00129,-0.0093 -0.0226,-0.03061l-0.03619,-0.0452l-0.02718,-0.0545c-0.00901,-0.02718 -0.01817,-0.03619 -0.01817,-0.02718c0,0 0,-0.00901 -0.00901,-0.03619c-0.00901,-0.02718 -0.01817,-0.04535 -0.01817,-0.05436v-0.02718c-0.00901,-0.02718 -0.00901,-0.05436 -0.00901,-0.06351v-0.03619c0.00901,-0.02718 0.00901,-0.05436 0.00901,-0.06337c0,-0.00916 0.00916,-0.02718 0.01817,-0.0545c0.00601,-0.01802 0.00801,-0.03219 0.00873,-0.03691l0.00029,-0.00157v0.00229l1.88495,-4.69414c0.08154,-0.19927 0.22659,-0.29897 0.44402,-0.29897c0.20842,0 0.36249,0.0997 0.44402,0.29897l1.75807,4.39517h3.23505l-3.58852,-8.93511h-3.70639l-6.6695,16.63771h3.22603l1.34122,-3.32574c0.09956,-0.24461 0.27179,-0.33531 0.52556,-0.28996h11.21874c0.19025,-0.00901 0.33531,0.08154 0.41684,0.25377zM218.44431,224.41746c-0.00086,-0.00029 -0.00243,-0.00143 -0.00443,-0.00343zM245.13648,222.95508l6.91426,-8.48193c0.12688,-0.15406 0.14505,-0.32629 0.06351,-0.50754c-0.08168,-0.18124 -0.22659,-0.27179 -0.43501,-0.27179h-5.10197c-0.15406,0 -0.27179,0.05436 -0.3715,0.17209l-4.2228,5.21069l-4.23195,-5.21069c-0.0997,-0.11773 -0.21758,-0.17209 -0.37164,-0.17209h-5.10183c-0.19941,0 -0.34432,0.09055 -0.43501,0.27179c-0.08154,0.18124 -0.06337,0.35347 0.06351,0.50754l6.91426,8.48193l-6.91426,8.51826c-0.12688,0.15406 -0.14505,0.32629 -0.06351,0.50754c0.09069,0.18124 0.2356,0.27179 0.43501,0.27179h5.05663c0.15392,0 0.27179,-0.05436 0.3715,-0.17223l4.2773,-5.24688l4.26814,5.24688c0.08154,0.0997 0.19025,0.15406 0.32615,0.17223c0.13604,0.00916 0.25377,-0.02718 0.35347,-0.10872c0.0997,-0.08154 0.16308,-0.19025 0.17223,-0.31714c0.00901,-0.13604 -0.02718,-0.25377 -0.10886,-0.35347l-13.71065,-16.81895h3.86947l14.15481,17.41704c0.09956,0.11787 0.21743,0.18124 0.3715,0.18124c0.11773,0 0.21743,-0.03619 0.30813,-0.10872c0.0997,-0.08154 0.16308,-0.19025 0.17209,-0.31714c0.00916,-0.13604 -0.02718,-0.25377 -0.10872,-0.35347zM269.50411,213.82971c0.09069,-0.09069 0.19941,-0.1359 0.33531,-0.1359h7.29491c0.1359,0 0.24461,0.0452 0.33531,0.1359c0.0997,0.0997 0.14491,0.20842 0.14491,0.34432v3.95101c0,0.12688 -0.0452,0.2356 -0.14491,0.33531c-0.09069,0.09069 -0.19941,0.1359 -0.33531,0.1359h-6.81455v13.17622c0,0.1359 -0.04535,0.24461 -0.14505,0.34432c-0.09069,0.09055 -0.19941,0.1359 -0.33531,0.1359h-3.95101c-0.1359,0 -0.24476,-0.04535 -0.33531,-0.1359c-0.0997,-0.0997 -0.14505,-0.20842 -0.14505,-0.34432v-13.17622h-6.81455c-0.1359,0 -0.24461,-0.0452 -0.34432,-0.1359c-0.09069,-0.0997 -0.1359,-0.20842 -0.1359,-0.33531v-3.95101c0,-0.1359 0.0452,-0.24461 0.1359,-0.34432c0.0997,-0.09069 0.20842,-0.1359 0.34432,-0.1359h7.29491c0.1359,0 0.24461,0.0452 0.33531,0.1359c0.0997,0.0997 0.14491,0.20842 0.14491,0.34432v17.11807h2.99058v-17.11807c0,-0.1359 0.0452,-0.24461 0.14491,-0.34432zM290.83596,225.31123c1.37742,-0.24461 2.51923,-0.91523 3.4346,-1.99367c0.91523,-1.08746 1.37742,-2.347 1.37742,-3.76976c0,-1.61302 -0.57091,-2.99043 -1.71272,-4.14126c-1.15097,-1.14181 -2.52839,-1.71272 -4.1414,-1.71272h-8.78104c-0.1359,0 -0.24461,0.0452 -0.34432,0.1359c-0.09069,0.0997 -0.1359,0.20842 -0.1359,0.34432v6.83272c0,0.1359 0.0452,0.24476 0.1359,0.33531c0.0997,0.0997 0.20842,0.14505 0.34432,0.14505h8.77203c0.02718,0 0.06337,0 0.0997,-0.00916c0.50739,-0.02718 0.93339,-0.22645 1.28672,-0.59809c0.35347,-0.3715 0.53472,-0.80651 0.53472,-1.32306c0,-0.52556 -0.19025,-0.9786 -0.5619,-1.35925c-0.3715,-0.3715 -0.82453,-0.5619 -1.35925,-0.5619l-4.83905,-0.00901c-0.13604,0 -0.24476,0.04535 -0.33531,0.14505c-0.0997,0.09055 -0.14505,0.19927 -0.14505,0.33531v2.41953h-2.97227v-5.87215h8.30069c1.35024,0 2.51022,0.48021 3.46178,1.43177c0.96057,0.95142 1.44079,2.1114 1.44079,3.46164c0,1.35024 -0.48021,2.50106 -1.44079,3.46164c-0.95156,0.95156 -2.11154,1.43177 -3.46178,1.43177c-0.03619,0 -0.08154,0.00916 -0.12688,0.01817h-8.65416c-0.1359,0 -0.24461,0.04535 -0.34432,0.14505c-0.09069,0.09055 -0.1359,0.19927 -0.1359,0.33531v6.83272c0,0.1359 0.0452,0.24461 0.1359,0.34432c0.0997,0.09055 0.20842,0.1359 0.34432,0.1359h3.93298c0.1359,0 0.24461,-0.04535 0.33531,-0.1359c0.09956,-0.0997 0.14491,-0.20842 0.14491,-0.34432v-5.52783l4.35884,5.74526c0.0997,0.12688 0.22659,0.19025 0.38065,0.19025h4.96594c0.19927,0 0.34432,-0.09055 0.42586,-0.26278c0.09069,-0.18124 0.07253,-0.35333 -0.04535,-0.50739zM303.15131,232.11677c-0.0997,0.09055 -0.20842,0.1359 -0.33531,0.1359h-3.95101c-0.13604,0 -0.24476,-0.04535 -0.34446,-0.1359c-0.09055,-0.0997 -0.1359,-0.20842 -0.1359,-0.34432v-17.59842c0,-0.1359 0.04535,-0.24461 0.1359,-0.34432c0.0997,-0.09069 0.20842,-0.1359 0.34446,-0.1359c0.1359,0 0.24461,0.0452 0.33516,0.1359c0.0997,0.0997 0.14505,0.20842 0.14505,0.34432v17.11807h2.99043v-17.11807c0,-0.1359 0.04535,-0.24461 0.1359,-0.34432c0.0997,-0.09069 0.20842,-0.1359 0.34446,-0.1359c0.12688,0 0.2356,0.0452 0.33531,0.1359c0.09055,0.0997 0.1359,0.20842 0.1359,0.34432v17.59842c0,0.1359 -0.04535,0.24461 -0.1359,0.34432zM320.27839,232.25267c0.1359,0 0.24461,-0.04535 0.34432,-0.1359c0.09069,-0.0997 0.1359,-0.20842 0.1359,-0.34432v-4.30448c0,-0.1359 -0.0452,-0.24476 -0.1359,-0.34432c-0.0997,-0.09069 -0.20842,-0.13604 -0.34432,-0.13604h-5.42813c-1.10562,0 -2.04803,-0.38966 -2.83637,-1.17801c-0.78848,-0.78834 -1.17815,-1.73089 -1.17815,-2.83637c0,-1.10562 0.38966,-2.04803 1.17815,-2.83637c0.78834,-0.78848 1.73075,-1.17815 2.83637,-1.17815h5.42813c0.1359,0 0.24461,-0.0452 0.34432,-0.1359c0.09069,-0.0997 0.1359,-0.20842 0.1359,-0.34432c0,-0.1359 -0.0452,-0.24476 -0.1359,-0.33531c-0.0997,-0.0997 -0.20842,-0.14505 -0.34432,-0.14505h-5.42813c-1.3684,0 -2.54641,0.48937 -3.51599,1.45895c-0.96973,0.96973 -1.4591,2.14773 -1.4591,3.51614c0,1.3684 0.48937,2.54641 1.4591,3.51599c0.96958,0.96973 2.14759,1.45895 3.51599,1.45895h4.95692v3.34391h-4.56726c-2.29264,0 -4.25913,-0.81552 -5.88116,-2.43769c-1.62217,-1.62203 -2.43769,-3.58852 -2.43769,-5.88116c0,-2.29264 0.81552,-4.25913 2.43769,-5.8813c1.62203,-1.62203 3.58852,-2.43755 5.88116,-2.43755h5.03846c0.1359,0 0.24461,-0.04535 0.34432,-0.14505c0.09069,-0.09055 0.1359,-0.19941 0.1359,-0.33531c0,-0.1359 -0.0452,-0.24461 -0.1359,-0.34432c-0.0997,-0.09069 -0.20842,-0.1359 -0.34432,-0.1359h-5.03846c-2.55542,0 -4.73949,0.90607 -6.56093,2.7185c-1.81228,1.82144 -2.7185,4.00551 -2.7185,6.56093c0,2.55542 0.90621,4.73935 2.7185,6.56093c1.82144,1.81228 4.00551,2.7185 6.56093,2.7185zM334.8951,213.7662h5.58176c0.22745,0 0.37193,0.10886 0.45346,0.31728c0.07295,0.20842 0.02718,0.38966 -0.14448,0.52556l-9.33393,7.69359l9.07072,9.13452c0.15449,0.15406 0.18167,0.32615 0.10013,0.51655c-0.08154,0.19927 -0.22745,0.29897 -0.44488,0.29897h-5.50881c-0.1359,0 -0.24461,-0.04535 -0.33616,-0.1359l-5.90791,-5.8268v5.48248c0,0.1359 -0.04578,0.24461 -0.1359,0.34432c-0.10013,0.09055 -0.20885,0.1359 -0.33473,0.1359h-3.95101c-0.1359,0 -0.24461,-0.04535 -0.34475,-0.1359c-0.09012,-0.0997 -0.1359,-0.20842 -0.1359,-0.34432v-3.96917c0,-0.01817 0,-0.03633 0.00858,-0.05436c0,-0.01817 0,-0.03633 0.01001,-0.04535c0,-0.00901 0,-0.02718 0.00858,-0.04535l0.0186,-0.03619l0.02718,-0.04535l0.01717,-0.03619l0.03719,-0.03633l0.03576,-0.03619c0.01574,-0.01516 0.01717,-0.02403 0.01287,-0.02117l15.4464,-12.72905h-4.07689l-10.75011,8.7593c-0.00286,0.00014 -0.0143,0.00687 -0.03433,0.02174l-0.03576,0.02718l-0.04578,0.02718c-0.00858,0.00916 -0.02718,0.00916 -0.04578,0.01817c-0.00858,0.00901 -0.02718,0.00901 -0.04435,0.00901c-0.01001,0.00916 -0.0186,0.00916 -0.03719,0.00916c-0.01717,0.00901 -0.03576,0.00901 -0.05436,0.00901h-0.04435c-0.01001,-0.00901 -0.02718,-0.00901 -0.04578,-0.00901c-0.0186,0 -0.03576,0 -0.04578,-0.00916c-0.00858,-0.00901 -0.02718,-0.00901 -0.04435,-0.00901c-0.0186,-0.00901 -0.03719,-0.00901 -0.04578,-0.01817l-0.03576,-0.02718l-0.04578,-0.02718l-0.02718,-0.02718c-0.0186,-0.00901 -0.02718,-0.02718 -0.03576,-0.03619l-0.0186,-0.01817c0.00858,0.00901 0,0.00901 -0.00858,-0.00901l-0.02718,-0.04535l-0.02718,-0.04535l-0.0186,-0.03619c-0.00858,-0.01817 -0.00858,-0.03633 -0.00858,-0.04535c-0.01001,-0.00901 -0.01001,-0.02718 -0.01001,-0.04535c-0.00858,-0.01802 -0.00858,-0.03619 -0.00858,-0.05436v-8.96229c0,-0.1359 0.04578,-0.24461 0.1359,-0.34432c0.10013,-0.09069 0.20885,-0.1359 0.34475,-0.1359h3.95101c0.12588,0 0.2346,0.0452 0.33473,0.1359c0.09012,0.0997 0.1359,0.20842 0.1359,0.34432v4.72132l6.16254,-5.02029c0.09012,-0.07253 0.19025,-0.10886 0.30755,-0.10886zM324.31808,223.47706c0.00143,0 -0.00429,0.00458 -0.01574,0.01273zM347.49197,219.53879c-0.27179,-0.15406 -0.38051,-0.35347 -0.31757,-0.58006c0.06294,-0.2356 0.2532,-0.35333 0.58936,-0.35333h6.97792c0.1359,0 0.24461,-0.04535 0.33473,-0.14505c0.10013,-0.09055 0.14448,-0.19941 0.14448,-0.33531l-0.00858,-3.95101c0,-0.1359 -0.04578,-0.24461 -0.14448,-0.34432c-0.09155,-0.09069 -0.20027,-0.1359 -0.33616,-0.1359c0,0 -0.01717,0 -0.04435,0.00901v-0.00901h-6.52588c-1.52204,0 -2.7637,0.36249 -3.72356,1.08746c-1.15154,0.86988 -1.81243,2.00268 -1.96692,3.38911c-0.10872,0.93339 0.0186,1.83045 0.39052,2.70047c0.3705,0.86087 0.91408,1.54965 1.63934,2.0662c0.77962,0.55274 2.67358,1.48613 5.68189,2.78201l0.49924,0.22645c0.66947,0.28095 0.95127,0.59809 0.85114,0.93339c-0.06294,0.19941 -0.14448,0.33531 -0.2532,0.39882c-0.18167,0.11773 -0.50782,0.17209 -0.96987,0.17209h-0.03719c-0.3705,-0.00901 -2.80805,-0.00901 -7.31265,-0.00901c-0.1359,0 -0.24461,0.04535 -0.33473,0.1359c-0.10013,0.0997 -0.14591,0.20842 -0.14591,0.34432c0,0.12688 0.04578,0.2356 0.14591,0.33531c0.09012,0.09069 0.19884,0.1359 0.33473,0.1359c4.49459,0 6.92356,0.00916 7.29548,0.01817h0.05436c0.62512,0 1.09575,-0.0997 1.43192,-0.29897c0.33473,-0.1904 0.57076,-0.50754 0.70666,-0.95156c0.12731,-0.40783 0.06294,-0.80651 -0.18167,-1.17801c-0.24461,-0.37164 -0.64372,-0.67061 -1.20447,-0.91523l-0.49924,-0.22659c-2.94537,-1.2687 -4.77497,-2.1659 -5.50881,-2.68231c-0.58936,-0.41699 -1.02423,-0.97874 -1.3232,-1.67653c-0.29897,-0.7068 -0.39911,-1.44093 -0.30899,-2.20209c0.12731,-1.11464 0.66232,-2.02986 1.59499,-2.73666c0.7882,-0.58907 1.83102,-0.88805 3.14421,-0.88805h6.08958l0.01001,2.99043h-6.49727c-0.37193,0 -0.69808,0.0997 -0.97845,0.28996c-0.27322,0.19025 -0.45346,0.45304 -0.535,0.77933c-0.09155,0.31714 -0.06437,0.63428 0.08154,0.93339c0.1359,0.29897 0.37193,0.54373 0.68806,0.72497c0.24461,0.1359 2.12141,0.95142 5.63755,2.4467c0.61654,0.26278 1.16871,0.65245 1.65793,1.16899c0.89692,0.95156 1.25883,2.09337 1.06857,3.41643c-0.17166,1.25053 -0.81538,2.22913 -1.91113,2.94509c-0.96129,0.62527 -2.06705,0.9424 -3.3173,0.9424h-7.19535c-0.1359,0 -0.24461,0.04535 -0.33473,0.14505c-0.10013,0.09055 -0.14591,0.19927 -0.14591,0.33531c0,0.1359 0.04578,0.24461 0.14591,0.34432c0.09012,0.09055 0.19884,0.1359 0.33473,0.1359h7.19535c1.47769,0 2.7823,-0.38051 3.91524,-1.14181c1.29602,-0.86988 2.05704,-2.05704 2.26589,-3.57035c0.19025,-1.39558 -0.12731,-2.64611 -0.9527,-3.74258c-0.62512,-0.84284 -1.41332,-1.4591 -2.346,-1.85777c-3.4532,-1.47712 -5.30138,-2.27447 -5.546,-2.40136zM246.80385,214.65439h3.86947l-6.1531,7.54854l-1.92114,-2.37418zM265.40805,214.65439h-6.3342v2.99043h6.3342zM270.31977,217.64482h6.3342v-2.99043h-6.3342zM327.47374,219.67468v-5.02029h-2.99115v7.45799zM285.426,218.58723l4.35884,0.00901c0.26278,0 0.48937,0.09069 0.67962,0.28095c0.19025,0.19025 0.28095,0.41684 0.28095,0.67962c0,0.26278 -0.09069,0.48937 -0.28095,0.67977c-0.19025,0.19025 -0.41684,0.2808 -0.67962,0.2808l-0.04535,0.00916h-4.31349zM201.72964,218.59624h-3.21702v8.75387h3.21702c1.20519,0 2.22927,-0.42586 3.09014,-1.28672c0.85186,-0.85186 1.27771,-1.88495 1.27771,-3.09014c0,-1.20519 -0.42586,-2.23828 -1.27771,-3.09014c-0.86087,-0.86087 -1.88495,-1.28687 -3.09014,-1.28687zM221.84715,223.5895l-1.17801,-2.93607l-1.17801,2.93607zM334.86792,231.2921h4.16844l-8.3283,-8.37321l-2.36459,1.93917zM237.10758,231.2921h-3.82412l6.1531,-7.57572l1.93016,2.35601zM281.49316,225.41995h2.97227v5.87215h-2.97227zM290.4101,231.21957l-4.40418,-5.79962h3.72456c0.00901,0.03633 0.02718,0.06351 0.05436,0.09069l4.37686,5.70893zM324.48259,228.0479v3.2442h2.99115v-5.70907zM224.89208,228.62796l1.06929,2.66414h3.23505l-1.06929,-2.66414zM248.70154,237.53617c-0.16951,-0.1173 -0.41713,-0.06509 -0.53457,0.09127l-2.84195,3.81983l-2.84195,-3.81983c-0.13032,-0.16937 -0.37808,-0.20857 -0.53457,-0.09127c-0.18239,0.14348 -0.22158,0.3911 -0.0781,0.54759v-0.01302l3.1548,4.23682v-0.02603c0,0.0392 0.02603,0.07825 0.03905,0.09127c0.05221,0.0392 0.09127,0.06523 0.11744,0.06523c0.01302,0.01302 0.05207,0.02603 0.0781,0.02603h0.14348l0.05207,-0.02603c0.05221,0 0.07825,-0.02603 0.10443,-0.05221c0.01302,-0.01302 0.03905,-0.03905 0.05207,-0.06509l3.16796,-4.24998c0.10428,-0.1565 0.09127,-0.40411 -0.07825,-0.53457zM333.18567,242.30756l-3.15565,-4.23682v0.01302c-0.14305,-0.1565 -0.10443,-0.40411 0.07868,-0.54759c0.15592,-0.1173 0.40483,-0.0781 0.535,0.09127l2.84095,3.81983l2.84238,-3.81983c0.1173,-0.15635 0.36477,-0.20857 0.535,-0.09127c0.1688,0.13046 0.18167,0.37808 0.07725,0.53457l-3.1671,4.24998c-0.01287,0.02603 -0.03862,0.05207 -0.05293,0.06509c-0.02575,0.02618 -0.0515,0.05221 -0.103,0.05221l-0.05293,0.02603h-0.14305c-0.02575,0 -0.0658,-0.01302 -0.07868,-0.02603c-0.02575,0 -0.06437,-0.02603 -0.1173,-0.06523c-0.01287,-0.01302 -0.03862,-0.05207 -0.03862,-0.09127zM213.37881,237.74488h2.78988c1.38185,0 2.48991,1.12107 2.48991,2.51594c0,1.38199 -1.10806,2.49005 -2.48991,2.49005h-1.36883c-0.22173,0 -0.3911,-0.16951 -0.3911,-0.3911c0,-0.19555 0.16937,-0.37808 0.3911,-0.37808h1.36883c0.95156,0 1.73375,-0.76917 1.73375,-1.72088c0,-0.96472 -0.78219,-1.74691 -1.73375,-1.74691h-2.4118v8.68248c0,0.20857 -0.18253,0.37808 -0.37808,0.37808c-0.22158,0 -0.3911,-0.16951 -0.3911,-0.37808v-9.06042c0,-0.20871 0.16951,-0.3911 0.3911,-0.3911zM261.75559,247.431l-4.39345,-8.89091c-0.0781,-0.18253 0,-0.40411 0.16951,-0.50854c0.18253,-0.09127 0.41713,-0.01302 0.5084,0.18253l4.13268,8.33044c1.04297,-1.05599 1.94246,-1.99453 2.98543,-3.05051l-0.97788,-0.97774v0.01302c-0.15635,-0.14348 -0.15635,-0.3911 0,-0.54759l1.26455,-1.25153c0.14348,-0.13032 0.37808,-0.13032 0.53457,0l1.25153,1.25153c0.15635,0.1565 0.15635,0.40411 0,0.54759v-0.01302l-0.97774,0.97774c1.01679,1.02981 1.95548,2.00755 2.98543,3.05051l4.13253,-8.33044c0.10428,-0.19555 0.32586,-0.2738 0.5084,-0.18253c0.18253,0.10443 0.24776,0.32601 0.18253,0.50854l-4.38029,8.81266c-0.03905,0.09127 -0.13032,0.18253 -0.2346,0.20857c-0.02618,0.01316 -0.06523,0.01316 -0.09127,0.01316c-0.1173,0 -0.20857,-0.0392 -0.28681,-0.11744l-3.3635,-3.44161l-3.36336,3.44161c-0.07825,0.07825 -0.16951,0.11744 -0.28681,0.11744c-0.02618,0 -0.0392,0 -0.06523,-0.01316c-0.10428,-0.01302 -0.19555,-0.06509 -0.2346,-0.13032zM308.32009,247.1964c0,0.20857 -0.18239,0.37808 -0.37793,0.37808c-0.22173,0 -0.3911,-0.16951 -0.3911,-0.37808v-8.76059c0,-0.22173 0.15635,-0.37808 0.3911,-0.37808h2.93321l0.40411,0.02603l0.44316,0.05221l0.45633,0.10428l0.37808,0.1173l0.48236,0.2346l0.40411,0.22173c0,0 0.05221,0.02603 0.06523,0.05207c0.10428,0.07825 0.22158,0.18253 0.33888,0.26078l0.37808,0.33888l0.33903,0.36506l0.27365,0.40411l0.24776,0.41713l0.16951,0.35204l0.19555,0.53457l0.09127,0.3911l0.06509,0.44316l0.01316,0.43029l-0.01316,0.43015l-0.05207,0.46934l-0.1173,0.41713l-0.13046,0.36506l-0.2346,0.56061l-0.24776,0.3911l-0.27365,0.37793l-0.33903,0.37808l-0.3911,0.32601l-0.37808,0.29983l-0.37808,0.22158l-0.52141,0.22158l-0.36506,0.11744l-0.41713,0.1173l-0.46934,0.05207l-0.41713,0.02618l-0.67791,-0.01316c-0.20857,0 -0.37808,-0.16937 -0.37808,-0.37793c0,-0.19555 0.16951,-0.36506 0.37808,-0.36506h0.65173l0.39124,-0.02603h-0.01316l0.37808,-0.05221h-0.01302l0.36506,-0.09127l0.3911,-0.13032l-0.01302,0.01302l0.3519,-0.18253h-0.01302l0.37808,-0.19555l-0.01302,0.01302c0.10428,-0.07825 0.22158,-0.18253 0.33903,-0.26078h-0.01316l0.31299,-0.28667c0.0781,-0.09127 0.20857,-0.20871 0.28681,-0.29997v0.01316l0.2346,-0.33903l-0.01302,0.01302l0.22158,-0.36506v0.01316c0.05221,-0.13046 0.13032,-0.26078 0.18253,-0.37808l-0.01302,0.01302l0.1173,-0.3911l0.09127,-0.36506v0.01302l0.05207,-0.37808c0.001,-0.11473 0.01316,-0.25191 0.01316,-0.36492l-0.02618,-0.36506v0.01302l-0.05207,-0.3911v0.01302l-0.07825,-0.36506l-0.13032,-0.3911l0.01302,0.01302l-0.16951,-0.36492v0.01302l-0.22158,-0.35204l0.01302,0.01302l-0.2346,-0.3519v0.01302l-0.29997,-0.31285l-0.29983,-0.26078h0.01316c-0.11744,-0.07825 -0.23474,-0.18253 -0.33903,-0.26078l0.01302,0.01302l-0.37808,-0.20857h0.01302c-0.1173,-0.03905 -0.24762,-0.1173 -0.37793,-0.16951l0.01302,0.01316c-0.13046,-0.0392 -0.24776,-0.10428 -0.37808,-0.14348h0.01302l-0.3911,-0.07825c-0.1173,-0.01302 -0.24776,-0.05207 -0.36506,-0.06509c-0.1173,0 -0.24762,-0.01302 -0.35204,-0.01302h-2.5291zM227.27799,246.81832h-4.91472v-8.36949c0,-0.20857 -0.18253,-0.37808 -0.37808,-0.37808c-0.22173,0 -0.3911,0.16951 -0.3911,0.37808v8.74757c0,0.20857 0.16937,0.37808 0.3911,0.37808h5.2928c0.20857,0 0.37808,-0.16951 0.37808,-0.37808c0,-0.20857 -0.16951,-0.37808 -0.37808,-0.37808zM231.02172,247.57447c-0.06523,0 -0.1173,-0.01316 -0.1565,-0.0392c-0.19555,-0.07825 -0.2738,-0.2738 -0.18253,-0.5084l4.38029,-8.76059c0.06523,-0.1173 0.22173,-0.19555 0.33903,-0.19555c0.14333,0 0.2738,0.09127 0.33888,0.19555c1.44708,2.88114 2.93336,5.89246 4.38029,8.76059c0.10428,0.2346 0,0.43015 -0.16937,0.5084c-0.16951,0.09127 -0.40411,0 -0.50854,-0.18253l-4.04127,-8.05665l-4.00222,8.03061c-0.11744,0.16951 -0.23474,0.24776 -0.37808,0.24776zM277.87103,246.81832h-0.24776c-0.22158,0 -0.37808,0.16951 -0.37808,0.37808c0,0.20857 0.1565,0.37808 0.37808,0.37808h1.27757c0.20857,0 0.37808,-0.16951 0.37808,-0.37808c0,-0.20857 -0.16951,-0.37808 -0.37808,-0.37808h-0.26078v-7.99142h0.26078c0.20857,0 0.37808,-0.1565 0.37808,-0.37808c0,-0.20857 -0.16951,-0.37808 -0.37808,-0.37808h-1.27757c-0.22158,0 -0.37808,0.16951 -0.37808,0.37808c0,0.22158 0.1565,0.37808 0.37808,0.37808h0.24776zM282.54028,238.07075h3.40256c0.19555,0 0.37808,0.16951 0.37808,0.37808v8.74757c0,0.20857 -0.18253,0.37808 -0.37808,0.37808c-0.22173,0 -0.37808,-0.16951 -0.37808,-0.37808v-8.36949h-3.02448c-0.20857,0 -0.37808,-0.1565 -0.37808,-0.37808c0,-0.20857 0.16951,-0.37808 0.37808,-0.37808zM286.85534,238.07075h2.47703c0.20857,0 0.37793,0.16951 0.37793,0.37808c0,0.22158 -0.16937,0.37808 -0.37793,0.37808h-2.47703c-0.22158,0 -0.37808,-0.1565 -0.37808,-0.37808c0,-0.20857 0.1565,-0.37808 0.37808,-0.37808zM297.6518,242.67262h-4.19776v-4.2238c0,-0.20857 -0.16951,-0.37808 -0.37808,-0.37808c-0.22158,0 -0.37808,0.16951 -0.37808,0.37808v8.74757c0,0.20857 0.1565,0.37808 0.37808,0.37808c0.20857,0 0.37808,-0.16951 0.37808,-0.37808v-3.76762h4.19776c0.19555,0 0.37808,-0.1565 0.37808,-0.37808c0,-0.20857 -0.18253,-0.37808 -0.37808,-0.37808zM298.79905,238.07075c-0.22158,0 -0.3911,0.16951 -0.3911,0.37808v8.74757c0,0.20857 0.16951,0.37808 0.3911,0.37808c0.19555,0 0.37808,-0.16951 0.37808,-0.37808v-8.74757c0,-0.20857 -0.18253,-0.37808 -0.37808,-0.37808zM317.61739,247.53528c0.0392,0.02603 0.09127,0.0392 0.1565,0.0392c0.14333,0 0.26078,-0.07825 0.37808,-0.24776l4.00179,-8.03061l4.04113,8.05665c0.10443,0.18253 0.33903,0.2738 0.50925,0.18253c0.1688,-0.07825 0.27322,-0.2738 0.1688,-0.5084c-1.44622,-2.86813 -2.9325,-5.87944 -4.38015,-8.76059c-0.06437,-0.10428 -0.19455,-0.19555 -0.33903,-0.19555c-0.1173,0 -0.27337,0.07825 -0.3386,0.19555l-4.38029,8.76059c-0.09127,0.2346 -0.01302,0.43015 0.18253,0.5084zM265.70559,241.53853l-0.71696,0.71696l0.71696,0.71696l0.73012,-0.71696zM245.32502,242.56834c-0.22158,0 -0.37808,0.18253 -0.37808,0.37808v4.24998c0,0.20857 0.1565,0.37808 0.37808,0.37808c0.20857,0 0.37808,-0.16951 0.37808,-0.37808v-4.24998c0,-0.19555 -0.16951,-0.37808 -0.37808,-0.37808zM333.78504,242.72484l3.15422,4.23682c0.1173,0.18253 0.09155,0.40426 -0.07725,0.53457c-0.07868,0.03905 -0.14448,0.07825 -0.22173,0.07825c-0.10443,0 -0.2346,-0.05221 -0.31328,-0.1565l-2.84238,-3.8327l-2.84095,3.8327c-0.07868,0.10428 -0.20885,0.1565 -0.31328,0.1565c-0.07868,0 -0.14305,-0.0392 -0.22173,-0.07825c-0.1688,-0.14348 -0.19598,-0.36506 -0.07868,-0.53457l3.16424,-4.2434c0.0143,-0.02947 0.04148,-0.05479 0.09584,-0.0977c0.01287,-0.01302 0.03862,-0.01302 0.06437,-0.02618c0.02575,-0.01302 0.05293,-0.02603 0.10443,-0.02603h0.05293c0,0 0.02575,0 0.0515,0.01302c0.02575,0 0.05293,0.01302 0.1173,0.0392l0.03862,0.02603z"
                    data-paper-data="{&quot;isBaseLogoContainer&quot;:true}"></path>
            </g>
        </g>
    </g>
</svg>