<svg version="1.1" xmlns="http://www.w3.org/2000/svg" xmlns:xlink="http://www.w3.org/1999/xlink" viewBox="0 0 550 470">
    <g fill="#00594c" fill-rule="none" stroke="none" stroke-width="1" stroke-linecap="butt" stroke-linejoin="miter"
        stroke-miterlimit="10" stroke-dasharray="" stroke-dashoffset="0" font-family="none" font-weight="none"
        font-size="none" text-anchor="none" style="mix-blend-mode: normal">
        <g
            data-paper-data="{&quot;isGlobalGroup&quot;:true,&quot;bounds&quot;:{&quot;x&quot;:130.4907908352489,&quot;y&quot;:115.00000000000003,&quot;width&quot;:289.0184183295022,&quot;height&quot;:239.99999999999997}}">
            <g data-paper-data="{&quot;textHeightFactor&quot;:0.4919334137668266,&quot;isSecondaryText&quot;:true}"
                fill-rule="nonzero">
                <path
                    d="M152.43818,292.70489h-2.83045c-0.22485,0 -0.39679,0.18517 -0.39679,0.39679v9.19234c0,0.21162 0.17194,0.38357 0.39679,0.38357c0.1984,0 0.38357,-0.17194 0.38357,-0.38357v-8.80878h2.44688c0.96553,0 1.75911,0.79358 1.75911,1.77234c0,0.96553 -0.79358,1.74588 -1.75911,1.74588h-1.38877c-0.22485,0 -0.39679,0.18517 -0.39679,0.38357c0,0.22485 0.17194,0.39679 0.39679,0.39679h1.38877c1.402,0 2.52624,-1.12424 2.52624,-2.52624c0,-1.41522 -1.12424,-2.55269 -2.52624,-2.55269z"
                    data-paper-data="{&quot;glyphName&quot;:&quot;P&quot;,&quot;glyphIndex&quot;:0,&quot;firstGlyphOfWord&quot;:true,&quot;word&quot;:1}">
                </path>
                <path
                    d="M171.30966,301.91046h-4.98635v-8.49134c0,-0.21162 -0.18517,-0.38357 -0.38357,-0.38357c-0.22485,0 -0.39679,0.17194 -0.39679,0.38357v8.87491c0,0.21162 0.17194,0.38357 0.39679,0.38357h5.36992c0.21162,0 0.38357,-0.17194 0.38357,-0.38357c0,-0.21162 -0.17194,-0.38357 -0.38357,-0.38357z"
                    data-paper-data="{&quot;glyphName&quot;:&quot;L&quot;,&quot;glyphIndex&quot;:1,&quot;word&quot;:1}">
                </path>
                <path
                    d="M183.76034,302.63791c0.03968,0.02645 0.09258,0.03968 0.15872,0.03968c0.14549,0 0.26453,-0.07936 0.38357,-0.2513l4.0605,-8.14746l4.10018,8.17391c0.10581,0.18517 0.34389,0.27775 0.51583,0.18517c0.17194,-0.07936 0.27775,-0.27775 0.17194,-0.51583c-1.46813,-2.90981 -2.97594,-5.9651 -4.44407,-8.88814c-0.06613,-0.10581 -0.1984,-0.1984 -0.34389,-0.1984c-0.11904,0 -0.27775,0.07936 -0.34389,0.1984l-4.44407,8.88814c-0.09258,0.23808 -0.01323,0.43647 0.18517,0.51583z"
                    data-paper-data="{&quot;glyphName&quot;:&quot;A&quot;,&quot;glyphIndex&quot;:2,&quot;word&quot;:1}">
                </path>
                <path
                    d="M210.13585,292.49327c-0.17194,-0.11904 -0.42324,-0.06613 -0.54228,0.09258l-2.88335,3.87533l-2.88335,-3.87533c-0.13226,-0.17194 -0.38357,-0.21162 -0.54228,-0.09258c-0.18517,0.14549 -0.22485,0.39679 -0.07936,0.55551v-0.01323l3.20079,4.29858v-0.02645c0,0.03968 0.02645,0.07936 0.03968,0.09258c0.05291,0.03968 0.09258,0.06613 0.11904,0.06613c0.01323,0.01323 0.05291,0.02645 0.07936,0.02645h0.14549l0.05291,-0.02645c0.05291,0 0.07936,-0.02645 0.10581,-0.05291c0.01323,-0.01323 0.03968,-0.03968 0.05291,-0.06613l3.21401,-4.3118c0.10581,-0.15872 0.09258,-0.41002 -0.07936,-0.54228zM206.71022,297.59865c-0.22485,0 -0.38357,0.18517 -0.38357,0.38357v4.3118c0,0.21162 0.15872,0.38357 0.38357,0.38357c0.21162,0 0.38357,-0.17194 0.38357,-0.38357v-4.3118c0,-0.1984 -0.17194,-0.38357 -0.38357,-0.38357z"
                    data-paper-data="{&quot;glyphName&quot;:&quot;Y&quot;,&quot;glyphIndex&quot;:3,&quot;lastGlyphOfWord&quot;:true,&quot;word&quot;:1}">
                </path>
                <path
                    d="M235.83263,293.5117l4.45729,9.0204c0.03968,0.06613 0.13226,0.11904 0.23808,0.13226c0.02645,0.01323 0.03968,0.01323 0.06613,0.01323c0.11904,0 0.21162,-0.03968 0.29098,-0.11904l3.41241,-3.49177l3.41241,3.49177c0.07936,0.07936 0.17194,0.11904 0.29098,0.11904c0.02645,0 0.06613,0 0.09258,-0.01323c0.10581,-0.02645 0.1984,-0.11904 0.23808,-0.21162l4.44407,-8.94104c0.06613,-0.18517 0,-0.41002 -0.18517,-0.51583c-0.18517,-0.09258 -0.41002,-0.01323 -0.51583,0.18517l-4.19277,8.45166c-1.04488,-1.05811 -1.99719,-2.05009 -3.02884,-3.09498l0.99198,-0.99198v0.01323c0.15872,-0.14549 0.15872,-0.39679 0,-0.55551l-1.26973,-1.26973c-0.15872,-0.13226 -0.39679,-0.13226 -0.54228,0l-1.28296,1.26973c-0.15872,0.15872 -0.15872,0.41002 0,0.55551v-0.01323l0.99198,0.99198c-1.05811,1.07134 -1.97073,2.02364 -3.02884,3.09498l-4.19277,-8.45166c-0.09258,-0.1984 -0.33066,-0.27775 -0.51583,-0.18517c-0.17194,0.10581 -0.2513,0.33066 -0.17194,0.51583zM243.57007,297.28122l0.72745,-0.72745l0.74068,0.72745l-0.74068,0.72745z"
                    data-paper-data="{&quot;glyphName&quot;:&quot;W&quot;,&quot;glyphIndex&quot;:4,&quot;firstGlyphOfWord&quot;:true,&quot;word&quot;:2}">
                </path>
                <path
                    d="M266.53768,301.91046h-0.2513c-0.22485,0 -0.38357,0.17194 -0.38357,0.38357c0,0.21162 0.15872,0.38357 0.38357,0.38357h1.29619c0.21162,0 0.38357,-0.17194 0.38357,-0.38357c0,-0.21162 -0.17194,-0.38357 -0.38357,-0.38357h-0.26453v-8.10778h0.26453c0.21162,0 0.38357,-0.15872 0.38357,-0.38357c0,-0.21162 -0.17194,-0.38357 -0.38357,-0.38357h-1.29619c-0.22485,0 -0.38357,0.17194 -0.38357,0.38357c0,0.22485 0.15872,0.38357 0.38357,0.38357h0.2513z"
                    data-paper-data="{&quot;glyphName&quot;:&quot;I&quot;,&quot;glyphIndex&quot;:5,&quot;word&quot;:2}">
                </path>
                <path
                    d="M281.63675,293.03555h-3.45209c-0.21162,0 -0.38357,0.17194 -0.38357,0.38357c0,0.22485 0.17194,0.38357 0.38357,0.38357h3.06852v8.49134c0,0.21162 0.15872,0.38357 0.38357,0.38357c0.1984,0 0.38357,-0.17194 0.38357,-0.38357v-8.87491c0,-0.21162 -0.18517,-0.38357 -0.38357,-0.38357zM285.07562,293.03555h-2.51301c-0.22485,0 -0.38357,0.17194 -0.38357,0.38357c0,0.22485 0.15872,0.38357 0.38357,0.38357h2.51301c0.21162,0 0.38357,-0.15872 0.38357,-0.38357c0,-0.21162 -0.17194,-0.38357 -0.38357,-0.38357z"
                    data-paper-data="{&quot;glyphName&quot;:&quot;T&quot;,&quot;glyphIndex&quot;:6,&quot;word&quot;:2}">
                </path>
                <path
                    d="M301.85124,297.70447h-4.2589v-4.28535c0,-0.21162 -0.17194,-0.38357 -0.38357,-0.38357c-0.22485,0 -0.38357,0.17194 -0.38357,0.38357v8.87491c0,0.21162 0.15872,0.38357 0.38357,0.38357c0.21162,0 0.38357,-0.17194 0.38357,-0.38357v-3.82243h4.2589c0.1984,0 0.38357,-0.15872 0.38357,-0.38357c0,-0.21162 -0.18517,-0.38357 -0.38357,-0.38357zM303.01516,293.03555c-0.22485,0 -0.39679,0.17194 -0.39679,0.38357v8.87491c0,0.21162 0.17194,0.38357 0.39679,0.38357c0.1984,0 0.38357,-0.17194 0.38357,-0.38357v-8.87491c0,-0.21162 -0.18517,-0.38357 -0.38357,-0.38357z"
                    data-paper-data="{&quot;glyphName&quot;:&quot;H&quot;,&quot;glyphIndex&quot;:7,&quot;lastGlyphOfWord&quot;:true,&quot;word&quot;:2}">
                </path>
                <path
                    d="M326.29437,302.67759c0.1984,0 0.38357,-0.17194 0.38357,-0.38357v-8.50457h2.56592c0.10581,0 0.23808,0.01323 0.35711,0.01323c0.11904,0.01323 0.2513,0.05291 0.37034,0.06613l0.39679,0.07936h-0.01323c0.13226,0.03968 0.2513,0.10581 0.38357,0.14549l-0.01323,-0.01323c0.13226,0.05291 0.26453,0.13226 0.38357,0.17194h-0.01323l0.38357,0.21162l-0.01323,-0.01323c0.10581,0.07936 0.22485,0.18517 0.34389,0.26453h-0.01323l0.30421,0.26453l0.30421,0.31743v-0.01323l0.23808,0.35711l-0.01323,-0.01323l0.22485,0.35711v-0.01323l0.17194,0.37034l-0.01323,-0.01323l0.13226,0.39679l0.07936,0.37034v-0.01323l0.05291,0.39679v-0.01323l0.02645,0.37034c0,0.11904 -0.01323,0.26453 -0.01323,0.38357v-0.01323l-0.05291,0.38357v-0.01323l-0.09258,0.37034l-0.11904,0.39679l0.01323,-0.01323c-0.05291,0.11904 -0.13226,0.2513 -0.18517,0.38357v-0.01323l-0.22485,0.37034l0.01323,-0.01323l-0.23808,0.34389v-0.01323c-0.07936,0.09258 -0.21162,0.21162 -0.29098,0.30421l-0.31743,0.29098h0.01323c-0.11904,0.07936 -0.23808,0.18517 -0.34389,0.26453l0.01323,-0.01323l-0.38357,0.1984h0.01323l-0.35711,0.18517l0.01323,-0.01323l-0.39679,0.13226l-0.37034,0.09258h0.01323l-0.38357,0.05291h0.01323l-0.39679,0.02645h-0.66132c-0.21162,0 -0.38357,0.17194 -0.38357,0.37034c0,0.21162 0.17194,0.38357 0.38357,0.38357l0.68777,0.01323l0.42324,-0.02645l0.47615,-0.05291l0.42324,-0.11904l0.37034,-0.11904l0.52906,-0.22485l0.38357,-0.22485l0.38357,-0.30421l0.39679,-0.33066l0.34389,-0.38357l0.27775,-0.38357l0.2513,-0.39679l0.23808,-0.56873l0.13226,-0.37034l0.11904,-0.42324l0.05291,-0.47615l0.01323,-0.43647l-0.01323,-0.43647l-0.06613,-0.4497l-0.09258,-0.39679l-0.1984,-0.54228l-0.17194,-0.35711l-0.2513,-0.42324l-0.27775,-0.41002l-0.34389,-0.37034l-0.38357,-0.34389c-0.11904,-0.07936 -0.23808,-0.18517 -0.34389,-0.26453c-0.01323,-0.02645 -0.06613,-0.05291 -0.06613,-0.05291l-0.41002,-0.22485l-0.48938,-0.23808l-0.38357,-0.11904l-0.46292,-0.10581l-0.4497,-0.05291l-0.41002,-0.02645h-2.97594c-0.23808,0 -0.39679,0.15872 -0.39679,0.38357v8.88814c0,0.21162 0.17194,0.38357 0.39679,0.38357z"
                    data-paper-data="{&quot;glyphName&quot;:&quot;D&quot;,&quot;glyphIndex&quot;:8,&quot;firstGlyphOfWord&quot;:true,&quot;word&quot;:3}">
                </path>
                <path
                    d="M344.79402,302.63791c0.03968,0.02645 0.09258,0.03968 0.15872,0.03968c0.14549,0 0.26453,-0.07936 0.38357,-0.2513l4.0605,-8.14746l4.10018,8.17391c0.10581,0.18517 0.34389,0.27775 0.51583,0.18517c0.17194,-0.07936 0.27775,-0.27775 0.17194,-0.51583c-1.46813,-2.90981 -2.97594,-5.9651 -4.44407,-8.88814c-0.06613,-0.10581 -0.1984,-0.1984 -0.34389,-0.1984c-0.11904,0 -0.27775,0.07936 -0.34389,0.1984l-4.44407,8.88814c-0.09258,0.23808 -0.01323,0.43647 0.18517,0.51583z"
                    data-paper-data="{&quot;glyphName&quot;:&quot;A&quot;,&quot;glyphIndex&quot;:9,&quot;word&quot;:3}">
                </path>
                <path
                    d="M366.5314,293.03555l3.20079,4.29858v-0.02645c0,0.03968 0.02645,0.07936 0.03968,0.09258c0.05291,0.03968 0.09258,0.06613 0.11904,0.06613c0.01323,0.01323 0.05291,0.02645 0.07936,0.02645h0.14549l0.05291,-0.02645c0.05291,0 0.07936,-0.02645 0.10581,-0.05291c0.01323,-0.01323 0.03968,-0.03968 0.05291,-0.06613l3.21401,-4.3118c0.10581,-0.15872 0.09258,-0.41002 -0.07936,-0.54228c-0.17194,-0.11904 -0.42324,-0.06613 -0.54228,0.09258l-2.88335,3.87533l-2.88335,-3.87533c-0.13226,-0.17194 -0.38357,-0.21162 -0.54228,-0.09258c-0.18517,0.14549 -0.22485,0.39679 -0.07936,0.55551zM373.54139,302.05595l-3.20079,-4.29858l-0.06613,-0.07936l-0.03968,-0.02645c-0.06613,-0.02645 -0.09258,-0.03968 -0.11904,-0.03968c-0.02645,-0.01323 -0.05291,-0.01323 -0.05291,-0.01323h-0.05291c-0.05291,0 -0.07936,0.01323 -0.10581,0.02645c-0.02645,0.01323 -0.05291,0.01323 -0.06613,0.02645c-0.06613,0.05291 -0.09258,0.07936 -0.10581,0.11904l0.01323,-0.02645l-3.21401,4.3118c-0.11904,0.17194 -0.09258,0.39679 0.07936,0.54228c0.07936,0.03968 0.14549,0.07936 0.22485,0.07936c0.10581,0 0.23808,-0.05291 0.31743,-0.15872l2.88335,-3.88856l2.88335,3.88856c0.07936,0.10581 0.21162,0.15872 0.31743,0.15872c0.07936,0 0.14549,-0.03968 0.22485,-0.07936c0.17194,-0.13226 0.1984,-0.35711 0.07936,-0.54228z"
                    data-paper-data="{&quot;glyphName&quot;:&quot;X&quot;,&quot;glyphIndex&quot;:10,&quot;lastGlyphOfWord&quot;:true,&quot;word&quot;:3}">
                </path>
                <path d="M130.49079,282.62409v-0.78823h289.01842v0.78823z"
                    data-paper-data="{&quot;isContainerTopLineAboveSecondaryText&quot;:true}"></path>
            </g>
            <g data-paper-data="{&quot;isPrimaryText&quot;:true}" fill-rule="nonzero">
                <path
                    d="M139.19534,248.32734h5.71186c2.13993,0 3.95808,0.75622 5.4866,2.28474c1.51244,1.51244 2.26865,3.34667 2.26865,5.4866c0,2.13993 -0.75622,3.97416 -2.26865,5.4866c-1.52852,1.52852 -3.34667,2.28474 -5.4866,2.28474h-5.71186zM131.34355,239.62279c-0.24135,0 -0.43442,0.08045 -0.61141,0.24135c-0.1609,0.17699 -0.24135,0.37006 -0.24135,0.61141c0,0 0,0.03218 0.01609,0.08045c-0.01609,0.04827 -0.01609,0.08045 -0.01609,0.08045v24.07024c0,0.24135 0.08045,0.43442 0.24135,0.61141c0.17699,0.1609 0.37006,0.24135 0.61141,0.24135h13.56365c2.60654,0 4.82692,-0.91711 6.67724,-2.76743c1.85032,-1.85032 2.78352,-4.08679 2.78352,-6.69333c0,-2.60654 -0.9332,-4.84301 -2.78352,-6.69333c-1.85032,-1.85032 -4.0707,-2.76743 -6.67724,-2.76743h-6.54852c-0.24135,0 -0.43442,0.08045 -0.61141,0.24135c-0.1609,0.17699 -0.24135,0.37006 -0.24135,0.61141v16.37935h-5.30961v-22.54172h12.71089c4.0707,0 7.56218,1.44808 10.44224,4.32814c2.88006,2.88006 4.32814,6.37154 4.32814,10.44224c0,4.0707 -1.44808,7.56218 -4.32814,10.44224c-2.88006,2.88006 -6.37154,4.32814 -10.44224,4.32814h-13.56365c-0.24135,0 -0.43442,0.08045 -0.61141,0.25744c-0.1609,0.1609 -0.24135,0.35397 -0.24135,0.59532c0,0.24135 0.08045,0.43442 0.24135,0.61141c0.17699,0.1609 0.37006,0.24135 0.61141,0.24135h13.56365c4.53731,0 8.41493,-1.60897 11.64897,-4.82692c3.21795,-3.23404 4.82692,-7.11166 4.82692,-11.64897c0,-4.53731 -1.60897,-8.41493 -4.82692,-11.64897c-3.23404,-3.21795 -7.11166,-4.82692 -11.64897,-4.82692z"
                    data-paper-data="{&quot;glyphName&quot;:&quot;D&quot;,&quot;glyphIndex&quot;:0,&quot;firstGlyphOfWord&quot;:true,&quot;word&quot;:1}">
                </path>
                <path
                    d="M187.93115,270.86906l-1.89859,-4.73038h5.74404l1.89859,4.73038zM178.53474,251.97971l2.09167,5.21307h-4.18333zM193.14422,264.98022c-0.01609,-0.01609 -0.01609,-0.01609 -0.01609,-0.01609l-0.03218,-0.06436c-0.14481,-0.3057 -0.40224,-0.4666 -0.74013,-0.45051h-19.91909c-0.45051,-0.08045 -0.75622,0.08045 -0.9332,0.51487l-2.38128,5.90493h-5.72795l11.84205,-29.54076h6.5807l6.37154,15.86448h-5.74404l-3.12141,-7.80352c-0.14481,-0.35397 -0.41833,-0.53096 -0.7884,-0.53096c-0.38615,0 -0.64359,0.17699 -0.7884,0.53096l-3.34667,8.33448c0,-0.01609 0,0.01609 -0.01609,0.06436c-0.01609,0.04827 -0.03218,0.08045 -0.03218,0.09654c0,0.01609 0,0.06436 -0.01609,0.11263c0,0.04827 0,0.06436 0,0.04827v0.01609c0,0.01609 0,0.06436 0.01609,0.11263c0,0.04827 0,0.06436 0,0.04827c0,0.01609 0.01609,0.04827 0.03218,0.09654c0.01609,0.04827 0.01609,0.06436 0.01609,0.06436c0,-0.01609 0.01609,0 0.03218,0.04827l0.04827,0.09654l0.06436,0.08045c0.04827,0.04827 0.04827,0.06436 0.03218,0.04827l0.06436,0.04827c0.04827,0.03218 0.06436,0.04827 0.06436,0.04827c-0.01609,-0.01609 0,0 0.04827,0.03218c0.04827,0.01609 0.09654,0.03218 0.11263,0.04827l0.08045,0.03218c0.04827,0.01609 0.06436,0.01609 0.08045,0.01609c0.04827,0.01609 0.11263,0.01609 0.1609,0.01609h14.25551c0,0 0.03218,0 0.08045,-0.01609c0.04827,0 0.08045,0 0.08045,0l0.12872,-0.03218c0.06436,-0.03218 0.08045,-0.03218 0.03218,-0.01609l0.12872,-0.06436c0,0 0,0 0.01609,-0.01609l0.11263,-0.08045c0,-0.01609 0,-0.01609 0.01609,-0.01609c0.09654,-0.09654 0.1609,-0.22526 0.20917,-0.37006c0.01609,-0.04827 0.03218,-0.06436 0.03218,-0.06436c-0.01609,0.01609 -0.01609,0 0,-0.04827c0.01609,-0.04827 0.01609,-0.09654 0.01609,-0.11263v-0.01609c0,0.01609 0,0 0,-0.04827c-0.01609,-0.04827 -0.01609,-0.09654 -0.01609,-0.11263c0,-0.01609 -0.01609,-0.04827 -0.03218,-0.09654c-0.01609,-0.04827 -0.01609,-0.08045 -0.01609,-0.06436l-7.0473,-17.56999c-0.14481,-0.35397 -0.40224,-0.53096 -0.7884,-0.53096h-7.72307c-0.38615,0 -0.64359,0.17699 -0.7884,0.53096l-12.54999,31.26236c-0.11263,0.27353 -0.08045,0.54705 0.09654,0.7884c0.1609,0.24135 0.38615,0.37006 0.69186,0.37006h7.57827c0.38615,0 0.64359,-0.17699 0.7884,-0.53096l2.36519,-5.90493h11.35935l2.36519,5.90493c0.14481,0.35397 0.40224,0.53096 0.7884,0.53096h7.56218c0.3057,0 0.53096,-0.12872 0.70795,-0.37006c0.17699,-0.24135 0.19308,-0.51487 0.08045,-0.7884z"
                    data-paper-data="{&quot;glyphName&quot;:&quot;A&quot;,&quot;glyphIndex&quot;:1,&quot;word&quot;:1}">
                </path>
                <path
                    d="M224.93754,241.32831h6.87032l-10.92493,13.40275l-3.41102,-4.21551zM207.72152,270.86906h-6.78987l10.92493,-13.45102l3.42711,4.18333zM221.97703,256.0665l12.27647,-15.05999c0.22526,-0.27353 0.25744,-0.57923 0.11263,-0.90103c-0.14481,-0.32179 -0.40224,-0.48269 -0.77231,-0.48269h-9.05852c-0.27353,0 -0.48269,0.09654 -0.65968,0.3057l-7.49782,9.2516l-7.51391,-9.2516c-0.17699,-0.20917 -0.38615,-0.3057 -0.65968,-0.3057h-9.05852c-0.35397,0 -0.61141,0.1609 -0.77231,0.48269c-0.14481,0.32179 -0.11263,0.6275 0.11263,0.90103l12.27647,15.05999l-12.27647,15.12435c-0.22526,0.27353 -0.25744,0.57923 -0.11263,0.90103c0.1609,0.32179 0.41833,0.48269 0.77231,0.48269h8.97807c0.27353,0 0.48269,-0.09654 0.65968,-0.3057l7.59436,-9.31596l7.57827,9.31596c0.14481,0.17699 0.33788,0.27353 0.57923,0.3057c0.24135,0.01609 0.45051,-0.04827 0.6275,-0.19308c0.17699,-0.14481 0.28962,-0.33788 0.3057,-0.56314c0.01609,-0.24135 -0.04827,-0.45051 -0.19308,-0.6275l-24.34377,-29.86255h6.87032l25.13217,30.92447c0.17699,0.20917 0.38615,0.32179 0.65968,0.32179c0.20917,0 0.38615,-0.06436 0.54705,-0.19308c0.17699,-0.14481 0.28962,-0.33788 0.3057,-0.56314c0.01609,-0.24135 -0.04827,-0.45051 -0.19308,-0.6275z"
                    data-paper-data="{&quot;glyphName&quot;:&quot;X&quot;,&quot;glyphIndex&quot;:2,&quot;lastGlyphOfWord&quot;:true,&quot;word&quot;:1}">
                </path>
                <path
                    d="M277.93713,246.63792h-11.24673v-5.30961h11.24673zM246.72304,241.32831h11.24673v5.30961h-11.24673zM265.83765,239.62279c-0.24135,0 -0.43442,0.08045 -0.59532,0.24135c-0.17699,0.17699 -0.25744,0.37006 -0.25744,0.61141v30.39351h-5.30961v-30.39351c0,-0.24135 -0.08045,-0.43442 -0.25744,-0.61141c-0.1609,-0.1609 -0.35397,-0.24135 -0.59532,-0.24135h-12.95224c-0.24135,0 -0.43442,0.08045 -0.61141,0.24135c-0.1609,0.17699 -0.24135,0.37006 -0.24135,0.61141v7.01512c0,0.22526 0.08045,0.41833 0.24135,0.59532c0.17699,0.1609 0.37006,0.24135 0.61141,0.24135h12.09948v23.39448c0,0.24135 0.08045,0.43442 0.25744,0.61141c0.1609,0.1609 0.35397,0.24135 0.59532,0.24135h7.01512c0.24135,0 0.43442,-0.08045 0.59532,-0.24135c0.17699,-0.17699 0.25744,-0.37006 0.25744,-0.61141v-23.39448h12.09948c0.24135,0 0.43442,-0.08045 0.59532,-0.24135c0.17699,-0.17699 0.25744,-0.37006 0.25744,-0.59532v-7.01512c0,-0.24135 -0.08045,-0.43442 -0.25744,-0.61141c-0.1609,-0.1609 -0.35397,-0.24135 -0.59532,-0.24135z"
                    data-paper-data="{&quot;glyphName&quot;:&quot;T&quot;,&quot;glyphIndex&quot;:3,&quot;firstGlyphOfWord&quot;:true,&quot;word&quot;:2}">
                </path>
                <path
                    d="M302.36135,270.74034l-7.81961,-10.29743h6.61288c0.01609,0.06436 0.04827,0.11263 0.09654,0.1609l7.77134,10.13653zM286.52905,260.44291h5.27743v10.42615h-5.27743zM293.512,248.31125l7.73916,0.01609c0.4666,0 0.86885,0.1609 1.20673,0.49878c0.33788,0.33788 0.49878,0.74013 0.49878,1.20673c0,0.4666 -0.1609,0.86885 -0.49878,1.20673c-0.33788,0.33788 -0.74013,0.49878 -1.20673,0.49878l-0.08045,0.01609h-7.65871zM303.11757,260.24983c2.44564,-0.43442 4.47295,-1.62506 6.09801,-3.53974c1.62506,-1.93077 2.44564,-4.16724 2.44564,-6.69333c0,-2.86397 -1.01365,-5.30961 -3.04096,-7.35301c-2.0434,-2.02731 -4.48904,-3.04096 -7.35301,-3.04096c0.01609,0 0.01609,0 0,0c-0.01609,0 -0.01609,0 -0.01609,0h-15.57486c-0.24135,0 -0.43442,0.08045 -0.61141,0.24135c-0.1609,0.17699 -0.24135,0.37006 -0.24135,0.61141v12.13166c0,0.24135 0.08045,0.43442 0.24135,0.59532c0.17699,0.17699 0.37006,0.25744 0.61141,0.25744h15.57486c0.04827,0 0.11263,0 0.17699,-0.01609c0.90103,-0.04827 1.65724,-0.40224 2.28474,-1.06192c0.6275,-0.65968 0.94929,-1.43199 0.94929,-2.3491c0,-0.9332 -0.33788,-1.73769 -0.99756,-2.41346c-0.65968,-0.65968 -1.46417,-0.99756 -2.41346,-0.99756l-8.59192,-0.01609c-0.24135,0 -0.43442,0.08045 -0.59532,0.25744c-0.17699,0.1609 -0.25744,0.35397 -0.25744,0.59532v4.29596h-5.27743v-10.42615h14.72211c0,0 0,0 0.01609,0c0.01609,0 0.01609,0 0,0c2.39737,0 4.45686,0.85276 6.14628,2.54218c1.70551,1.68942 2.55827,3.74891 2.55827,6.14628c0,2.39737 -0.85276,4.44077 -2.55827,6.14628c-1.68942,1.68942 -3.74891,2.54218 -6.14628,2.54218c-0.06436,0 -0.14481,0.01609 -0.22526,0.03218h-15.3657c-0.24135,0 -0.43442,0.08045 -0.61141,0.25744c-0.1609,0.1609 -0.24135,0.35397 -0.24135,0.59532v12.13166c0,0.24135 0.08045,0.43442 0.24135,0.61141c0.17699,0.1609 0.37006,0.24135 0.61141,0.24135h6.98295c0.24135,0 0.43442,-0.08045 0.59532,-0.24135c0.17699,-0.17699 0.25744,-0.37006 0.25744,-0.61141v-9.81474l7.73916,10.20089c0.17699,0.22526 0.40224,0.33788 0.67577,0.33788h8.81718c0.35397,0 0.61141,-0.1609 0.75622,-0.4666c0.1609,-0.32179 0.12872,-0.6275 -0.08045,-0.90103z"
                    data-paper-data="{&quot;glyphName&quot;:&quot;R&quot;,&quot;glyphIndex&quot;:4,&quot;word&quot;:2}">
                </path>
                <path
                    d="M324.3882,272.57457c0.22526,0 0.41833,-0.08045 0.59532,-0.24135c0.1609,-0.17699 0.24135,-0.37006 0.24135,-0.61141v-31.24627c0,-0.24135 -0.08045,-0.43442 -0.24135,-0.61141c-0.17699,-0.1609 -0.37006,-0.24135 -0.59532,-0.24135c-0.24135,0 -0.43442,0.08045 -0.61141,0.24135c-0.1609,0.17699 -0.24135,0.37006 -0.24135,0.61141v30.39351h-5.30961v-30.39351c0,-0.24135 -0.08045,-0.43442 -0.25744,-0.61141c-0.1609,-0.1609 -0.35397,-0.24135 -0.59532,-0.24135c-0.24135,0 -0.43442,0.08045 -0.61141,0.24135c-0.1609,0.17699 -0.24135,0.37006 -0.24135,0.61141v31.24627c0,0.24135 0.08045,0.43442 0.24135,0.61141c0.17699,0.1609 0.37006,0.24135 0.61141,0.24135z"
                    data-paper-data="{&quot;glyphName&quot;:&quot;I&quot;,&quot;glyphIndex&quot;:5,&quot;word&quot;:2}">
                </path>
                <path
                    d="M355.39312,272.57457c0.24135,0 0.43442,-0.08045 0.61141,-0.24135c0.1609,-0.17699 0.24135,-0.37006 0.24135,-0.61141v-7.64262c0,-0.24135 -0.08045,-0.43442 -0.24135,-0.61141c-0.17699,-0.1609 -0.37006,-0.24135 -0.61141,-0.24135h-9.63775c-1.96295,0 -3.63628,-0.69186 -5.03609,-2.09167c-1.39981,-1.39981 -2.09167,-3.07314 -2.09167,-5.03609c0,-1.96295 0.69186,-3.63628 2.09167,-5.03609c1.39981,-1.39981 3.07314,-2.09167 5.03609,-2.09167h9.63775c0.24135,0 0.43442,-0.08045 0.61141,-0.24135c0.1609,-0.17699 0.24135,-0.37006 0.24135,-0.61141c0,-0.24135 -0.08045,-0.43442 -0.24135,-0.59532c-0.17699,-0.17699 -0.37006,-0.25744 -0.61141,-0.25744h-9.63775c-2.42955,0 -4.52122,0.86885 -6.24282,2.59045c-1.7216,1.7216 -2.59045,3.81327 -2.59045,6.24282c0,2.42955 0.86885,4.52122 2.59045,6.24282c1.7216,1.7216 3.81327,2.59045 6.24282,2.59045h8.80109v5.93711h-8.10923c-4.0707,0 -7.56218,-1.44808 -10.44224,-4.32814c-2.88006,-2.88006 -4.32814,-6.37154 -4.32814,-10.44224c0,-4.0707 1.44808,-7.56218 4.32814,-10.44224c2.88006,-2.88006 6.37154,-4.32814 10.44224,-4.32814h8.94589c0.24135,0 0.43442,-0.08045 0.61141,-0.25744c0.1609,-0.1609 0.24135,-0.35397 0.24135,-0.59532c0,-0.24135 -0.08045,-0.43442 -0.24135,-0.61141c-0.17699,-0.1609 -0.37006,-0.24135 -0.61141,-0.24135h-8.94589c-4.53731,0 -8.41493,1.60897 -11.64897,4.82692c-3.21795,3.23404 -4.82692,7.11166 -4.82692,11.64897c0,4.53731 1.60897,8.41493 4.82692,11.64897c3.23404,3.21795 7.11166,4.82692 11.64897,4.82692z"
                    data-paper-data="{&quot;glyphName&quot;:&quot;C&quot;,&quot;glyphIndex&quot;:6,&quot;word&quot;:2}">
                </path>
                <path
                    d="M388.69887,270.86906h-7.40128l-11.58461,-11.42371l4.19942,-3.4432zM362.85876,270.86906v-5.76013l5.30961,-4.37641v10.13653zM368.16837,241.32831v8.91371l-5.30961,4.32814v-13.24185zM391.25714,239.75151h-9.91128c-0.20917,0 -0.38615,0.06436 -0.54705,0.19308l-10.94102,8.91371v-8.38275c0,-0.24135 -0.08045,-0.43442 -0.24135,-0.61141c-0.17699,-0.1609 -0.37006,-0.24135 -0.59532,-0.24135h-7.01512c-0.24135,0 -0.43442,0.08045 -0.61141,0.24135c-0.1609,0.17699 -0.24135,0.37006 -0.24135,0.61141v15.88057c0,-0.03218 0,-0.01609 0,0.03218c0,0.03218 0,0.06436 0.01609,0.09654c0,0.03218 0,0.06436 0.01609,0.08045c0,0.01609 0,0.04827 0.01609,0.08045l0.03218,0.06436l0.04827,0.08045l0.04827,0.08045c0.01609,0.03218 0.03218,0.03218 0.01609,0.01609c-0.01609,-0.01609 -0.01609,-0.01609 0.03218,0.03218c0.01609,0.01609 0.03218,0.04827 0.06436,0.06436l0.04827,0.04827l0.08045,0.04827l0.06436,0.04827c0.01609,0.01609 0.04827,0.01609 0.08045,0.03218c0.03218,0 0.06436,0 0.08045,0.01609c0.01609,0.01609 0.04827,0.01609 0.08045,0.01609c0.03218,0 0.06436,0 0.08045,0.01609c0.08045,0 0.09654,0 0.04827,0c-0.04827,0 -0.03218,0 0.03218,0c0.03218,0 0.06436,0 0.09654,-0.01609c0.03218,0 0.04827,0 0.06436,-0.01609c0.03218,0 0.06436,0 0.08045,-0.01609c0.03218,-0.01609 0.06436,-0.01609 0.08045,-0.03218l0.08045,-0.04827l0.06436,-0.04827c0.06436,-0.04827 0.08045,-0.04827 0.03218,-0.01609l19.11461,-15.57486h7.24038l-27.433,22.60608c0.01609,-0.01609 0.01609,0 -0.01609,0.03218l-0.06436,0.06436l-0.06436,0.06436l-0.03218,0.06436l-0.04827,0.08045l-0.03218,0.06436c-0.01609,0.03218 -0.01609,0.06436 -0.01609,0.08045c-0.01609,0.01609 -0.01609,0.04827 -0.01609,0.08045c-0.01609,0.03218 -0.01609,0.06436 -0.01609,0.09654c0,0.06436 0,0.08045 0,0.03218v7.01512c0,0.24135 0.08045,0.43442 0.24135,0.61141c0.17699,0.1609 0.37006,0.24135 0.61141,0.24135h7.01512c0.22526,0 0.41833,-0.08045 0.59532,-0.24135c0.1609,-0.17699 0.24135,-0.37006 0.24135,-0.61141v-9.73429l10.49051,10.3457c0.1609,0.1609 0.35397,0.24135 0.59532,0.24135h9.78256c0.38615,0 0.64359,-0.17699 0.7884,-0.53096c0.14481,-0.33788 0.09654,-0.64359 -0.17699,-0.91711l-16.10583,-16.21845l16.57243,-13.66019c0.3057,-0.24135 0.38615,-0.56314 0.25744,-0.9332c-0.14481,-0.37006 -0.40224,-0.56314 -0.80449,-0.56314z"
                    data-paper-data="{&quot;glyphName&quot;:&quot;K&quot;,&quot;glyphIndex&quot;:7,&quot;word&quot;:2}">
                </path>
                <path
                    d="M403.7106,250.00067c-0.48269,-0.27353 -0.67577,-0.6275 -0.56314,-1.02974c0.11263,-0.41833 0.45051,-0.6275 1.04583,-0.6275h12.3891c0.24135,0 0.43442,-0.08045 0.59532,-0.25744c0.17699,-0.1609 0.25744,-0.35397 0.25744,-0.59532l-0.01609,-7.01512c0,-0.24135 -0.08045,-0.43442 -0.25744,-0.61141c-0.1609,-0.1609 -0.35397,-0.24135 -0.59532,-0.24135c0,0 -0.03218,0 -0.08045,0.01609v-0.01609h-11.58461c-2.70308,0 -4.90737,0.64359 -6.61288,1.93077c-2.0434,1.54461 -3.21795,3.55583 -3.49147,6.01756c-0.19308,1.65724 0.03218,3.25013 0.69186,4.79474c0.65968,1.52852 1.62506,2.75134 2.91224,3.66846c1.38372,0.98147 4.74647,2.63872 10.08826,4.93955l0.88494,0.40224c1.19064,0.49878 1.68942,1.06192 1.51244,1.65724c-0.11263,0.35397 -0.25744,0.59532 -0.45051,0.70795c-0.32179,0.20917 -0.90103,0.3057 -1.7216,0.3057h-0.06436c-0.65968,-0.01609 -4.98782,-0.01609 -12.98442,-0.01609c-0.24135,0 -0.43442,0.08045 -0.59532,0.24135c-0.17699,0.17699 -0.25744,0.37006 -0.25744,0.61141c0,0.22526 0.08045,0.41833 0.25744,0.59532c0.1609,0.1609 0.35397,0.24135 0.59532,0.24135c7.98051,0 12.29256,0.01609 12.95224,0.03218h0.09654c1.11019,0 1.94686,-0.17699 2.54218,-0.53096c0.59532,-0.33788 1.01365,-0.90103 1.255,-1.68942c0.22526,-0.72404 0.11263,-1.43199 -0.32179,-2.09167c-0.43442,-0.65968 -1.14237,-1.19064 -2.13993,-1.62506l-0.88494,-0.40224c-5.22916,-2.25256 -8.47929,-3.84545 -9.78256,-4.76256c-1.04583,-0.74013 -1.81814,-1.73769 -2.3491,-2.9766c-0.53096,-1.255 -0.70795,-2.55827 -0.54705,-3.90981c0.22526,-1.97904 1.17455,-3.6041 2.83179,-4.8591c1.39981,-1.04583 3.25013,-1.57679 5.58314,-1.57679h10.8123l0.01609,5.30961h-11.53634c-0.65968,0 -1.23891,0.17699 -1.73769,0.51487c-0.48269,0.33788 -0.80449,0.80449 -0.94929,1.38372c-0.1609,0.56314 -0.11263,1.12628 0.14481,1.65724c0.24135,0.53096 0.65968,0.96538 1.22282,1.28718c0.43442,0.24135 3.765,1.68942 10.00782,4.34423c1.0941,0.4666 2.07558,1.15846 2.94442,2.07558c1.59288,1.68942 2.23647,3.71673 1.89859,6.06583c-0.3057,2.22038 -1.44808,3.95808 -3.39493,5.22916c-1.70551,1.11019 -3.66846,1.67333 -5.88884,1.67333h-12.77525c-0.24135,0 -0.43442,0.08045 -0.59532,0.25744c-0.17699,0.1609 -0.25744,0.35397 -0.25744,0.59532c0,0.24135 0.08045,0.43442 0.25744,0.61141c0.1609,0.1609 0.35397,0.24135 0.59532,0.24135h12.77525c2.62263,0 4.93955,-0.67577 6.95077,-2.02731c2.30083,-1.54461 3.65237,-3.65237 4.02243,-6.33936c0.33788,-2.47782 -0.22526,-4.6982 -1.68942,-6.64506c-1.11019,-1.49635 -2.51,-2.59045 -4.16724,-3.2984c-6.13019,-2.62263 -9.4125,-4.03852 -9.84692,-4.26378z"
                    data-paper-data="{&quot;glyphName&quot;:&quot;S&quot;,&quot;glyphIndex&quot;:8,&quot;lastGlyphOfWord&quot;:true,&quot;word&quot;:2}">
                </path>
            </g>
            <g data-paper-data="{&quot;fillRule&quot;:&quot;undefined&quot;,&quot;isIcon&quot;:&quot;true&quot;,&quot;rawInitialId&quot;:&quot;314&quot;,&quot;iconType&quot;:&quot;initial&quot;,&quot;initialText&quot;:&quot;DT&quot;,&quot;selectedEffects&quot;:{&quot;container&quot;:&quot;&quot;,&quot;transformation&quot;:&quot;&quot;,&quot;pattern&quot;:&quot;&quot;},&quot;iconStyle&quot;:&quot;standalone&quot;,&quot;bounds&quot;:{&quot;x&quot;:203.124510208177,&quot;y&quot;:137.65446347496027,&quot;width&quot;:143.75097958364597,&quot;height&quot;:84.36973977670428},&quot;suitableAsStandaloneIcon&quot;:true}"
                fill-rule="undefined">
                <path
                    d="M207.96098,165.73293c0,-0.80608 -0.53738,-1.61216 -1.20912,-2.0152v-23.51068h42.05052c11.01643,0 20.01766,8.86688 20.01766,19.88331v28.61585h2.41824v-28.61585c0,-12.3599 -10.076,-22.4359 -22.4359,-22.4359h-44.60311v26.06326c-0.67173,0.53738 -1.07478,1.20912 -1.07478,2.0152c0,1.34347 1.07478,2.41824 2.41824,2.41824c1.34347,0 2.41824,-1.07478 2.41824,-2.41824zM248.80239,142.62529h-25.79457h-3.7617h-9.94166v74.42808h9.94166h3.7617h25.79457c9.67296,0 17.46508,-7.79211 17.46508,-17.46508v-39.49793c0,-9.67296 -7.79211,-17.46508 -17.46508,-17.46508zM245.30937,205.09652h-22.30156v-50.64871h22.16721c4.0304,0 7.38907,3.35867 7.38907,7.52342c0,24.58545 0.13435,13.56902 0.13435,35.60188c0,4.16475 -3.22432,7.52342 -7.38907,7.52342zM245.17502,157.00039h-19.61462v45.54354h19.74897c2.68694,0 4.97083,-2.14954 4.97083,-4.97083c0,-11.82251 -0.13435,-23.77937 -0.13435,-35.60188c0,-2.68694 -2.28389,-4.97083 -4.97083,-4.97083zM245.30937,200.12569h-17.33073v-40.70705h17.19638c1.34347,0 2.41824,1.20912 2.41824,2.55259c0,11.82251 0.13435,23.77937 0.13435,35.60188c0,1.47781 -1.07478,2.55259 -2.41824,2.55259zM269.89482,194.48312c-1.34347,0 -2.28389,1.07478 -2.28389,2.28389c0,0.94043 0.40304,1.74651 1.20912,2.14954v0.67173c0,11.01643 -9.00123,20.01766 -20.01766,20.01766h-42.05052v-44.20007h-2.55259v46.61831h44.60311c12.3599,0 22.4359,-10.076 22.4359,-22.4359v-0.80608c0.67173,-0.40304 1.07478,-1.07478 1.07478,-2.0152c0,-1.20912 -1.07478,-2.28389 -2.41824,-2.28389zM324.17089,194.88617c-1.34347,0 -2.41824,1.07478 -2.41824,2.41824c0,0.80608 0.53738,1.61216 1.20912,2.0152v20.28635h-18.67419v-44.20007h-2.55259v46.61831h23.77937v-22.83894c0.53738,-0.40304 0.94043,-1.07478 0.94043,-1.88085c0,-1.34347 -0.94043,-2.41824 -2.28389,-2.41824zM280.37387,137.65446v23.77937h21.36113v1.74651c-0.67173,0.40304 -1.07478,1.20912 -1.07478,2.0152c0,1.34347 1.07478,2.41824 2.28389,2.41824c1.34347,0 2.41824,-1.07478 2.41824,-2.41824c0,-0.80608 -0.40304,-1.61216 -1.07478,-2.0152v-4.2991h-21.36113v-18.67419h61.39645v18.67419h-21.36113v29.82497h2.55259v-27.27239h21.36113v-23.77937zM320.54354,217.05337v-60.59037h21.36113v-13.83771h-56.55997v13.83771h21.36113v60.59037z"
                    data-paper-data="{&quot;isPathIcon&quot;:true}"></path>
            </g>
            <path
                d="M157.55324,351.165v-44.53292h0.78792v44.53292c0,0.84136 0.29751,1.55955 0.89252,2.15456c0.59501,0.59501 1.3132,0.89252 2.15456,0.89252h227.22353c0.84136,0 1.55955,-0.29751 2.15456,-0.89252c0.59501,-0.59501 0.89252,-1.3132 0.89252,-2.15456v-59.03679l0.78792,-0.67877v59.71556c0,1.05928 -0.37435,1.96326 -1.12304,2.71196c-0.7487,0.7487 -1.65268,1.12304 -2.71196,1.12304h-227.22353c-1.05928,0 -1.96326,-0.37435 -2.71196,-1.12304c-0.7487,-0.7487 -1.12304,-1.65268 -1.12304,-2.71196zM157.55324,118.83486c0,-1.05895 0.37435,-1.96285 1.12304,-2.71168c0.7487,-0.74879 1.65268,-1.12318 2.71196,-1.12318h227.22353c1.05928,0 1.96326,0.37439 2.71196,1.12318c0.7487,0.74879 1.12304,1.65268 1.12304,2.71168l0,116.95119l-0.78792,0.00746v-116.95866c0,-0.84127 -0.29751,-1.55937 -0.89252,-2.15429c-0.59501,-0.59487 -1.3132,-0.89231 -2.15456,-0.89231h-227.22353c-0.84136,0 -1.55955,0.29744 -2.15456,0.89231c-0.59501,0.59487 -0.89252,1.31297 -0.89252,2.15429l0,117.21768l-0.78792,-0.02262z"
                data-paper-data="{&quot;isLogoContainer&quot;:true}" fill-rule="nonzero"></path>
        </g>
    </g>
</svg>