<svg version="1.1" xmlns="http://www.w3.org/2000/svg" xmlns:xlink="http://www.w3.org/1999/xlink" viewBox="0 0 550 470">
    <g fill="#00594c" fill-rule="none" stroke="none" stroke-width="1" stroke-linecap="butt" stroke-linejoin="miter"
        stroke-miterlimit="10" stroke-dasharray="" stroke-dashoffset="0" font-family="none" font-weight="none"
        font-size="none" text-anchor="none" style="mix-blend-mode: normal">
        <g
            data-paper-data="{&quot;isGlobalGroup&quot;:true,&quot;bounds&quot;:{&quot;x&quot;:146,&quot;y&quot;:106,&quot;width&quot;:258,&quot;height&quot;:258}}">
            <g data-paper-data="{&quot;fillRule&quot;:&quot;undefined&quot;,&quot;isIcon&quot;:&quot;true&quot;,&quot;rawInitialId&quot;:&quot;314&quot;,&quot;iconType&quot;:&quot;initial&quot;,&quot;initialText&quot;:&quot;DT&quot;,&quot;selectedEffects&quot;:{&quot;container&quot;:&quot;&quot;,&quot;transformation&quot;:&quot;&quot;,&quot;pattern&quot;:&quot;&quot;},&quot;iconStyle&quot;:&quot;standalone&quot;,&quot;bounds&quot;:{&quot;x&quot;:223.40042942764669,&quot;y&quot;:204.95191202567145,&quot;width&quot;:102.39315878790862,&quot;height&quot;:60.096175948657105},&quot;suitableAsStandaloneIcon&quot;:true}"
                fill-rule="undefined">
                <path
                    d="M226.84543,224.95207c0,-0.57417 -0.38278,-1.14833 -0.86125,-1.43542v-16.74655h29.95239c7.84695,0 14.25849,6.31584 14.25849,14.16279v20.38294h1.7225v-20.38294c0,-8.8039 -7.17709,-15.98099 -15.98099,-15.98099h-31.77059v18.56474c-0.47847,0.38278 -0.76556,0.86125 -0.76556,1.43542c0,0.95695 0.76556,1.7225 1.7225,1.7225c0.95695,0 1.7225,-0.76556 1.7225,-1.7225zM255.93657,208.49261h-18.37335h-2.67944h-7.0814v53.01478h7.0814h2.67944h18.37335c6.89001,0 12.44029,-5.55028 12.44029,-12.44029v-28.1342c0,-6.89001 -5.55028,-12.44029 -12.44029,-12.44029zM253.44851,252.99058h-15.8853v-36.07684h15.7896c2.87084,0 5.2632,2.39237 5.2632,5.35889c0,17.5121 0.0957,9.66515 0.0957,25.35905c0,2.96653 -2.29667,5.35889 -5.2632,5.35889zM253.35282,218.73193h-13.9714v32.44045h14.0671c1.91389,0 3.5407,-1.53111 3.5407,-3.5407c0,-8.42112 -0.0957,-16.93793 -0.0957,-25.35905c0,-1.91389 -1.62681,-3.5407 -3.5407,-3.5407zM253.44851,249.44988h-12.3446v-28.99545h12.2489c0.95695,0 1.7225,0.86125 1.7225,1.8182c0,8.42112 0.0957,16.93793 0.0957,25.35905c0,1.05264 -0.76556,1.8182 -1.7225,1.8182zM270.96062,245.4307c-0.95695,0 -1.62681,0.76556 -1.62681,1.62681c0,0.66986 0.28708,1.24403 0.86125,1.53111v0.47847c0,7.84695 -6.41153,14.25849 -14.25849,14.25849h-29.95239v-31.48351h-1.8182v33.20601h31.77059c8.8039,0 15.98099,-7.17709 15.98099,-15.98099v-0.57417c0.47847,-0.28708 0.76556,-0.76556 0.76556,-1.43542c0,-0.86125 -0.76556,-1.62681 -1.7225,-1.62681zM309.62121,245.71779c-0.95695,0 -1.7225,0.76556 -1.7225,1.7225c0,0.57417 0.38278,1.14833 0.86125,1.43542v14.44988h-13.30154v-31.48351h-1.8182v33.20601h16.93793v-16.26807c0.38278,-0.28708 0.66986,-0.76556 0.66986,-1.33972c0,-0.95695 -0.66986,-1.7225 -1.62681,-1.7225zM278.42479,204.95191v16.93793h15.21543v1.24403c-0.47847,0.28708 -0.76556,0.86125 -0.76556,1.43542c0,0.95695 0.76556,1.7225 1.62681,1.7225c0.95695,0 1.7225,-0.76556 1.7225,-1.7225c0,-0.57417 -0.28708,-1.14833 -0.76556,-1.43542v-3.06223h-15.21543v-13.30154h43.73241v13.30154h-15.21543v21.24419h1.8182v-19.426h15.21543v-16.93793zM307.03746,261.50739v-43.15824h15.21543v-9.85654h-40.2874v9.85654h15.21543v43.15824z"
                    data-paper-data="{&quot;isPathIcon&quot;:true}"></path>
            </g>
            <g data-paper-data="{&quot;isPrimaryText&quot;:true}" fill-rule="nonzero">
                <path
                    d="M203.72079,188.39849l1.77769,-2.48239c0.66601,-0.93002 1.56052,-1.48483 2.70054,-1.67341c1.12802,-0.1866 2.16054,0.05562 3.09056,0.72162c0.93002,0.66601 1.49182,1.56553 1.67842,2.69355c0.18858,1.14002 -0.04862,2.16555 -0.71463,3.09557l-1.77769,2.48239zM197.49408,189.10179c-0.07511,0.10489 -0.10024,0.21384 -0.0854,0.34083c0.02684,0.12501 0.08572,0.22006 0.19061,0.29518c0,0 0.01399,0.01002 0.03997,0.01805c0.01597,0.02202 0.02996,0.03203 0.02996,0.03203l10.46098,7.49134c0.10489,0.07511 0.21384,0.10024 0.34083,0.0854c0.12501,-0.02684 0.22006,-0.08572 0.29518,-0.19061l4.22139,-5.89479c0.81123,-1.13281 1.10369,-2.38322 0.87541,-3.76325c-0.22828,-1.38003 -0.90982,-2.48165 -2.04262,-3.29288c-1.13281,-0.81123 -2.39522,-1.10171 -3.77525,-0.87343c-1.38003,0.22828 -2.46965,0.90783 -3.28088,2.04064l-2.03809,2.846c-0.07511,0.10489 -0.10024,0.21384 -0.0854,0.34083c0.02684,0.12501 0.08572,0.22006 0.19061,0.29518l7.1185,5.09772l-1.6525,2.30757l-9.79668,-7.01562l3.95599,-5.52418c1.26692,-1.76914 2.9829,-2.83586 5.13094,-3.19118c2.14804,-0.35532 4.11612,0.10198 5.88526,1.3689c1.76914,1.26692 2.83586,2.9829 3.19118,5.13094c0.35532,2.14804 -0.10198,4.11612 -1.3689,5.88526l-4.22139,5.89479c-0.07511,0.10489 -0.10024,0.21384 -0.07841,0.34584c0.01985,0.12 0.07872,0.21506 0.18361,0.29017c0.10489,0.07511 0.21384,0.10024 0.34083,0.0854c0.12501,-0.02684 0.22006,-0.08572 0.29518,-0.19061l4.22139,-5.89479c1.41214,-1.97192 1.9197,-4.15791 1.5277,-6.56494c-0.404,-2.40505 -1.58847,-4.31114 -3.56039,-5.72328c-1.97192,-1.41214 -4.15791,-1.9197 -6.56494,-1.5277c-2.40505,0.404 -4.31114,1.58847 -5.72328,3.56039z"
                    data-paper-data="{&quot;glyphName&quot;:&quot;D&quot;,&quot;glyphIndex&quot;:0,&quot;firstGlyphOfWord&quot;:true,&quot;word&quot;:1}">
                </path>
                <path
                    d="M231.12215,176.53404l-2.42141,-1.24927l2.32289,-2.00797l2.42141,1.24927zM220.719,172.17992l2.66823,1.37698l-1.69174,1.46239zM231.17173,172.33023c-0.01213,-0.00088 -0.01213,-0.00088 -0.01213,-0.00088l-0.03551,-0.01478c-0.16543,-0.07301 -0.32578,-0.04808 -0.4568,0.07654l-8.05529,6.96321c-0.21031,0.12495 -0.27769,0.29689 -0.1974,0.53444l1.10122,3.22039l-2.31638,2.00234l-5.53777,-16.08598l2.66124,-2.30045l8.12247,4.18828l-2.32289,2.00797l-3.99021,-2.06458c-0.1823,-0.09253 -0.35478,-0.06848 -0.50444,0.06088c-0.15616,0.13499 -0.1984,0.29656 -0.13322,0.49032l1.56013,4.54038c-0.00562,-0.00651 0.00562,0.00651 0.01599,0.03165c0.01037,0.02514 0.01511,0.04378 0.02073,0.05029c0.00562,0.00651 0.0225,0.02603 0.03287,0.05117c0.01687,0.01952 0.0225,0.02603 0.01687,0.01952l0.00562,0.00651c0.00562,0.00651 0.0225,0.02603 0.04588,0.03992c0.01687,0.01952 0.0225,0.02603 0.01687,0.01952c0.00562,0.00651 0.02338,0.0139 0.04676,0.02779c0.02338,0.0139 0.029,0.0204 0.029,0.0204c-0.00562,-0.00651 0.00651,-0.00562 0.02989,0.00827l0.05327,0.02217l0.05415,0.01004c0.03639,0.00265 0.04202,0.00915 0.02989,0.00827l0.0429,-0.00298c0.03077,-0.00386 0.0429,-0.00298 0.0429,-0.00298c-0.01213,-0.00088 0,0 0.03077,-0.00386c0.02514,-0.01037 0.05029,-0.02073 0.06242,-0.01985l0.04378,-0.01511c0.02514,-0.01037 0.03165,-0.01599 0.03816,-0.02162c0.02514,-0.01037 0.05117,-0.03287 0.07069,-0.04974l5.76494,-4.98336c0,0 0.01301,-0.01125 0.02691,-0.03463c0.01952,-0.01687 0.03253,-0.02812 0.03253,-0.02812l0.0408,-0.05801c0.01478,-0.03551 0.02128,-0.04114 0.00739,-0.01776l0.02956,-0.07102c0,0 0,0 0.00088,-0.01213l0.01742,-0.07191c-0.00562,-0.00651 -0.00562,-0.00651 0.00088,-0.01213c0.00529,-0.07279 -0.01368,-0.14734 -0.04478,-0.22277c-0.01037,-0.02514 -0.00948,-0.03728 -0.00948,-0.03728c-0.00088,0.01213 -0.00651,0.00562 -0.01687,-0.01952c-0.01037,-0.02514 -0.02724,-0.04466 -0.03287,-0.05117l-0.00562,-0.00651c0.00562,0.00651 0,0 -0.01687,-0.01952c-0.02338,-0.0139 -0.04025,-0.03342 -0.04588,-0.03992c-0.00562,-0.00651 -0.02338,-0.0139 -0.04676,-0.02779c-0.02338,-0.0139 -0.03463,-0.02691 -0.029,-0.0204l-8.99196,-4.64176c-0.1823,-0.09253 -0.34828,-0.07411 -0.50444,0.06088l-3.12322,2.69979c-0.15616,0.13499 -0.1984,0.29656 -0.13322,0.49032l5.8533,17.02968c0.05007,0.14999 0.1587,0.24935 0.31464,0.28508c0.14944,0.04135 0.28553,0.01466 0.40915,-0.0922l3.06466,-2.64917c0.15616,-0.13499 0.1984,-0.29656 0.13322,-0.49032l-1.10773,-3.21477l4.59373,-3.97094l3.0207,1.56115c0.1823,0.09253 0.34828,0.07411 0.50444,-0.06088l3.05815,-2.64354c0.12363,-0.10687 0.16972,-0.23766 0.15693,-0.39713c-0.01279,-0.15947 -0.10191,-0.27571 -0.24307,-0.34695z"
                    data-paper-data="{&quot;glyphName&quot;:&quot;A&quot;,&quot;glyphIndex&quot;:1,&quot;word&quot;:1}">
                </path>
                <path
                    d="M241.25888,152.87242l3.31972,-1.57062l-2.2149,8.97372l-2.61191,-1.25713zM239.69346,171.08219l-3.28085,1.55223l2.20386,-8.99705l2.61232,1.2379zM243.19767,160.67068l2.48909,-10.08347c0.04631,-0.18366 -0.00803,-0.33874 -0.15156,-0.46112c-0.14354,-0.12239 -0.30471,-0.14128 -0.48353,-0.05668l-4.37705,2.07087c-0.13217,0.06253 -0.21117,0.157 -0.24887,0.29853l-1.50792,6.18442l-5.74571,-2.7526c-0.13334,-0.06061 -0.25648,-0.05944 -0.38864,0.00309l-4.37705,2.07087c-0.17104,0.08092 -0.25865,0.21752 -0.26283,0.40979c0.00359,0.18859 0.08903,0.32895 0.2604,0.40963l9.37482,4.47043l-2.47438,10.11457c-0.04631,0.18366 0.00803,0.33874 0.15156,0.46112c0.15131,0.11871 0.31249,0.1376 0.48353,0.05668l4.33818,-2.05248c0.13217,-0.06253 0.21117,-0.157 0.24887,-0.29853l1.53985,-6.23759l5.79152,2.76898c0.11043,0.05242 0.2258,0.05492 0.34977,0.0153c0.1203,-0.0474 0.20665,-0.12632 0.25907,-0.23675c0.05242,-0.11043 0.0627,-0.22947 0.01898,-0.342c-0.0474,-0.1203 -0.12632,-0.20665 -0.23675,-0.25907l-18.58972,-8.86428l3.31972,-1.57062l19.21344,9.19716c0.13334,0.06061 0.26015,0.06721 0.39232,0.00468c0.10107,-0.04782 0.17188,-0.11938 0.22019,-0.21836c0.05242,-0.11043 0.0627,-0.22947 0.01898,-0.342c-0.0474,-0.1203 -0.12632,-0.20665 -0.23675,-0.25907z"
                    data-paper-data="{&quot;glyphName&quot;:&quot;X&quot;,&quot;glyphIndex&quot;:2,&quot;lastGlyphOfWord&quot;:true,&quot;word&quot;:1}">
                </path>
                <path
                    d="M275.21854,148.71437l-5.98513,0.56695l-0.26766,-2.8256l5.98513,-0.56695zM258.3398,147.46227l5.98513,-0.56695l0.26766,2.8256l-5.98513,0.56695zM268.42597,145.59109c-0.12844,0.01217 -0.22713,0.06471 -0.30464,0.15845c-0.08526,0.10311 -0.11834,0.20991 -0.10618,0.33835l1.53214,16.17441l-2.8256,0.26766l-1.53214,-16.17441c-0.01217,-0.12844 -0.06471,-0.22713 -0.16782,-0.31239c-0.09374,-0.07751 -0.20054,-0.11059 -0.32898,-0.09843l-6.89275,0.65292c-0.12844,0.01217 -0.22713,0.06471 -0.31321,0.15926c-0.0767,0.1023 -0.10978,0.2091 -0.09762,0.33754l0.35363,3.73321c0.01136,0.11987 0.0639,0.21857 0.15845,0.30464c0.1023,0.0767 0.2091,0.10978 0.33754,0.09762l6.43894,-0.60994l1.17932,12.44975c0.01217,0.12844 0.06471,0.22713 0.16782,0.31239c0.09374,0.07751 0.20054,0.11059 0.32898,0.09843l3.73321,-0.35363c0.12844,-0.01217 0.22713,-0.06471 0.30464,-0.15845c0.08526,-0.10311 0.11834,-0.20991 0.10618,-0.33835l-1.17932,-12.44975l6.43894,-0.60994c0.12844,-0.01217 0.22713,-0.06471 0.30464,-0.15845c0.08526,-0.10311 0.11834,-0.20991 0.10699,-0.32979l-0.35363,-3.73321c-0.01217,-0.12844 -0.06471,-0.22713 -0.16782,-0.31239c-0.09374,-0.07751 -0.20054,-0.11059 -0.32898,-0.09843z"
                    data-paper-data="{&quot;glyphName&quot;:&quot;T&quot;,&quot;glyphIndex&quot;:3,&quot;firstGlyphOfWord&quot;:true,&quot;word&quot;:2}">
                </path>
                <path
                    d="M289.13738,163.13921l-3.22749,-6.11185l3.48769,0.57581c0.00288,0.03534 0.01565,0.0636 0.03691,0.09326l3.21604,6.02279zM281.68393,156.32966l2.78337,0.45953l-0.90785,5.49884l-2.78337,-0.45953zM286.42315,150.53935l4.0803,0.68237c0.24609,0.04063 0.44423,0.16051 0.59301,0.36814c0.14878,0.20762 0.19862,0.43378 0.15799,0.67987c-0.04063,0.24609 -0.16051,0.44423 -0.36814,0.59301c-0.20762,0.14878 -0.43378,0.19862 -0.67987,0.15799l-0.04383,0.00148l-4.03927,-0.66688zM290.44967,157.67227c1.32768,-0.01617 2.50057,-0.46759 3.52437,-1.33591c1.02519,-0.8768 1.65271,-1.98489 1.87267,-3.31717c0.24938,-1.51049 -0.07228,-2.8886 -0.96357,-4.14283c-0.90118,-1.24715 -2.10277,-1.99471 -3.61325,-2.24409c0.00849,0.0014 0.00849,0.0014 0,0c-0.00849,-0.0014 -0.00849,-0.0014 -0.00849,-0.0014l-8.21432,-1.35618c-0.12729,-0.02102 -0.23612,0.0046 -0.34348,0.07405c-0.10027,0.07933 -0.15951,0.17416 -0.18053,0.30145l-1.05636,6.39835c-0.02102,0.12729 0.0046,0.23612 0.07545,0.33499c0.07793,0.10876 0.17276,0.168 0.30005,0.18901l8.21432,1.35618c0.02546,0.0042 0.0594,0.00981 0.09475,0.00693c0.47941,0.053 0.90907,-0.06784 1.29746,-0.36112c0.38839,-0.29328 0.62536,-0.67258 0.70521,-1.15628c0.08126,-0.49218 -0.02689,-0.9459 -0.31597,-1.35974c-0.29048,-0.40536 -0.68535,-0.65362 -1.18602,-0.73628l-4.53005,-0.75662c-0.12729,-0.02102 -0.23612,0.0046 -0.33639,0.08394c-0.10735,0.06945 -0.1666,0.16427 -0.18761,0.29156l-0.37407,2.26573l-2.78337,-0.45953l0.90785,-5.49884l7.76457,1.28192c0,0 0,0 0.00849,0.0014c0.00849,0.0014 0.00849,0.0014 0,0c1.26439,0.20875 2.27633,0.83783 3.02024,1.87595c0.7524,1.03952 1.02282,2.19997 0.81407,3.46436c-0.20875,1.26439 -0.83643,2.26785 -1.88444,3.01884c-1.03812,0.74391 -2.19857,1.01433 -3.46296,0.80558c-0.03394,-0.0056 -0.07777,-0.00412 -0.1216,-0.00264l-8.10401,-1.33796c-0.12729,-0.02102 -0.23612,0.0046 -0.34488,0.08254c-0.09887,0.07085 -0.15811,0.16567 -0.17913,0.29296l-1.05636,6.39835c-0.02102,0.12729 0.0046,0.23612 0.07405,0.34348c0.07933,0.10027 0.17416,0.15951 0.30145,0.18053l3.68287,0.60804c0.12729,0.02102 0.23612,-0.0046 0.33499,-0.07545c0.10876,-0.07793 0.168,-0.17276 0.18901,-0.30005l0.85462,-5.17638l3.19346,6.05393c0.07373,0.13421 0.18273,0.21323 0.32699,0.23705l4.65026,0.76775c0.18669,0.03082 0.33647,-0.03162 0.43947,-0.18024c0.11288,-0.15571 0.12253,-0.31974 0.03603,-0.48221z"
                    data-paper-data="{&quot;glyphName&quot;:&quot;R&quot;,&quot;glyphIndex&quot;:4,&quot;word&quot;:2}">
                </path>
                <path
                    d="M300.63105,167.14497c0.1137,0.03964 0.22531,0.033 0.34296,-0.01707c0.11236,-0.06102 0.18694,-0.14432 0.22941,-0.26614l5.49823,-15.77175c0.04247,-0.12182 0.03584,-0.23343 -0.01423,-0.35108c-0.06102,-0.11236 -0.14432,-0.18694 -0.25802,-0.22658c-0.12182,-0.04247 -0.23343,-0.03584 -0.35108,0.01423c-0.11236,0.06102 -0.18694,0.14432 -0.22941,0.26614l-5.34818,15.34131l-2.68006,-0.9343l5.34818,-15.34131c0.04247,-0.12182 0.03584,-0.23343 -0.02236,-0.35391c-0.0529,-0.10953 -0.1362,-0.18411 -0.25802,-0.22658c-0.12182,-0.04247 -0.23343,-0.03584 -0.35108,0.01423c-0.11236,0.06102 -0.18694,0.14432 -0.22941,0.26614l-5.49823,15.77175c-0.04247,0.12182 -0.03584,0.23343 0.01423,0.35108c0.06102,0.11236 0.14432,0.18694 0.26614,0.22941z"
                    data-paper-data="{&quot;glyphName&quot;:&quot;I&quot;,&quot;glyphIndex&quot;:5,&quot;word&quot;:2}">
                </path>
                <path
                    d="M315.63519,174.91919c0.11295,0.06234 0.22409,0.07456 0.34848,0.04497c0.12102,-0.04127 0.20854,-0.11085 0.27087,-0.2238l1.97404,-3.57677c0.06234,-0.11295 0.07456,-0.22409 0.04497,-0.34848c-0.04127,-0.12102 -0.11085,-0.20854 -0.2238,-0.27087l-4.51049,-2.48937c-0.91866,-0.50702 -1.52309,-1.26302 -1.81664,-2.2797c-0.29355,-1.01668 -0.18513,-1.9785 0.32189,-2.89717c0.50702,-0.91866 1.26302,-1.52309 2.2797,-1.81664c1.01668,-0.29355 1.9785,-0.18513 2.89717,0.32189l4.51049,2.48937c0.11295,0.06234 0.22409,0.07456 0.34848,0.04497c0.12102,-0.04127 0.20854,-0.11085 0.27087,-0.2238c0.06234,-0.11295 0.07456,-0.22409 0.04082,-0.34095c-0.03712,-0.12855 -0.1067,-0.21607 -0.21965,-0.2784l-4.51049,-2.48937c-1.13704,-0.62754 -2.34036,-0.76118 -3.59075,-0.40015c-1.25039,0.36103 -2.19728,1.11552 -2.82482,2.25256c-0.62754,1.13704 -0.76118,2.34036 -0.40015,3.59075c0.36103,1.25039 1.11552,2.19728 2.25256,2.82482l4.11893,2.27327l-1.53352,2.77858l-3.79514,-2.09457c-1.9051,-1.05144 -3.16509,-2.63097 -3.76906,-4.72275c-0.60397,-2.09178 -0.37985,-4.09983 0.67159,-6.00493c1.05144,-1.9051 2.63097,-3.16509 4.72275,-3.76906c2.09178,-0.60397 4.09983,-0.37985 6.00493,0.67159l4.1867,2.31067c0.11295,0.06234 0.22409,0.07456 0.35264,0.03744c0.11686,-0.03374 0.20438,-0.10332 0.26672,-0.21627c0.06234,-0.11295 0.07456,-0.22409 0.04497,-0.34848c-0.04127,-0.12102 -0.11085,-0.20854 -0.2238,-0.27087l-4.1867,-2.31067c-2.12347,-1.17196 -4.3538,-1.42052 -6.69851,-0.74985c-2.34134,0.68236 -4.09591,2.08151 -5.26787,4.20498c-1.17196,2.12347 -1.42052,4.3538 -0.74985,6.69851c0.68236,2.34134 2.08151,4.09591 4.20498,5.26787z"
                    data-paper-data="{&quot;glyphName&quot;:&quot;C&quot;,&quot;glyphIndex&quot;:6,&quot;word&quot;:2}">
                </path>
                <path
                    d="M329.35196,185.79922l-2.90377,-2.68715l-0.39747,-8.68788l2.89768,0.17378zM319.21401,176.41756l2.0913,-2.25989l3.67206,0.21073l-3.68023,3.9769zM332.02239,166.75547l-3.23626,3.49715l-3.65454,-0.22966l4.80766,-5.19522zM341.65336,174.51958l-3.88853,-3.59844c-0.08206,-0.07594 -0.17487,-0.11495 -0.28473,-0.12286l-7.52879,-0.47516l3.04349,-3.28883c0.08762,-0.09469 0.12616,-0.19965 0.12729,-0.3275c-0.01102,-0.12738 -0.05756,-0.22905 -0.14594,-0.31083l-2.75227,-2.54695c-0.09469,-0.08762 -0.19965,-0.12616 -0.3275,-0.12729c-0.12738,0.01102 -0.22905,0.05756 -0.31667,0.15225l-5.76569,6.23048c0.01168,-0.01263 0.00584,-0.00631 -0.01168,0.01263c-0.01168,0.01263 -0.02337,0.02525 -0.02874,0.04372c-0.01168,0.01263 -0.02337,0.02525 -0.0229,0.0374c-0.00584,0.00631 -0.01752,0.01894 -0.0229,0.0374l-0.01074,0.03693l-0.01027,0.04909l-0.01027,0.04909c-0.00537,0.01847 0.00094,0.02431 0.00047,0.01215c-0.00047,-0.01215 -0.00047,-0.01215 0.00094,0.02431c0.00047,0.01215 -0.0049,0.03062 0.00188,0.04862l0.00141,0.03646l0.01404,0.04815l0.00773,0.0423c0.00047,0.01215 0.0131,0.02384 0.01988,0.04183c0.01263,0.01168 0.02525,0.02337 0.02572,0.03552c0.00047,0.01215 0.0131,0.02384 0.02572,0.03552c0.01263,0.01168 0.02525,0.02337 0.02572,0.03552c0.03156,0.02921 0.03788,0.03505 0.01894,0.01752c-0.01894,-0.01752 -0.01263,-0.01168 0.01263,0.01168c0.01263,0.01168 0.02525,0.02337 0.04372,0.02874c0.01263,0.01168 0.01894,0.01752 0.03109,0.01705c0.01263,0.01168 0.02525,0.02337 0.0374,0.0229c0.01847,0.00537 0.03109,0.01705 0.04325,0.01658l0.04909,0.01027l0.04278,0.00443c0.04278,0.00443 0.04909,0.01027 0.01847,0.00537l13.154,0.82932l2.84064,2.62873l-18.97038,-1.09086c0.01215,-0.00047 0.00631,0.00584 -0.018,0.00678l-0.04862,0.00188l-0.04862,0.00188l-0.03599,0.01357l-0.04815,0.01404l-0.03599,0.01357c-0.018,0.00678 -0.02968,0.01941 -0.03552,0.02572c-0.01215,0.00047 -0.02384,0.0131 -0.03552,0.02572c-0.018,0.00678 -0.02968,0.01941 -0.04136,0.03203c-0.02337,0.02525 -0.02921,0.03156 -0.01168,0.01263l-2.54695,2.75227c-0.08762,0.09469 -0.12616,0.19965 -0.12729,0.3275c0.01102,0.12738 0.05756,0.22905 0.15225,0.31667l2.75227,2.54695c0.08838,0.08178 0.19333,0.12032 0.32119,0.12145c0.12738,-0.01102 0.22905,-0.05756 0.31667,-0.15225l3.53419,-3.81909l0.35961,7.86771c0.00471,0.12154 0.05125,0.2232 0.14594,0.31083l3.83803,3.55171c0.1515,0.1402 0.31676,0.16423 0.50209,0.07793c0.17949,-0.07999 0.27154,-0.21745 0.26353,-0.42407l-0.43049,-12.21052l11.46146,0.65753c0.20756,0.0163 0.35596,-0.08074 0.43982,-0.27266c0.07754,-0.19776 0.04664,-0.36698 -0.11117,-0.51302z"
                    data-paper-data="{&quot;glyphName&quot;:&quot;K&quot;,&quot;glyphIndex&quot;:7,&quot;word&quot;:2}">
                </path>
                <path
                    d="M343.52799,185.80501c-0.02543,-0.29548 0.0722,-0.48764 0.28355,-0.55965c0.21845,-0.07688 0.41283,0.00879 0.59288,0.27118l3.74699,5.46064c0.07299,0.10638 0.16685,0.16715 0.29352,0.18453c0.12445,0.02935 0.23388,0.00641 0.34025,-0.06658l3.08713,-2.12876c0.10638,-0.07299 0.16715,-0.16685 0.19163,-0.29838c0.02226,-0.11958 -0.00068,-0.22901 -0.07367,-0.33539c0,0 -0.00973,-0.01418 -0.03142,-0.03059l0.00709,-0.00487l-3.50368,-5.10605c-0.81752,-1.19141 -1.76787,-1.96833 -2.85102,-2.33076c-1.29882,-0.43349 -2.54052,-0.34291 -3.70828,0.28106c-0.78884,0.41612 -1.4228,0.99716 -1.90409,1.75508c-0.4742,0.75305 -0.7212,1.54839 -0.73613,2.3931c-0.0141,0.90673 0.27249,2.89012 0.87396,5.94045l0.09035,0.5117c0.14026,0.67564 0.0429,1.0658 -0.27302,1.16784c-0.19008,0.05741 -0.34025,0.06658 -0.44829,0.01554c-0.18952,-0.07857 -0.40725,-0.30468 -0.65543,-0.66636l-0.01946,-0.02837c-0.19242,-0.29563 -1.50144,-2.20331 -3.91995,-5.7279c-0.07299,-0.10638 -0.16685,-0.16715 -0.28643,-0.1894c-0.13154,-0.02448 -0.24097,-0.00154 -0.34735,0.07145c-0.09928,0.06813 -0.16005,0.16198 -0.18453,0.29352c-0.02226,0.11958 0.00068,0.22901 0.07367,0.33539c2.41364,3.5175 3.7107,5.42295 3.90312,5.71858l0.0292,0.04255c0.33577,0.48933 0.66682,0.80457 1.00289,0.95991c0.32898,0.1602 0.70371,0.17427 1.1242,0.0422c0.38726,-0.1197 0.66523,-0.38345 0.8246,-0.77444c0.15937,-0.39099 0.17929,-0.86361 0.06906,-1.43469l-0.09035,-0.5117c-0.58868,-2.98609 -0.86957,-4.90037 -0.85951,-5.75218c0.00992,-0.68481 0.21602,-1.32692 0.6015,-1.93564c0.39257,-0.61359 0.91347,-1.08577 1.55784,-1.42361c0.94041,-0.49926 1.94378,-0.57234 2.99816,-0.22145c0.88432,0.30068 1.67797,0.95564 2.38357,1.98394l3.2701,4.76565l-2.33541,1.61294l-3.48908,-5.08478c-0.19951,-0.29076 -0.45271,-0.49254 -0.75249,-0.61019c-0.29491,-0.11056 -0.5979,-0.11128 -0.897,0.00008c-0.29687,0.0994 -0.53049,0.29099 -0.68665,0.56505c-0.16103,0.26696 -0.22599,0.58273 -0.19751,0.92827c0.02501,0.26447 0.39406,2.17042 1.11202,5.72494c0.12524,0.62336 0.11714,1.2652 -0.02432,1.92553c-0.26288,1.21304 -0.96179,2.10985 -2.09937,2.67139c-1.07112,0.5368 -2.18253,0.55883 -3.33159,0.08516c-1.00515,-0.41596 -1.84704,-1.11083 -2.51858,-2.08949l-3.86378,-5.63084c-0.07299,-0.10638 -0.16685,-0.16715 -0.29352,-0.18453c-0.12445,-0.02935 -0.23388,-0.00641 -0.34025,0.06658c-0.10638,0.07299 -0.16715,0.16685 -0.19163,0.29838c-0.02226,0.11958 0.00068,0.22901 0.07367,0.33539l3.86378,5.63084c0.79319,1.15595 1.79178,1.97278 2.99577,2.45049c1.37668,0.54696 2.71446,0.50519 4.0107,-0.14436c1.19432,-0.60047 2.00266,-1.52022 2.41793,-2.75438c0.32376,-0.94189 0.38264,-1.88977 0.19346,-2.83434c-0.69808,-3.49515 -1.06671,-5.37009 -1.09882,-5.62969z"
                    data-paper-data="{&quot;glyphName&quot;:&quot;S&quot;,&quot;glyphIndex&quot;:8,&quot;lastGlyphOfWord&quot;:true,&quot;word&quot;:2}">
                </path>
            </g>
            <g data-paper-data="{&quot;isSecondaryText&quot;:true}" fill-rule="nonzero">
                <path
                    d="M226.24359,126.83458l-1.44156,0.65356c-0.11452,0.05192 -0.15933,0.18593 -0.11047,0.29371l2.12254,4.68169c0.04886,0.10778 0.17614,0.15565 0.29065,0.10373c0.10104,-0.04581 0.15565,-0.17614 0.10678,-0.28392l-2.03397,-4.48634l1.2462,-0.56499c0.49175,-0.22294 1.07916,-0.00201 1.30516,0.49647c0.22294,0.49175 -0.00104,1.07242 -0.49279,1.29537l-0.70731,0.32067c-0.11452,0.05192 -0.15933,0.18593 -0.11352,0.28697c0.05192,0.11452 0.17919,0.16238 0.29371,0.11047l0.70731,-0.32067c0.71404,-0.32373 1.02703,-1.1559 0.70331,-1.86994c-0.32678,-0.72078 -1.162,-1.0405 -1.87605,-0.71678z"
                    data-paper-data="{&quot;glyphName&quot;:&quot;P&quot;,&quot;glyphIndex&quot;:0,&quot;firstGlyphOfWord&quot;:true,&quot;word&quot;:1}">
                </path>
                <path
                    d="M236.48327,128.22456l-2.60992,0.98151l-1.67143,-4.44447c-0.04166,-0.11077 -0.17242,-0.16431 -0.27626,-0.12526c-0.11769,0.04426 -0.17384,0.1681 -0.13219,0.27887l1.74693,4.64523c0.04166,0.11077 0.1655,0.16692 0.28319,0.12266l2.81068,-1.05701c0.11077,-0.04166 0.16692,-0.1655 0.12526,-0.27626c-0.04166,-0.11077 -0.1655,-0.16692 -0.27626,-0.12526z"
                    data-paper-data="{&quot;glyphName&quot;:&quot;L&quot;,&quot;glyphIndex&quot;:1,&quot;word&quot;:1}">
                </path>
                <path
                    d="M240.83022,127.18079c0.02544,0.00798 0.05592,0.0068 0.09142,-0.00356c0.0781,-0.02279 0.12957,-0.08404 0.16654,-0.19499l0.90345,-5.00972l3.48145,3.74557c0.08581,0.08283 0.22811,0.09523 0.30591,0.0186c0.07987,-0.06953 0.10559,-0.19261 0.0115,-0.30384c-1.24392,-1.33204 -2.53194,-2.73597 -3.77793,-4.07511c-0.05208,-0.04644 -0.13758,-0.07542 -0.21568,-0.05263c-0.0639,0.01865 -0.13667,0.08611 -0.15352,0.16037l-0.99332,5.46741c-0.01241,0.1423 0.06127,0.23637 0.1802,0.2479z"
                    data-paper-data="{&quot;glyphName&quot;:&quot;A&quot;,&quot;glyphIndex&quot;:2,&quot;word&quot;:1}">
                </path>
                <path
                    d="M251.77003,118.52154c-0.10802,-0.0448 -0.23916,0.01375 -0.28551,0.11454l-1.11926,2.45831l-2.03301,-1.77845c-0.09257,-0.0784 -0.23462,-0.07046 -0.30734,0.01332c-0.08407,0.10136 -0.07613,0.24341 0.02211,0.31301l-0.00156,-0.00723l2.25643,1.97239l-0.00312,-0.01446c0.00468,0.02169 0.02382,0.04026 0.03261,0.04593c0.0336,0.01545 0.05841,0.02523 0.07287,0.02212c0.00879,0.00567 0.03204,0.00822 0.0465,0.0051l0.07953,-0.01715l0.0258,-0.0207c0.02892,-0.00624 0.04026,-0.02382 0.0516,-0.04139c0.00567,-0.00879 0.01701,-0.02637 0.02112,-0.04239l1.24855,-2.73588c0.03913,-0.09923 0.00227,-0.23504 -0.10731,-0.28707zM250.49935,121.71617c-0.12291,0.02651 -0.18784,0.14644 -0.16445,0.25489l0.50833,2.35697c0.02495,0.11568 0.13198,0.19096 0.25489,0.16445c0.11568,-0.02495 0.1894,-0.13921 0.16445,-0.25489l-0.50833,-2.35697c-0.02339,-0.10845 -0.13921,-0.1894 -0.25489,-0.16445z"
                    data-paper-data="{&quot;glyphName&quot;:&quot;Y&quot;,&quot;glyphIndex&quot;:3,&quot;lastGlyphOfWord&quot;:true,&quot;word&quot;:1}">
                </path>
                <path
                    d="M262.24623,117.49684l2.82667,4.86484c0.02463,0.0354 0.07828,0.06143 0.13781,0.06483c0.01526,0.00638 0.02264,0.00588 0.0374,0.00489c0.06641,-0.00448 0.11658,-0.03011 0.15786,-0.07738l1.77235,-2.07671l2.03543,1.81961c0.04727,0.04129 0.10042,0.05994 0.16683,0.05545c0.01476,-0.001 0.0369,-0.00249 0.05116,-0.01087c0.05804,-0.01874 0.10621,-0.07389 0.12486,-0.12704l2.14266,-5.15589c0.02992,-0.1058 -0.01545,-0.22876 -0.12274,-0.28082c-0.1068,-0.04468 -0.22926,0.00807 -0.28082,0.12274l-2.02088,4.87339c-0.62283,-0.55099 -1.19152,-1.06857 -1.80648,-1.61268l0.51609,-0.59082l0.0005,0.00738c0.08307,-0.08715 0.07361,-0.22736 -0.02093,-0.30994l-0.75626,-0.66059c-0.09354,-0.06781 -0.22636,-0.05885 -0.30256,0.02043l-0.66797,0.75675c-0.08257,0.09453 -0.07311,0.23474 0.02093,0.30994l-0.0005,-0.00738l0.59082,0.51609c-0.54999,0.63759 -1.0233,1.20329 -1.57329,1.84088l-2.65766,-4.55749c-0.05913,-0.1072 -0.19495,-0.14251 -0.29477,-0.08388c-0.09195,0.06551 -0.12775,0.19395 -0.0765,0.29427zM266.70519,119.30849l0.37846,-0.43327l0.44065,0.37796l-0.38584,0.43377z"
                    data-paper-data="{&quot;glyphName&quot;:&quot;W&quot;,&quot;glyphIndex&quot;:4,&quot;firstGlyphOfWord&quot;:true,&quot;word&quot;:2}">
                </path>
                <path
                    d="M276.59047,121.52031l-0.14051,-0.00221c-0.12572,-0.00198 -0.21598,0.09277 -0.21784,0.21109c-0.00186,0.11832 0.08537,0.21586 0.21109,0.21784l0.72474,0.0114c0.11832,0.00186 0.21598,-0.09277 0.21784,-0.21109c0.00186,-0.11832 -0.09277,-0.21598 -0.21109,-0.21784l-0.14791,-0.00233l0.07129,-4.53332l0.14791,0.00233c0.11832,0.00186 0.21586,-0.08537 0.21784,-0.21109c0.00186,-0.11832 -0.09277,-0.21598 -0.21109,-0.21784l-0.72474,-0.0114c-0.12572,-0.00198 -0.21598,0.09277 -0.21784,0.21109c-0.00198,0.12572 0.08537,0.21586 0.21109,0.21784l0.14051,0.00221z"
                    data-paper-data="{&quot;glyphName&quot;:&quot;I&quot;,&quot;glyphIndex&quot;:5,&quot;word&quot;:2}">
                </path>
                <path
                    d="M284.00822,116.90389l-1.92493,-0.1453c-0.118,-0.00891 -0.22112,0.07973 -0.23003,0.19774c-0.00946,0.12538 0.07973,0.22112 0.19774,0.23003l1.71105,0.12916l-0.35741,4.7349c-0.00891,0.118 0.07236,0.22056 0.19774,0.23003c0.11063,0.00835 0.22112,-0.07973 0.23003,-0.19774l0.37355,-4.94878c0.00891,-0.118 -0.08711,-0.22168 -0.19774,-0.23003zM285.92578,117.04864l-1.40129,-0.10577c-0.12538,-0.00946 -0.22112,0.07973 -0.23003,0.19774c-0.00946,0.12538 0.07236,0.22056 0.19774,0.23003l1.40129,0.10577c0.118,0.00891 0.22056,-0.07236 0.23003,-0.19774c0.00891,-0.118 -0.07973,-0.22112 -0.19774,-0.23003z"
                    data-paper-data="{&quot;glyphName&quot;:&quot;T&quot;,&quot;glyphIndex&quot;:6,&quot;word&quot;:2}">
                </path>
                <path
                    d="M293.0042,120.56197l-2.35597,-0.34831l0.35047,-2.37061c0.01731,-0.11707 -0.06375,-0.22625 -0.18081,-0.24355c-0.12438,-0.01839 -0.22625,0.06375 -0.24355,0.18081l-0.72582,4.90949c-0.01731,0.11707 0.05643,0.22516 0.18081,0.24355c0.11707,0.01731 0.22625,-0.06375 0.24355,-0.18081l0.31261,-2.11452l2.35597,0.34831c0.10975,0.01623 0.22516,-0.05643 0.24355,-0.18081c0.01731,-0.11707 -0.07106,-0.22733 -0.18081,-0.24355zM294.0299,118.07437c-0.12438,-0.01839 -0.23356,0.06267 -0.25087,0.17973l-0.72582,4.90949c-0.01731,0.11707 0.06375,0.22625 0.18813,0.24463c0.10975,0.01623 0.22625,-0.06375 0.24355,-0.18081l0.72582,-4.90949c0.01731,-0.11707 -0.07106,-0.22733 -0.18081,-0.24355z"
                    data-paper-data="{&quot;glyphName&quot;:&quot;H&quot;,&quot;glyphIndex&quot;:7,&quot;lastGlyphOfWord&quot;:true,&quot;word&quot;:2}">
                </path>
                <path
                    d="M303.10006,125.46823c0.10695,0.0295 0.23233,-0.03566 0.2638,-0.14974l1.26442,-4.5846l1.38322,0.38149c0.05704,0.01573 0.12637,0.04253 0.19054,0.06022c0.0622,0.02483 0.1276,0.06588 0.18981,0.09071l0.2021,0.10177l-0.00713,-0.00197c0.0654,0.04105 0.11974,0.0944 0.18514,0.13546l-0.00516,-0.0091c0.06343,0.04818 0.12294,0.11063 0.18121,0.14972l-0.00713,-0.00197l0.17531,0.17111l-0.00516,-0.0091c0.04524,0.05851 0.09368,0.13325 0.14605,0.19373l-0.00713,-0.00197l0.12466,0.18783l0.1168,0.21635l0.00197,-0.00713l0.07525,0.22791l-0.00516,-0.0091l0.06812,0.22594l0.00197,-0.00713l0.03763,0.2252l-0.00516,-0.0091l0.01231,0.23356l-0.01228,0.21144l0.00197,-0.00713l-0.03047,0.22177l0.00197,-0.00713l-0.0408,0.20357c-0.0177,0.06417 -0.04646,0.14063 -0.06416,0.2048l0.00197,-0.00713l-0.08555,0.1989l0.00197,-0.00713l-0.10497,0.18588l-0.12316,0.1962l0.0091,-0.00516c-0.04622,0.0563 -0.10866,0.11581 -0.15685,0.17924l0.00197,-0.00713l-0.17627,0.16621l0.0091,-0.00516l-0.17947,0.14998l0.00197,-0.00713c-0.05655,0.03811 -0.14554,0.08262 -0.20209,0.12073l-0.21438,0.10967l0.00713,0.00197c-0.07597,0.02508 -0.15587,0.06442 -0.22471,0.09147l0.0091,-0.00516l-0.23627,0.04992l0.00713,0.00197l-0.22004,0.04673l0.0091,-0.00516l-0.23356,0.01231l-0.21341,-0.00515l0.00713,0.00197l-0.21464,-0.02851l0.00713,0.00197l-0.21783,-0.04473l-0.3565,-0.09832c-0.11408,-0.03146 -0.23233,0.03566 -0.26183,0.14261c-0.03146,0.11408 0.03566,0.23233 0.14974,0.2638l0.36879,0.10938l0.23209,0.04867l0.26455,0.04227l0.24586,-0.00124l0.21734,-0.00911l0.31863,-0.04255l0.2402,-0.06418l0.252,-0.10696l0.26306,-0.11926l0.24241,-0.15564l0.20676,-0.16548l0.19446,-0.17654l0.2129,-0.27119l0.12636,-0.17998l0.1271,-0.21046l0.09931,-0.24881l0.07202,-0.23332l0.05776,-0.23726l0.03121,-0.25225l0.00908,-0.22767l-0.02633,-0.32183l-0.0396,-0.21807l-0.07254,-0.26552l-0.08877,-0.26233l-0.13032,-0.25077l-0.15564,-0.24241c-0.05237,-0.06048 -0.10081,-0.13522 -0.14605,-0.19373c-0.0032,-0.01623 -0.02778,-0.03835 -0.02778,-0.03835l-0.1876,-0.18217l-0.22841,-0.2011l-0.18907,-0.1212l-0.23382,-0.12587l-0.23455,-0.09538l-0.2171,-0.07522l-1.60425,-0.44245c-0.12834,-0.0354 -0.2375,0.02657 -0.27093,0.14778l-1.32145,4.79137c-0.03146,0.11408 0.03566,0.23233 0.15687,0.26576z"
                    data-paper-data="{&quot;glyphName&quot;:&quot;D&quot;,&quot;glyphIndex&quot;:8,&quot;firstGlyphOfWord&quot;:true,&quot;word&quot;:3}">
                </path>
                <path
                    d="M310.68032,127.67122c0.0159,0.02141 0.04126,0.03834 0.07608,0.05081c0.0766,0.02743 0.15423,0.00809 0.24931,-0.05999l3.67371,-3.52383l0.61761,5.07625c0.0208,0.11743 0.12868,0.21106 0.23666,0.19473c0.10548,-0.00936 0.19859,-0.09386 0.18777,-0.23915c-0.22435,-1.80869 -0.44215,-3.70145 -0.664,-5.5171c-0.01487,-0.06817 -0.06705,-0.14185 -0.14364,-0.16928c-0.06267,-0.02244 -0.16119,-0.01058 -0.21845,0.03962l-4.01528,3.84146c-0.09363,0.10788 -0.08925,0.22729 0.00024,0.30647z"
                    data-paper-data="{&quot;glyphName&quot;:&quot;A&quot;,&quot;glyphIndex&quot;:9,&quot;word&quot;:3}">
                </path>
                <path
                    d="M321.70285,126.12157l0.64766,2.92614l0.00606,-0.01349c-0.00909,0.02024 -0.00469,0.04654 -0.00098,0.05632c0.01789,0.03236 0.03207,0.05495 0.04557,0.06101c0.00372,0.00978 0.02092,0.02562 0.03442,0.03168l0.07421,0.03334l0.03305,-0.00137c0.02699,0.01212 0.04654,0.00469 0.0661,-0.00274c0.00978,-0.00372 0.02933,-0.01115 0.04214,-0.02161l2.62751,-1.46292c0.09034,-0.05671 0.14118,-0.18793 0.08379,-0.2948c-0.06043,-0.10012 -0.20074,-0.13072 -0.29783,-0.07704l-2.35882,1.31605l-0.58273,-2.63751c-0.02807,-0.11802 -0.14716,-0.19584 -0.2554,-0.17149c-0.12779,0.03178 -0.20562,0.15088 -0.16778,0.26518zM323.21153,132.32917l-0.64766,-2.92614l-0.01555,-0.05563l-0.01418,-0.02259c-0.02767,-0.02865 -0.03813,-0.04146 -0.05163,-0.04752c-0.01046,-0.01281 -0.02396,-0.01887 -0.02396,-0.01887l-0.02699,-0.01212c-0.02699,-0.01212 -0.04351,-0.01144 -0.06004,-0.01075c-0.01652,0.00068 -0.03002,-0.00538 -0.0398,-0.00166c-0.04586,0.01183 -0.06541,0.01926 -0.08125,0.03647l0.01281,-0.01046l-2.62751,1.46292c-0.10012,0.06043 -0.13815,0.18118 -0.08379,0.2948c0.03139,0.03843 0.05603,0.07382 0.09651,0.092c0.05397,0.02425 0.13356,0.02757 0.19829,-0.00822l2.36185,-1.32279l0.5797,2.64426c0.01623,0.07216 0.07158,0.12945 0.12555,0.1537c0.04048,0.01819 0.08331,0.0131 0.13288,0.01104c0.11802,-0.02807 0.18303,-0.1367 0.16475,-0.25843z"
                    data-paper-data="{&quot;glyphName&quot;:&quot;X&quot;,&quot;glyphIndex&quot;:10,&quot;lastGlyphOfWord&quot;:true,&quot;word&quot;:3}">
                </path>
            </g>
            <g data-paper-data="{&quot;isMirroredSecondaryText&quot;:true}" fill-rule="nonzero">
                <path
                    d="M228.48166,338.22892l-1.44156,-0.65356c-0.11452,-0.05192 -0.24484,0.00269 -0.29371,0.11047l-2.12254,4.68169c-0.04886,0.10778 -0.001,0.23505 0.11352,0.28697c0.10104,0.04581 0.23505,0.001 0.28392,-0.10678l2.03397,-4.48634l1.2462,0.56499c0.49175,0.22294 0.71268,0.81036 0.48668,1.30884c-0.22294,0.49175 -0.8073,0.70594 -1.29905,0.483l-0.70731,-0.32067c-0.11452,-0.05192 -0.24484,0.00269 -0.29065,0.10373c-0.05192,0.11452 -0.00405,0.24179 0.11047,0.29371l0.70731,0.32067c0.71404,0.32373 1.54621,0.01074 1.86994,-0.70331c0.32678,-0.72078 0.01684,-1.55969 -0.6972,-1.88341z"
                    data-paper-data="{&quot;glyphName&quot;:&quot;P&quot;,&quot;glyphIndex&quot;:0,&quot;firstGlyphOfWord&quot;:true,&quot;word&quot;:1}">
                </path>
                <path
                    d="M234.76714,346.33879l-2.60992,-0.98151l1.67143,-4.44447c0.04166,-0.11077 -0.02142,-0.23721 -0.12526,-0.27626c-0.11769,-0.04426 -0.24153,0.01189 -0.28319,0.12266l-1.74693,4.64523c-0.04166,0.11077 0.0145,0.23461 0.13219,0.27887l2.81068,1.05701c0.11077,0.04166 0.23461,-0.0145 0.27626,-0.12526c0.04166,-0.11077 -0.0145,-0.23461 -0.12526,-0.27626z"
                    data-paper-data="{&quot;glyphName&quot;:&quot;L&quot;,&quot;glyphIndex&quot;:1,&quot;word&quot;:1}">
                </path>
                <path
                    d="M239.23659,348.2804c0.01716,0.02042 0.04348,0.0358 0.07899,0.04616c0.0781,0.02279 0.15443,-0.00116 0.24527,-0.07482l3.45601,-3.73758l0.9206,5.03014c0.02779,0.11598 0.14109,0.20297 0.2479,0.1802c0.10473,-0.01567 0.19261,-0.10559 0.1731,-0.24997c-0.3323,-1.792 -0.6631,-3.66831 -0.99332,-5.46741c-0.01893,-0.06716 -0.07542,-0.13758 -0.15352,-0.16037c-0.0639,-0.01865 -0.16153,-0.00091 -0.21568,0.05263l-3.77793,4.07511c-0.08699,0.1133 -0.07547,0.23223 0.0186,0.30591z"
                    data-paper-data="{&quot;glyphName&quot;:&quot;A&quot;,&quot;glyphIndex&quot;:2,&quot;word&quot;:1}">
                </path>
                <path
                    d="M252.96262,345.94878c-0.07996,-0.08534 -0.22356,-0.08605 -0.30734,-0.01332l-2.03301,1.77845l-1.11926,-2.45831c-0.05203,-0.10958 -0.18472,-0.1609 -0.28551,-0.11454c-0.11837,0.0577 -0.16969,0.19039 -0.10887,0.2943l0.00156,-0.00723l1.24288,2.72709l0.00312,-0.01446c-0.00468,0.02169 0.0051,0.0465 0.01077,0.05529c0.02424,0.02793 0.04281,0.04706 0.05727,0.05018c0.00567,0.00879 0.0258,0.0207 0.04026,0.02382l0.07953,0.01715l0.03204,-0.00822c0.02892,0.00624 0.0465,-0.0051 0.06408,-0.01645c0.00879,-0.00567 0.02637,-0.01701 0.03672,-0.02991l2.26521,-1.97806c0.07655,-0.07429 0.09895,-0.21321 0.02055,-0.30578zM250.48817,348.33569c-0.12291,-0.02651 -0.2315,0.056 -0.25489,0.16445l-0.50833,2.35697c-0.02495,0.11568 0.04154,0.22838 0.16445,0.25489c0.11568,0.02495 0.22994,-0.04877 0.25489,-0.16445l0.50833,-2.35697c0.02339,-0.10845 -0.04877,-0.22994 -0.16445,-0.25489z"
                    data-paper-data="{&quot;glyphName&quot;:&quot;Y&quot;,&quot;glyphIndex&quot;:3,&quot;lastGlyphOfWord&quot;:true,&quot;word&quot;:1}">
                </path>
                <path
                    d="M262.55058,347.99561l2.14705,5.20067c0.01965,0.03839 0.06931,0.0714 0.12785,0.08276c0.01426,0.00838 0.02164,0.00887 0.0364,0.00987c0.06641,0.00448 0.11957,-0.01417 0.16683,-0.05545l2.03543,-1.81961l1.77235,2.07671c0.04129,0.04727 0.09145,0.07289 0.15786,0.07738c0.01476,0.001 0.0369,0.00249 0.05215,-0.00389c0.06003,-0.01077 0.11518,-0.05894 0.1408,-0.1091l2.8163,-4.82106c0.04387,-0.10082 0.01545,-0.22876 -0.08388,-0.29477c-0.09982,-0.05863 -0.22826,-0.02283 -0.29477,0.08388l-2.65766,4.55749c-0.54311,-0.62972 -1.03706,-1.21905 -1.57329,-1.84088l0.59082,-0.51609l-0.0005,0.00738c0.09403,-0.07519 0.1035,-0.2154 0.02093,-0.30994l-0.66059,-0.75626c-0.08357,-0.07977 -0.2164,-0.08874 -0.30256,-0.02043l-0.76364,0.66009c-0.09453,0.08257 -0.104,0.22278 -0.02093,0.30994l0.0005,-0.00738l0.51609,0.59082c-0.63071,0.55787 -1.17577,1.05481 -1.80648,1.61268l-2.02088,-4.87339c-0.04418,-0.11418 -0.17402,-0.16742 -0.28082,-0.12274c-0.09992,0.05256 -0.15267,0.17502 -0.11536,0.28132zM266.72553,350.39023l0.43327,-0.37846l0.38584,0.43377l-0.44065,0.37796z"
                    data-paper-data="{&quot;glyphName&quot;:&quot;W&quot;,&quot;glyphIndex&quot;:4,&quot;firstGlyphOfWord&quot;:true,&quot;word&quot;:2}">
                </path>
                <path
                    d="M276.66712,353.35447l-0.14051,0.00221c-0.12572,0.00198 -0.21295,0.09951 -0.21109,0.21784c0.00186,0.11832 0.09212,0.21307 0.21784,0.21109l0.72474,-0.0114c0.11832,-0.00186 0.21295,-0.09951 0.21109,-0.21784c-0.00186,-0.11832 -0.09951,-0.21295 -0.21784,-0.21109l-0.14791,0.00233l-0.07129,-4.53332l0.14791,-0.00233c0.11832,-0.00186 0.21307,-0.09212 0.21109,-0.21784c-0.00186,-0.11832 -0.09951,-0.21295 -0.21784,-0.21109l-0.72474,0.0114c-0.12572,0.00198 -0.21295,0.09951 -0.21109,0.21784c0.00198,0.12572 0.09212,0.21307 0.21784,0.21109l0.14051,-0.00221z"
                    data-paper-data="{&quot;glyphName&quot;:&quot;I&quot;,&quot;glyphIndex&quot;:5,&quot;word&quot;:2}">
                </path>
                <path
                    d="M283.62808,348.0601l-1.92493,0.1453c-0.118,0.00891 -0.20664,0.11202 -0.19774,0.23003c0.00946,0.12538 0.11202,0.20664 0.23003,0.19774l1.71105,-0.12916l0.35741,4.7349c0.00891,0.118 0.10465,0.2072 0.23003,0.19774c0.11063,-0.00835 0.20664,-0.11202 0.19774,-0.23003l-0.37355,-4.94878c-0.00891,-0.118 -0.1194,-0.20609 -0.23003,-0.19774zM285.54564,347.91536l-1.40129,0.10577c-0.12538,0.00946 -0.20664,0.11202 -0.19774,0.23003c0.00946,0.12538 0.10465,0.2072 0.23003,0.19774l1.40129,-0.10577c0.118,-0.00891 0.2072,-0.10465 0.19774,-0.23003c-0.00891,-0.118 -0.11202,-0.20664 -0.23003,-0.19774z"
                    data-paper-data="{&quot;glyphName&quot;:&quot;T&quot;,&quot;glyphIndex&quot;:6,&quot;word&quot;:2}">
                </path>
                <path
                    d="M293.02926,349.60758l-2.35597,0.34831l-0.35047,-2.37061c-0.01731,-0.11707 -0.12649,-0.19812 -0.24355,-0.18081c-0.12438,0.01839 -0.19812,0.12649 -0.18081,0.24355l0.72582,4.90949c0.01731,0.11707 0.11917,0.1992 0.24355,0.18081c0.11707,-0.01731 0.19812,-0.12649 0.18081,-0.24355l-0.31261,-2.11452l2.35597,-0.34831c0.10975,-0.01623 0.1992,-0.11917 0.18081,-0.24355c-0.01731,-0.11707 -0.1338,-0.19704 -0.24355,-0.18081zM293.29129,346.9296c-0.12438,0.01839 -0.20544,0.12757 -0.18813,0.24463l0.72582,4.90949c0.01731,0.11707 0.12649,0.19812 0.25087,0.17973c0.10975,-0.01623 0.19812,-0.12649 0.18081,-0.24355l-0.72582,-4.90949c-0.01731,-0.11707 -0.1338,-0.19704 -0.24355,-0.18081z"
                    data-paper-data="{&quot;glyphName&quot;:&quot;H&quot;,&quot;glyphIndex&quot;:7,&quot;lastGlyphOfWord&quot;:true,&quot;word&quot;:2}">
                </path>
                <path
                    d="M304.62439,350.05876c0.10695,-0.0295 0.18121,-0.14972 0.14974,-0.2638l-1.26442,-4.5846l1.38322,-0.38149c0.05704,-0.01573 0.13031,-0.02827 0.19448,-0.04596c0.06614,-0.01057 0.14334,-0.00884 0.20947,-0.01941l0.2257,-0.01621l-0.00713,0.00197c0.0772,0.00173 0.1512,0.01968 0.2284,0.0214l-0.0091,-0.00516c0.07917,0.00886 0.16226,0.03197 0.23233,0.03566l-0.00713,0.00197l0.23823,0.05705l-0.0091,-0.00516c0.06884,0.02705 0.14874,0.06639 0.22471,0.09147l-0.00713,0.00197l0.20332,0.09737l0.21118,0.12589l-0.00197,-0.00713l0.18143,0.15711l-0.0091,-0.00516l0.1743,0.15908l-0.00197,-0.00713l0.14775,0.17408l-0.0091,-0.00516l0.13029,0.19424l0.09784,0.18784l-0.00197,-0.00713l0.08751,0.20603l-0.00197,-0.00713l0.06932,0.19571c0.0177,0.06417 0.0322,0.14457 0.0499,0.20874l-0.00197,-0.00713l0.02851,0.21464l-0.00197,-0.00713l0.00515,0.21341l-0.00518,0.2316l0.00516,-0.0091c-0.01082,0.07204 -0.03394,0.15513 -0.04279,0.2343l-0.00197,-0.00713l-0.06615,0.23307l0.00516,-0.0091l-0.07721,0.22078l-0.00197,-0.00713c-0.02901,0.06171 -0.08262,0.14554 -0.11163,0.20725l-0.12786,0.20405l0.00713,-0.00197c-0.05237,0.06048 -0.10081,0.13522 -0.14605,0.19373l0.00516,-0.0091l-0.17727,0.16398l0.00713,-0.00197l-0.16498,0.15291l0.00516,-0.0091l-0.19424,0.13029l-0.18588,0.10497l0.00713,-0.00197l-0.1989,0.08555l0.00713,-0.00197l-0.20997,0.07325l-0.3565,0.09832c-0.11408,0.03146 -0.18121,0.14972 -0.15171,0.25667c0.03146,0.11408 0.14972,0.18121 0.2638,0.14974l0.37273,-0.09512l0.22423,-0.07719l0.24881,-0.09931l0.21046,-0.1271l0.18194,-0.11923l0.25177,-0.19987l0.17334,-0.17824l0.16154,-0.22102l0.16474,-0.23724l0.12835,-0.2579l0.0927,-0.24807l0.07648,-0.25126l0.04378,-0.34199l0.01624,-0.2193l0.00124,-0.24586l-0.04227,-0.26455l-0.05776,-0.23726l-0.07202,-0.23332l-0.10251,-0.23259l-0.1089,-0.20014l-0.18757,-0.26283l-0.14578,-0.16695l-0.1984,-0.1908l-0.21069,-0.17974l-0.24044,-0.14851l-0.2579,-0.12835c-0.07597,-0.02508 -0.15587,-0.06442 -0.22471,-0.09147c-0.01106,-0.01229 -0.04352,-0.01869 -0.04352,-0.01869l-0.25446,-0.06025l-0.29921,-0.05558l-0.22447,-0.00714l-0.26528,0.01179l-0.25029,0.03834l-0.22496,0.0467l-1.60425,0.44245c-0.12834,0.0354 -0.1903,0.14455 -0.15687,0.26576l1.32145,4.79137c0.03146,0.11408 0.14972,0.18121 0.27093,0.14778z"
                    data-paper-data="{&quot;glyphName&quot;:&quot;D&quot;,&quot;glyphIndex&quot;:8,&quot;firstGlyphOfWord&quot;:true,&quot;word&quot;:3}">
                </path>
                <path
                    d="M312.59826,347.6847c0.02588,0.00645 0.05622,0.00344 0.09104,-0.00903c0.0766,-0.02743 0.1243,-0.09165 0.15456,-0.20461l0.60171,-5.05485l3.69958,3.53028c0.09061,0.07754 0.23341,0.0814 0.30647,0.00024c0.07556,-0.07419 0.09386,-0.19859 -0.00672,-0.30398c-1.32149,-1.25513 -2.69129,-2.57937 -4.01528,-3.84146c-0.05476,-0.04324 -0.14185,-0.06705 -0.21845,-0.03962c-0.06267,0.02244 -0.13127,0.09414 -0.14364,0.16928l-0.664,5.5171c-0.00386,0.14279 0.07532,0.23228 0.19473,0.23666z"
                    data-paper-data="{&quot;glyphName&quot;:&quot;A&quot;,&quot;glyphIndex&quot;:9,&quot;word&quot;:3}">
                </path>
                <path
                    d="M319.63329,339.27161l2.61773,1.4592l-0.00606,-0.01349c0.00909,0.02024 0.03168,0.03442 0.04146,0.03813c0.03608,0.00812 0.06238,0.01252 0.07587,0.00646c0.00978,0.00372 0.03305,0.00137 0.04654,-0.00469l0.07421,-0.03334l0.02092,-0.02562c0.02699,-0.01212 0.03442,-0.03168 0.04185,-0.05123c0.00372,-0.00978 0.01115,-0.02933 0.01183,-0.04586l0.65138,-2.93592c0.0176,-0.10521 -0.04673,-0.23036 -0.16475,-0.25843c-0.11498,-0.02132 -0.23105,0.06325 -0.2554,0.17149l-0.58273,2.63751l-2.35882,-1.31605c-0.10687,-0.0574 -0.24415,-0.02005 -0.29783,0.07704c-0.06111,0.11665 -0.02377,0.25393 0.08682,0.30155zM325.27608,342.26649l-2.61773,-1.4592l-0.05192,-0.02533l-0.0263,-0.0044c-0.0398,0.00166 -0.05632,0.00098 -0.06981,0.00704c-0.01652,-0.00068 -0.03002,0.00538 -0.03002,0.00538l-0.02699,0.01212c-0.02699,0.01212 -0.03745,0.02493 -0.04791,0.03774c-0.01046,0.01281 -0.02396,0.01887 -0.02767,0.02865c-0.02161,0.04214 -0.02904,0.0617 -0.0267,0.08497l0.00068,-0.01652l-0.65138,2.93592c-0.02132,0.11498 0.0437,0.22362 0.16475,0.25843c0.04957,0.00205 0.0924,0.00714 0.13288,-0.01104c0.05397,-0.02425 0.10932,-0.08154 0.12555,-0.1537l0.5797,-2.64426l2.36185,1.32279c0.06473,0.03579 0.14432,0.03247 0.19829,0.00822c0.04048,-0.01819 0.06512,-0.05358 0.09651,-0.092c0.0574,-0.10687 0.01937,-0.22762 -0.08379,-0.2948z"
                    data-paper-data="{&quot;glyphName&quot;:&quot;X&quot;,&quot;glyphIndex&quot;:10,&quot;lastGlyphOfWord&quot;:true,&quot;word&quot;:3}">
                </path>
            </g>
            <g data-paper-data="{&quot;isContainerElementsWrapper&quot;:true}" fill-rule="evenodd">
                <path
                    d="M275,106c-17.48409,0 -34.22457,3.38318 -50.22146,10.14953c-15.4351,6.52782 -29.1002,15.73914 -40.99532,27.63396c-11.89069,11.89114 -21.10033,25.55235 -27.62894,40.98365c-0.00369,0.00846 -0.00725,0.01701 -0.01067,0.02566c-6.7624,15.99283 -10.1436,32.72856 -10.1436,50.20719c0,17.48298 3.38318,34.22359 10.14953,50.22182c6.52887,15.43628 15.74014,29.10131 27.6338,40.99508c11.8948,11.89456 25.55993,21.10575 40.9954,27.63357c15.99805,6.76635 32.73847,10.14953 50.22127,10.14953c17.48614,0 34.22662,-3.38318 50.22143,-10.14953c15.43707,-6.52992 29.10223,-15.74124 40.99548,-27.63396c11.89456,-11.89456 21.10588,-25.55946 27.63396,-40.99469c6.76609,-15.99876 10.14914,-32.73937 10.14914,-50.22182c0,-17.48525 -3.38305,-34.22572 -10.14914,-50.22143c-6.52992,-15.43655 -15.74138,-29.1017 -27.63436,-40.99548c-11.89351,-11.89377 -25.55867,-21.10509 -40.99548,-27.63396c-15.99586,-6.76609 -32.73621,-10.14914 -50.22103,-10.14914zM185.20512,145.20524c11.71011,-11.70979 25.16236,-20.77773 40.35676,-27.2038c15.74652,-6.6604 32.22589,-9.99059 49.43812,-9.99059c17.21281,0 33.69195,3.33007 49.43741,9.9902c15.19616,6.42713 28.64861,15.49506 40.35735,27.2038c11.70795,11.70874 20.77601,25.16111 27.20419,40.35711c6.66013,15.74533 9.9902,32.22468 9.9902,49.43804c0,17.2107 -3.33007,33.6901 -9.9902,49.4382c-6.42634,15.19432 -15.49427,28.6465 -27.2038,40.35656c-11.70768,11.70742 -25.16013,20.77535 -40.35735,27.2038c-15.74414,6.6604 -32.22341,9.99059 -49.4378,9.99059c-17.21094,0 -33.69026,-3.3302 -49.43796,-9.99059c-15.195,-6.42634 -28.64727,-15.49414 -40.3568,-27.2034c-11.70927,-11.70927 -20.7772,-25.16158 -27.2038,-40.35695c-6.6604,-15.74731 -9.99059,-32.22671 -9.99059,-49.4382c0,-17.20909 3.32901,-33.68566 9.98704,-49.4297c0.00053,-0.00127 0.00105,-0.00253 0.00158,-0.0038c0.00079,-0.00153 0.00145,-0.00306 0.00198,-0.00459c6.42713,-15.19545 15.49502,-28.64768 27.20368,-40.35668z"
                    data-paper-data="{&quot;isAdditionalSecondaryTextDonut&quot;:true}"></path>
                <path
                    d="M275,134.45712c-13.62842,0 -26.67569,2.63632 -39.14183,7.90897c-12.0312,5.08867 -22.68217,12.26841 -31.9529,21.53922c-9.27081,9.27084 -16.45058,19.92182 -21.5393,31.95294c-5.27283,12.46608 -7.90925,25.51333 -7.90925,39.14175c0,13.62839 2.63632,26.67559 7.90925,39.14159c5.08872,12.0311 12.26849,22.68209 21.5393,31.95298c9.27083,9.27089 19.9218,16.45067 31.9529,21.53934c12.46603,5.27265 25.5133,7.90897 39.14183,7.90897c13.62839,0 26.67559,-2.63632 39.14159,-7.90897c12.0311,-5.08867 22.68209,-12.26845 31.95298,-21.53934c9.27089,-9.27089 16.45067,-19.92188 21.53934,-31.95298c5.27265,-12.466 7.90897,-25.5132 7.90897,-39.14159c0,-13.62855 -2.63632,-26.6758 -7.90897,-39.14175c-5.08867,-12.03112 -12.26845,-22.6821 -21.53934,-31.95294c-9.27063,-9.27081 -19.92149,-16.45055 -31.95258,-21.53922c-12.46627,-5.27265 -25.51359,-7.90897 -39.14198,-7.90897zM215.88304,210.03474c-3.2268,7.629 -4.9024,15.61561 -5.02681,23.95983h-34.38391c0.12652,-12.99311 2.70828,-25.44409 7.74565,-37.35298c4.9869,-11.79029 12.02331,-22.22842 21.10922,-31.31438c9.08595,-9.08588 19.52405,-16.12229 31.3143,-21.10922c12.21579,-5.16669 25.00196,-7.75003 38.35852,-7.75003c13.35638,0 26.1425,2.58334 38.35836,7.75003c11.79018,4.98693 22.22834,12.02333 31.31446,21.10922c9.08586,9.08588 16.12225,19.524 21.10918,31.31434c5.03701,11.90877 7.61877,24.35977 7.74529,37.35302h-34.38371c-0.12441,-8.3443 -1.79999,-16.33091 -5.02673,-23.95983c-3.24519,-7.67297 -7.83029,-14.47179 -13.7553,-20.39648c-5.92474,-5.92477 -12.72352,-10.50982 -20.39633,-13.75514c-7.9348,-3.35619 -16.25654,-5.03428 -24.96522,-5.03428c-8.70881,0 -17.03043,1.67811 -24.9653,5.03428c-7.67288,3.24535 -14.47173,7.8304 -20.39652,13.75514c-5.92475,5.92477 -10.5098,12.7236 -13.75514,20.39648zM318.93979,191.06017c5.73998,5.73997 10.18169,12.32593 13.32514,19.75788c3.25033,7.68448 4.8753,15.74512 4.8753,24.18195c0,8.43679 -1.62497,16.49719 -4.8753,24.18199c-3.14358,7.43176 -7.58517,14.01783 -13.32514,19.7578c-5.73998,5.73998 -12.32591,10.18169 -19.7578,13.32514c-7.68467,3.2502 -15.74533,4.8753 -24.18199,4.8753c-8.43679,0 -16.49759,-1.62497 -24.18199,-4.8753c-7.43205,-3.14345 -14.01803,-7.58517 -19.75792,-13.32514c-5.73987,-5.73998 -10.18156,-12.32591 -13.32506,-19.7578c-3.25028,-7.68467 -4.87542,-15.74533 -4.87542,-24.18199c0,-8.43677 1.62514,-16.49742 4.87542,-24.18195c3.1435,-7.43203 7.58518,-14.01799 13.32506,-19.75788c5.7399,-5.7399 12.32587,-10.18158 19.75792,-13.32506c7.68467,-3.25028 15.74533,-4.87542 24.18199,-4.87542c8.43679,0 16.49719,1.62513 24.18159,4.87542c7.43242,3.14353 14.01849,7.58522 19.7582,13.32506zM211.51982,270.452c0.12502,0.02689 0.22006,0.0858 0.29518,0.19057l4.2214,5.89496c1.41213,1.97171 1.91969,4.15771 1.52769,6.56472c-0.404,2.40503 -1.58846,4.31111 -3.5604,5.72337c-1.97191,1.41226 -4.1579,1.91991 -6.56495,1.52771c-2.40503,-0.40407 -4.31111,-1.58859 -5.72325,-3.5603l-4.2214,-5.89496c-0.07512,-0.10477 -0.10027,-0.2135 -0.0854,-0.34081c0.02685,-0.12494 0.08572,-0.21983 0.19061,-0.29495c0.10489,-0.07512 0.21386,-0.10042 0.33385,-0.08066c0.13197,0.02214 0.22706,0.08105 0.30214,0.18582l4.2214,5.89457c1.26692,1.76928 2.98291,2.83599 5.13095,3.19142c2.14804,0.35504 4.11611,-0.10201 5.88527,-1.36916c1.76912,-1.26676 2.83583,-2.98267 3.19119,-5.13071c0.35531,-2.14804 -0.10201,-4.11619 -1.36893,-5.88547l-3.95599,-5.5241l-9.79667,7.01583l1.65249,2.30738l7.11851,-5.0975c0.10489,-0.07512 0.21382,-0.10042 0.34085,-0.0854c0.12498,0.02649 0.22006,0.0854 0.29514,0.19057l2.03809,2.84587c0.81126,1.13273 1.10371,2.38329 0.87543,3.76313c-0.22829,1.38024 -0.90982,2.48173 -2.04264,3.29303c-1.13281,0.8113 -2.39523,1.1015 -3.77523,0.87337c-1.38004,-0.22813 -2.46968,-0.90777 -3.2809,-2.0405l-4.2214,-5.89496c-0.07512,-0.10477 -0.10023,-0.21389 -0.0854,-0.34081c0.02685,-0.12494 0.08572,-0.21983 0.19061,-0.29495l10.461,-7.49146c0,0 0.01396,-0.01028 0.03997,-0.01819c0.01597,-0.02175 0.02993,-0.03202 0.02993,-0.03202c0.10489,-0.07512 0.21386,-0.10003 0.34085,-0.0854zM338.15238,280.50625c-0.26648,0.13008 -0.48077,0.10833 -0.62429,-0.06326c-0.15024,-0.17594 -0.14036,-0.38825 0.03993,-0.65038l3.74692,-5.46084c0.07314,-0.10635 0.09607,-0.21587 0.06642,-0.34041c-0.0174,-0.12652 -0.07789,-0.22022 -0.18424,-0.29336l-3.09693,-2.11444c-0.10635,-0.07314 -0.21587,-0.09607 -0.34753,-0.07156c-0.1194,0.02214 -0.2131,0.08303 -0.28625,0.18938c0,0 -0.00988,0.01423 -0.0174,0.04033l-0.00712,-0.00474l-3.50337,5.1058c-0.81762,1.19164 -1.20074,2.35759 -1.14934,3.49863c0.06286,1.36798 0.59424,2.49399 1.5965,3.35906c0.67213,0.58633 1.44231,0.96866 2.3224,1.14499c0.87337,0.17159 1.70444,0.11584 2.49794,-0.17396c0.85123,-0.31313 2.59837,-1.29404 5.22837,-2.95262l0.44479,-0.26846c0.58001,-0.37362 0.97894,-0.42344 1.18809,-0.16526c0.12177,0.15657 0.18424,0.29336 0.17554,0.41277c-0.00514,0.2048 -0.13759,0.48947 -0.38588,0.85123l-0.01937,0.02847c-0.20678,0.28585 -1.51585,2.19351 -3.93432,5.71783c-0.07275,0.10675 -0.09568,0.21587 -0.07354,0.33567c0.02451,0.13126 0.085,0.22536 0.19175,0.29811c0.09924,0.0684 0.20836,0.09133 0.34002,0.06682c0.1198,-0.02214 0.2135,-0.08303 0.28664,-0.18938c2.41334,-3.5176 3.72478,-5.4134 3.93116,-5.69925l0.02926,-0.0423c0.33606,-0.48947 0.51082,-0.91172 0.53494,-1.28139c0.03123,-0.36453 -0.09054,-0.71918 -0.36493,-1.06394c-0.25106,-0.31827 -0.5974,-0.48275 -1.01926,-0.49065c-0.42225,-0.0083 -0.8706,0.14312 -1.36363,0.45151l-0.44479,0.26846c-2.57465,1.62339 -4.25971,2.57425 -5.05796,2.87117c-0.64248,0.23722 -1.31579,0.27597 -2.02232,0.13522c-0.71364,-0.1455 -1.34188,-0.46179 -1.88868,-0.94137c-0.80418,-0.69783 -1.23355,-1.60757 -1.28535,-2.71777c-0.03756,-0.93307 0.28783,-1.90924 0.99356,-2.9376l3.2701,-4.76578l2.34494,1.59887l-3.48874,5.08485c-0.19966,0.2906 -0.29692,0.59938 -0.2989,0.92161c0.00316,0.31471 0.11149,0.5978 0.32302,0.837c0.19927,0.24118 0.46219,0.39023 0.77413,0.43728c0.3072,0.05417 0.62508,0.00119 0.93703,-0.14985c0.23801,-0.11822 1.88354,-1.14815 4.94172,-3.09693c0.53652,-0.3412 1.13827,-0.56459 1.80526,-0.67015c1.22644,-0.19096 2.31449,0.13838 3.24796,0.99791c0.88602,0.80616 1.3067,1.83531 1.27783,3.07756c-0.02649,1.08766 -0.37165,2.12313 -1.04338,3.10167l-3.86395,5.63085c-0.07275,0.10635 -0.09568,0.21587 -0.06642,0.34041c0.0174,0.12652 0.07828,0.22062 0.18464,0.29336c0.10635,0.07314 0.21587,0.09607 0.34713,0.07156c0.1198,-0.02214 0.2135,-0.08303 0.28664,-0.18938l3.86355,-5.63085c0.79351,-1.15606 1.19639,-2.38171 1.20864,-3.67694c0.01502,-1.48105 -0.50489,-2.71421 -1.57752,-3.68998c-0.99001,-0.89828 -2.13895,-1.32172 -3.43972,-1.26518c-0.99554,0.03677 -1.90094,0.32302 -2.71421,0.83937c-3.00995,1.90845 -4.62661,2.92692 -4.85751,3.05028zM212.25339,279.2466l-1.7777,-2.48253l-6.75489,4.83735l1.7777,2.48253c0.666,0.92991 1.56052,1.48461 2.70053,1.6732c1.12803,0.18661 2.16054,-0.05535 3.09056,-0.72155c0.93003,-0.6658 1.49181,-1.56527 1.67842,-2.69365c0.18855,-1.13985 -0.04863,-2.16544 -0.71463,-3.09535zM325.89474,286.25176l3.88846,-3.59826c0.15775,-0.14629 0.32895,-0.16408 0.51991,-0.07117c0.18503,0.09845 0.27043,0.25383 0.23801,0.45942l-1.54234,11.37636l12.20704,0.51556c0.20678,0.00791 0.33646,0.11031 0.40249,0.29534c0.07156,0.19175 0.03479,0.35465 -0.11663,0.49461l-3.83785,3.5516c-0.09489,0.08777 -0.19966,0.12652 -0.32144,0.12177l-7.87181,-0.25027l3.53421,3.81887c0.08777,0.09489 0.12612,0.19966 0.12731,0.32776c-0.01107,0.12731 -0.05772,0.22892 -0.14589,0.31076l-2.75217,2.54697c-0.09489,0.08738 -0.19966,0.12612 -0.32776,0.12731c-0.12731,-0.01107 -0.22892,-0.05772 -0.31669,-0.15222l-2.54697,-2.75256l-0.01147,-0.01265c-0.01186,-0.01265 -0.02333,-0.02491 -0.02886,-0.04349c-0.01147,-0.01265 -0.02333,-0.0253 -0.02293,-0.03756c-0.00593,-0.00633 -0.0174,-0.01898 -0.02293,-0.03716l-0.01067,-0.03716l-0.01028,-0.04903l-0.01067,-0.03677l0.00198,-0.04863l0.00198,-0.04863c0.00079,-0.02056 -0.00316,-0.02807 -0.00474,-0.02293l2.55448,-18.82473l-2.84073,2.62881l-1.84163,13.03138c-0.00158,0.00158 -0.00514,0.01384 -0.00949,0.03677l-0.00791,0.0423l-0.01384,0.04824c-0.0004,0.01226 -0.01305,0.02372 -0.02016,0.04191c-0.0004,0.01226 -0.01305,0.02372 -0.0257,0.03558c-0.0004,0.01226 -0.00672,0.01779 -0.01937,0.02965c-0.00672,0.01779 -0.01937,0.02965 -0.03202,0.04112l-0.01265,0.01186l-0.01858,0.0174c-0.01226,-0.0004 -0.02491,0.01147 -0.03756,0.02293c-0.01265,0.01186 -0.0253,0.02333 -0.03756,0.02293c-0.01186,-0.0004 -0.02451,0.01147 -0.03716,0.02293c-0.0083,0.00237 -0.01502,0.00593 -0.02135,0.00909c-0.0083,0.00435 -0.01502,0.00791 -0.02214,0.00751l-0.0427,0.00435l-0.04903,0.01028l-0.03637,-0.00119c-0.01305,0.00356 -0.0257,0.00158 -0.03637,-0.0004c-0.00435,-0.00079 -0.0087,-0.00158 -0.01226,-0.00158l-0.02451,-0.00119c0.01226,0.00079 0.00593,0.00633 -0.01186,-0.0004l-0.04824,-0.01384l-0.04824,-0.01423l-0.03598,-0.01344c-0.01819,-0.00672 -0.02965,-0.01937 -0.03558,-0.0257c-0.01226,-0.0004 -0.02372,-0.01305 -0.03558,-0.0257c-0.01779,-0.00672 -0.02965,-0.01937 -0.04112,-0.03202l-0.01186,-0.01265l-5.76567,-6.23063c-0.08777,-0.09449 -0.12612,-0.19966 -0.12731,-0.32737c0.01107,-0.12731 0.05772,-0.22892 0.15222,-0.31669l2.75217,-2.54697c0.08856,-0.08184 0.19334,-0.12019 0.32144,-0.12138c0.12731,0.01107 0.22892,0.05733 0.31669,0.15222l3.04356,3.28868l1.05603,-7.46932c0.01661,-0.10873 0.06247,-0.19848 0.14471,-0.27439zM324.78612,299.83508c0.00119,-0.00079 0.0004,0.00554 -0.00277,0.01898zM224.96131,304.84085l0.00091,0.01226l-1.20876,3.50258c-0.05007,0.15024 -0.15219,0.25501 -0.30814,0.2906c-0.15595,0.03598 -0.29204,0.00909 -0.41566,-0.09766l-3.05815,-2.64344c-0.15616,-0.13522 -0.1984,-0.29653 -0.13322,-0.49026l1.10773,-3.21475l-4.59373,-3.97109l-3.0207,1.56131c-0.1823,0.09252 -0.34828,0.07393 -0.50445,-0.06089l-3.06463,-2.64937c-0.12363,-0.10675 -0.16973,-0.23762 -0.15044,-0.39142c0.01281,-0.15973 0.0954,-0.2815 0.23655,-0.35267l16.00377,-8.25532c0.1823,-0.09252 0.34828,-0.07393 0.50445,0.06089l3.12318,2.69958c0.15617,0.13522 0.1984,0.29692 0.13324,0.49065l-3.29208,9.56873l0.0015,-0.00158l-0.00083,0.00119c-0.00245,0.00395 -0.00977,0.01542 -0.01668,0.03202c-0.01036,0.0253 -0.0151,0.04389 -0.02072,0.05021c-0.00561,0.00672 -0.0225,0.02609 -0.03286,0.0514l-0.01688,0.01937l-0.00561,0.00633c-0.00565,0.00672 -0.0225,0.02609 -0.0459,0.03993c-0.02337,0.01423 -0.02898,0.02056 -0.01688,0.01977c0,0 -0.0121,0.00079 -0.0355,0.01463c-0.07014,0.04191 -0.14115,0.07117 -0.21393,0.0767c-0.00324,-0.00277 -0.0049,-0.00435 -0.0064,-0.00435c-0.0015,0.0004 -0.00293,0.00198 -0.00573,0.00514l-0.07366,-0.00672l-0.01214,0.00079l-0.07457,-0.01898l0.0038,0.00158c-0.0055,-0.00158 -0.01297,-0.00395 -0.02242,-0.00633l-0.0633,-0.03202l-0.03254,-0.02807c-0.02515,-0.01028 -0.03815,-0.02175 -0.03815,-0.02175l-5.76495,-4.98324c-0.01952,-0.017 -0.04555,-0.03954 -0.05944,-0.06286c-0.0065,-0.00554 -0.01301,-0.01107 -0.02691,-0.0344l-0.02128,-0.04112c-0.00088,-0.01226 -0.01478,-0.03558 -0.02867,-0.05891c-0.00414,-0.01502 -0.00642,-0.0257 -0.00757,-0.03084c-0.00055,-0.00237 -0.00084,-0.00395 -0.00094,-0.00395c-0.0001,0 0.00001,0.00158 0.00024,0.00474c0,0 -0.00089,-0.01226 -0.00915,-0.04191l-0.00803,-0.03677c0.00183,0.00237 0.0048,-0.00751 0.00274,-0.03598l0.0021,-0.05496l0.01423,-0.05614c0.01037,-0.0253 0.00948,-0.03716 0.00386,-0.03084c0,0 0.00562,-0.00633 0.01599,-0.03163c0.01037,-0.02491 0.01511,-0.04389 0.02073,-0.05021l0.01687,-0.01937c0.01037,-0.0253 0.02724,-0.04468 0.03286,-0.0514l0.00563,-0.00633l0.01687,-0.01977c0.02338,-0.01384 0.04025,-0.03321 0.04588,-0.03993c0.00562,-0.00633 0.02338,-0.01384 0.04676,-0.02768c0.01558,-0.00909 0.02577,-0.01819 0.02917,-0.02095c0.0017,-0.00158 0.00171,-0.00158 -0.00017,0.00079l4.26692,-2.20063c0.1823,-0.09252 0.34828,-0.07433 0.50443,0.06089c0.14965,0.12929 0.1984,0.29653 0.13324,0.49026l-1.46562,4.24666l2.3229,2.00808l2.96915,-8.64278l-2.66123,-2.30066l-15.11561,7.80657l2.31635,2.00255l3.02723,-1.55538c0.22342,-0.11387 0.40332,-0.07235 0.55737,0.11782l8.05528,6.96325c0.14229,0.11149 0.19013,0.26648 0.14182,0.44084zM219.66506,295.81061c-0.00051,-0.00079 -0.00093,-0.00277 -0.00113,-0.00514zM225.74818,301.18803c0.00747,0.00237 0.01123,0.00395 0.01127,0.00395c0,0 -0.00376,-0.00119 -0.01127,-0.00395zM324.53348,295.15192l-3.2365,-3.49704l-2.08281,1.92743l4.8073,5.19516zM222.62229,297.32804l0.97649,-2.83954l-2.66823,1.37707zM324.14642,310.50215c0.11308,-0.06207 0.18266,-0.14985 0.22378,-0.27083c0.02965,-0.12415 0.0174,-0.23524 -0.04507,-0.34832l-1.97408,-3.57691c-0.06207,-0.11268 -0.14985,-0.18227 -0.27083,-0.22378c-0.12415,-0.02965 -0.23524,-0.0174 -0.34832,0.04507l-4.51038,2.48925c-0.91884,0.50726 -1.88077,0.61559 -2.89727,0.32183c-1.01689,-0.29336 -1.77284,-0.89788 -2.2797,-1.81633c-0.50686,-0.91884 -0.61559,-1.88077 -0.32183,-2.89727c0.29336,-1.01689 0.89788,-1.77284 1.81672,-2.2797l4.51038,-2.48925c0.11308,-0.06247 0.18266,-0.14985 0.22378,-0.27122c0.02965,-0.12415 0.0174,-0.23524 -0.04507,-0.34832c-0.06247,-0.11308 -0.14985,-0.18266 -0.26648,-0.21627c-0.12889,-0.03716 -0.23999,-0.02491 -0.35267,0.03756l-4.51077,2.48925c-1.13708,0.62745 -1.89145,1.57436 -2.25242,2.82492c-0.36097,1.25016 -0.22734,2.45366 0.40011,3.59075c0.62745,1.13708 1.57436,1.89145 2.82492,2.25242c1.25016,0.36097 2.45366,0.22734 3.59075,-0.40011l4.11896,-2.27338l1.53324,2.77866l-3.79476,2.09467c-1.90529,1.05129 -3.91337,1.27546 -6.00527,0.67173c-2.09151,-0.60412 -3.67101,-1.86417 -4.72269,-3.76906c-1.05129,-1.90529 -1.27546,-3.91337 -0.67134,-6.00527c0.60373,-2.09151 1.86377,-3.67101 3.76906,-4.72269l4.18657,-2.31054c0.11308,-0.06247 0.18266,-0.14985 0.21943,-0.27834c0.034,-0.11703 0.02175,-0.22813 -0.04072,-0.3412c-0.06207,-0.11268 -0.14985,-0.18227 -0.27083,-0.22378c-0.12415,-0.02926 -0.23564,-0.0174 -0.34832,0.04507l-4.18696,2.31054c-2.12313,1.17227 -3.52235,2.92653 -4.20476,5.2679c-0.67055,2.34494 -0.42225,4.57522 0.74962,6.69875c1.17227,2.12353 2.92653,3.52235 5.2679,4.20476c2.34494,0.67094 4.57522,0.42225 6.69875,-0.74962zM337.17345,298.47777l2.90359,-2.68733l-11.19884,-0.46416l-0.39735,2.87552zM243.21236,309.29825l9.37485,-4.47044c0.17135,-0.08066 0.25679,-0.22101 0.26039,-0.4096c0.0036,-0.18859 -0.08402,-0.32539 -0.2628,-0.41l-4.37706,-2.07055c-0.13217,-0.06286 -0.25533,-0.06365 -0.38865,-0.00316l-5.73796,2.75612l-1.51569,-6.18793c-0.03768,-0.14154 -0.11667,-0.23604 -0.24885,-0.2985l-4.37706,-2.07095c-0.17104,-0.08105 -0.33223,-0.06207 -0.48354,0.05654c-0.14352,0.12256 -0.19788,0.27755 -0.15155,0.4614l2.48909,10.08311l-9.38955,4.50168c-0.17135,0.08066 -0.25679,0.22101 -0.26039,0.4096c0.00419,0.19215 0.0918,0.32895 0.26284,0.41l4.33815,2.05236c0.13217,0.06247 0.25533,0.06365 0.38865,0.00316l5.79928,-2.76561l1.5321,6.23419c0.02949,0.11861 0.10074,0.20915 0.20998,0.27992c0.11296,0.06326 0.22872,0.07986 0.34737,0.05021c0.11861,-0.02926 0.21718,-0.09687 0.27644,-0.20203c0.06294,-0.11308 0.07967,-0.22892 0.05017,-0.34753l-4.93599,-19.99463l3.31972,1.57041l5.07417,20.68811c0.03768,0.14154 0.113,0.24394 0.24517,0.30641c0.1011,0.04784 0.20132,0.05733 0.30847,0.03163c0.11865,-0.02926 0.21722,-0.09687 0.27648,-0.20203c0.06294,-0.11308 0.07967,-0.22852 0.05013,-0.34753zM327.84787,302.91224l2.09151,2.25993l2.0832,-1.92782l-3.6805,-3.97663zM306.68729,319.26116c-0.06089,0.11228 -0.14431,0.18701 -0.25778,0.22655l-3.54093,1.23434c-0.12177,0.0423 -0.23366,0.03598 -0.35109,-0.01423c-0.11228,-0.06089 -0.18701,-0.14431 -0.22931,-0.26608l-5.4984,-15.77169c-0.0423,-0.12177 -0.03598,-0.23366 0.01423,-0.35109c0.06089,-0.11228 0.14431,-0.18701 0.26608,-0.22971c0.12177,-0.0423 0.23366,-0.03558 0.34318,0.0174c0.12019,0.05812 0.19492,0.14154 0.23722,0.26332l5.34816,15.34113l2.68021,-0.93426l-5.34816,-15.34113c-0.0423,-0.12217 -0.03598,-0.23366 0.01423,-0.35109c0.06089,-0.11268 0.14431,-0.18701 0.26608,-0.22971c0.11387,-0.03954 0.22536,-0.03282 0.34318,0.017c0.11228,0.06128 0.18661,0.14471 0.22931,0.26648l5.49801,15.77169c0.0427,0.12177 0.03598,0.23327 -0.01423,0.35109zM221.68128,302.83554l-0.88583,2.57662l2.32289,2.00808l0.88583,-2.57662zM248.01219,302.85372l3.31972,1.57041l-8.34289,3.9786l-0.6845,-2.81661zM269.75819,306.9715c0.0937,-0.07749 0.20045,-0.1107 0.32895,-0.09845l6.89287,0.65315c0.1281,0.01186 0.22694,0.06445 0.30443,0.15815c0.0854,0.10319 0.11822,0.20994 0.10635,0.33844l-0.35386,3.73308c-0.01147,0.12019 -0.06365,0.21864 -0.16685,0.30404c-0.0937,0.07749 -0.20045,0.1107 -0.32895,0.09845l-6.43899,-0.61006l-1.17939,12.44979c-0.01226,0.1285 -0.06484,0.22694 -0.16764,0.31234c-0.0941,0.07749 -0.20085,0.1107 -0.32934,0.09845l-3.73308,-0.35346c-0.1285,-0.01226 -0.22694,-0.06484 -0.30443,-0.15854c-0.0854,-0.10319 -0.11861,-0.20994 -0.10635,-0.33844l1.17939,-12.44979l-6.43899,-0.61006c-0.12846,-0.01186 -0.22714,-0.06445 -0.31321,-0.15894c-0.0767,-0.1024 -0.10979,-0.20915 -0.09841,-0.32895l0.35362,-3.73347c0.01218,-0.1285 0.06472,-0.22694 0.15925,-0.31313c0.10228,-0.0767 0.20911,-0.10991 0.33753,-0.09766l6.89295,0.65315c0.1281,0.01186 0.22694,0.06445 0.30443,0.15815c0.0854,0.10319 0.11822,0.20994 0.10635,0.33844l-1.53245,16.17457l2.82571,0.26767l1.53206,-16.17457c0.01226,-0.1285 0.06484,-0.22694 0.16803,-0.31234zM291.17259,316.70629c1.25214,-0.44202 2.21763,-1.2466 2.90794,-2.39792c0.68873,-1.15962 0.92714,-2.41057 0.70692,-3.74296c-0.24948,-1.51031 -0.99673,-2.71184 -2.24412,-3.61328c-1.25411,-0.89116 -2.63237,-1.21299 -4.14268,-0.96352l-0.0087,0.00158l-8.2142,1.35612c-0.12731,0.02095 -0.2222,0.08026 -0.30127,0.18029c-0.06959,0.10754 -0.09528,0.21627 -0.07433,0.34358l1.05643,6.39827c0.02095,0.12731 0.08026,0.2222 0.1791,0.29297c0.10873,0.07789 0.21785,0.10359 0.34516,0.08263l8.2142,-1.35612c0.0253,-0.00435 0.05931,-0.00988 0.09173,-0.02372c0.47128,-0.10398 0.83937,-0.35662 1.11257,-0.75911c0.2736,-0.40249 0.376,-0.83779 0.29613,-1.32172c-0.08105,-0.49224 -0.32934,-0.88721 -0.73618,-1.18611c-0.40525,-0.2902 -0.85914,-0.39853 -1.35968,-0.3159l-4.53291,0.73974c-0.12731,0.02095 -0.2222,0.08026 -0.29139,0.18741c-0.07947,0.10042 -0.10517,0.20915 -0.08421,0.33646l0.37402,2.26586l-2.78301,0.45942l-0.90816,-5.4988l7.76466,-1.28179l0.0087,-0.00158c1.26439,-0.20876 2.4248,0.06168 3.46265,0.80576c1.04654,0.7425 1.67597,1.75425 1.88473,3.01865c0.20876,1.26439 -0.06326,2.4165 -0.81407,3.46462c-0.74409,1.03785 -1.75584,1.66688 -3.02023,1.87563c-0.034,0.00593 -0.07512,0.02135 -0.11624,0.03677l-8.10389,1.33793c-0.12731,0.02095 -0.2222,0.08026 -0.30009,0.18899c-0.07077,0.09884 -0.09647,0.20757 -0.07552,0.33488l1.05643,6.39866c0.02095,0.12731 0.08026,0.2218 0.18068,0.30127c0.10715,0.06959 0.21587,0.09489 0.34318,0.07393l3.68287,-0.60808c0.12731,-0.02095 0.2222,-0.08026 0.29297,-0.1791c0.07789,-0.10873 0.10359,-0.21745 0.08263,-0.34476l-0.85479,-5.17618l4.97019,4.70608c0.11308,0.10319 0.24157,0.14312 0.38588,0.1194l4.65034,-0.76781c0.18661,-0.03084 0.30839,-0.13838 0.3582,-0.31195c0.05654,-0.18385 0.01305,-0.34239 -0.12098,-0.46812zM265.81398,307.38426l-5.98503,-0.56696l-0.26767,2.82531l5.98503,0.56696zM232.94015,313.19185l-3.28086,-1.55222l8.35396,-4.00193l0.69961,2.80475zM270.18717,310.64922l5.9851,0.56696l0.26767,-2.82571l-5.9851,-0.56696zM285.0669,311.24623l4.08338,-0.66541c0.24592,-0.04072 0.47207,0.00949 0.67964,0.15815c0.20757,0.14866 0.32737,0.34674 0.36809,0.59305c0.04072,0.24592 -0.00909,0.47207 -0.15775,0.67964c-0.14905,0.20757 -0.34713,0.32776 -0.59305,0.36809l-0.04112,0.01581l-4.0391,0.66659zM291.68736,322.30511l-5.0208,-4.74997l3.48756,-0.57605c0.01423,0.03282 0.03519,0.05535 0.06484,0.0767l4.98126,4.66931zM282.44046,318.25258l2.7834,-0.45942l0.90777,5.4988l-2.7834,0.45942z"
                    data-paper-data="{&quot;isBaseLogoContainer&quot;:true}"></path>
            </g>
        </g>
    </g>
</svg>