<svg version="1.1" xmlns="http://www.w3.org/2000/svg" xmlns:xlink="http://www.w3.org/1999/xlink" viewBox="0 0 550 470">
    <g fill="#00594c" fill-rule="none" stroke="none" stroke-width="1" stroke-linecap="butt" stroke-linejoin="miter"
        stroke-miterlimit="10" stroke-dasharray="" stroke-dashoffset="0" font-family="none" font-weight="none"
        font-size="none" text-anchor="none" style="mix-blend-mode: normal">
        <g
            data-paper-data="{&quot;isGlobalGroup&quot;:true,&quot;bounds&quot;:{&quot;x&quot;:145.99999999999997,&quot;y&quot;:106,&quot;width&quot;:258,&quot;height&quot;:258}}">
            <g data-paper-data="{&quot;textHeightFactor&quot;:0.4919334137668266,&quot;isSecondaryText&quot;:true}"
                fill-rule="nonzero">
                <path
                    d="M199.42585,279.72903h-1.74531c-0.13865,0 -0.24467,0.11418 -0.24467,0.24467v5.66819c0,0.13049 0.10602,0.23651 0.24467,0.23651c0.12234,0 0.23651,-0.10602 0.23651,-0.23651v-5.43168h1.5088c0.59536,0 1.0847,0.48934 1.0847,1.09286c0,0.59536 -0.48934,1.07655 -1.0847,1.07655h-0.85635c-0.13865,0 -0.24467,0.11418 -0.24467,0.23651c0,0.13865 0.10602,0.24467 0.24467,0.24467h0.85635c0.8645,0 1.55773,-0.69323 1.55773,-1.55773c0,-0.87266 -0.69323,-1.57404 -1.55773,-1.57404z"
                    data-paper-data="{&quot;glyphName&quot;:&quot;P&quot;,&quot;glyphIndex&quot;:0,&quot;firstGlyphOfWord&quot;:true,&quot;word&quot;:1}">
                </path>
                <path
                    d="M211.0624,285.40538h-3.07469v-5.23594c0,-0.13049 -0.11418,-0.23651 -0.23651,-0.23651c-0.13865,0 -0.24467,0.10602 -0.24467,0.23651v5.47246c0,0.13049 0.10602,0.23651 0.24467,0.23651h3.3112c0.13049,0 0.23651,-0.10602 0.23651,-0.23651c0,-0.13049 -0.10602,-0.23651 -0.23651,-0.23651z"
                    data-paper-data="{&quot;glyphName&quot;:&quot;L&quot;,&quot;glyphIndex&quot;:1,&quot;word&quot;:1}">
                </path>
                <path
                    d="M218.73975,285.85394c0.02447,0.01631 0.05709,0.02447 0.09787,0.02447c0.08971,0 0.16311,-0.04893 0.23651,-0.15496l2.50379,-5.02389l2.52826,5.0402c0.06525,0.11418 0.21205,0.17127 0.31807,0.11418c0.10602,-0.04893 0.17127,-0.17127 0.10602,-0.31807c-0.90528,-1.79425 -1.83503,-3.67821 -2.74031,-5.48061c-0.04078,-0.06525 -0.12234,-0.12234 -0.21205,-0.12234c-0.0734,0 -0.17127,0.04893 -0.21205,0.12234l-2.74031,5.48061c-0.05709,0.1468 -0.00816,0.26914 0.11418,0.31807z"
                    data-paper-data="{&quot;glyphName&quot;:&quot;A&quot;,&quot;glyphIndex&quot;:2,&quot;word&quot;:1}">
                </path>
                <path
                    d="M235.00345,279.59854c-0.10602,-0.0734 -0.26098,-0.04078 -0.33438,0.05709l-1.77794,2.38961l-1.77794,-2.38961c-0.08156,-0.10602 -0.23651,-0.13049 -0.33438,-0.05709c-0.11418,0.08971 -0.13865,0.24467 -0.04893,0.34254v-0.00816l1.97367,2.65059v-0.01631c0,0.02447 0.01631,0.04893 0.02447,0.05709c0.03262,0.02447 0.05709,0.04078 0.0734,0.04078c0.00816,0.00816 0.03262,0.01631 0.04893,0.01631h0.08971l0.03262,-0.01631c0.03262,0 0.04893,-0.01631 0.06525,-0.03262c0.00816,-0.00816 0.02447,-0.02447 0.03262,-0.04078l1.98183,-2.65875c0.06525,-0.09787 0.05709,-0.25283 -0.04893,-0.33438zM232.89113,282.74663c-0.13865,0 -0.23651,0.11418 -0.23651,0.23651v2.65875c0,0.13049 0.09787,0.23651 0.23651,0.23651c0.13049,0 0.23651,-0.10602 0.23651,-0.23651v-2.65875c0,-0.12234 -0.10602,-0.23651 -0.23651,-0.23651z"
                    data-paper-data="{&quot;glyphName&quot;:&quot;Y&quot;,&quot;glyphIndex&quot;:3,&quot;lastGlyphOfWord&quot;:true,&quot;word&quot;:1}">
                </path>
                <path
                    d="M250.84862,280.22653l2.74846,5.56217c0.02447,0.04078 0.08156,0.0734 0.1468,0.08156c0.01631,0.00816 0.02447,0.00816 0.04078,0.00816c0.0734,0 0.13049,-0.02447 0.17942,-0.0734l2.10416,-2.1531l2.10416,2.1531c0.04893,0.04893 0.10602,0.0734 0.17942,0.0734c0.01631,0 0.04078,0 0.05709,-0.00816c0.06525,-0.01631 0.12234,-0.0734 0.1468,-0.13049l2.74031,-5.51323c0.04078,-0.11418 0,-0.25283 -0.11418,-0.31807c-0.11418,-0.05709 -0.25283,-0.00816 -0.31807,0.11418l-2.58535,5.21147c-0.6443,-0.65245 -1.23151,-1.26413 -1.86765,-1.90843l0.61168,-0.61168v0.00816c0.09787,-0.08971 0.09787,-0.24467 0,-0.34254l-0.78294,-0.78294c-0.09787,-0.08156 -0.24467,-0.08156 -0.33438,0l-0.7911,0.78294c-0.09787,0.09787 -0.09787,0.25283 0,0.34254v-0.00816l0.61168,0.61168c-0.65245,0.66061 -1.2152,1.24782 -1.86765,1.90843l-2.58535,-5.21147c-0.05709,-0.12234 -0.20389,-0.17127 -0.31807,-0.11418c-0.10602,0.06525 -0.15496,0.20389 -0.10602,0.31807zM255.61968,282.55089l0.44856,-0.44856l0.45672,0.44856l-0.45672,0.44856z"
                    data-paper-data="{&quot;glyphName&quot;:&quot;W&quot;,&quot;glyphIndex&quot;:4,&quot;firstGlyphOfWord&quot;:true,&quot;word&quot;:2}">
                </path>
                <path
                    d="M269.782,285.40538h-0.15496c-0.13865,0 -0.23651,0.10602 -0.23651,0.23651c0,0.13049 0.09787,0.23651 0.23651,0.23651h0.79926c0.13049,0 0.23651,-0.10602 0.23651,-0.23651c0,-0.13049 -0.10602,-0.23651 -0.23651,-0.23651h-0.16311v-4.99943h0.16311c0.13049,0 0.23651,-0.09787 0.23651,-0.23651c0,-0.13049 -0.10602,-0.23651 -0.23651,-0.23651h-0.79926c-0.13865,0 -0.23651,0.10602 -0.23651,0.23651c0,0.13865 0.09787,0.23651 0.23651,0.23651h0.15496z"
                    data-paper-data="{&quot;glyphName&quot;:&quot;I&quot;,&quot;glyphIndex&quot;:5,&quot;word&quot;:2}">
                </path>
                <path
                    d="M279.0924,279.93292h-2.12863c-0.13049,0 -0.23651,0.10602 -0.23651,0.23651c0,0.13865 0.10602,0.23651 0.23651,0.23651h1.89212v5.23594c0,0.13049 0.09787,0.23651 0.23651,0.23651c0.12234,0 0.23651,-0.10602 0.23651,-0.23651v-5.47246c0,-0.13049 -0.11418,-0.23651 -0.23651,-0.23651zM281.21288,279.93292h-1.54958c-0.13865,0 -0.23651,0.10602 -0.23651,0.23651c0,0.13865 0.09787,0.23651 0.23651,0.23651h1.54958c0.13049,0 0.23651,-0.09787 0.23651,-0.23651c0,-0.13049 -0.10602,-0.23651 -0.23651,-0.23651z"
                    data-paper-data="{&quot;glyphName&quot;:&quot;T&quot;,&quot;glyphIndex&quot;:6,&quot;word&quot;:2}">
                </path>
                <path
                    d="M291.55708,282.81187h-2.62613v-2.64244c0,-0.13049 -0.10602,-0.23651 -0.23651,-0.23651c-0.13865,0 -0.23651,0.10602 -0.23651,0.23651v5.47246c0,0.13049 0.09787,0.23651 0.23651,0.23651c0.13049,0 0.23651,-0.10602 0.23651,-0.23651v-2.35699h2.62613c0.12234,0 0.23651,-0.09787 0.23651,-0.23651c0,-0.13049 -0.11418,-0.23651 -0.23651,-0.23651zM292.27478,279.93292c-0.13865,0 -0.24467,0.10602 -0.24467,0.23651v5.47246c0,0.13049 0.10602,0.23651 0.24467,0.23651c0.12234,0 0.23651,-0.10602 0.23651,-0.23651v-5.47246c0,-0.13049 -0.11418,-0.23651 -0.23651,-0.23651z"
                    data-paper-data="{&quot;glyphName&quot;:&quot;H&quot;,&quot;glyphIndex&quot;:7,&quot;lastGlyphOfWord&quot;:true,&quot;word&quot;:2}">
                </path>
                <path
                    d="M306.62923,285.87841c0.12234,0 0.23651,-0.10602 0.23651,-0.23651v-5.2441h1.5822c0.06525,0 0.1468,0.00816 0.2202,0.00816c0.0734,0.00816 0.15496,0.03262 0.22836,0.04078l0.24467,0.04893h-0.00816c0.08156,0.02447 0.15496,0.06525 0.23651,0.08971l-0.00816,-0.00816c0.08156,0.03262 0.16311,0.08156 0.23651,0.10602h-0.00816l0.23651,0.13049l-0.00816,-0.00816c0.06525,0.04893 0.13865,0.11418 0.21205,0.16311h-0.00816l0.18758,0.16311l0.18758,0.19574v-0.00816l0.1468,0.2202l-0.00816,-0.00816l0.13865,0.2202v-0.00816l0.10602,0.22836l-0.00816,-0.00816l0.08156,0.24467l0.04893,0.22836v-0.00816l0.03262,0.24467v-0.00816l0.01631,0.22836c0,0.0734 -0.00816,0.16311 -0.00816,0.23651v-0.00816l-0.03262,0.23651v-0.00816l-0.05709,0.22836l-0.0734,0.24467l0.00816,-0.00816c-0.03262,0.0734 -0.08156,0.15496 -0.11418,0.23651v-0.00816l-0.13865,0.22836l0.00816,-0.00816l-0.1468,0.21205v-0.00816c-0.04893,0.05709 -0.13049,0.13049 -0.17942,0.18758l-0.19574,0.17942h0.00816c-0.0734,0.04893 -0.1468,0.11418 -0.21205,0.16311l0.00816,-0.00816l-0.23651,0.12234h0.00816l-0.2202,0.11418l0.00816,-0.00816l-0.24467,0.08156l-0.22836,0.05709h0.00816l-0.23651,0.03262h0.00816l-0.24467,0.01631h-0.40778c-0.13049,0 -0.23651,0.10602 -0.23651,0.22836c0,0.13049 0.10602,0.23651 0.23651,0.23651l0.42409,0.00816l0.26098,-0.01631l0.2936,-0.03262l0.26098,-0.0734l0.22836,-0.0734l0.32623,-0.13865l0.23651,-0.13865l0.23651,-0.18758l0.24467,-0.20389l0.21205,-0.23651l0.17127,-0.23651l0.15496,-0.24467l0.1468,-0.35069l0.08156,-0.22836l0.0734,-0.26098l0.03262,-0.2936l0.00816,-0.26914l-0.00816,-0.26914l-0.04078,-0.27729l-0.05709,-0.24467l-0.12234,-0.33438l-0.10602,-0.2202l-0.15496,-0.26098l-0.17127,-0.25283l-0.21205,-0.22836l-0.23651,-0.21205c-0.0734,-0.04893 -0.1468,-0.11418 -0.21205,-0.16311c-0.00816,-0.01631 -0.04078,-0.03262 -0.04078,-0.03262l-0.25283,-0.13865l-0.30176,-0.1468l-0.23651,-0.0734l-0.28545,-0.06525l-0.27729,-0.03262l-0.25283,-0.01631h-1.83503c-0.1468,0 -0.24467,0.09787 -0.24467,0.23651v5.48061c0,0.13049 0.10602,0.23651 0.24467,0.23651z"
                    data-paper-data="{&quot;glyphName&quot;:&quot;D&quot;,&quot;glyphIndex&quot;:8,&quot;firstGlyphOfWord&quot;:true,&quot;word&quot;:3}">
                </path>
                <path
                    d="M318.0365,285.85394c0.02447,0.01631 0.05709,0.02447 0.09787,0.02447c0.08971,0 0.16311,-0.04893 0.23651,-0.15496l2.50379,-5.02389l2.52826,5.0402c0.06525,0.11418 0.21205,0.17127 0.31807,0.11418c0.10602,-0.04893 0.17127,-0.17127 0.10602,-0.31807c-0.90528,-1.79425 -1.83503,-3.67821 -2.74031,-5.48061c-0.04078,-0.06525 -0.12234,-0.12234 -0.21205,-0.12234c-0.0734,0 -0.17127,0.04893 -0.21205,0.12234l-2.74031,5.48061c-0.05709,0.1468 -0.00816,0.26914 0.11418,0.31807z"
                    data-paper-data="{&quot;glyphName&quot;:&quot;A&quot;,&quot;glyphIndex&quot;:9,&quot;word&quot;:3}">
                </path>
                <path
                    d="M331.44023,279.93292l1.97367,2.65059v-0.01631c0,0.02447 0.01631,0.04893 0.02447,0.05709c0.03262,0.02447 0.05709,0.04078 0.0734,0.04078c0.00816,0.00816 0.03262,0.01631 0.04893,0.01631h0.08971l0.03262,-0.01631c0.03262,0 0.04893,-0.01631 0.06525,-0.03262c0.00816,-0.00816 0.02447,-0.02447 0.03262,-0.04078l1.98183,-2.65875c0.06525,-0.09787 0.05709,-0.25283 -0.04893,-0.33438c-0.10602,-0.0734 -0.26098,-0.04078 -0.33438,0.05709l-1.77794,2.38961l-1.77794,-2.38961c-0.08156,-0.10602 -0.23651,-0.13049 -0.33438,-0.05709c-0.11418,0.08971 -0.13865,0.24467 -0.04893,0.34254zM335.76273,285.49509l-1.97367,-2.65059l-0.04078,-0.04893l-0.02447,-0.01631c-0.04078,-0.01631 -0.05709,-0.02447 -0.0734,-0.02447c-0.01631,-0.00816 -0.03262,-0.00816 -0.03262,-0.00816h-0.03262c-0.03262,0 -0.04893,0.00816 -0.06525,0.01631c-0.01631,0.00816 -0.03262,0.00816 -0.04078,0.01631c-0.04078,0.03262 -0.05709,0.04893 -0.06525,0.0734l0.00816,-0.01631l-1.98183,2.65875c-0.0734,0.10602 -0.05709,0.24467 0.04893,0.33438c0.04893,0.02447 0.08971,0.04893 0.13865,0.04893c0.06525,0 0.1468,-0.03262 0.19574,-0.09787l1.77794,-2.39777l1.77794,2.39777c0.04893,0.06525 0.13049,0.09787 0.19574,0.09787c0.04893,0 0.08971,-0.02447 0.13865,-0.04893c0.10602,-0.08156 0.12234,-0.2202 0.04893,-0.33438z"
                    data-paper-data="{&quot;glyphName&quot;:&quot;X&quot;,&quot;glyphIndex&quot;:10,&quot;lastGlyphOfWord&quot;:true,&quot;word&quot;:3}">
                </path>
                <path d="M185.89263,273.513v-0.48604h178.21483v0.48604z"
                    data-paper-data="{&quot;isContainerTopLineAboveSecondaryText&quot;:true}"></path>
            </g>
            <g data-paper-data="{&quot;isPrimaryText&quot;:true}" fill-rule="nonzero">
                <path
                    d="M191.26003,252.3649h3.52205c1.31953,0 2.44063,0.4663 3.38315,1.40882c0.9326,0.9326 1.3989,2.06362 1.3989,3.38315c0,1.31953 -0.4663,2.45055 -1.3989,3.38315c-0.94252,0.94252 -2.06362,1.40882 -3.38315,1.40882h-3.52205zM186.41845,246.99749c-0.14882,0 -0.26787,0.04961 -0.37701,0.14882c-0.09921,0.10913 -0.14882,0.22819 -0.14882,0.37701c0,0 0,0.01984 0.00992,0.04961c-0.00992,0.02976 -0.00992,0.04961 -0.00992,0.04961v14.84222c0,0.14882 0.04961,0.26787 0.14882,0.37701c0.10913,0.09921 0.22819,0.14882 0.37701,0.14882h8.36363c1.60725,0 2.97638,-0.56551 4.11733,-1.70646c1.14095,-1.14095 1.71638,-2.52 1.71638,-4.12725c0,-1.60725 -0.57543,-2.9863 -1.71638,-4.12725c-1.14095,-1.14095 -2.51008,-1.70646 -4.11733,-1.70646h-4.03796c-0.14882,0 -0.26787,0.04961 -0.37701,0.14882c-0.09921,0.10913 -0.14882,0.22819 -0.14882,0.37701v10.09985h-3.27402v-13.8997h7.8378c2.51008,0 4.663,0.89291 6.4389,2.66882c1.77591,1.77591 2.66882,3.92882 2.66882,6.4389c0,2.51008 -0.89291,4.663 -2.66882,6.4389c-1.77591,1.77591 -3.92882,2.66882 -6.4389,2.66882h-8.36363c-0.14882,0 -0.26787,0.04961 -0.37701,0.15874c-0.09921,0.09921 -0.14882,0.21827 -0.14882,0.36709c0,0.14882 0.04961,0.26787 0.14882,0.37701c0.10913,0.09921 0.22819,0.14882 0.37701,0.14882h8.36363c2.7978,0 5.18882,-0.99213 7.183,-2.97638c1.98425,-1.99418 2.97638,-4.3852 2.97638,-7.183c0,-2.7978 -0.99213,-5.18882 -2.97638,-7.183c-1.99418,-1.98425 -4.3852,-2.97638 -7.183,-2.97638z"
                    data-paper-data="{&quot;glyphName&quot;:&quot;D&quot;,&quot;glyphIndex&quot;:0,&quot;firstGlyphOfWord&quot;:true,&quot;word&quot;:1}">
                </path>
                <path
                    d="M221.31156,266.2646l-1.17071,-2.91685h3.54189l1.17071,2.91685zM215.51754,254.61703l1.28977,3.21449h-2.57953zM224.52605,262.63341c-0.00992,-0.00992 -0.00992,-0.00992 -0.00992,-0.00992l-0.01984,-0.03969c-0.08929,-0.1885 -0.24803,-0.28772 -0.45638,-0.2778h-12.28253c-0.2778,-0.04961 -0.4663,0.04961 -0.57543,0.31748l-1.46835,3.64111h-3.53197l7.30205,-18.21545h4.0578l3.92882,9.78237h-3.54189l-1.92473,-4.81182c-0.08929,-0.21827 -0.25795,-0.3274 -0.48614,-0.3274c-0.23811,0 -0.39685,0.10913 -0.48614,0.3274l-2.06362,5.13922c0,-0.00992 0,0.00992 -0.00992,0.03969c-0.00992,0.02976 -0.01984,0.04961 -0.01984,0.05953c0,0.00992 0,0.03969 -0.00992,0.06945c0,0.02976 0,0.03969 0,0.02976v0.00992c0,0.00992 0,0.03969 0.00992,0.06945c0,0.02976 0,0.03969 0,0.02976c0,0.00992 0.00992,0.02976 0.01984,0.05953c0.00992,0.02976 0.00992,0.03969 0.00992,0.03969c0,-0.00992 0.00992,0 0.01984,0.02976l0.02976,0.05953l0.03969,0.04961c0.02976,0.02976 0.02976,0.03969 0.01984,0.02976l0.03969,0.02976c0.02976,0.01984 0.03969,0.02976 0.03969,0.02976c-0.00992,-0.00992 0,0 0.02976,0.01984c0.02976,0.00992 0.05953,0.01984 0.06945,0.02976l0.04961,0.01984c0.02976,0.00992 0.03969,0.00992 0.04961,0.00992c0.02976,0.00992 0.06945,0.00992 0.09921,0.00992h8.79024c0,0 0.01984,0 0.04961,-0.00992c0.02976,0 0.04961,0 0.04961,0l0.07937,-0.01984c0.03969,-0.01984 0.04961,-0.01984 0.01984,-0.00992l0.07937,-0.03969c0,0 0,0 0.00992,-0.00992l0.06945,-0.04961c0,-0.00992 0,-0.00992 0.00992,-0.00992c0.05953,-0.05953 0.09921,-0.1389 0.12898,-0.22819c0.00992,-0.02976 0.01984,-0.03969 0.01984,-0.03969c-0.00992,0.00992 -0.00992,0 0,-0.02976c0.00992,-0.02976 0.00992,-0.05953 0.00992,-0.06945v-0.00992c0,0.00992 0,0 0,-0.02976c-0.00992,-0.02976 -0.00992,-0.05953 -0.00992,-0.06945c0,-0.00992 -0.00992,-0.02976 -0.01984,-0.05953c-0.00992,-0.02976 -0.00992,-0.04961 -0.00992,-0.03969l-4.34552,-10.83403c-0.08929,-0.21827 -0.24803,-0.3274 -0.48614,-0.3274h-4.76221c-0.23811,0 -0.39685,0.10913 -0.48614,0.3274l-7.73859,19.27703c-0.06945,0.16866 -0.04961,0.33732 0.05953,0.48614c0.09921,0.14882 0.23811,0.22819 0.42661,0.22819h4.67292c0.23811,0 0.39685,-0.10913 0.48614,-0.3274l1.45843,-3.64111h7.00442l1.45843,3.64111c0.08929,0.21827 0.24803,0.3274 0.48614,0.3274h4.663c0.1885,0 0.3274,-0.07937 0.43654,-0.22819c0.10913,-0.14882 0.11906,-0.31748 0.04961,-0.48614z"
                    data-paper-data="{&quot;glyphName&quot;:&quot;A&quot;,&quot;glyphIndex&quot;:1,&quot;word&quot;:1}">
                </path>
                <path
                    d="M244.13048,248.04915h4.23638l-6.73654,8.26442l-2.10331,-2.59937zM233.51472,266.2646h-4.18678l6.73654,-8.29418l2.11323,2.57953zM242.30496,257.13703l7.56993,-9.28631c0.1389,-0.16866 0.15874,-0.35717 0.06945,-0.55559c-0.08929,-0.19843 -0.24803,-0.29764 -0.47622,-0.29764h-5.58567c-0.16866,0 -0.29764,0.05953 -0.40677,0.1885l-4.62331,5.70473l-4.63323,-5.70473c-0.10913,-0.12898 -0.23811,-0.1885 -0.40677,-0.1885h-5.58567c-0.21827,0 -0.37701,0.09921 -0.47622,0.29764c-0.08929,0.19843 -0.06945,0.38693 0.06945,0.55559l7.56993,9.28631l-7.56993,9.32599c-0.1389,0.16866 -0.15874,0.35717 -0.06945,0.55559c0.09921,0.19843 0.25795,0.29764 0.47622,0.29764h5.53607c0.16866,0 0.29764,-0.05953 0.40677,-0.1885l4.68284,-5.74441l4.67292,5.74441c0.08929,0.10913 0.20835,0.16866 0.35717,0.1885c0.14882,0.00992 0.2778,-0.02976 0.38693,-0.11906c0.10913,-0.08929 0.17858,-0.20835 0.1885,-0.34724c0.00992,-0.14882 -0.02976,-0.2778 -0.11906,-0.38693l-15.01088,-18.41388h4.23638l15.49702,19.06868c0.10913,0.12898 0.23811,0.19843 0.40677,0.19843c0.12898,0 0.23811,-0.03969 0.33732,-0.11906c0.10913,-0.08929 0.17858,-0.20835 0.1885,-0.34724c0.00992,-0.14882 -0.02976,-0.2778 -0.11906,-0.38693z"
                    data-paper-data="{&quot;glyphName&quot;:&quot;X&quot;,&quot;glyphIndex&quot;:2,&quot;lastGlyphOfWord&quot;:true,&quot;word&quot;:1}">
                </path>
                <path
                    d="M276.81114,251.32317h-6.93497v-3.27402h6.93497zM257.56388,248.04915h6.93497v3.27402h-6.93497zM269.35034,246.99749c-0.14882,0 -0.26787,0.04961 -0.36709,0.14882c-0.10913,0.10913 -0.15874,0.22819 -0.15874,0.37701v18.74128h-3.27402v-18.74128c0,-0.14882 -0.04961,-0.26787 -0.15874,-0.37701c-0.09921,-0.09921 -0.21827,-0.14882 -0.36709,-0.14882h-7.98662c-0.14882,0 -0.26787,0.04961 -0.37701,0.14882c-0.09921,0.10913 -0.14882,0.22819 -0.14882,0.37701v4.32567c0,0.1389 0.04961,0.25795 0.14882,0.36709c0.10913,0.09921 0.22819,0.14882 0.37701,0.14882h7.46079v14.42553c0,0.14882 0.04961,0.26787 0.15874,0.37701c0.09921,0.09921 0.21827,0.14882 0.36709,0.14882h4.32567c0.14882,0 0.26787,-0.04961 0.36709,-0.14882c0.10913,-0.10913 0.15874,-0.22819 0.15874,-0.37701v-14.42553h7.46079c0.14882,0 0.26787,-0.04961 0.36709,-0.14882c0.10913,-0.10913 0.15874,-0.22819 0.15874,-0.36709v-4.32567c0,-0.14882 -0.04961,-0.26787 -0.15874,-0.37701c-0.09921,-0.09921 -0.21827,-0.14882 -0.36709,-0.14882z"
                    data-paper-data="{&quot;glyphName&quot;:&quot;T&quot;,&quot;glyphIndex&quot;:3,&quot;firstGlyphOfWord&quot;:true,&quot;word&quot;:2}">
                </path>
                <path
                    d="M291.87163,266.18523l-4.82174,-6.34961h4.07764c0.00992,0.03969 0.02976,0.06945 0.05953,0.09921l4.79197,6.2504zM282.1091,259.83562h3.25418v6.42898h-3.25418zM286.41493,252.35498l4.77213,0.00992c0.28772,0 0.53575,0.09921 0.7441,0.30756c0.20835,0.20835 0.30756,0.45638 0.30756,0.7441c0,0.28772 -0.09921,0.53575 -0.30756,0.7441c-0.20835,0.20835 -0.45638,0.30756 -0.7441,0.30756l-0.04961,0.00992h-4.72252zM292.33793,259.71656c1.50803,-0.26787 2.75811,-1.00205 3.76016,-2.18268c1.00205,-1.19055 1.50803,-2.56961 1.50803,-4.12725c0,-1.76599 -0.62504,-3.27402 -1.87512,-4.53402c-1.26,-1.25008 -2.76803,-1.87512 -4.53402,-1.87512c0.00992,0 0.00992,0 0,0c-0.00992,0 -0.00992,0 -0.00992,0h-9.60379c-0.14882,0 -0.26787,0.04961 -0.37701,0.14882c-0.09921,0.10913 -0.14882,0.22819 -0.14882,0.37701v7.48064c0,0.14882 0.04961,0.26787 0.14882,0.36709c0.10913,0.10913 0.22819,0.15874 0.37701,0.15874h9.60379c0.02976,0 0.06945,0 0.10913,-0.00992c0.55559,-0.02976 1.02189,-0.24803 1.40882,-0.6548c0.38693,-0.40677 0.58535,-0.88299 0.58535,-1.44851c0,-0.57543 -0.20835,-1.0715 -0.61512,-1.48819c-0.40677,-0.40677 -0.90284,-0.61512 -1.48819,-0.61512l-5.29796,-0.00992c-0.14882,0 -0.26787,0.04961 -0.36709,0.15874c-0.10913,0.09921 -0.15874,0.21827 -0.15874,0.36709v2.64898h-3.25418v-6.42898h9.07796c0,0 0,0 0.00992,0c0.00992,0 0.00992,0 0,0c1.47827,0 2.74819,0.52583 3.78992,1.56756c1.05165,1.04173 1.57748,2.31166 1.57748,3.78992c0,1.47827 -0.52583,2.73827 -1.57748,3.78992c-1.04173,1.04173 -2.31166,1.56756 -3.78992,1.56756c-0.03969,0 -0.08929,0.00992 -0.1389,0.01984h-9.47481c-0.14882,0 -0.26787,0.04961 -0.37701,0.15874c-0.09921,0.09921 -0.14882,0.21827 -0.14882,0.36709v7.48064c0,0.14882 0.04961,0.26787 0.14882,0.37701c0.10913,0.09921 0.22819,0.14882 0.37701,0.14882h4.30583c0.14882,0 0.26787,-0.04961 0.36709,-0.14882c0.10913,-0.10913 0.15874,-0.22819 0.15874,-0.37701v-6.05197l4.77213,6.29008c0.10913,0.1389 0.24803,0.20835 0.41669,0.20835h5.43686c0.21827,0 0.37701,-0.09921 0.4663,-0.28772c0.09921,-0.19843 0.07937,-0.38693 -0.04961,-0.55559z"
                    data-paper-data="{&quot;glyphName&quot;:&quot;R&quot;,&quot;glyphIndex&quot;:4,&quot;word&quot;:2}">
                </path>
                <path
                    d="M305.45384,267.31625c0.1389,0 0.25795,-0.04961 0.36709,-0.14882c0.09921,-0.10913 0.14882,-0.22819 0.14882,-0.37701v-19.26711c0,-0.14882 -0.04961,-0.26787 -0.14882,-0.37701c-0.10913,-0.09921 -0.22819,-0.14882 -0.36709,-0.14882c-0.14882,0 -0.26787,0.04961 -0.37701,0.14882c-0.09921,0.10913 -0.14882,0.22819 -0.14882,0.37701v18.74128h-3.27402v-18.74128c0,-0.14882 -0.04961,-0.26787 -0.15874,-0.37701c-0.09921,-0.09921 -0.21827,-0.14882 -0.36709,-0.14882c-0.14882,0 -0.26787,0.04961 -0.37701,0.14882c-0.09921,0.10913 -0.14882,0.22819 -0.14882,0.37701v19.26711c0,0.14882 0.04961,0.26787 0.14882,0.37701c0.10913,0.09921 0.22819,0.14882 0.37701,0.14882z"
                    data-paper-data="{&quot;glyphName&quot;:&quot;I&quot;,&quot;glyphIndex&quot;:5,&quot;word&quot;:2}">
                </path>
                <path
                    d="M324.57213,267.31625c0.14882,0 0.26787,-0.04961 0.37701,-0.14882c0.09921,-0.10913 0.14882,-0.22819 0.14882,-0.37701v-4.7126c0,-0.14882 -0.04961,-0.26787 -0.14882,-0.37701c-0.10913,-0.09921 -0.22819,-0.14882 -0.37701,-0.14882h-5.94284c-1.21039,0 -2.24221,-0.42661 -3.10536,-1.28977c-0.86315,-0.86315 -1.28977,-1.89496 -1.28977,-3.10536c0,-1.21039 0.42661,-2.24221 1.28977,-3.10536c0.86315,-0.86315 1.89496,-1.28977 3.10536,-1.28977h5.94284c0.14882,0 0.26787,-0.04961 0.37701,-0.14882c0.09921,-0.10913 0.14882,-0.22819 0.14882,-0.37701c0,-0.14882 -0.04961,-0.26787 -0.14882,-0.36709c-0.10913,-0.10913 -0.22819,-0.15874 -0.37701,-0.15874h-5.94284c-1.49811,0 -2.78788,0.53575 -3.84945,1.59732c-1.06158,1.06158 -1.59732,2.35134 -1.59732,3.84945c0,1.49811 0.53575,2.78788 1.59732,3.84945c1.06158,1.06158 2.35134,1.59732 3.84945,1.59732h5.42693v3.66095h-5.00032c-2.51008,0 -4.663,-0.89291 -6.4389,-2.66882c-1.77591,-1.77591 -2.66882,-3.92882 -2.66882,-6.4389c0,-2.51008 0.89291,-4.663 2.66882,-6.4389c1.77591,-1.77591 3.92882,-2.66882 6.4389,-2.66882h5.51623c0.14882,0 0.26787,-0.04961 0.37701,-0.15874c0.09921,-0.09921 0.14882,-0.21827 0.14882,-0.36709c0,-0.14882 -0.04961,-0.26787 -0.14882,-0.37701c-0.10913,-0.09921 -0.22819,-0.14882 -0.37701,-0.14882h-5.51623c-2.7978,0 -5.18882,0.99213 -7.183,2.97638c-1.98425,1.99418 -2.97638,4.3852 -2.97638,7.183c0,2.7978 0.99213,5.18882 2.97638,7.183c1.99418,1.98425 4.3852,2.97638 7.183,2.97638z"
                    data-paper-data="{&quot;glyphName&quot;:&quot;C&quot;,&quot;glyphIndex&quot;:6,&quot;word&quot;:2}">
                </path>
                <path
                    d="M345.10916,266.2646h-4.56378l-7.14331,-7.0441l2.58945,-2.12315zM329.1756,266.2646v-3.55181l3.27402,-2.69859v6.2504zM332.44962,248.04915v5.49638l-3.27402,2.66882v-8.1652zM346.68664,247.07686h-6.1115c-0.12898,0 -0.23811,0.03969 -0.33732,0.11906l-6.74646,5.49638v-5.16898c0,-0.14882 -0.04961,-0.26787 -0.14882,-0.37701c-0.10913,-0.09921 -0.22819,-0.14882 -0.36709,-0.14882h-4.32567c-0.14882,0 -0.26787,0.04961 -0.37701,0.14882c-0.09921,0.10913 -0.14882,0.22819 -0.14882,0.37701v9.79229c0,-0.01984 0,-0.00992 0,0.01984c0,0.01984 0,0.03969 0.00992,0.05953c0,0.01984 0,0.03969 0.00992,0.04961c0,0.00992 0,0.02976 0.00992,0.04961l0.01984,0.03969l0.02976,0.04961l0.02976,0.04961c0.00992,0.01984 0.01984,0.01984 0.00992,0.00992c-0.00992,-0.00992 -0.00992,-0.00992 0.01984,0.01984c0.00992,0.00992 0.01984,0.02976 0.03969,0.03969l0.02976,0.02976l0.04961,0.02976l0.03969,0.02976c0.00992,0.00992 0.02976,0.00992 0.04961,0.01984c0.01984,0 0.03969,0 0.04961,0.00992c0.00992,0.00992 0.02976,0.00992 0.04961,0.00992c0.01984,0 0.03969,0 0.04961,0.00992c0.04961,0 0.05953,0 0.02976,0c-0.02976,0 -0.01984,0 0.01984,0c0.01984,0 0.03969,0 0.05953,-0.00992c0.01984,0 0.02976,0 0.03969,-0.00992c0.01984,0 0.03969,0 0.04961,-0.00992c0.01984,-0.00992 0.03969,-0.00992 0.04961,-0.01984l0.04961,-0.02976l0.03969,-0.02976c0.03969,-0.02976 0.04961,-0.02976 0.01984,-0.00992l11.78647,-9.60379h4.46457l-16.91576,13.93938c0.00992,-0.00992 0.00992,0 -0.00992,0.01984l-0.03969,0.03969l-0.03969,0.03969l-0.01984,0.03969l-0.02976,0.04961l-0.01984,0.03969c-0.00992,0.01984 -0.00992,0.03969 -0.00992,0.04961c-0.00992,0.00992 -0.00992,0.02976 -0.00992,0.04961c-0.00992,0.01984 -0.00992,0.03969 -0.00992,0.05953c0,0.03969 0,0.04961 0,0.01984v4.32567c0,0.14882 0.04961,0.26787 0.14882,0.37701c0.10913,0.09921 0.22819,0.14882 0.37701,0.14882h4.32567c0.1389,0 0.25795,-0.04961 0.36709,-0.14882c0.09921,-0.10913 0.14882,-0.22819 0.14882,-0.37701v-6.00237l6.46867,6.37938c0.09921,0.09921 0.21827,0.14882 0.36709,0.14882h6.03213c0.23811,0 0.39685,-0.10913 0.48614,-0.3274c0.08929,-0.20835 0.05953,-0.39685 -0.10913,-0.56551l-9.93119,-10.00064l10.21891,-8.42316c0.1885,-0.14882 0.23811,-0.34724 0.15874,-0.57543c-0.08929,-0.22819 -0.24803,-0.34724 -0.49606,-0.34724z"
                    data-paper-data="{&quot;glyphName&quot;:&quot;K&quot;,&quot;glyphIndex&quot;:7,&quot;word&quot;:2}">
                </path>
                <path
                    d="M354.3657,253.39671c-0.29764,-0.16866 -0.41669,-0.38693 -0.34724,-0.63496c0.06945,-0.25795 0.2778,-0.38693 0.64488,-0.38693h7.63938c0.14882,0 0.26787,-0.04961 0.36709,-0.15874c0.10913,-0.09921 0.15874,-0.21827 0.15874,-0.36709l-0.00992,-4.32567c0,-0.14882 -0.04961,-0.26787 -0.15874,-0.37701c-0.09921,-0.09921 -0.21827,-0.14882 -0.36709,-0.14882c0,0 -0.01984,0 -0.04961,0.00992v-0.00992h-7.14331c-1.66677,0 -3.02599,0.39685 -4.07764,1.19055c-1.26,0.95244 -1.98425,2.1926 -2.15292,3.71055c-0.11906,1.02189 0.01984,2.0041 0.42661,2.95654c0.40677,0.94252 1.00205,1.69654 1.79575,2.26205c0.85323,0.6052 2.92677,1.62709 6.22064,3.04583l0.54567,0.24803c0.73417,0.30756 1.04173,0.6548 0.9326,1.02189c-0.06945,0.21827 -0.15874,0.36709 -0.2778,0.43654c-0.19843,0.12898 -0.55559,0.1885 -1.06158,0.1885h-0.03969c-0.40677,-0.00992 -3.07559,-0.00992 -8.00646,-0.00992c-0.14882,0 -0.26787,0.04961 -0.36709,0.14882c-0.10913,0.10913 -0.15874,0.22819 -0.15874,0.37701c0,0.1389 0.04961,0.25795 0.15874,0.36709c0.09921,0.09921 0.21827,0.14882 0.36709,0.14882c4.92095,0 7.57985,0.00992 7.98662,0.01984h0.05953c0.68457,0 1.20047,-0.10913 1.56756,-0.3274c0.36709,-0.20835 0.62504,-0.55559 0.77386,-1.04173c0.1389,-0.44646 0.06945,-0.88299 -0.19843,-1.28977c-0.26787,-0.40677 -0.70441,-0.73417 -1.31953,-1.00205l-0.54567,-0.24803c-3.22441,-1.38898 -5.22851,-2.37118 -6.03213,-2.9367c-0.64488,-0.45638 -1.1211,-1.0715 -1.44851,-1.83543c-0.3274,-0.77386 -0.43654,-1.57748 -0.33732,-2.41087c0.1389,-1.22032 0.72425,-2.22236 1.74614,-2.99622c0.86315,-0.64488 2.0041,-0.97228 3.44268,-0.97228h6.66709l0.00992,3.27402h-7.11355c-0.40677,0 -0.76394,0.10913 -1.0715,0.31748c-0.29764,0.20835 -0.49606,0.49606 -0.58535,0.85323c-0.09921,0.34724 -0.06945,0.69449 0.08929,1.02189c0.14882,0.3274 0.40677,0.59528 0.75402,0.7937c0.26787,0.14882 2.32158,1.04173 6.17103,2.67874c0.67465,0.28772 1.27984,0.71433 1.81559,1.27984c0.98221,1.04173 1.37906,2.29181 1.17071,3.74032c-0.1885,1.36914 -0.89291,2.44063 -2.09339,3.22441c-1.05165,0.68457 -2.26205,1.03181 -3.63118,1.03181h-7.87749c-0.14882,0 -0.26787,0.04961 -0.36709,0.15874c-0.10913,0.09921 -0.15874,0.21827 -0.15874,0.36709c0,0.14882 0.04961,0.26787 0.15874,0.37701c0.09921,0.09921 0.21827,0.14882 0.36709,0.14882h7.87749c1.61717,0 3.04583,-0.41669 4.28599,-1.25008c1.41874,-0.95244 2.25213,-2.25213 2.48032,-3.90898c0.20835,-1.52788 -0.1389,-2.89701 -1.04173,-4.09748c-0.68457,-0.92268 -1.54772,-1.59732 -2.56961,-2.03386c-3.78,-1.61717 -5.80394,-2.49024 -6.07182,-2.62914z"
                    data-paper-data="{&quot;glyphName&quot;:&quot;S&quot;,&quot;glyphIndex&quot;:8,&quot;lastGlyphOfWord&quot;:true,&quot;word&quot;:2}">
                </path>
            </g>
            <g data-paper-data="{&quot;fillRule&quot;:&quot;undefined&quot;,&quot;isIcon&quot;:&quot;true&quot;,&quot;rawInitialId&quot;:&quot;314&quot;,&quot;iconType&quot;:&quot;initial&quot;,&quot;initialText&quot;:&quot;DT&quot;,&quot;selectedEffects&quot;:{&quot;container&quot;:&quot;&quot;,&quot;transformation&quot;:&quot;&quot;,&quot;pattern&quot;:&quot;&quot;},&quot;iconStyle&quot;:&quot;standalone&quot;,&quot;bounds&quot;:{&quot;x&quot;:230.6801045581352,&quot;y&quot;:184.1216782512034,&quot;width&quot;:88.63987574793532,&quot;height&quot;:52.02415505169543},&quot;suitableAsStandaloneIcon&quot;:true}"
                fill-rule="undefined">
                <path
                    d="M233.66238,201.43545c0,-0.49705 -0.33136,-0.99409 -0.74557,-1.24262v-14.49718h25.92923c6.79296,0 12.34331,5.46751 12.34331,12.26047v17.64513h1.49114v-17.64513c0,-7.62137 -6.21308,-13.83445 -13.83445,-13.83445h-27.50321v16.07115c-0.41421,0.33136 -0.66273,0.74557 -0.66273,1.24262c0,0.82841 0.66273,1.49114 1.49114,1.49114c0.82841,0 1.49114,-0.66273 1.49114,-1.49114zM258.84604,187.1868h-15.90547h-2.31955h-6.13024v45.89392h6.13024h2.31955h15.90547c5.96455,0 10.76933,-4.80478 10.76933,-10.76933v-24.35526c0,-5.96455 -4.80478,-10.76933 -10.76933,-10.76933zM256.69218,225.70787h-13.75161v-31.23106h13.66877c2.48523,0 4.55625,2.07103 4.55625,4.6391c0,15.15991 0.08284,8.36694 0.08284,21.95287c0,2.56807 -1.98818,4.6391 -4.55625,4.6391zM256.60933,196.05078h-12.09479v28.0831h12.17763c1.65682,0 3.06512,-1.32545 3.06512,-3.06512c0,-7.29001 -0.08284,-14.66286 -0.08284,-21.95287c0,-1.65682 -1.4083,-3.06512 -3.06512,-3.06512zM256.69218,222.64275h-10.68649v-25.10082h10.60365c0.82841,0 1.49114,0.74557 1.49114,1.57398c0,7.29001 0.08284,14.66286 0.08284,21.95287c0,0.91125 -0.66273,1.57398 -1.49114,1.57398zM271.85208,219.16343c-0.82841,0 -1.4083,0.66273 -1.4083,1.4083c0,0.57989 0.24852,1.07693 0.74557,1.32545v0.41421c0,6.79296 -5.55035,12.34331 -12.34331,12.34331h-25.92923v-27.25469h-1.57398v28.74583h27.50321c7.62137,0 13.83445,-6.21308 13.83445,-13.83445v-0.49705c0.41421,-0.24852 0.66273,-0.66273 0.66273,-1.24262c0,-0.74557 -0.66273,-1.4083 -1.49114,-1.4083zM305.31985,219.41195c-0.82841,0 -1.49114,0.66273 -1.49114,1.49114c0,0.49705 0.33136,0.99409 0.74557,1.24262v12.50899h-11.5149v-27.25469h-1.57398v28.74583h14.66286v-14.08297c0.33136,-0.24852 0.57989,-0.66273 0.57989,-1.15977c0,-0.82841 -0.57989,-1.49114 -1.4083,-1.49114zM278.31368,184.12168v14.66286h13.17172v1.07693c-0.41421,0.24852 -0.66273,0.74557 -0.66273,1.24262c0,0.82841 0.66273,1.49114 1.4083,1.49114c0.82841,0 1.49114,-0.66273 1.49114,-1.49114c0,-0.49705 -0.24852,-0.99409 -0.66273,-1.24262v-2.65091h-13.17172v-11.5149h37.85834v11.5149h-13.17172v18.39071h1.57398v-16.81673h13.17172v-14.66286zM303.08314,233.08071v-37.3613h13.17172v-8.53263h-34.87607v8.53263h13.17172v37.3613z"
                    data-paper-data="{&quot;isPathIcon&quot;:true}"></path>
            </g>
            <g data-paper-data="{&quot;isContainerElementsWrapper&quot;:true}" fill-rule="evenodd">
                <path
                    d="M183.7832,143.7832c-11.9026,11.90266 -21.11775,25.57065 -27.64544,41.00397c-6.75851,15.97908 -10.13776,32.71671 -10.13776,50.21288c0,17.49702 3.37926,34.23464 10.13777,50.21288c6.52822,15.43369 15.74337,29.10163 27.64543,41.00384c11.90484,11.90447 25.57282,21.11959 41.00397,27.64536c15.97965,6.75859 32.71727,10.13788 50.21288,10.13788c17.49787,0 34.23549,-3.37929 50.21288,-10.13788c15.43256,-6.52719 29.1005,-15.74231 41.00384,-27.64536c11.90419,-11.90362 21.11931,-25.57157 27.64536,-41.00384c6.75859,-15.98191 10.13788,-32.71954 10.13788,-50.21288c0,-17.4956 -3.37929,-34.23323 -10.13788,-50.21288c-6.52747,-15.43349 -15.74259,-29.10148 -27.64536,-41.00397c-11.9022,-11.90252 -25.57015,-21.11765 -41.00384,-27.64541c-15.97908,-6.75853 -32.71671,-10.13779 -50.21288,-10.13779c-17.49589,0 -34.23351,3.37926 -50.21288,10.13779c-15.4334,6.52758 -29.10139,15.74272 -41.00397,27.64541zM147.05164,235.00004c0,-17.35416 3.35157,-33.95516 10.05471,-49.80298c6.47452,-15.30764 15.61469,-28.86437 27.42052,-40.67019c11.80594,-11.80603 25.36267,-20.9462 40.67019,-27.42052c15.84811,-6.70314 32.4491,-10.05471 49.80298,-10.05471c17.35388,0 33.95488,3.35157 49.80298,10.05471c15.30724,6.47423 28.86401,15.61441 40.67032,27.42052c11.80772,11.80798 20.94788,25.36471 27.42047,40.67019c6.70314,15.84867 10.05471,32.44967 10.05471,49.80298c0,17.3536 -3.35157,33.95459 -10.05471,49.80298c-6.47372,15.30639 -15.61388,28.86317 -27.42047,40.67032c-11.80546,11.80546 -25.36223,20.94562 -40.67032,27.42047c-15.84839,6.70314 -32.44938,10.05471 -49.80298,10.05471c-17.3536,0 -33.95459,-3.35157 -49.80298,-10.05471c-15.30696,-6.47401 -28.86369,-15.61417 -40.67019,-27.42047c-11.80509,-11.80489 -20.94527,-25.36167 -27.42052,-40.67032c-6.70314,-15.84726 -10.0547,-32.44825 -10.0547,-49.80298z"
                    data-paper-data="{&quot;isBaseLogoContainer&quot;:true}"></path>
            </g>
        </g>
    </g>
</svg>