<svg version="1.1" xmlns="http://www.w3.org/2000/svg" xmlns:xlink="http://www.w3.org/1999/xlink" viewBox="0 0 550 470">
    <g fill="#00594c" fill-rule="none" stroke="none" stroke-width="1" stroke-linecap="butt" stroke-linejoin="miter"
        stroke-miterlimit="10" stroke-dasharray="" stroke-dashoffset="0" font-family="none" font-weight="none"
        font-size="none" text-anchor="none" style="mix-blend-mode: normal">
        <g
            data-paper-data="{&quot;isGlobalGroup&quot;:true,&quot;bounds&quot;:{&quot;x&quot;:85.96439532119521,&quot;y&quot;:106,&quot;width&quot;:378.07120935760963,&quot;height&quot;:258}}">
            <g data-paper-data="{&quot;textHeightFactor&quot;:0.4919334137668266,&quot;isSecondaryText&quot;:true}"
                fill-rule="nonzero">
                <path
                    d="M156.3166,305.24341h-2.74088c-0.21773,0 -0.38424,0.17931 -0.38424,0.38424v8.90146c0,0.20493 0.1665,0.37143 0.38424,0.37143c0.19212,0 0.37143,-0.1665 0.37143,-0.37143v-8.53004h2.36945c0.93497,0 1.70345,0.76847 1.70345,1.71625c0,0.93497 -0.76847,1.69064 -1.70345,1.69064h-1.34483c-0.21773,0 -0.38424,0.17931 -0.38424,0.37143c0,0.21773 0.1665,0.38424 0.38424,0.38424h1.34483c1.35763,0 2.4463,-1.08867 2.4463,-2.4463c0,-1.37044 -1.08867,-2.47192 -2.4463,-2.47192z"
                    data-paper-data="{&quot;glyphName&quot;:&quot;P&quot;,&quot;glyphIndex&quot;:0,&quot;firstGlyphOfWord&quot;:true,&quot;word&quot;:1}">
                </path>
                <path
                    d="M174.59093,314.15769h-4.82856v-8.22265c0,-0.20493 -0.17931,-0.37143 -0.37143,-0.37143c-0.21773,0 -0.38424,0.1665 -0.38424,0.37143v8.59408c0,0.20493 0.1665,0.37143 0.38424,0.37143h5.19999c0.20493,0 0.37143,-0.1665 0.37143,-0.37143c0,-0.20493 -0.1665,-0.37143 -0.37143,-0.37143z"
                    data-paper-data="{&quot;glyphName&quot;:&quot;L&quot;,&quot;glyphIndex&quot;:1,&quot;word&quot;:1}">
                </path>
                <path
                    d="M186.64762,314.86212c0.03842,0.02562 0.08966,0.03842 0.15369,0.03842c0.14089,0 0.25616,-0.07685 0.37143,-0.24335l3.93201,-7.88964l3.97044,7.91526c0.10246,0.17931 0.333,0.26897 0.49951,0.17931c0.1665,-0.07685 0.26897,-0.26897 0.1665,-0.49951c-1.42167,-2.81773 -2.88177,-5.77635 -4.30344,-8.60688c-0.06404,-0.10246 -0.19212,-0.19212 -0.333,-0.19212c-0.11527,0 -0.26897,0.07685 -0.333,0.19212l-4.30344,8.60688c-0.08966,0.23054 -0.01281,0.42266 0.17931,0.49951z"
                    data-paper-data="{&quot;glyphName&quot;:&quot;A&quot;,&quot;glyphIndex&quot;:2,&quot;word&quot;:1}">
                </path>
                <path
                    d="M212.18853,305.03849c-0.1665,-0.11527 -0.40985,-0.06404 -0.52512,0.08966l-2.79211,3.7527l-2.79211,-3.7527c-0.12808,-0.1665 -0.37143,-0.20493 -0.52512,-0.08966c-0.17931,0.14089 -0.21773,0.38424 -0.07685,0.53793v-0.01281l3.0995,4.16256v-0.02562c0,0.03842 0.02562,0.07685 0.03842,0.08966c0.05123,0.03842 0.08966,0.06404 0.11527,0.06404c0.01281,0.01281 0.05123,0.02562 0.07685,0.02562h0.14089l0.05123,-0.02562c0.05123,0 0.07685,-0.02562 0.10246,-0.05123c0.01281,-0.01281 0.03842,-0.03842 0.05123,-0.06404l3.11231,-4.17536c0.10246,-0.15369 0.08966,-0.39704 -0.07685,-0.52512zM208.87129,309.98232c-0.21773,0 -0.37143,0.17931 -0.37143,0.37143v4.17536c0,0.20493 0.15369,0.37143 0.37143,0.37143c0.20493,0 0.37143,-0.1665 0.37143,-0.37143v-4.17536c0,-0.19212 -0.1665,-0.37143 -0.37143,-0.37143z"
                    data-paper-data="{&quot;glyphName&quot;:&quot;Y&quot;,&quot;glyphIndex&quot;:3,&quot;lastGlyphOfWord&quot;:true,&quot;word&quot;:1}">
                </path>
                <path
                    d="M237.07216,306.02469l4.31625,8.73496c0.03842,0.06404 0.12808,0.11527 0.23054,0.12808c0.02562,0.01281 0.03842,0.01281 0.06404,0.01281c0.11527,0 0.20493,-0.03842 0.28177,-0.11527l3.30443,-3.38128l3.30443,3.38128c0.07685,0.07685 0.1665,0.11527 0.28177,0.11527c0.02562,0 0.06404,0 0.08966,-0.01281c0.10246,-0.02562 0.19212,-0.11527 0.23054,-0.20493l4.30344,-8.65812c0.06404,-0.17931 0,-0.39704 -0.17931,-0.49951c-0.17931,-0.08966 -0.39704,-0.01281 -0.49951,0.17931l-4.06009,8.18422c-1.01182,-1.02463 -1.93399,-1.98522 -2.933,-2.99704l0.96059,-0.96059v0.01281c0.15369,-0.14089 0.15369,-0.38424 0,-0.53793l-1.22955,-1.22955c-0.15369,-0.12808 -0.38424,-0.12808 -0.52512,0l-1.24236,1.22955c-0.15369,0.15369 -0.15369,0.39704 0,0.53793v-0.01281l0.96059,0.96059c-1.02463,1.03744 -1.90837,1.9596 -2.933,2.99704l-4.06009,-8.18422c-0.08966,-0.19212 -0.3202,-0.26897 -0.49951,-0.17931c-0.1665,0.10246 -0.24335,0.3202 -0.1665,0.49951zM244.56476,309.67493l0.70443,-0.70443l0.71724,0.70443l-0.71724,0.70443z"
                    data-paper-data="{&quot;glyphName&quot;:&quot;W&quot;,&quot;glyphIndex&quot;:4,&quot;firstGlyphOfWord&quot;:true,&quot;word&quot;:2}">
                </path>
                <path
                    d="M266.8056,314.15769h-0.24335c-0.21773,0 -0.37143,0.1665 -0.37143,0.37143c0,0.20493 0.15369,0.37143 0.37143,0.37143h1.25517c0.20493,0 0.37143,-0.1665 0.37143,-0.37143c0,-0.20493 -0.1665,-0.37143 -0.37143,-0.37143h-0.25616v-7.85122h0.25616c0.20493,0 0.37143,-0.15369 0.37143,-0.37143c0,-0.20493 -0.1665,-0.37143 -0.37143,-0.37143h-1.25517c-0.21773,0 -0.37143,0.1665 -0.37143,0.37143c0,0.21773 0.15369,0.37143 0.37143,0.37143h0.24335z"
                    data-paper-data="{&quot;glyphName&quot;:&quot;I&quot;,&quot;glyphIndex&quot;:5,&quot;word&quot;:2}">
                </path>
                <path
                    d="M281.42689,305.56361h-3.34285c-0.20493,0 -0.37143,0.1665 -0.37143,0.37143c0,0.21773 0.1665,0.37143 0.37143,0.37143h2.97142v8.22265c0,0.20493 0.15369,0.37143 0.37143,0.37143c0.19212,0 0.37143,-0.1665 0.37143,-0.37143v-8.59408c0,-0.20493 -0.17931,-0.37143 -0.37143,-0.37143zM284.75693,305.56361h-2.43349c-0.21773,0 -0.37143,0.1665 -0.37143,0.37143c0,0.21773 0.15369,0.37143 0.37143,0.37143h2.43349c0.20493,0 0.37143,-0.15369 0.37143,-0.37143c0,-0.20493 -0.1665,-0.37143 -0.37143,-0.37143z"
                    data-paper-data="{&quot;glyphName&quot;:&quot;T&quot;,&quot;glyphIndex&quot;:6,&quot;word&quot;:2}">
                </path>
                <path
                    d="M301.00171,310.08479h-4.12413v-4.14975c0,-0.20493 -0.1665,-0.37143 -0.37143,-0.37143c-0.21773,0 -0.37143,0.1665 -0.37143,0.37143v8.59408c0,0.20493 0.15369,0.37143 0.37143,0.37143c0.20493,0 0.37143,-0.1665 0.37143,-0.37143v-3.70147h4.12413c0.19212,0 0.37143,-0.15369 0.37143,-0.37143c0,-0.20493 -0.17931,-0.37143 -0.37143,-0.37143zM302.1288,305.56361c-0.21773,0 -0.38424,0.1665 -0.38424,0.37143v8.59408c0,0.20493 0.1665,0.37143 0.38424,0.37143c0.19212,0 0.37143,-0.1665 0.37143,-0.37143v-8.59408c0,-0.20493 -0.17931,-0.37143 -0.37143,-0.37143z"
                    data-paper-data="{&quot;glyphName&quot;:&quot;H&quot;,&quot;glyphIndex&quot;:7,&quot;lastGlyphOfWord&quot;:true,&quot;word&quot;:2}">
                </path>
                <path
                    d="M324.67138,314.90054c0.19212,0 0.37143,-0.1665 0.37143,-0.37143v-8.23546h2.48473c0.10246,0 0.23054,0.01281 0.34581,0.01281c0.11527,0.01281 0.24335,0.05123 0.35862,0.06404l0.38424,0.07685h-0.01281c0.12808,0.03842 0.24335,0.10246 0.37143,0.14089l-0.01281,-0.01281c0.12808,0.05123 0.25616,0.12808 0.37143,0.1665h-0.01281l0.37143,0.20493l-0.01281,-0.01281c0.10246,0.07685 0.21773,0.17931 0.333,0.25616h-0.01281l0.29458,0.25616l0.29458,0.30739v-0.01281l0.23054,0.34581l-0.01281,-0.01281l0.21773,0.34581v-0.01281l0.1665,0.35862l-0.01281,-0.01281l0.12808,0.38424l0.07685,0.35862v-0.01281l0.05123,0.38424v-0.01281l0.02562,0.35862c0,0.11527 -0.01281,0.25616 -0.01281,0.37143v-0.01281l-0.05123,0.37143v-0.01281l-0.08966,0.35862l-0.11527,0.38424l0.01281,-0.01281c-0.05123,0.11527 -0.12808,0.24335 -0.17931,0.37143v-0.01281l-0.21773,0.35862l0.01281,-0.01281l-0.23054,0.333v-0.01281c-0.07685,0.08966 -0.20493,0.20493 -0.28177,0.29458l-0.30739,0.28177h0.01281c-0.11527,0.07685 -0.23054,0.17931 -0.333,0.25616l0.01281,-0.01281l-0.37143,0.19212h0.01281l-0.34581,0.17931l0.01281,-0.01281l-0.38424,0.12808l-0.35862,0.08966h0.01281l-0.37143,0.05123h0.01281l-0.38424,0.02562h-0.64039c-0.20493,0 -0.37143,0.1665 -0.37143,0.35862c0,0.20493 0.1665,0.37143 0.37143,0.37143l0.66601,0.01281l0.40985,-0.02562l0.46108,-0.05123l0.40985,-0.11527l0.35862,-0.11527l0.51231,-0.21773l0.37143,-0.21773l0.37143,-0.29458l0.38424,-0.3202l0.333,-0.37143l0.26897,-0.37143l0.24335,-0.38424l0.23054,-0.55074l0.12808,-0.35862l0.11527,-0.40985l0.05123,-0.46108l0.01281,-0.42266l-0.01281,-0.42266l-0.06404,-0.43547l-0.08966,-0.38424l-0.19212,-0.52512l-0.1665,-0.34581l-0.24335,-0.40985l-0.26897,-0.39704l-0.333,-0.35862l-0.37143,-0.333c-0.11527,-0.07685 -0.23054,-0.17931 -0.333,-0.25616c-0.01281,-0.02562 -0.06404,-0.05123 -0.06404,-0.05123l-0.39704,-0.21773l-0.47389,-0.23054l-0.37143,-0.11527l-0.44828,-0.10246l-0.43547,-0.05123l-0.39704,-0.02562h-2.88177c-0.23054,0 -0.38424,0.15369 -0.38424,0.37143v8.60688c0,0.20493 0.1665,0.37143 0.38424,0.37143z"
                    data-paper-data="{&quot;glyphName&quot;:&quot;D&quot;,&quot;glyphIndex&quot;:8,&quot;firstGlyphOfWord&quot;:true,&quot;word&quot;:3}">
                </path>
                <path
                    d="M342.58564,314.86212c0.03842,0.02562 0.08966,0.03842 0.15369,0.03842c0.14089,0 0.25616,-0.07685 0.37143,-0.24335l3.93201,-7.88964l3.97044,7.91526c0.10246,0.17931 0.333,0.26897 0.49951,0.17931c0.1665,-0.07685 0.26897,-0.26897 0.1665,-0.49951c-1.42167,-2.81773 -2.88177,-5.77635 -4.30344,-8.60688c-0.06404,-0.10246 -0.19212,-0.19212 -0.333,-0.19212c-0.11527,0 -0.26897,0.07685 -0.333,0.19212l-4.30344,8.60688c-0.08966,0.23054 -0.01281,0.42266 0.17931,0.49951z"
                    data-paper-data="{&quot;glyphName&quot;:&quot;A&quot;,&quot;glyphIndex&quot;:9,&quot;word&quot;:3}">
                </path>
                <path
                    d="M363.63517,305.56361l3.0995,4.16256v-0.02562c0,0.03842 0.02562,0.07685 0.03842,0.08966c0.05123,0.03842 0.08966,0.06404 0.11527,0.06404c0.01281,0.01281 0.05123,0.02562 0.07685,0.02562h0.14089l0.05123,-0.02562c0.05123,0 0.07685,-0.02562 0.10246,-0.05123c0.01281,-0.01281 0.03842,-0.03842 0.05123,-0.06404l3.11231,-4.17536c0.10246,-0.15369 0.08966,-0.39704 -0.07685,-0.52512c-0.1665,-0.11527 -0.40985,-0.06404 -0.52512,0.08966l-2.79211,3.7527l-2.79211,-3.7527c-0.12808,-0.1665 -0.37143,-0.20493 -0.52512,-0.08966c-0.17931,0.14089 -0.21773,0.38424 -0.07685,0.53793zM370.42333,314.29857l-3.0995,-4.16256l-0.06404,-0.07685l-0.03842,-0.02562c-0.06404,-0.02562 -0.08966,-0.03842 -0.11527,-0.03842c-0.02562,-0.01281 -0.05123,-0.01281 -0.05123,-0.01281h-0.05123c-0.05123,0 -0.07685,0.01281 -0.10246,0.02562c-0.02562,0.01281 -0.05123,0.01281 -0.06404,0.02562c-0.06404,0.05123 -0.08966,0.07685 -0.10246,0.11527l0.01281,-0.02562l-3.11231,4.17536c-0.11527,0.1665 -0.08966,0.38424 0.07685,0.52512c0.07685,0.03842 0.14089,0.07685 0.21773,0.07685c0.10246,0 0.23054,-0.05123 0.30739,-0.15369l2.79211,-3.76551l2.79211,3.76551c0.07685,0.10246 0.20493,0.15369 0.30739,0.15369c0.07685,0 0.14089,-0.03842 0.21773,-0.07685c0.1665,-0.12808 0.19212,-0.34581 0.07685,-0.52512z"
                    data-paper-data="{&quot;glyphName&quot;:&quot;X&quot;,&quot;glyphIndex&quot;:10,&quot;lastGlyphOfWord&quot;:true,&quot;word&quot;:3}">
                </path>
                <path d="M135.06371,295.4816v-0.76329h279.87286v0.76329z"
                    data-paper-data="{&quot;isContainerTopLineAboveSecondaryText&quot;:true}"></path>
            </g>
            <g data-paper-data="{&quot;isPrimaryText&quot;:true}" fill-rule="nonzero">
                <path
                    d="M143.49282,262.27012h5.53111c2.07222,0 3.83283,0.73229 5.31298,2.21245c1.46458,1.46458 2.19686,3.24076 2.19686,5.31298c0,2.07222 -0.73229,3.84841 -2.19686,5.31298c-1.48016,1.48016 -3.24076,2.21245 -5.31298,2.21245h-5.53111zM135.88948,253.84102c-0.23371,0 -0.42068,0.0779 -0.59206,0.23371c-0.15581,0.17139 -0.23371,0.35835 -0.23371,0.59206c0,0 0,0.03116 0.01558,0.0779c-0.01558,0.04674 -0.01558,0.0779 -0.01558,0.0779v23.30858c0,0.23371 0.0779,0.42068 0.23371,0.59206c0.17139,0.15581 0.35835,0.23371 0.59206,0.23371h13.13445c2.52406,0 4.67418,-0.88809 6.46595,-2.67986c1.79177,-1.79177 2.69544,-3.95747 2.69544,-6.48153c0,-2.52406 -0.90367,-4.68976 -2.69544,-6.48153c-1.79177,-1.79177 -3.94189,-2.67986 -6.46595,-2.67986h-6.3413c-0.23371,0 -0.42068,0.0779 -0.59206,0.23371c-0.15581,0.17139 -0.23371,0.35835 -0.23371,0.59206v15.86105h-5.1416v-21.82842h12.30867c3.94189,0 7.32288,1.40225 10.11181,4.19118c2.78893,2.78893 4.19118,6.16992 4.19118,10.11181c0,3.94189 -1.40225,7.32288 -4.19118,10.11181c-2.78893,2.78893 -6.16992,4.19118 -10.11181,4.19118h-13.13445c-0.23371,0 -0.42068,0.0779 -0.59206,0.24929c-0.15581,0.15581 -0.23371,0.34277 -0.23371,0.57648c0,0.23371 0.0779,0.42068 0.23371,0.59206c0.17139,0.15581 0.35835,0.23371 0.59206,0.23371h13.13445c4.39373,0 8.14865,-1.55806 11.28035,-4.67418c3.11612,-3.1317 4.67418,-6.88663 4.67418,-11.28035c0,-4.39373 -1.55806,-8.14865 -4.67418,-11.28035c-3.1317,-3.11612 -6.88663,-4.67418 -11.28035,-4.67418z"
                    data-paper-data="{&quot;glyphName&quot;:&quot;D&quot;,&quot;glyphIndex&quot;:0,&quot;firstGlyphOfWord&quot;:true,&quot;word&quot;:1}">
                </path>
                <path
                    d="M190.68645,284.09855l-1.83851,-4.5807h5.56227l1.83851,4.5807zM181.58738,265.80692l2.02548,5.04811h-4.05096zM195.73457,278.39605c-0.01558,-0.01558 -0.01558,-0.01558 -0.01558,-0.01558l-0.03116,-0.06232c-0.14023,-0.29603 -0.38952,-0.45184 -0.71671,-0.43626h-19.28878c-0.43626,-0.0779 -0.73229,0.0779 -0.90367,0.49858l-2.30593,5.71808h-5.54669l11.46732,-28.60598h6.37247l6.16992,15.36247h-5.56227l-3.02264,-7.55659c-0.14023,-0.34277 -0.4051,-0.51416 -0.76345,-0.51416c-0.37393,0 -0.62322,0.17139 -0.76345,0.51416l-3.24076,8.07075c0,-0.01558 0,0.01558 -0.01558,0.06232c-0.01558,0.04674 -0.03116,0.0779 -0.03116,0.09348c0,0.01558 0,0.06232 -0.01558,0.10906c0,0.04674 0,0.06232 0,0.04674v0.01558c0,0.01558 0,0.06232 0.01558,0.10906c0,0.04674 0,0.06232 0,0.04674c0,0.01558 0.01558,0.04674 0.03116,0.09348c0.01558,0.04674 0.01558,0.06232 0.01558,0.06232c0,-0.01558 0.01558,0 0.03116,0.04674l0.04674,0.09348l0.06232,0.0779c0.04674,0.04674 0.04674,0.06232 0.03116,0.04674l0.06232,0.04674c0.04674,0.03116 0.06232,0.04674 0.06232,0.04674c-0.01558,-0.01558 0,0 0.04674,0.03116c0.04674,0.01558 0.09348,0.03116 0.10906,0.04674l0.0779,0.03116c0.04674,0.01558 0.06232,0.01558 0.0779,0.01558c0.04674,0.01558 0.10906,0.01558 0.15581,0.01558h13.80441c0,0 0.03116,0 0.0779,-0.01558c0.04674,0 0.0779,0 0.0779,0l0.12464,-0.03116c0.06232,-0.03116 0.0779,-0.03116 0.03116,-0.01558l0.12464,-0.06232c0,0 0,0 0.01558,-0.01558l0.10906,-0.0779c0,-0.01558 0,-0.01558 0.01558,-0.01558c0.09348,-0.09348 0.15581,-0.21813 0.20255,-0.35835c0.01558,-0.04674 0.03116,-0.06232 0.03116,-0.06232c-0.01558,0.01558 -0.01558,0 0,-0.04674c0.01558,-0.04674 0.01558,-0.09348 0.01558,-0.10906v-0.01558c0,0.01558 0,0 0,-0.04674c-0.01558,-0.04674 -0.01558,-0.09348 -0.01558,-0.10906c0,-0.01558 -0.01558,-0.04674 -0.03116,-0.09348c-0.01558,-0.04674 -0.01558,-0.0779 -0.01558,-0.06232l-6.8243,-17.01402c-0.14023,-0.34277 -0.38952,-0.51416 -0.76345,-0.51416h-7.47869c-0.37393,0 -0.62322,0.17139 -0.76345,0.51416l-12.15287,30.27311c-0.10906,0.26487 -0.0779,0.52974 0.09348,0.76345c0.15581,0.23371 0.37393,0.35835 0.66997,0.35835h7.33846c0.37393,0 0.62322,-0.17139 0.76345,-0.51416l2.29035,-5.71808h10.9999l2.29035,5.71808c0.14023,0.34277 0.38952,0.51416 0.76345,0.51416h7.32288c0.29603,0 0.51416,-0.12464 0.68555,-0.35835c0.17139,-0.23371 0.18697,-0.49858 0.0779,-0.76345z"
                    data-paper-data="{&quot;glyphName&quot;:&quot;A&quot;,&quot;glyphIndex&quot;:1,&quot;word&quot;:1}">
                </path>
                <path
                    d="M226.52184,255.49256h6.65292l-10.57923,12.97864l-3.30309,-4.08212zM209.85059,284.09855h-6.57501l10.57923,-13.02538l3.31867,4.05096zM223.65501,269.76439l11.888,-14.58344c0.21813,-0.26487 0.24929,-0.5609 0.10906,-0.87251c-0.14023,-0.31161 -0.38952,-0.46742 -0.74787,-0.46742h-8.77188c-0.26487,0 -0.46742,0.09348 -0.6388,0.29603l-7.26056,8.95885l-7.27614,-8.95885c-0.17139,-0.20255 -0.37393,-0.29603 -0.6388,-0.29603h-8.77188c-0.34277,0 -0.59206,0.15581 -0.74787,0.46742c-0.14023,0.31161 -0.10906,0.60764 0.10906,0.87251l11.888,14.58344l-11.888,14.64576c-0.21813,0.26487 -0.24929,0.5609 -0.10906,0.87251c0.15581,0.31161 0.4051,0.46742 0.74787,0.46742h8.69398c0.26487,0 0.46742,-0.09348 0.6388,-0.29603l7.35404,-9.02117l7.33846,9.02117c0.14023,0.17139 0.32719,0.26487 0.5609,0.29603c0.23371,0.01558 0.43626,-0.04674 0.60764,-0.18697c0.17139,-0.14023 0.28045,-0.32719 0.29603,-0.54532c0.01558,-0.23371 -0.04674,-0.43626 -0.18697,-0.60764l-23.57345,-28.91759h6.65292l24.3369,29.94591c0.17139,0.20255 0.37393,0.31161 0.6388,0.31161c0.20255,0 0.37393,-0.06232 0.52974,-0.18697c0.17139,-0.14023 0.28045,-0.32719 0.29603,-0.54532c0.01558,-0.23371 -0.04674,-0.43626 -0.18697,-0.60764z"
                    data-paper-data="{&quot;glyphName&quot;:&quot;X&quot;,&quot;glyphIndex&quot;:2,&quot;lastGlyphOfWord&quot;:true,&quot;word&quot;:1}">
                </path>
                <path
                    d="M277.84433,260.63416h-10.89084v-5.1416h10.89084zM247.61797,255.49256h10.89084v5.1416h-10.89084zM266.12772,253.84102c-0.23371,0 -0.42068,0.0779 -0.57648,0.23371c-0.17139,0.17139 -0.24929,0.35835 -0.24929,0.59206v29.43175h-5.1416v-29.43175c0,-0.23371 -0.0779,-0.42068 -0.24929,-0.59206c-0.15581,-0.15581 -0.34277,-0.23371 -0.57648,-0.23371h-12.54238c-0.23371,0 -0.42068,0.0779 -0.59206,0.23371c-0.15581,0.17139 -0.23371,0.35835 -0.23371,0.59206v6.79314c0,0.21813 0.0779,0.4051 0.23371,0.57648c0.17139,0.15581 0.35835,0.23371 0.59206,0.23371h11.71661v22.65419c0,0.23371 0.0779,0.42068 0.24929,0.59206c0.15581,0.15581 0.34277,0.23371 0.57648,0.23371h6.79314c0.23371,0 0.42068,-0.0779 0.57648,-0.23371c0.17139,-0.17139 0.24929,-0.35835 0.24929,-0.59206v-22.65419h11.71661c0.23371,0 0.42068,-0.0779 0.57648,-0.23371c0.17139,-0.17139 0.24929,-0.35835 0.24929,-0.57648v-6.79314c0,-0.23371 -0.0779,-0.42068 -0.24929,-0.59206c-0.15581,-0.15581 -0.34277,-0.23371 -0.57648,-0.23371z"
                    data-paper-data="{&quot;glyphName&quot;:&quot;T&quot;,&quot;glyphIndex&quot;:3,&quot;firstGlyphOfWord&quot;:true,&quot;word&quot;:2}">
                </path>
                <path
                    d="M301.49568,283.9739l-7.57217,-9.97158h6.40363c0.01558,0.06232 0.04674,0.10906 0.09348,0.15581l7.52543,9.81578zM286.16437,274.00232h5.11044v10.09623h-5.11044zM292.92635,262.25454l7.49427,0.01558c0.45184,0 0.84135,0.15581 1.16855,0.483c0.32719,0.32719 0.483,0.71671 0.483,1.16855c0,0.45184 -0.15581,0.84135 -0.483,1.16855c-0.32719,0.32719 -0.71671,0.483 -1.16855,0.483l-0.0779,0.01558h-7.41637zM302.22797,273.81535c2.36825,-0.42068 4.33141,-1.57364 5.90505,-3.42773c1.57364,-1.86967 2.36825,-4.03538 2.36825,-6.48153c0,-2.77335 -0.98158,-5.1416 -2.94473,-7.12033c-1.97874,-1.96316 -4.34699,-2.94473 -7.12033,-2.94473c0.01558,0 0.01558,0 0,0c-0.01558,0 -0.01558,0 -0.01558,0h-15.08202c-0.23371,0 -0.42068,0.0779 -0.59206,0.23371c-0.15581,0.17139 -0.23371,0.35835 -0.23371,0.59206v11.74777c0,0.23371 0.0779,0.42068 0.23371,0.57648c0.17139,0.17139 0.35835,0.24929 0.59206,0.24929h15.08202c0.04674,0 0.10906,0 0.17139,-0.01558c0.87251,-0.04674 1.6048,-0.38952 2.21245,-1.02832c0.60764,-0.6388 0.91926,-1.38667 0.91926,-2.27477c0,-0.90367 -0.32719,-1.6827 -0.966,-2.33709c-0.6388,-0.6388 -1.41783,-0.966 -2.33709,-0.966l-8.32004,-0.01558c-0.23371,0 -0.42068,0.0779 -0.57648,0.24929c-0.17139,0.15581 -0.24929,0.34277 -0.24929,0.57648v4.16002h-5.11044v-10.09623h14.25625c0,0 0,0 0.01558,0c0.01558,0 0.01558,0 0,0c2.32151,0 4.31583,0.82577 5.95179,2.46173c1.65154,1.63596 2.47732,3.63028 2.47732,5.95179c0,2.32151 -0.82577,4.30025 -2.47732,5.95179c-1.63596,1.63596 -3.63028,2.46173 -5.95179,2.46173c-0.06232,0 -0.14023,0.01558 -0.21813,0.03116h-14.87947c-0.23371,0 -0.42068,0.0779 -0.59206,0.24929c-0.15581,0.15581 -0.23371,0.34277 -0.23371,0.57648v11.74777c0,0.23371 0.0779,0.42068 0.23371,0.59206c0.17139,0.15581 0.35835,0.23371 0.59206,0.23371h6.76198c0.23371,0 0.42068,-0.0779 0.57648,-0.23371c0.17139,-0.17139 0.24929,-0.35835 0.24929,-0.59206v-9.50417l7.49427,9.8781c0.17139,0.21813 0.38952,0.32719 0.65439,0.32719h8.53817c0.34277,0 0.59206,-0.15581 0.73229,-0.45184c0.15581,-0.31161 0.12464,-0.60764 -0.0779,-0.87251z"
                    data-paper-data="{&quot;glyphName&quot;:&quot;R&quot;,&quot;glyphIndex&quot;:4,&quot;word&quot;:2}">
                </path>
                <path
                    d="M322.82553,285.75009c0.21813,0 0.4051,-0.0779 0.57648,-0.23371c0.15581,-0.17139 0.23371,-0.35835 0.23371,-0.59206v-30.25753c0,-0.23371 -0.0779,-0.42068 -0.23371,-0.59206c-0.17139,-0.15581 -0.35835,-0.23371 -0.57648,-0.23371c-0.23371,0 -0.42068,0.0779 -0.59206,0.23371c-0.15581,0.17139 -0.23371,0.35835 -0.23371,0.59206v29.43175h-5.1416v-29.43175c0,-0.23371 -0.0779,-0.42068 -0.24929,-0.59206c-0.15581,-0.15581 -0.34277,-0.23371 -0.57648,-0.23371c-0.23371,0 -0.42068,0.0779 -0.59206,0.23371c-0.15581,0.17139 -0.23371,0.35835 -0.23371,0.59206v30.25753c0,0.23371 0.0779,0.42068 0.23371,0.59206c0.17139,0.15581 0.35835,0.23371 0.59206,0.23371z"
                    data-paper-data="{&quot;glyphName&quot;:&quot;I&quot;,&quot;glyphIndex&quot;:5,&quot;word&quot;:2}">
                </path>
                <path
                    d="M352.84934,285.75009c0.23371,0 0.42068,-0.0779 0.59206,-0.23371c0.15581,-0.17139 0.23371,-0.35835 0.23371,-0.59206v-7.40079c0,-0.23371 -0.0779,-0.42068 -0.23371,-0.59206c-0.17139,-0.15581 -0.35835,-0.23371 -0.59206,-0.23371h-9.33278c-1.90083,0 -3.52122,-0.66997 -4.87673,-2.02548c-1.35551,-1.35551 -2.02548,-2.97589 -2.02548,-4.87673c0,-1.90083 0.66997,-3.52122 2.02548,-4.87673c1.35551,-1.35551 2.97589,-2.02548 4.87673,-2.02548h9.33278c0.23371,0 0.42068,-0.0779 0.59206,-0.23371c0.15581,-0.17139 0.23371,-0.35835 0.23371,-0.59206c0,-0.23371 -0.0779,-0.42068 -0.23371,-0.57648c-0.17139,-0.17139 -0.35835,-0.24929 -0.59206,-0.24929h-9.33278c-2.35267,0 -4.37815,0.84135 -6.04527,2.50848c-1.66712,1.66712 -2.50848,3.6926 -2.50848,6.04527c0,2.35267 0.84135,4.37815 2.50848,6.04527c1.66712,1.66712 3.6926,2.50848 6.04527,2.50848h8.52259v5.74924h-7.85262c-3.94189,0 -7.32288,-1.40225 -10.11181,-4.19118c-2.78893,-2.78893 -4.19118,-6.16992 -4.19118,-10.11181c0,-3.94189 1.40225,-7.32288 4.19118,-10.11181c2.78893,-2.78893 6.16992,-4.19118 10.11181,-4.19118h8.66281c0.23371,0 0.42068,-0.0779 0.59206,-0.24929c0.15581,-0.15581 0.23371,-0.34277 0.23371,-0.57648c0,-0.23371 -0.0779,-0.42068 -0.23371,-0.59206c-0.17139,-0.15581 -0.35835,-0.23371 -0.59206,-0.23371h-8.66281c-4.39373,0 -8.14865,1.55806 -11.28035,4.67418c-3.11612,3.1317 -4.67418,6.88663 -4.67418,11.28035c0,4.39373 1.55806,8.14865 4.67418,11.28035c3.1317,3.11612 6.88663,4.67418 11.28035,4.67418z"
                    data-paper-data="{&quot;glyphName&quot;:&quot;C&quot;,&quot;glyphIndex&quot;:6,&quot;word&quot;:2}">
                </path>
                <path
                    d="M385.10119,284.09855h-7.16708l-11.21803,-11.06223l4.06654,-3.33425zM360.07874,284.09855v-5.57785l5.1416,-4.23792v9.81578zM365.22034,255.49256v8.63165l-5.1416,4.19118v-12.82283zM387.5785,253.96566h-9.59765c-0.20255,0 -0.37393,0.06232 -0.52974,0.18697l-10.59481,8.63165v-8.11749c0,-0.23371 -0.0779,-0.42068 -0.23371,-0.59206c-0.17139,-0.15581 -0.35835,-0.23371 -0.57648,-0.23371h-6.79314c-0.23371,0 -0.42068,0.0779 -0.59206,0.23371c-0.15581,0.17139 -0.23371,0.35835 -0.23371,0.59206v15.37805c0,-0.03116 0,-0.01558 0,0.03116c0,0.03116 0,0.06232 0.01558,0.09348c0,0.03116 0,0.06232 0.01558,0.0779c0,0.01558 0,0.04674 0.01558,0.0779l0.03116,0.06232l0.04674,0.0779l0.04674,0.0779c0.01558,0.03116 0.03116,0.03116 0.01558,0.01558c-0.01558,-0.01558 -0.01558,-0.01558 0.03116,0.03116c0.01558,0.01558 0.03116,0.04674 0.06232,0.06232l0.04674,0.04674l0.0779,0.04674l0.06232,0.04674c0.01558,0.01558 0.04674,0.01558 0.0779,0.03116c0.03116,0 0.06232,0 0.0779,0.01558c0.01558,0.01558 0.04674,0.01558 0.0779,0.01558c0.03116,0 0.06232,0 0.0779,0.01558c0.0779,0 0.09348,0 0.04674,0c-0.04674,0 -0.03116,0 0.03116,0c0.03116,0 0.06232,0 0.09348,-0.01558c0.03116,0 0.04674,0 0.06232,-0.01558c0.03116,0 0.06232,0 0.0779,-0.01558c0.03116,-0.01558 0.06232,-0.01558 0.0779,-0.03116l0.0779,-0.04674l0.06232,-0.04674c0.06232,-0.04674 0.0779,-0.04674 0.03116,-0.01558l18.50975,-15.08202h7.01127l-26.56492,21.89074c0.01558,-0.01558 0.01558,0 -0.01558,0.03116l-0.06232,0.06232l-0.06232,0.06232l-0.03116,0.06232l-0.04674,0.0779l-0.03116,0.06232c-0.01558,0.03116 -0.01558,0.06232 -0.01558,0.0779c-0.01558,0.01558 -0.01558,0.04674 -0.01558,0.0779c-0.01558,0.03116 -0.01558,0.06232 -0.01558,0.09348c0,0.06232 0,0.0779 0,0.03116v6.79314c0,0.23371 0.0779,0.42068 0.23371,0.59206c0.17139,0.15581 0.35835,0.23371 0.59206,0.23371h6.79314c0.21813,0 0.4051,-0.0779 0.57648,-0.23371c0.15581,-0.17139 0.23371,-0.35835 0.23371,-0.59206v-9.42626l10.15855,10.01833c0.15581,0.15581 0.34277,0.23371 0.57648,0.23371h9.47301c0.37393,0 0.62322,-0.17139 0.76345,-0.51416c0.14023,-0.32719 0.09348,-0.62322 -0.17139,-0.88809l-15.59618,-15.70525l16.04802,-13.22793c0.29603,-0.23371 0.37393,-0.54532 0.24929,-0.90367c-0.14023,-0.35835 -0.38952,-0.54532 -0.77903,-0.54532z"
                    data-paper-data="{&quot;glyphName&quot;:&quot;K&quot;,&quot;glyphIndex&quot;:7,&quot;word&quot;:2}">
                </path>
                <path
                    d="M399.63789,263.89051c-0.46742,-0.26487 -0.65439,-0.60764 -0.54532,-0.99716c0.10906,-0.4051 0.43626,-0.60764 1.01274,-0.60764h11.99706c0.23371,0 0.42068,-0.0779 0.57648,-0.24929c0.17139,-0.15581 0.24929,-0.34277 0.24929,-0.57648l-0.01558,-6.79314c0,-0.23371 -0.0779,-0.42068 -0.24929,-0.59206c-0.15581,-0.15581 -0.34277,-0.23371 -0.57648,-0.23371c0,0 -0.03116,0 -0.0779,0.01558v-0.01558h-11.21803c-2.61754,0 -4.75208,0.62322 -6.40363,1.86967c-1.97874,1.49574 -3.11612,3.44331 -3.38099,5.82714c-0.18697,1.6048 0.03116,3.14728 0.66997,4.64302c0.6388,1.48016 1.57364,2.66428 2.82009,3.55238c1.33993,0.95042 4.59628,2.55522 9.76904,4.78324l0.85693,0.38952c1.15296,0.483 1.63596,1.02832 1.46458,1.6048c-0.10906,0.34277 -0.24929,0.57648 -0.43626,0.68555c-0.31161,0.20255 -0.87251,0.29603 -1.66712,0.29603h-0.06232c-0.6388,-0.01558 -4.82999,-0.01558 -12.57354,-0.01558c-0.23371,0 -0.42068,0.0779 -0.57648,0.23371c-0.17139,0.17139 -0.24929,0.35835 -0.24929,0.59206c0,0.21813 0.0779,0.4051 0.24929,0.57648c0.15581,0.15581 0.34277,0.23371 0.57648,0.23371c7.72798,0 11.90358,0.01558 12.54238,0.03116h0.09348c1.07506,0 1.88525,-0.17139 2.46173,-0.51416c0.57648,-0.32719 0.98158,-0.87251 1.21529,-1.63596c0.21813,-0.70113 0.10906,-1.38667 -0.31161,-2.02548c-0.42068,-0.6388 -1.10622,-1.15296 -2.07222,-1.57364l-0.85693,-0.38952c-5.0637,-2.18128 -8.21098,-3.72376 -9.47301,-4.61186c-1.01274,-0.71671 -1.76061,-1.6827 -2.27477,-2.88241c-0.51416,-1.21529 -0.68555,-2.47732 -0.52974,-3.78609c0.21813,-1.91641 1.13738,-3.49005 2.74219,-4.70534c1.35551,-1.01274 3.14728,-1.5269 5.40647,-1.5269h10.47016l0.01558,5.1416h-11.17129c-0.6388,0 -1.19971,0.17139 -1.6827,0.49858c-0.46742,0.32719 -0.77903,0.77903 -0.91926,1.33993c-0.15581,0.54532 -0.10906,1.09064 0.14023,1.6048c0.23371,0.51416 0.6388,0.93484 1.18413,1.24645c0.42068,0.23371 3.64586,1.63596 9.69113,4.20676c1.05948,0.45184 2.0099,1.1218 2.85125,2.0099c1.54248,1.63596 2.1657,3.59912 1.83851,5.87389c-0.29603,2.15012 -1.40225,3.83283 -3.28751,5.0637c-1.65154,1.07506 -3.55238,1.62038 -5.7025,1.62038h-12.371c-0.23371,0 -0.42068,0.0779 -0.57648,0.24929c-0.17139,0.15581 -0.24929,0.34277 -0.24929,0.57648c0,0.23371 0.0779,0.42068 0.24929,0.59206c0.15581,0.15581 0.34277,0.23371 0.57648,0.23371h12.371c2.53964,0 4.78324,-0.65439 6.73082,-1.96316c2.22803,-1.49574 3.5368,-3.5368 3.89515,-6.13876c0.32719,-2.39941 -0.21813,-4.54954 -1.63596,-6.43479c-1.07506,-1.449 -2.43057,-2.50848 -4.03538,-3.19402c-5.93621,-2.53964 -9.11465,-3.91073 -9.53533,-4.12886z"
                    data-paper-data="{&quot;glyphName&quot;:&quot;S&quot;,&quot;glyphIndex&quot;:8,&quot;lastGlyphOfWord&quot;:true,&quot;word&quot;:2}">
                </path>
            </g>
            <g data-paper-data="{&quot;fillRule&quot;:&quot;undefined&quot;,&quot;isIcon&quot;:&quot;true&quot;,&quot;rawInitialId&quot;:&quot;314&quot;,&quot;iconType&quot;:&quot;initial&quot;,&quot;initialText&quot;:&quot;DT&quot;,&quot;selectedEffects&quot;:{&quot;container&quot;:&quot;&quot;,&quot;transformation&quot;:&quot;&quot;,&quot;pattern&quot;:&quot;&quot;},&quot;iconStyle&quot;:&quot;standalone&quot;,&quot;bounds&quot;:{&quot;x&quot;:205.39904555115243,&quot;y&quot;:155.09932503894834,&quot;width&quot;:139.20219543419876,&quot;height&quot;:81.699985900238},&quot;suitableAsStandaloneIcon&quot;:true}"
                fill-rule="undefined">
                <path
                    d="M210.08248,182.28929c0,-0.78058 -0.52038,-1.56115 -1.17086,-1.95143v-22.76672h40.71989c10.66783,0 19.38423,8.58631 19.38423,19.25414v27.71034h2.34172v-27.71034c0,-11.96879 -9.75716,-21.72595 -21.72595,-21.72595h-43.19171v25.23853c-0.65048,0.52038 -1.04077,1.17086 -1.04077,1.95143c0,1.30096 1.04077,2.34172 2.34172,2.34172c1.30096,0 2.34172,-1.04077 2.34172,-2.34172zM249.63151,159.91286h-24.97834h-3.64267h-9.62707v72.07291h9.62707h3.64267h24.97834c9.36687,0 16.91242,-7.54554 16.91242,-16.91242v-38.24808c0,-9.36687 -7.54554,-16.91242 -16.91242,-16.91242zM246.24903,220.40728h-21.59586v-49.04601h21.46576c3.90287,0 7.15525,3.25239 7.15525,7.28535c0,23.80748 0.1301,13.13964 0.1301,34.47531c0,4.03296 -3.12229,7.28535 -7.15525,7.28535zM246.11893,173.83308h-18.99395v44.10238h19.12404c2.60191,0 4.81354,-2.08153 4.81354,-4.81354c0,-11.44841 -0.1301,-23.0269 -0.1301,-34.47531c0,-2.60191 -2.21162,-4.81354 -4.81354,-4.81354zM246.24903,215.59374h-16.78232v-39.41894h16.65222c1.30096,0 2.34172,1.17086 2.34172,2.47181c0,11.44841 0.1301,23.0269 0.1301,34.47531c0,1.43105 -1.04077,2.47181 -2.34172,2.47181zM270.05651,210.12973c-1.30096,0 -2.21162,1.04077 -2.21162,2.21162c0,0.91067 0.39029,1.69124 1.17086,2.08153v0.65048c0,10.66783 -8.7164,19.38423 -19.38423,19.38423h-40.71989v-42.80143h-2.47181v45.14314h43.19171c11.96879,0 21.72595,-9.75716 21.72595,-21.72595v-0.78058c0.65048,-0.39029 1.04077,-1.04077 1.04077,-1.95143c0,-1.17086 -1.04077,-2.21162 -2.34172,-2.21162zM322.6151,210.52002c-1.30096,0 -2.34172,1.04077 -2.34172,2.34172c0,0.78058 0.52038,1.56115 1.17086,1.95143v19.64442h-18.08328v-42.80143h-2.47181v45.14314h23.0269v-22.11624c0.52038,-0.39029 0.91067,-1.04077 0.91067,-1.82134c0,-1.30096 -0.91067,-2.34172 -2.21162,-2.34172zM280.20396,155.09933v23.0269h20.68519v1.69124c-0.65048,0.39029 -1.04077,1.17086 -1.04077,1.95143c0,1.30096 1.04077,2.34172 2.21162,2.34172c1.30096,0 2.34172,-1.04077 2.34172,-2.34172c0,-0.78058 -0.39029,-1.56115 -1.04077,-1.95143v-4.16306h-20.68519v-18.08328h59.45365v18.08328h-20.68519v28.88121h2.47181v-26.40939h20.68519v-23.0269zM319.10252,231.98578v-58.67308h20.68519v-13.39984h-54.77021v13.39984h20.68519v58.67308z"
                    data-paper-data="{&quot;isPathIcon&quot;:true}"></path>
            </g>
            <g data-paper-data="{&quot;isContainerElementsWrapper&quot;:true}" fill-rule="evenodd">
                <path
                    d="M85.9644,359.50937c0,1.23988 0.43843,2.29829 1.3153,3.17522c0.87689,0.87693 1.93539,1.3154 3.17548,1.3154h369.08981c1.23988,0 2.29829,-0.43847 3.17522,-1.3154c0.87693,-0.87693 1.3154,-1.93534 1.3154,-3.17522v-249.01861c0,-1.24006 -0.43847,-2.29853 -1.3154,-3.17542c-0.87649,-0.87689 -1.9349,-1.31534 -3.17522,-1.31534h-369.08981c-1.24009,0 -2.29858,0.43842 -3.17546,1.31527c-0.87688,0.87693 -1.31532,1.93543 -1.31532,3.17549zM90.45517,362.34875c-0.78402,0 -1.45323,-0.27721 -2.00763,-0.83162c-0.5544,-0.55441 -0.8316,-1.22367 -0.8316,-2.00775v-249.01861c0,-0.784 0.2772,-1.45321 0.83159,-2.00762c0.55439,-0.55441 1.22361,-0.83162 2.00764,-0.83162h369.08981c0.78453,0 1.45378,0.27719 2.00775,0.83156c0.55441,0.5545 0.83162,1.22373 0.83162,2.00769v249.01861c0,0.78409 -0.27721,1.45334 -0.83162,2.00775c-0.55441,0.55441 -1.22367,0.83162 -2.00775,0.83162z"
                    data-paper-data="{&quot;isBaseLogoContainer&quot;:true}"></path>
            </g>
        </g>
    </g>
</svg>