<svg version="1.1" xmlns="http://www.w3.org/2000/svg" xmlns:xlink="http://www.w3.org/1999/xlink" viewBox="0 0 550 470">
    <g fill="#00594c" fill-rule="none" stroke="none" stroke-width="1" stroke-linecap="butt" stroke-linejoin="miter"
        stroke-miterlimit="10" stroke-dasharray="" stroke-dashoffset="0" font-family="none" font-weight="none"
        font-size="none" text-anchor="none" style="mix-blend-mode: normal">
        <g
            data-paper-data="{&quot;isGlobalGroup&quot;:true,&quot;bounds&quot;:{&quot;x&quot;:154.99999999999997,&quot;y&quot;:115,&quot;width&quot;:240.00000000000003,&quot;height&quot;:240}}">
            <g data-paper-data="{&quot;textHeightFactor&quot;:0.4919334137668266,&quot;isSecondaryText&quot;:true}"
                fill-rule="nonzero">
                <path
                    d="M174.01783,294.76688h-2.33209c-0.18526,0 -0.32693,0.15257 -0.32693,0.32693v7.57383c0,0.17436 0.14167,0.31603 0.32693,0.31603c0.16346,0 0.31603,-0.14167 0.31603,-0.31603v-7.2578h2.01606c0.79553,0 1.44938,0.65386 1.44938,1.46028c0,0.79553 -0.65386,1.43848 -1.44938,1.43848h-1.14425c-0.18526,0 -0.32693,0.15257 -0.32693,0.31603c0,0.18526 0.14167,0.32693 0.32693,0.32693h1.14425c1.15515,0 2.08144,-0.9263 2.08144,-2.08144c0,-1.16604 -0.9263,-2.10324 -2.08144,-2.10324z"
                    data-paper-data="{&quot;glyphName&quot;:&quot;P&quot;,&quot;glyphIndex&quot;:0,&quot;firstGlyphOfWord&quot;:true,&quot;word&quot;:1}">
                </path>
                <path
                    d="M189.56659,302.35161h-4.1084v-6.99626c0,-0.17436 -0.15257,-0.31603 -0.31603,-0.31603c-0.18526,0 -0.32693,0.14167 -0.32693,0.31603v7.31229c0,0.17436 0.14167,0.31603 0.32693,0.31603h4.42443c0.17436,0 0.31603,-0.14167 0.31603,-0.31603c0,-0.17436 -0.14167,-0.31603 -0.31603,-0.31603z"
                    data-paper-data="{&quot;glyphName&quot;:&quot;L&quot;,&quot;glyphIndex&quot;:1,&quot;word&quot;:1}">
                </path>
                <path
                    d="M199.82505,302.95098c0.03269,0.0218 0.07628,0.03269 0.13077,0.03269c0.11987,0 0.21795,-0.06539 0.31603,-0.20705l3.34556,-6.71292l3.37826,6.73472c0.08718,0.15257 0.28334,0.22885 0.42501,0.15257c0.14167,-0.06539 0.22885,-0.22885 0.14167,-0.42501c-1.20963,-2.39747 -2.45196,-4.91482 -3.66159,-7.32319c-0.05449,-0.08718 -0.16346,-0.16346 -0.28334,-0.16346c-0.09808,0 -0.22885,0.06539 -0.28334,0.16346l-3.66159,7.32319c-0.07628,0.19616 -0.0109,0.35962 0.15257,0.42501z"
                    data-paper-data="{&quot;glyphName&quot;:&quot;A&quot;,&quot;glyphIndex&quot;:2,&quot;word&quot;:1}">
                </path>
                <path
                    d="M221.5566,294.59252c-0.14167,-0.09808 -0.34872,-0.05449 -0.4468,0.07628l-2.37568,3.193l-2.37568,-3.193c-0.10898,-0.14167 -0.31603,-0.17436 -0.4468,-0.07628c-0.15257,0.11987 -0.18526,0.32693 -0.06539,0.4577v-0.0109l2.63722,3.54172v-0.0218c0,0.03269 0.0218,0.06539 0.03269,0.07628c0.04359,0.03269 0.07628,0.05449 0.09808,0.05449c0.0109,0.0109 0.04359,0.0218 0.06539,0.0218h0.11987l0.04359,-0.0218c0.04359,0 0.06539,-0.0218 0.08718,-0.04359c0.0109,-0.0109 0.03269,-0.03269 0.04359,-0.05449l2.64812,-3.55262c0.08718,-0.13077 0.07628,-0.33783 -0.06539,-0.4468zM218.73412,298.79899c-0.18526,0 -0.31603,0.15257 -0.31603,0.31603v3.55262c0,0.17436 0.13077,0.31603 0.31603,0.31603c0.17436,0 0.31603,-0.14167 0.31603,-0.31603v-3.55262c0,-0.16346 -0.14167,-0.31603 -0.31603,-0.31603z"
                    data-paper-data="{&quot;glyphName&quot;:&quot;Y&quot;,&quot;glyphIndex&quot;:3,&quot;lastGlyphOfWord&quot;:true,&quot;word&quot;:1}">
                </path>
                <path
                    d="M242.72891,295.43163l3.67249,7.43217c0.03269,0.05449 0.10898,0.09808 0.19616,0.10898c0.0218,0.0109 0.03269,0.0109 0.05449,0.0109c0.09808,0 0.17436,-0.03269 0.23975,-0.09808l2.81158,-2.87697l2.81158,2.87697c0.06539,0.06539 0.14167,0.09808 0.23975,0.09808c0.0218,0 0.05449,0 0.07628,-0.0109c0.08718,-0.0218 0.16346,-0.09808 0.19616,-0.17436l3.66159,-7.36678c0.05449,-0.15257 0,-0.33783 -0.15257,-0.42501c-0.15257,-0.07628 -0.33783,-0.0109 -0.42501,0.15257l-3.45454,6.96357c-0.86091,-0.87181 -1.64554,-1.68913 -2.49555,-2.55004l0.81732,-0.81732v0.0109c0.13077,-0.11987 0.13077,-0.32693 0,-0.4577l-1.04617,-1.04617c-0.13077,-0.10898 -0.32693,-0.10898 -0.4468,0l-1.05707,1.04617c-0.13077,0.13077 -0.13077,0.33783 0,0.4577v-0.0109l0.81732,0.81732c-0.87181,0.88271 -1.62374,1.66733 -2.49555,2.55004l-3.45454,-6.96357c-0.07628,-0.16346 -0.27244,-0.22885 -0.42501,-0.15257c-0.14167,0.08718 -0.20705,0.27244 -0.14167,0.42501zM249.104,298.53745l0.59937,-0.59937l0.61027,0.59937l-0.61027,0.59937z"
                    data-paper-data="{&quot;glyphName&quot;:&quot;W&quot;,&quot;glyphIndex&quot;:4,&quot;firstGlyphOfWord&quot;:true,&quot;word&quot;:2}">
                </path>
                <path
                    d="M268.02768,302.35161h-0.20705c-0.18526,0 -0.31603,0.14167 -0.31603,0.31603c0,0.17436 0.13077,0.31603 0.31603,0.31603h1.06797c0.17436,0 0.31603,-0.14167 0.31603,-0.31603c0,-0.17436 -0.14167,-0.31603 -0.31603,-0.31603h-0.21795v-6.68023h0.21795c0.17436,0 0.31603,-0.13077 0.31603,-0.31603c0,-0.17436 -0.14167,-0.31603 -0.31603,-0.31603h-1.06797c-0.18526,0 -0.31603,0.14167 -0.31603,0.31603c0,0.18526 0.13077,0.31603 0.31603,0.31603h0.20705z"
                    data-paper-data="{&quot;glyphName&quot;:&quot;I&quot;,&quot;glyphIndex&quot;:5,&quot;word&quot;:2}">
                </path>
                <path
                    d="M280.46824,295.03932h-2.84427c-0.17436,0 -0.31603,0.14167 -0.31603,0.31603c0,0.18526 0.14167,0.31603 0.31603,0.31603h2.52824v6.99626c0,0.17436 0.13077,0.31603 0.31603,0.31603c0.16346,0 0.31603,-0.14167 0.31603,-0.31603v-7.31229c0,-0.17436 -0.15257,-0.31603 -0.31603,-0.31603zM283.30162,295.03932h-2.07054c-0.18526,0 -0.31603,0.14167 -0.31603,0.31603c0,0.18526 0.13077,0.31603 0.31603,0.31603h2.07054c0.17436,0 0.31603,-0.13077 0.31603,-0.31603c0,-0.17436 -0.14167,-0.31603 -0.31603,-0.31603z"
                    data-paper-data="{&quot;glyphName&quot;:&quot;T&quot;,&quot;glyphIndex&quot;:6,&quot;word&quot;:2}">
                </path>
                <path
                    d="M297.12353,298.88617h-3.50903v-3.53082c0,-0.17436 -0.14167,-0.31603 -0.31603,-0.31603c-0.18526,0 -0.31603,0.14167 -0.31603,0.31603v7.31229c0,0.17436 0.13077,0.31603 0.31603,0.31603c0.17436,0 0.31603,-0.14167 0.31603,-0.31603v-3.14941h3.50903c0.16346,0 0.31603,-0.13077 0.31603,-0.31603c0,-0.17436 -0.15257,-0.31603 -0.31603,-0.31603zM298.08252,295.03932c-0.18526,0 -0.32693,0.14167 -0.32693,0.31603v7.31229c0,0.17436 0.14167,0.31603 0.32693,0.31603c0.16346,0 0.31603,-0.14167 0.31603,-0.31603v-7.31229c0,-0.17436 -0.15257,-0.31603 -0.31603,-0.31603z"
                    data-paper-data="{&quot;glyphName&quot;:&quot;H&quot;,&quot;glyphIndex&quot;:7,&quot;lastGlyphOfWord&quot;:true,&quot;word&quot;:2}">
                </path>
                <path
                    d="M317.26294,302.98367c0.16346,0 0.31603,-0.14167 0.31603,-0.31603v-7.00716h2.11414c0.08718,0 0.19616,0.0109 0.29424,0.0109c0.09808,0.0109 0.20705,0.04359 0.30513,0.05449l0.32693,0.06539h-0.0109c0.10898,0.03269 0.20705,0.08718 0.31603,0.11987l-0.0109,-0.0109c0.10898,0.04359 0.21795,0.10898 0.31603,0.14167h-0.0109l0.31603,0.17436l-0.0109,-0.0109c0.08718,0.06539 0.18526,0.15257 0.28334,0.21795h-0.0109l0.25064,0.21795l0.25064,0.26154v-0.0109l0.19616,0.29424l-0.0109,-0.0109l0.18526,0.29424v-0.0109l0.14167,0.30513l-0.0109,-0.0109l0.10898,0.32693l0.06539,0.30513v-0.0109l0.04359,0.32693v-0.0109l0.0218,0.30513c0,0.09808 -0.0109,0.21795 -0.0109,0.31603v-0.0109l-0.04359,0.31603v-0.0109l-0.07628,0.30513l-0.09808,0.32693l0.0109,-0.0109c-0.04359,0.09808 -0.10898,0.20705 -0.15257,0.31603v-0.0109l-0.18526,0.30513l0.0109,-0.0109l-0.19616,0.28334v-0.0109c-0.06539,0.07628 -0.17436,0.17436 -0.23975,0.25064l-0.26154,0.23975h0.0109c-0.09808,0.06539 -0.19616,0.15257 -0.28334,0.21795l0.0109,-0.0109l-0.31603,0.16346h0.0109l-0.29424,0.15257l0.0109,-0.0109l-0.32693,0.10898l-0.30513,0.07628h0.0109l-0.31603,0.04359h0.0109l-0.32693,0.0218h-0.54488c-0.17436,0 -0.31603,0.14167 -0.31603,0.30513c0,0.17436 0.14167,0.31603 0.31603,0.31603l0.56668,0.0109l0.34872,-0.0218l0.39231,-0.04359l0.34872,-0.09808l0.30513,-0.09808l0.4359,-0.18526l0.31603,-0.18526l0.31603,-0.25064l0.32693,-0.27244l0.28334,-0.31603l0.22885,-0.31603l0.20705,-0.32693l0.19616,-0.4686l0.10898,-0.30513l0.09808,-0.34872l0.04359,-0.39231l0.0109,-0.35962l-0.0109,-0.35962l-0.05449,-0.37052l-0.07628,-0.32693l-0.16346,-0.4468l-0.14167,-0.29424l-0.20705,-0.34872l-0.22885,-0.33783l-0.28334,-0.30513l-0.31603,-0.28334c-0.09808,-0.06539 -0.19616,-0.15257 -0.28334,-0.21795c-0.0109,-0.0218 -0.05449,-0.04359 -0.05449,-0.04359l-0.33783,-0.18526l-0.40321,-0.19616l-0.31603,-0.09808l-0.38142,-0.08718l-0.37052,-0.04359l-0.33783,-0.0218h-2.45196c-0.19616,0 -0.32693,0.13077 -0.32693,0.31603v7.32319c0,0.17436 0.14167,0.31603 0.32693,0.31603z"
                    data-paper-data="{&quot;glyphName&quot;:&quot;D&quot;,&quot;glyphIndex&quot;:8,&quot;firstGlyphOfWord&quot;:true,&quot;word&quot;:3}">
                </path>
                <path
                    d="M332.50532,302.95098c0.03269,0.0218 0.07628,0.03269 0.13077,0.03269c0.11987,0 0.21795,-0.06539 0.31603,-0.20705l3.34556,-6.71292l3.37826,6.73472c0.08718,0.15257 0.28334,0.22885 0.42501,0.15257c0.14167,-0.06539 0.22885,-0.22885 0.14167,-0.42501c-1.20963,-2.39747 -2.45196,-4.91482 -3.66159,-7.32319c-0.05449,-0.08718 -0.16346,-0.16346 -0.28334,-0.16346c-0.09808,0 -0.22885,0.06539 -0.28334,0.16346l-3.66159,7.32319c-0.07628,0.19616 -0.0109,0.35962 0.15257,0.42501z"
                    data-paper-data="{&quot;glyphName&quot;:&quot;A&quot;,&quot;glyphIndex&quot;:9,&quot;word&quot;:3}">
                </path>
                <path
                    d="M350.41537,295.03932l2.63722,3.54172v-0.0218c0,0.03269 0.0218,0.06539 0.03269,0.07628c0.04359,0.03269 0.07628,0.05449 0.09808,0.05449c0.0109,0.0109 0.04359,0.0218 0.06539,0.0218h0.11987l0.04359,-0.0218c0.04359,0 0.06539,-0.0218 0.08718,-0.04359c0.0109,-0.0109 0.03269,-0.03269 0.04359,-0.05449l2.64812,-3.55262c0.08718,-0.13077 0.07628,-0.33783 -0.06539,-0.4468c-0.14167,-0.09808 -0.34872,-0.05449 -0.4468,0.07628l-2.37568,3.193l-2.37568,-3.193c-0.10898,-0.14167 -0.31603,-0.17436 -0.4468,-0.07628c-0.15257,0.11987 -0.18526,0.32693 -0.06539,0.4577zM356.1911,302.47148l-2.63722,-3.54172l-0.05449,-0.06539l-0.03269,-0.0218c-0.05449,-0.0218 -0.07628,-0.03269 -0.09808,-0.03269c-0.0218,-0.0109 -0.04359,-0.0109 -0.04359,-0.0109h-0.04359c-0.04359,0 -0.06539,0.0109 -0.08718,0.0218c-0.0218,0.0109 -0.04359,0.0109 -0.05449,0.0218c-0.05449,0.04359 -0.07628,0.06539 -0.08718,0.09808l0.0109,-0.0218l-2.64812,3.55262c-0.09808,0.14167 -0.07628,0.32693 0.06539,0.4468c0.06539,0.03269 0.11987,0.06539 0.18526,0.06539c0.08718,0 0.19616,-0.04359 0.26154,-0.13077l2.37568,-3.2039l2.37568,3.2039c0.06539,0.08718 0.17436,0.13077 0.26154,0.13077c0.06539,0 0.11987,-0.03269 0.18526,-0.06539c0.14167,-0.10898 0.16346,-0.29424 0.06539,-0.4468z"
                    data-paper-data="{&quot;glyphName&quot;:&quot;X&quot;,&quot;glyphIndex&quot;:10,&quot;lastGlyphOfWord&quot;:true,&quot;word&quot;:3}">
                </path>
                <path d="M155.93474,286.46102v-0.64945h238.13057v0.64945z"
                    data-paper-data="{&quot;isContainerTopLineAboveSecondaryText&quot;:true}"></path>
            </g>
            <g data-paper-data="{&quot;isPrimaryText&quot;:true}" fill-rule="nonzero">
                <path
                    d="M163.10667,258.20294h4.70616c1.76315,0 3.26117,0.62307 4.52057,1.88246c1.24614,1.24614 1.86921,2.75741 1.86921,4.52057c0,1.76315 -0.62307,3.27443 -1.86921,4.52057c-1.2594,1.2594 -2.75741,1.88246 -4.52057,1.88246h-4.70616zM156.63736,251.03102c-0.19885,0 -0.35793,0.06628 -0.50376,0.19885c-0.13257,0.14582 -0.19885,0.30491 -0.19885,0.50376c0,0 0,0.02651 0.01326,0.06628c-0.01326,0.03977 -0.01326,0.06628 -0.01326,0.06628v19.83217c0,0.19885 0.06628,0.35793 0.19885,0.50376c0.14582,0.13257 0.30491,0.19885 0.50376,0.19885h11.17548c2.1476,0 3.97704,-0.75564 5.50157,-2.28017c1.52453,-1.52453 2.29343,-3.36723 2.29343,-5.51483c0,-2.1476 -0.76889,-3.9903 -2.29343,-5.51483c-1.52453,-1.52453 -3.35397,-2.28017 -5.50157,-2.28017h-5.39552c-0.19885,0 -0.35793,0.06628 -0.50376,0.19885c-0.13257,0.14582 -0.19885,0.30491 -0.19885,0.50376v13.49542h-4.37474v-18.57277h10.47287c3.35397,0 6.23069,1.19311 8.60366,3.56608c2.37297,2.37297 3.56608,5.24969 3.56608,8.60366c0,3.35397 -1.19311,6.23069 -3.56608,8.60366c-2.37297,2.37297 -5.24969,3.56608 -8.60366,3.56608h-11.17548c-0.19885,0 -0.35793,0.06628 -0.50376,0.21211c-0.13257,0.13257 -0.19885,0.29165 -0.19885,0.4905c0,0.19885 0.06628,0.35793 0.19885,0.50376c0.14582,0.13257 0.30491,0.19885 0.50376,0.19885h11.17548c3.73842,0 6.9333,-1.32568 9.59792,-3.97704c2.65136,-2.66462 3.97704,-5.8595 3.97704,-9.59792c0,-3.73842 -1.32568,-6.9333 -3.97704,-9.59792c-2.66462,-2.65136 -5.8595,-3.97704 -9.59792,-3.97704z"
                    data-paper-data="{&quot;glyphName&quot;:&quot;D&quot;,&quot;glyphIndex&quot;:0,&quot;firstGlyphOfWord&quot;:true,&quot;word&quot;:1}">
                </path>
                <path
                    d="M203.2615,276.77571l-1.5643,-3.8975h4.73268l1.5643,3.8975zM195.51953,261.21224l1.72338,4.2952h-3.44677zM207.5567,271.92373c-0.01326,-0.01326 -0.01326,-0.01326 -0.01326,-0.01326l-0.02651,-0.05303c-0.11931,-0.25188 -0.33142,-0.38445 -0.60981,-0.37119h-16.41191c-0.37119,-0.06628 -0.62307,0.06628 -0.76889,0.42422l-1.96201,4.86524h-4.71942l9.757,-24.33948h5.42203l5.24969,13.0712h-4.73268l-2.57182,-6.42955c-0.11931,-0.29165 -0.34468,-0.43747 -0.64958,-0.43747c-0.31816,0 -0.53027,0.14582 -0.64958,0.43747l-2.75741,6.86702c0,-0.01326 0,0.01326 -0.01326,0.05303c-0.01326,0.03977 -0.02651,0.06628 -0.02651,0.07954c0,0.01326 0,0.05303 -0.01326,0.0928c0,0.03977 0,0.05303 0,0.03977v0.01326c0,0.01326 0,0.05303 0.01326,0.0928c0,0.03977 0,0.05303 0,0.03977c0,0.01326 0.01326,0.03977 0.02651,0.07954c0.01326,0.03977 0.01326,0.05303 0.01326,0.05303c0,-0.01326 0.01326,0 0.02651,0.03977l0.03977,0.07954l0.05303,0.06628c0.03977,0.03977 0.03977,0.05303 0.02651,0.03977l0.05303,0.03977c0.03977,0.02651 0.05303,0.03977 0.05303,0.03977c-0.01326,-0.01326 0,0 0.03977,0.02651c0.03977,0.01326 0.07954,0.02651 0.0928,0.03977l0.06628,0.02651c0.03977,0.01326 0.05303,0.01326 0.06628,0.01326c0.03977,0.01326 0.0928,0.01326 0.13257,0.01326h11.74552c0,0 0.02651,0 0.06628,-0.01326c0.03977,0 0.06628,0 0.06628,0l0.10605,-0.02651c0.05303,-0.02651 0.06628,-0.02651 0.02651,-0.01326l0.10605,-0.05303c0,0 0,0 0.01326,-0.01326l0.0928,-0.06628c0,-0.01326 0,-0.01326 0.01326,-0.01326c0.07954,-0.07954 0.13257,-0.1856 0.17234,-0.30491c0.01326,-0.03977 0.02651,-0.05303 0.02651,-0.05303c-0.01326,0.01326 -0.01326,0 0,-0.03977c0.01326,-0.03977 0.01326,-0.07954 0.01326,-0.0928v-0.01326c0,0.01326 0,0 0,-0.03977c-0.01326,-0.03977 -0.01326,-0.07954 -0.01326,-0.0928c0,-0.01326 -0.01326,-0.03977 -0.02651,-0.07954c-0.01326,-0.03977 -0.01326,-0.06628 -0.01326,-0.05303l-5.80648,-14.47642c-0.11931,-0.29165 -0.33142,-0.43747 -0.64958,-0.43747h-6.36326c-0.31816,0 -0.53027,0.14582 -0.64958,0.43747l-10.3403,25.75795c-0.0928,0.22537 -0.06628,0.45073 0.07954,0.64958c0.13257,0.19885 0.31816,0.30491 0.57004,0.30491h6.24395c0.31816,0 0.53027,-0.14582 0.64958,-0.43747l1.94875,-4.86524h9.3593l1.94875,4.86524c0.11931,0.29165 0.33142,0.43747 0.64958,0.43747h6.23069c0.25188,0 0.43747,-0.10605 0.5833,-0.30491c0.14582,-0.19885 0.15908,-0.42422 0.06628,-0.64958z"
                    data-paper-data="{&quot;glyphName&quot;:&quot;A&quot;,&quot;glyphIndex&quot;:1,&quot;word&quot;:1}">
                </path>
                <path
                    d="M233.75213,252.43624h5.66065l-9.00136,11.04291l-2.81044,-3.47328zM219.56736,276.77571h-5.59437l9.00136,-11.08268l2.8237,3.44677zM231.31288,264.57946l10.11493,-12.40836c0.1856,-0.22537 0.21211,-0.47724 0.0928,-0.74238c-0.11931,-0.26514 -0.33142,-0.3977 -0.63633,-0.3977h-7.46358c-0.22537,0 -0.3977,0.07954 -0.54353,0.25188l-6.17767,7.62266l-6.19092,-7.62266c-0.14582,-0.17234 -0.31816,-0.25188 -0.54353,-0.25188h-7.46358c-0.29165,0 -0.50376,0.13257 -0.63633,0.3977c-0.11931,0.26514 -0.0928,0.51702 0.0928,0.74238l10.11493,12.40836l-10.11493,12.46139c-0.1856,0.22537 -0.21211,0.47724 -0.0928,0.74238c0.13257,0.26514 0.34468,0.3977 0.63633,0.3977h7.39729c0.22537,0 0.3977,-0.07954 0.54353,-0.25188l6.25721,-7.67568l6.24395,7.67568c0.11931,0.14582 0.27839,0.22537 0.47724,0.25188c0.19885,0.01326 0.37119,-0.03977 0.51702,-0.15908c0.14582,-0.11931 0.23862,-0.27839 0.25188,-0.46399c0.01326,-0.19885 -0.03977,-0.37119 -0.15908,-0.51702l-20.05753,-24.60461h5.66065l20.70711,25.47956c0.14582,0.17234 0.31816,0.26514 0.54353,0.26514c0.17234,0 0.31816,-0.05303 0.45073,-0.15908c0.14582,-0.11931 0.23862,-0.27839 0.25188,-0.46399c0.01326,-0.19885 -0.03977,-0.37119 -0.15908,-0.51702z"
                    data-paper-data="{&quot;glyphName&quot;:&quot;X&quot;,&quot;glyphIndex&quot;:2,&quot;lastGlyphOfWord&quot;:true,&quot;word&quot;:1}">
                </path>
                <path
                    d="M277.42001,256.81098h-9.2665v-4.37474h9.2665zM251.70183,252.43624h9.2665v4.37474h-9.2665zM267.4509,251.03102c-0.19885,0 -0.35793,0.06628 -0.4905,0.19885c-0.14582,0.14582 -0.21211,0.30491 -0.21211,0.50376v25.04209h-4.37474v-25.04209c0,-0.19885 -0.06628,-0.35793 -0.21211,-0.50376c-0.13257,-0.13257 -0.29165,-0.19885 -0.4905,-0.19885h-10.67172c-0.19885,0 -0.35793,0.06628 -0.50376,0.19885c-0.13257,0.14582 -0.19885,0.30491 -0.19885,0.50376v5.77996c0,0.1856 0.06628,0.34468 0.19885,0.4905c0.14582,0.13257 0.30491,0.19885 0.50376,0.19885h9.96911v19.27538c0,0.19885 0.06628,0.35793 0.21211,0.50376c0.13257,0.13257 0.29165,0.19885 0.4905,0.19885h5.77996c0.19885,0 0.35793,-0.06628 0.4905,-0.19885c0.14582,-0.14582 0.21211,-0.30491 0.21211,-0.50376v-19.27538h9.96911c0.19885,0 0.35793,-0.06628 0.4905,-0.19885c0.14582,-0.14582 0.21211,-0.30491 0.21211,-0.4905v-5.77996c0,-0.19885 -0.06628,-0.35793 -0.21211,-0.50376c-0.13257,-0.13257 -0.29165,-0.19885 -0.4905,-0.19885z"
                    data-paper-data="{&quot;glyphName&quot;:&quot;T&quot;,&quot;glyphIndex&quot;:3,&quot;firstGlyphOfWord&quot;:true,&quot;word&quot;:2}">
                </path>
                <path
                    d="M297.54383,276.66966l-6.4428,-8.48435h5.44854c0.01326,0.05303 0.03977,0.0928 0.07954,0.13257l6.40303,8.35178zM284.49914,268.18531h4.34823v8.5904h-4.34823zM290.25259,258.18969l6.37652,0.01326c0.38445,0 0.71587,0.13257 0.99426,0.41096c0.27839,0.27839 0.41096,0.60981 0.41096,0.99426c0,0.38445 -0.13257,0.71587 -0.41096,0.99426c-0.27839,0.27839 -0.60981,0.41096 -0.99426,0.41096l-0.06628,0.01326h-6.31023zM298.1669,268.02623c2.01503,-0.35793 3.68539,-1.33894 5.02433,-2.91649c1.33894,-1.59082 2.01503,-3.43351 2.01503,-5.51483c0,-2.35971 -0.83518,-4.37474 -2.50553,-6.05836c-1.68361,-1.67036 -3.69865,-2.50553 -6.05836,-2.50553c0.01326,0 0.01326,0 0,0c-0.01326,0 -0.01326,0 -0.01326,0h-12.83258c-0.19885,0 -0.35793,0.06628 -0.50376,0.19885c-0.13257,0.14582 -0.19885,0.30491 -0.19885,0.50376v9.99562c0,0.19885 0.06628,0.35793 0.19885,0.4905c0.14582,0.14582 0.30491,0.21211 0.50376,0.21211h12.83258c0.03977,0 0.0928,0 0.14582,-0.01326c0.74238,-0.03977 1.36545,-0.33142 1.88246,-0.87495c0.51702,-0.54353 0.78215,-1.17985 0.78215,-1.93549c0,-0.76889 -0.27839,-1.43173 -0.82192,-1.98852c-0.54353,-0.54353 -1.20637,-0.82192 -1.98852,-0.82192l-7.07913,-0.01326c-0.19885,0 -0.35793,0.06628 -0.4905,0.21211c-0.14582,0.13257 -0.21211,0.29165 -0.21211,0.4905v3.53956h-4.34823v-8.5904h12.12997c0,0 0,0 0.01326,0c0.01326,0 0.01326,0 0,0c1.97526,0 3.67213,0.70261 5.0641,2.09457c1.40522,1.39196 2.10783,3.08883 2.10783,5.0641c0,1.97526 -0.70261,3.65888 -2.10783,5.0641c-1.39196,1.39196 -3.08883,2.09457 -5.0641,2.09457c-0.05303,0 -0.11931,0.01326 -0.1856,0.02651h-12.66024c-0.19885,0 -0.35793,0.06628 -0.50376,0.21211c-0.13257,0.13257 -0.19885,0.29165 -0.19885,0.4905v9.99562c0,0.19885 0.06628,0.35793 0.19885,0.50376c0.14582,0.13257 0.30491,0.19885 0.50376,0.19885h5.75345c0.19885,0 0.35793,-0.06628 0.4905,-0.19885c0.14582,-0.14582 0.21211,-0.30491 0.21211,-0.50376v-8.08664l6.37652,8.40481c0.14582,0.1856 0.33142,0.27839 0.55679,0.27839h7.26472c0.29165,0 0.50376,-0.13257 0.62307,-0.38445c0.13257,-0.26514 0.10605,-0.51702 -0.06628,-0.74238z"
                    data-paper-data="{&quot;glyphName&quot;:&quot;R&quot;,&quot;glyphIndex&quot;:4,&quot;word&quot;:2}">
                </path>
                <path
                    d="M315.69238,278.18093c0.1856,0 0.34468,-0.06628 0.4905,-0.19885c0.13257,-0.14582 0.19885,-0.30491 0.19885,-0.50376v-25.7447c0,-0.19885 -0.06628,-0.35793 -0.19885,-0.50376c-0.14582,-0.13257 -0.30491,-0.19885 -0.4905,-0.19885c-0.19885,0 -0.35793,0.06628 -0.50376,0.19885c-0.13257,0.14582 -0.19885,0.30491 -0.19885,0.50376v25.04209h-4.37474v-25.04209c0,-0.19885 -0.06628,-0.35793 -0.21211,-0.50376c-0.13257,-0.13257 -0.29165,-0.19885 -0.4905,-0.19885c-0.19885,0 -0.35793,0.06628 -0.50376,0.19885c-0.13257,0.14582 -0.19885,0.30491 -0.19885,0.50376v25.7447c0,0.19885 0.06628,0.35793 0.19885,0.50376c0.14582,0.13257 0.30491,0.19885 0.50376,0.19885z"
                    data-paper-data="{&quot;glyphName&quot;:&quot;I&quot;,&quot;glyphIndex&quot;:5,&quot;word&quot;:2}">
                </path>
                <path
                    d="M341.23823,278.18093c0.19885,0 0.35793,-0.06628 0.50376,-0.19885c0.13257,-0.14582 0.19885,-0.30491 0.19885,-0.50376v-6.29698c0,-0.19885 -0.06628,-0.35793 -0.19885,-0.50376c-0.14582,-0.13257 -0.30491,-0.19885 -0.50376,-0.19885h-7.94082c-1.61733,0 -2.99604,-0.57004 -4.14938,-1.72338c-1.15334,-1.15334 -1.72338,-2.53205 -1.72338,-4.14938c0,-1.61733 0.57004,-2.99604 1.72338,-4.14938c1.15334,-1.15334 2.53205,-1.72338 4.14938,-1.72338h7.94082c0.19885,0 0.35793,-0.06628 0.50376,-0.19885c0.13257,-0.14582 0.19885,-0.30491 0.19885,-0.50376c0,-0.19885 -0.06628,-0.35793 -0.19885,-0.4905c-0.14582,-0.14582 -0.30491,-0.21211 -0.50376,-0.21211h-7.94082c-2.00178,0 -3.72516,0.71587 -5.14364,2.13434c-1.41848,1.41848 -2.13434,3.14186 -2.13434,5.14364c0,2.00178 0.71587,3.72516 2.13434,5.14364c1.41848,1.41848 3.14186,2.13434 5.14364,2.13434h7.25147v4.89176h-6.68142c-3.35397,0 -6.23069,-1.19311 -8.60366,-3.56608c-2.37297,-2.37297 -3.56608,-5.24969 -3.56608,-8.60366c0,-3.35397 1.19311,-6.23069 3.56608,-8.60366c2.37297,-2.37297 5.24969,-3.56608 8.60366,-3.56608h7.37078c0.19885,0 0.35793,-0.06628 0.50376,-0.21211c0.13257,-0.13257 0.19885,-0.29165 0.19885,-0.4905c0,-0.19885 -0.06628,-0.35793 -0.19885,-0.50376c-0.14582,-0.13257 -0.30491,-0.19885 -0.50376,-0.19885h-7.37078c-3.73842,0 -6.9333,1.32568 -9.59792,3.97704c-2.65136,2.66462 -3.97704,5.8595 -3.97704,9.59792c0,3.73842 1.32568,6.9333 3.97704,9.59792c2.66462,2.65136 5.8595,3.97704 9.59792,3.97704z"
                    data-paper-data="{&quot;glyphName&quot;:&quot;C&quot;,&quot;glyphIndex&quot;:6,&quot;word&quot;:2}">
                </path>
                <path
                    d="M368.67979,276.77571h-6.09813l-9.54489,-9.41232l3.46002,-2.83695zM347.38938,276.77571v-4.74593l4.37474,-3.60585v8.35178zM351.76412,252.43624v7.34426l-4.37474,3.56608v-10.91034zM370.78762,251.13707h-8.16619c-0.17234,0 -0.31816,0.05303 -0.45073,0.15908l-9.01462,7.34426v-6.90679c0,-0.19885 -0.06628,-0.35793 -0.19885,-0.50376c-0.14582,-0.13257 -0.30491,-0.19885 -0.4905,-0.19885h-5.77996c-0.19885,0 -0.35793,0.06628 -0.50376,0.19885c-0.13257,0.14582 -0.19885,0.30491 -0.19885,0.50376v13.08446c0,-0.02651 0,-0.01326 0,0.02651c0,0.02651 0,0.05303 0.01326,0.07954c0,0.02651 0,0.05303 0.01326,0.06628c0,0.01326 0,0.03977 0.01326,0.06628l0.02651,0.05303l0.03977,0.06628l0.03977,0.06628c0.01326,0.02651 0.02651,0.02651 0.01326,0.01326c-0.01326,-0.01326 -0.01326,-0.01326 0.02651,0.02651c0.01326,0.01326 0.02651,0.03977 0.05303,0.05303l0.03977,0.03977l0.06628,0.03977l0.05303,0.03977c0.01326,0.01326 0.03977,0.01326 0.06628,0.02651c0.02651,0 0.05303,0 0.06628,0.01326c0.01326,0.01326 0.03977,0.01326 0.06628,0.01326c0.02651,0 0.05303,0 0.06628,0.01326c0.06628,0 0.07954,0 0.03977,0c-0.03977,0 -0.02651,0 0.02651,0c0.02651,0 0.05303,0 0.07954,-0.01326c0.02651,0 0.03977,0 0.05303,-0.01326c0.02651,0 0.05303,0 0.06628,-0.01326c0.02651,-0.01326 0.05303,-0.01326 0.06628,-0.02651l0.06628,-0.03977l0.05303,-0.03977c0.05303,-0.03977 0.06628,-0.03977 0.02651,-0.01326l15.74907,-12.83258h5.96556l-22.60284,18.6258c0.01326,-0.01326 0.01326,0 -0.01326,0.02651l-0.05303,0.05303l-0.05303,0.05303l-0.02651,0.05303l-0.03977,0.06628l-0.02651,0.05303c-0.01326,0.02651 -0.01326,0.05303 -0.01326,0.06628c-0.01326,0.01326 -0.01326,0.03977 -0.01326,0.06628c-0.01326,0.02651 -0.01326,0.05303 -0.01326,0.07954c0,0.05303 0,0.06628 0,0.02651v5.77996c0,0.19885 0.06628,0.35793 0.19885,0.50376c0.14582,0.13257 0.30491,0.19885 0.50376,0.19885h5.77996c0.1856,0 0.34468,-0.06628 0.4905,-0.19885c0.13257,-0.14582 0.19885,-0.30491 0.19885,-0.50376v-8.02036l8.64343,8.52412c0.13257,0.13257 0.29165,0.19885 0.4905,0.19885h8.06013c0.31816,0 0.53027,-0.14582 0.64958,-0.43747c0.11931,-0.27839 0.07954,-0.53027 -0.14582,-0.75564l-13.27005,-13.36285l13.6545,-11.25502c0.25188,-0.19885 0.31816,-0.46399 0.21211,-0.76889c-0.11931,-0.30491 -0.33142,-0.46399 -0.66284,-0.46399z"
                    data-paper-data="{&quot;glyphName&quot;:&quot;K&quot;,&quot;glyphIndex&quot;:7,&quot;word&quot;:2}">
                </path>
                <path
                    d="M381.04838,259.58165c-0.3977,-0.22537 -0.55679,-0.51702 -0.46399,-0.84843c0.0928,-0.34468 0.37119,-0.51702 0.86169,-0.51702h10.20773c0.19885,0 0.35793,-0.06628 0.4905,-0.21211c0.14582,-0.13257 0.21211,-0.29165 0.21211,-0.4905l-0.01326,-5.77996c0,-0.19885 -0.06628,-0.35793 -0.21211,-0.50376c-0.13257,-0.13257 -0.29165,-0.19885 -0.4905,-0.19885c0,0 -0.02651,0 -0.06628,0.01326v-0.01326h-9.54489c-2.22714,0 -4.04332,0.53027 -5.44854,1.59082c-1.68361,1.27265 -2.65136,2.92975 -2.87672,4.95804c-0.15908,1.36545 0.02651,2.67787 0.57004,3.95052c0.54353,1.2594 1.33894,2.26691 2.39948,3.02255c1.14008,0.80866 3.91075,2.17411 8.31201,4.06984l0.72912,0.33142c0.981,0.41096 1.39196,0.87495 1.24614,1.36545c-0.0928,0.29165 -0.21211,0.4905 -0.37119,0.5833c-0.26514,0.17234 -0.74238,0.25188 -1.41848,0.25188h-0.05303c-0.54353,-0.01326 -4.10961,-0.01326 -10.69823,-0.01326c-0.19885,0 -0.35793,0.06628 -0.4905,0.19885c-0.14582,0.14582 -0.21211,0.30491 -0.21211,0.50376c0,0.1856 0.06628,0.34468 0.21211,0.4905c0.13257,0.13257 0.29165,0.19885 0.4905,0.19885c6.57537,0 10.12819,0.01326 10.67172,0.02651h0.07954c0.91472,0 1.60407,-0.14582 2.09457,-0.43747c0.4905,-0.27839 0.83518,-0.74238 1.03403,-1.39196c0.1856,-0.59656 0.0928,-1.17985 -0.26514,-1.72338c-0.35793,-0.54353 -0.94123,-0.981 -1.76315,-1.33894l-0.72912,-0.33142c-4.30846,-1.85595 -6.98633,-3.16837 -8.06013,-3.92401c-0.86169,-0.60981 -1.49802,-1.43173 -1.93549,-2.45251c-0.43747,-1.03403 -0.5833,-2.10783 -0.45073,-3.2214c0.1856,-1.63059 0.96775,-2.96952 2.3332,-4.00355c1.15334,-0.86169 2.67787,-1.29917 4.60011,-1.29917h8.90857l0.01326,4.37474h-9.50512c-0.54353,0 -1.02077,0.14582 -1.43173,0.42422c-0.3977,0.27839 -0.66284,0.66284 -0.78215,1.14008c-0.13257,0.46399 -0.0928,0.92798 0.11931,1.36545c0.19885,0.43747 0.54353,0.79541 1.00752,1.06054c0.35793,0.19885 3.10209,1.39196 8.24573,3.57933c0.90146,0.38445 1.71013,0.95449 2.42599,1.71013c1.31242,1.39196 1.84269,3.06232 1.5643,4.99781c-0.25188,1.82944 -1.19311,3.26117 -2.79718,4.30846c-1.40522,0.91472 -3.02255,1.37871 -4.85199,1.37871h-10.5259c-0.19885,0 -0.35793,0.06628 -0.4905,0.21211c-0.14582,0.13257 -0.21211,0.29165 -0.21211,0.4905c0,0.19885 0.06628,0.35793 0.21211,0.50376c0.13257,0.13257 0.29165,0.19885 0.4905,0.19885h10.5259c2.16086,0 4.06984,-0.55679 5.72694,-1.67036c1.89572,-1.27265 3.00929,-3.00929 3.3142,-5.22318c0.27839,-2.04155 -0.1856,-3.87098 -1.39196,-5.47506c-0.91472,-1.23288 -2.06806,-2.13434 -3.43351,-2.71764c-5.05084,-2.16086 -7.75523,-3.32746 -8.11316,-3.51305z"
                    data-paper-data="{&quot;glyphName&quot;:&quot;S&quot;,&quot;glyphIndex&quot;:8,&quot;lastGlyphOfWord&quot;:true,&quot;word&quot;:2}">
                </path>
            </g>
            <g data-paper-data="{&quot;fillRule&quot;:&quot;undefined&quot;,&quot;isIcon&quot;:&quot;true&quot;,&quot;rawInitialId&quot;:&quot;314&quot;,&quot;iconType&quot;:&quot;initial&quot;,&quot;initialText&quot;:&quot;DT&quot;,&quot;selectedEffects&quot;:{&quot;container&quot;:&quot;&quot;,&quot;transformation&quot;:&quot;&quot;,&quot;pattern&quot;:&quot;&quot;},&quot;iconStyle&quot;:&quot;standalone&quot;,&quot;bounds&quot;:{&quot;x&quot;:215.77975019928385,&quot;y&quot;:167.01638434745036,&quot;width&quot;:118.44055629918626,&quot;height&quot;:69.51464917257007},&quot;suitableAsStandaloneIcon&quot;:true}"
                fill-rule="undefined">
                <path
                    d="M219.76466,190.15104c0,-0.66416 -0.44277,-1.3283 -0.99623,-1.66038v-19.37112h34.64663c9.07675,0 16.49313,7.30568 16.49313,16.38243v23.57742h1.99246v-23.57742c0,-10.18367 -8.30191,-18.48558 -18.48558,-18.48558h-36.74978v21.47427c-0.55346,0.44277 -0.88554,0.99623 -0.88554,1.66038c0,1.10692 0.88554,1.99246 1.99246,1.99246c1.10692,0 1.99246,-0.88554 1.99246,-1.99246zM253.41506,171.11199h-21.25289h-3.09938h-8.19122v61.32343h8.19122h3.09938h21.25289c7.96983,0 14.38998,-6.42014 14.38998,-14.38998v-32.54348c0,-7.96983 -6.42014,-14.38998 -14.38998,-14.38998zM250.53707,222.58383h-18.37489v-41.73093h18.2642c3.32077,0 6.08806,2.7673 6.08806,6.19876c0,20.25666 0.11069,11.1799 0.11069,29.33341c0,3.43145 -2.65661,6.19876 -6.08806,6.19876zM250.42637,182.95605h-16.16105v37.52463h16.27174c2.21384,0 4.09561,-1.77107 4.09561,-4.09561c0,-9.74091 -0.11069,-19.5925 -0.11069,-29.33341c0,-2.21384 -1.88177,-4.09561 -4.09561,-4.09561zM250.53707,218.48822h-14.27928v-33.53971h14.16859c1.10692,0 1.99246,0.99623 1.99246,2.10315c0,9.74091 0.11069,19.5925 0.11069,29.33341c0,1.21761 -0.88554,2.10315 -1.99246,2.10315zM270.79373,213.83915c-1.10692,0 -1.88177,0.88554 -1.88177,1.88177c0,0.77484 0.33208,1.439 0.99623,1.77107v0.55346c0,9.07675 -7.41637,16.49313 -16.49313,16.49313h-34.64663v-36.41771h-2.10315v38.41016h36.74978c10.18367,0 18.48558,-8.30191 18.48558,-18.48558v-0.66416c0.55346,-0.33208 0.88554,-0.88554 0.88554,-1.66038c0,-0.99623 -0.88554,-1.88177 -1.99246,-1.88177zM315.51334,214.17123c-1.10692,0 -1.99246,0.88554 -1.99246,1.99246c0,0.66416 0.44277,1.3283 0.99623,1.66038v16.71451h-15.3862v-36.41771h-2.10315v38.41016h19.5925v-18.81766c0.44277,-0.33208 0.77484,-0.88554 0.77484,-1.54969c0,-1.10692 -0.77484,-1.99246 -1.88177,-1.99246zM279.42771,167.01638v19.5925h17.60005v1.439c-0.55346,0.33208 -0.88554,0.99623 -0.88554,1.66038c0,1.10692 0.88554,1.99246 1.88177,1.99246c1.10692,0 1.99246,-0.88554 1.99246,-1.99246c0,-0.66416 -0.33208,-1.3283 -0.88554,-1.66038v-3.54215h-17.60005v-15.3862h50.5863v15.3862h-17.60005v24.57365h2.10315v-22.4705h17.60005v-19.5925zM312.52465,232.43542v-49.92215h17.60005v-11.40129h-46.60138v11.40129h17.60005v49.92215z"
                    data-paper-data="{&quot;isPathIcon&quot;:true}"></path>
            </g>
            <path
                d="M190.14728,150.14722c11.07211,-11.07234 23.78657,-19.64463 38.14336,-25.71687c14.86433,-6.28691 30.43412,-9.43036 46.70939,-9.43036c16.27639,0 31.84619,3.14345 46.70939,9.43036c14.35604,6.07224 27.07049,14.64453 38.14336,25.71687c11.07324,11.07253 19.64547,23.787 25.7167,38.14342c6.28702,14.86583 9.43053,30.43563 9.43053,46.70939c0,4.63905 -0.25535,9.22068 -0.76605,13.74487l-0.05354,-0.04783l-0.25854,-0.18937l-0.27612,-0.16272l-0.01637,-0.0076c0.48329,-4.39164 0.72493,-8.83742 0.72493,-13.33735c0,-16.18917 -3.12659,-31.67513 -9.37977,-46.45788c-6.03964,-14.27897 -14.56582,-26.92504 -25.57853,-37.9382c-11.01234,-11.01279 -23.65837,-19.539 -37.93809,-25.57865c-14.78387,-6.25288 -30.26983,-9.37932 -46.45788,-9.37932c-16.18842,0 -31.67438,3.12644 -46.45788,9.37932c-14.27897,6.03949 -26.925,14.56571 -37.93809,25.57865c-11.01264,11.01241 -19.53889,23.65848 -25.57876,37.9382c-6.25288,14.78312 -9.37932,30.26908 -9.37932,46.45788c0,4.32819 0.22348,8.60615 0.67043,12.83387l-0.63684,0.12104c-0.45305,-4.26741 -0.67957,-8.58571 -0.67957,-12.9549c0,-16.27602 3.14345,-31.84582 9.43036,-46.70939c6.07224,-14.35642 14.64454,-27.07089 25.71692,-38.14342zM359.85278,319.85278c-11.07211,11.07287 -23.78657,19.6451 -38.14336,25.7167c-14.86583,6.28702 -30.43563,9.43053 -46.70939,9.43053c-16.27639,0 -31.84619,-3.14351 -46.70939,-9.43053c-14.35642,-6.07235 -27.07087,-14.64458 -38.14336,-25.7167c-4.29044,-4.29023 -8.20553,-8.82719 -11.74528,-13.61089h0.80534c3.44538,4.6168 7.24428,9.0015 11.39672,13.15411c11.01309,11.01384 23.65912,19.54002 37.93809,25.57853c14.78538,6.25318 30.27134,9.37977 46.45788,9.37977c16.18955,0 31.67551,-3.12659 46.45788,-9.37977c14.27859,-6.03964 26.92463,-14.56582 37.93809,-25.57853c8.84053,-8.83993 16.07843,-18.73225 21.71369,-29.67697l0.72554,0c-5.68775,11.12134 -13.01523,21.16592 -21.98244,30.13375z"
                data-paper-data="{&quot;isLogoContainer&quot;:true}" fill-rule="nonzero"></path>
        </g>
    </g>
</svg>