<svg version="1.1" xmlns="http://www.w3.org/2000/svg" xmlns:xlink="http://www.w3.org/1999/xlink" viewBox="0 0 550 470">
    <g fill="#00594c" fill-rule="evenodd" stroke="none" stroke-width="1" stroke-linecap="butt" stroke-linejoin="miter"
        stroke-miterlimit="10" stroke-dasharray="" stroke-dashoffset="0" font-family="none" font-weight="none"
        font-size="none" text-anchor="none" style="mix-blend-mode: normal">
        <g
            data-paper-data="{&quot;isGlobalGroup&quot;:true,&quot;bounds&quot;:{&quot;x&quot;:133.09988274752544,&quot;y&quot;:106,&quot;width&quot;:283.8002345049491,&quot;height&quot;:258}}">
            <g
                data-paper-data="{&quot;fillRule&quot;:&quot;undefined&quot;,&quot;isIcon&quot;:&quot;true&quot;,&quot;rawInitialId&quot;:&quot;314&quot;,&quot;iconType&quot;:&quot;initial&quot;,&quot;initialText&quot;:&quot;DT&quot;,&quot;selectedEffects&quot;:{&quot;container&quot;:&quot;&quot;,&quot;transformation&quot;:&quot;&quot;,&quot;pattern&quot;:&quot;&quot;},&quot;iconStyle&quot;:&quot;standalone&quot;,&quot;bounds&quot;:{&quot;x&quot;:199.62224170370573,&quot;y&quot;:190.44405966242195,&quot;width&quot;:150.69547160035992,&quot;height&quot;:89.11188067515607},&quot;suitableAsStandaloneIcon&quot;:false}">
                <path
                    d="M199.62224,254.264v25.29195h47.11012c13.05471,0 23.69714,-10.64242 23.69714,-23.69673v-0.85184c0.31775,-0.19054 0.57864,-0.43852 0.77035,-0.74338h-4.26213c0.21281,0.37345 0.52529,0.67948 0.93743,0.88526v0.70996c0,11.63555 -9.50742,21.14238 -21.14279,21.14238h-44.41406v-22.7376zM205.01434,254.264v20.04197h41.71802c10.21662,0 18.44657,-8.23054 18.44657,-18.44675v-1.59522h-14.34836c-0.26247,4.14839 -3.56805,7.4127 -7.78756,7.4127h-23.55508v-7.4127zM222.18397,254.264v4.71648h20.85904c2.66603,0 4.95632,-2.00326 5.22407,-4.71648h-2.71592c-0.22577,1.27922 -1.25659,2.16272 -2.50815,2.16272h-18.30487v-2.16272zM268.26971,204.26936h-2.87034c-3.56389,-6.63268 -10.60431,-11.12924 -18.667,-11.12924h-44.41406v11.12924h-2.69604v-13.8253h47.11011c9.5348,0 17.78292,5.67736 21.53734,13.8253zM282.77443,204.26936h-2.69622v-13.8253h70.23951v13.8253h-2.69622v-11.12924h-64.84707zM302.63993,254.264h2.69622v22.7376h19.72363v-21.42613c-0.47839,-0.28727 -0.89229,-0.768 -1.11097,-1.31147h4.66254c-0.16943,0.48601 -0.48191,0.88877 -0.85536,1.16959v24.12235h-25.11607zM322.50601,254.264v20.04197h-14.61552v-20.04197zM345.06773,204.26936h-59.73896v-8.57508h59.73896zM205.01434,204.26936v-8.57508h41.71802c6.58062,0 12.33713,3.41451 15.60085,8.57508z"
                    data-paper-data="{&quot;isPathIcon&quot;:true}"></path>
            </g>
            <g>
                <path
                    d="M133.09988,252.19977v-45.86641h283.80023v45.86641l-15.29031,7.64545c0.49187,-2.52269 0.91105,-5.07234 1.25343,-7.64545h-255.72683c0.34285,2.57311 0.76155,5.12276 1.25378,7.64545zM138.24381,213.87738c0.16779,-0.15255 0.35076,-0.22882 0.57958,-0.22882h12.85738c4.30106,0 7.9768,1.52522 11.04243,4.5756c3.05044,3.06568 4.5756,6.74137 4.5756,11.04243c0,4.30106 -1.52516,7.9768 -4.5756,11.04243c-3.06562,3.05038 -6.74137,4.5756 -11.04243,4.5756h-12.85738c-0.22882,0 -0.41179,-0.07627 -0.57958,-0.22876c-0.15255,-0.16779 -0.22882,-0.35082 -0.22882,-0.57958c0,-0.22882 0.07627,-0.41179 0.22882,-0.56434c0.16779,-0.16779 0.35076,-0.24406 0.57958,-0.24406h12.85738c3.85878,0 7.16846,-1.37267 9.89857,-4.10278c2.73005,-2.73005 4.10278,-6.03973 4.10278,-9.89851c0,-3.85872 -1.37273,-7.16841 -4.10278,-9.89851c-2.73011,-2.73011 -6.03979,-4.10278 -9.89857,-4.10278h-12.04904v21.36803h5.03318v-15.52651c0,-0.22882 0.07621,-0.41185 0.22876,-0.57958c0.16779,-0.15255 0.35076,-0.22882 0.57958,-0.22882h6.20752c2.47086,0 4.5756,0.86937 6.32958,2.62335c1.75398,1.75398 2.63859,3.87402 2.63859,6.34482c0,2.47086 -0.88461,4.59084 -2.63859,6.34482c-1.75398,1.75398 -3.85872,2.62335 -6.32958,2.62335h-12.85738c-0.22882,0 -0.41179,-0.07627 -0.57958,-0.22876c-0.15255,-0.16779 -0.22882,-0.35082 -0.22882,-0.57958v-22.81698c0,0 0,-0.03049 0.0153,-0.07627c-0.0153,-0.04573 -0.0153,-0.07621 -0.0153,-0.07621c0,-0.22882 0.07627,-0.41185 0.22882,-0.57958zM197.39094,237.67043l0.01525,0.01524l2.44032,6.10082c0.10676,0.25925 0.09151,0.51855 -0.07626,0.74731c-0.16777,0.22882 -0.3813,0.35082 -0.67109,0.35082h-7.16842c-0.36605,0 -0.61008,-0.16779 -0.74735,-0.50331l-2.24204,-5.59746h-10.76792l-2.24204,5.59746c-0.13724,0.33552 -0.38125,0.50331 -0.74731,0.50331h-7.18371c-0.28979,0 -0.50331,-0.122 -0.65579,-0.35082c-0.16779,-0.22876 -0.19827,-0.48806 -0.09152,-0.74731l11.89649,-29.63457c0.1373,-0.33558 0.38131,-0.50336 0.74737,-0.50336h7.32095c0.36606,0 0.61006,0.16779 0.74737,0.50336l6.68034,16.65513l0.00008,-0.00399l0.00048,0.00287c0.00113,0.00791 0.00452,0.0316 0.01469,0.06214c0.01525,0.04573 0.0305,0.07621 0.0305,0.09152c0,0.01524 0,0.06097 0.01525,0.10676v0.06097c0,0.01524 0,0.06103 -0.01525,0.10676c-0.01068,0.03205 -0.01388,0.04913 -0.00961,0.05124c0.00183,0.00094 0.00503,-0.00088 0.00961,-0.00545c0,0 -0.01525,0.01524 -0.0305,0.06097c-0.04576,0.1373 -0.10676,0.2593 -0.19828,0.35082c-0.01525,0 -0.01525,0 -0.01525,0.01524l-0.10676,0.07627l-0.01525,0.01524l-0.12202,0.06103c0.00245,-0.00082 0.00473,-0.00158 0.00683,-0.00235c-0.00934,0.00405 -0.02186,0.00985 -0.03733,0.01759l-0.12202,0.03049h-0.07626c-0.04576,0.01524 -0.07626,0.01524 -0.07626,0.01524h-13.51325c-0.04573,0 -0.10676,0 -0.15255,-0.01524c-0.01524,0 -0.03049,0 -0.07621,-0.01524l-0.07627,-0.03049c-0.01524,-0.01524 -0.06103,-0.03054 -0.10676,-0.04579c-0.02286,-0.01524 -0.03817,-0.02667 -0.04579,-0.03242c-0.00369,-0.00276 -0.00557,-0.00416 -0.00569,-0.00405c-0.00012,0.00012 0.00176,0.00205 0.00569,0.00598c0,0 -0.01524,-0.01524 -0.06097,-0.04573l-0.05353,-0.04016c0.00557,0.00147 -0.00229,-0.01565 -0.03799,-0.05136l-0.06103,-0.07627l-0.04573,-0.09152c-0.01524,-0.04579 -0.03054,-0.06103 -0.03054,-0.04579c0,0 0,-0.01524 -0.01524,-0.06097c-0.01524,-0.04579 -0.03049,-0.07627 -0.03049,-0.09152v-0.04579c-0.01524,-0.04573 -0.01524,-0.09152 -0.01524,-0.10676v-0.06097c0.01524,-0.04579 0.01524,-0.09152 0.01524,-0.10676c0,-0.0153 0.01524,-0.04579 0.03049,-0.09152c0.0102,-0.03054 0.01354,-0.05423 0.01472,-0.06214l0.00047,-0.00287l0.00006,0.00399l3.17244,-7.90053c0.13724,-0.33552 0.38131,-0.50331 0.74731,-0.50331c0.35082,0 0.61012,0.16779 0.74737,0.50331l2.95887,7.39722h5.44498l-6.0398,-15.03845h-6.23807l-11.2254,28.00259h5.42967l2.25729,-5.59746c0.16779,-0.41179 0.45758,-0.56434 0.88461,-0.48806h18.88196c0.32029,-0.01524 0.56432,0.1373 0.70159,0.42709zM179.81292,231.69729c-0.00152,-0.00041 -0.00416,-0.00229 -0.0075,-0.00563zM194.21011,231.85711c0.01276,-0.00551 0.01956,-0.00791 0.01977,-0.00768c0.00021,0.00023 -0.00617,0.00299 -0.01977,0.00768zM224.73773,229.2361l11.63725,-14.27584c0.21352,-0.2593 0.244,-0.54909 0.10676,-0.85413c-0.13724,-0.30503 -0.38131,-0.45758 -0.73207,-0.45758h-8.58687c-0.2593,0 -0.45758,0.09152 -0.62537,0.28979l-7.10738,8.7699l-7.12268,-8.7699c-0.16779,-0.19827 -0.36606,-0.28979 -0.62537,-0.28979h-8.58687c-0.33552,0 -0.57958,0.15255 -0.73207,0.45758c-0.13724,0.30503 -0.10676,0.59482 0.10676,0.85413l11.63725,14.27584l-11.63725,14.33687c-0.21352,0.25925 -0.244,0.54903 -0.10676,0.85407c0.15249,0.30503 0.39655,0.45758 0.73207,0.45758h8.51059c0.2593,0 0.45758,-0.09152 0.62537,-0.28979l7.19895,-8.83087l7.18365,8.83087c0.13724,0.16779 0.32028,0.2593 0.54909,0.28979c0.22876,0.01524 0.42703,-0.04573 0.59482,-0.18303c0.16773,-0.13724 0.27455,-0.32028 0.28979,-0.53379c0.01524,-0.22882 -0.04579,-0.42709 -0.18303,-0.59482l-23.07623,-28.30768h6.51255l23.82359,29.31429c0.16779,0.19827 0.36606,0.30503 0.62537,0.30503c0.19827,0 0.366,-0.06103 0.51855,-0.18303c0.16779,-0.13724 0.27455,-0.32028 0.28979,-0.53379c0.01524,-0.22882 -0.04579,-0.42709 -0.18303,-0.59482zM265.75054,213.87738c0.15243,-0.15255 0.33534,-0.22882 0.56398,-0.22882h12.27809c0.22864,0 0.41156,0.07627 0.56398,0.22882c0.16767,0.16773 0.24447,0.35076 0.24447,0.57958v6.64986c0,0.21352 -0.0768,0.39655 -0.24447,0.56428c-0.15243,0.15255 -0.33534,0.22882 -0.56398,0.22882h-11.46964v22.17637c0,0.22876 -0.07621,0.41179 -0.24389,0.57958c-0.15243,0.15249 -0.33593,0.22876 -0.56457,0.22876h-6.64997c-0.22864,0 -0.41156,-0.07627 -0.56398,-0.22876c-0.16767,-0.16779 -0.24447,-0.35082 -0.24447,-0.57958v-22.17637h-11.46917c-0.22882,0 -0.41185,-0.07627 -0.57958,-0.22882c-0.15255,-0.16773 -0.22882,-0.35076 -0.22882,-0.56428v-6.64986c0,-0.22882 0.07627,-0.41185 0.22882,-0.57958c0.16773,-0.15255 0.35076,-0.22882 0.57958,-0.22882h12.27762c0.22923,0 0.41214,0.07627 0.56457,0.22882c0.16767,0.16773 0.24389,0.35076 0.24389,0.57958v28.81093h5.03306v-28.81093c0,-0.22882 0.07621,-0.41185 0.24447,-0.57958zM301.65325,233.20158c2.31867,-0.41179 4.24044,-1.5404 5.78055,-3.35541c1.5407,-1.83025 2.31867,-3.95024 2.31867,-6.34482c0,-2.71486 -0.96088,-5.03312 -2.88265,-6.97013c-1.93701,-1.92177 -4.25568,-2.88265 -6.97066,-2.88265h-14.77909c-0.22864,0 -0.41156,0.07627 -0.57923,0.22882c-0.15243,0.16773 -0.22864,0.35076 -0.22864,0.57958v11.49995c0,0.22882 0.07621,0.41185 0.22864,0.56434c0.16767,0.16779 0.35058,0.24406 0.57923,0.24406h14.76385c0.04631,0 0.10729,0 0.16826,-0.0153c0.85418,-0.04573 1.5706,-0.38125 2.16565,-1.00661c0.59447,-0.62531 0.89991,-1.35743 0.89991,-2.2268c0,-0.88461 -0.32069,-1.64716 -0.94564,-2.28777c-0.62554,-0.62531 -1.38827,-0.94564 -2.28818,-0.94564l-8.14436,-0.01524c-0.22864,0 -0.41156,0.07627 -0.56398,0.24406c-0.16826,0.15249 -0.24447,0.33552 -0.24447,0.56428v4.0723h-5.00258v-9.88327h13.97063c2.27294,0 4.22519,0.80834 5.82628,2.40983c1.61691,1.60143 2.42537,3.55369 2.42537,5.82622c0,2.27253 -0.80846,4.20954 -2.42537,5.82628c-1.60108,1.60143 -3.55334,2.40983 -5.82628,2.40983c-0.06097,0 -0.13719,0.01524 -0.2134,0.03049h-14.56569c-0.22864,0 -0.41156,0.07627 -0.57923,0.244c-0.15243,0.15255 -0.22864,0.33558 -0.22864,0.56434v11.50001c0,0.22876 0.07621,0.41179 0.22864,0.57958c0.16767,0.15249 0.35058,0.22876 0.57923,0.22876h6.61949c0.22864,0 0.41214,-0.07627 0.56457,-0.22876c0.16767,-0.16779 0.24389,-0.35082 0.24389,-0.57958v-9.30369l7.3359,9.66969c0.16826,0.21358 0.38166,0.32033 0.64078,0.32033h8.35834c0.33534,0 0.57923,-0.15255 0.71641,-0.44233c0.15301,-0.30503 0.12253,-0.59482 -0.07621,-0.85413zM322.38114,244.65586c-0.16826,0.15249 -0.35117,0.22876 -0.56457,0.22876h-6.64997c-0.22864,0 -0.41156,-0.07627 -0.57923,-0.22876c-0.15301,-0.16779 -0.22923,-0.35082 -0.22923,-0.57958v-29.61932c0,-0.22882 0.07621,-0.41185 0.22923,-0.57958c0.16767,-0.15255 0.35058,-0.22882 0.57923,-0.22882c0.22864,0 0.41214,0.07627 0.56457,0.22882c0.16767,0.16773 0.24389,0.35076 0.24389,0.57958v28.81093h5.03306v-28.81093c0,-0.22882 0.07621,-0.41185 0.22864,-0.57958c0.16826,-0.15255 0.35117,-0.22882 0.57981,-0.22882c0.2134,0 0.39631,0.07627 0.56457,0.22882c0.15243,0.16773 0.22864,0.35076 0.22864,0.57958v29.61932c0,0.22876 -0.07621,0.41179 -0.22864,0.57958zM351.20707,244.88462c0.22864,0 0.41156,-0.07627 0.57981,-0.22876c0.15243,-0.16779 0.22864,-0.35082 0.22864,-0.57958v-7.24468c0,-0.22882 -0.07621,-0.41185 -0.22864,-0.57958c-0.16826,-0.15255 -0.35117,-0.22882 -0.57981,-0.22882h-9.13573c-1.8608,0 -3.44722,-0.65579 -4.77393,-1.98274c-1.3273,-1.32695 -1.98274,-2.91314 -1.98274,-4.77388c0,-1.86074 0.65544,-3.44693 1.98274,-4.77388c1.32671,-1.32689 2.91314,-1.98274 4.77393,-1.98274h9.13573c0.22864,0 0.41156,-0.07627 0.57981,-0.22876c0.15243,-0.16779 0.22864,-0.35082 0.22864,-0.57958c0,-0.22882 -0.07621,-0.41179 -0.22864,-0.56434c-0.16826,-0.16779 -0.35117,-0.244 -0.57981,-0.244h-9.13573c-2.30342,0 -4.28616,0.82358 -5.91773,2.45556c-1.63215,1.63192 -2.45585,3.61472 -2.45585,5.91773c0,2.30307 0.8237,4.28581 2.45585,5.91779c1.63157,1.63192 3.61431,2.45556 5.91773,2.45556h8.34251v5.62794h-7.68707c-3.85878,0 -7.16823,-1.37267 -9.89845,-4.10278c-2.73022,-2.73005 -4.10266,-6.03973 -4.10266,-9.89851c0,-3.85872 1.37244,-7.16841 4.10266,-9.89851c2.73022,-2.73011 6.03967,-4.10278 9.89845,-4.10278h8.48029c0.22864,0 0.41156,-0.07627 0.57981,-0.24406c0.15243,-0.15249 0.22864,-0.33552 0.22864,-0.56428c0,-0.22882 -0.07621,-0.41185 -0.22864,-0.57958c-0.16826,-0.15255 -0.35117,-0.22882 -0.57981,-0.22882h-8.48029c-4.30082,0 -7.97669,1.52522 -11.04225,4.5756c-3.05032,3.06568 -4.57578,6.74137 -4.57578,11.04243c0,4.30106 1.52545,7.9768 4.57578,11.04243c3.06557,3.05038 6.74143,4.5756 11.04225,4.5756zM375.8084,213.77062h9.39544c0.38107,0 0.62496,0.18297 0.76273,0.53379c0.12194,0.35082 0.04573,0.65585 -0.24447,0.88461l-15.70949,12.94895l15.26744,15.37397c0.25913,0.2593 0.30486,0.54909 0.16767,0.86937c-0.13719,0.33552 -0.38107,0.50331 -0.74748,0.50331h-9.27291c-0.22864,0 -0.41214,-0.07627 -0.56457,-0.22876l-9.94418,-9.80706v9.22748c0,0.22876 -0.07621,0.41179 -0.22864,0.57958c-0.16767,0.15249 -0.35117,0.22876 -0.56457,0.22876h-6.64997c-0.22864,0 -0.41156,-0.07627 -0.57923,-0.22876c-0.15243,-0.16779 -0.22864,-0.35082 -0.22864,-0.57958v-6.6804c0,-0.03049 0,-0.06097 0.01524,-0.09152c0,-0.03049 0,-0.06097 0.01524,-0.07621c0,-0.01524 0,-0.04579 0.01524,-0.07627l0.03049,-0.06103l0.04573,-0.07627l0.03049,-0.06097l0.06097,-0.06103l0.06097,-0.06097c0.02521,-0.02556 0.0299,-0.04039 0.02111,-0.03564l25.99898,-21.4239h-6.86396l-18.09323,14.74262c-0.00293,0.00006 -0.02286,0.01137 -0.05628,0.03652l-0.06097,0.04579l-0.07621,0.04573c-0.01524,0.01524 -0.04573,0.01524 -0.07621,0.03049c-0.01524,0.0153 -0.04573,0.0153 -0.07621,0.0153c-0.01524,0.01524 -0.03049,0.01524 -0.06097,0.01524c-0.03107,0.01524 -0.06156,0.01524 -0.09204,0.01524h-0.07621c-0.01524,-0.01524 -0.04573,-0.01524 -0.07621,-0.01524c-0.03049,0 -0.06097,0 -0.07621,-0.01524c-0.01524,-0.0153 -0.04573,-0.0153 -0.07621,-0.0153c-0.03049,-0.01524 -0.06097,-0.01524 -0.07621,-0.03049l-0.06097,-0.04573l-0.07621,-0.04579l-0.04573,-0.04573c-0.03049,-0.01524 -0.04573,-0.04579 -0.06097,-0.06103l-0.03049,-0.03049c0.01524,0.01524 0,0.01524 -0.01524,-0.01524l-0.04573,-0.07627l-0.04573,-0.07627l-0.03049,-0.06103c-0.01524,-0.03049 -0.01524,-0.06097 -0.01524,-0.07621c-0.01524,-0.01524 -0.01524,-0.04579 -0.01524,-0.07627c-0.01524,-0.03049 -0.01524,-0.06103 -0.01524,-0.09152v-15.08418c0,-0.22882 0.07621,-0.41185 0.22864,-0.57958c0.16767,-0.15255 0.35058,-0.22882 0.57923,-0.22882h6.64997c0.2134,0 0.3969,0.07627 0.56457,0.22882c0.15243,0.16773 0.22864,0.35076 0.22864,0.57958v7.94626l10.37157,-8.44962c0.15243,-0.122 0.3201,-0.18297 0.51826,-0.18297zM358.00479,230.11468c0.00293,0 -0.00528,0.00756 -0.0258,0.02128zM397.00882,223.4861c-0.45787,-0.2593 -0.64078,-0.59482 -0.53409,-0.97613c0.1067,-0.39655 0.42739,-0.59482 0.99137,-0.59482h11.74401c0.22923,0 0.41214,-0.07627 0.56457,-0.24406c0.16767,-0.15249 0.24389,-0.33552 0.24389,-0.56428l-0.01524,-6.64986c0,-0.22882 -0.07621,-0.41185 -0.24389,-0.57958c-0.15243,-0.15255 -0.33534,-0.22882 -0.56457,-0.22882c0,0 -0.03049,0 -0.07621,0.0153v-0.0153h-10.98128c-2.56236,0 -4.6518,0.61008 -6.26832,1.83025c-1.93701,1.46419 -3.05091,3.37072 -3.31004,5.70422c-0.18291,1.57101 0.03049,3.08093 0.65603,4.54512c0.62554,1.44895 1.54011,2.60811 2.76071,3.47747c1.31147,0.93034 4.49898,2.50129 9.56253,4.6823l0.83894,0.38131c1.12914,0.47282 1.60167,1.00667 1.434,1.57095c-0.1067,0.33558 -0.24389,0.56434 -0.42739,0.67109c-0.30486,0.19827 -0.8536,0.28979 -1.63157,0.28979h-0.06097c-0.62554,-0.01524 -4.72821,-0.01524 -12.30858,-0.01524c-0.22864,0 -0.41156,0.07627 -0.56457,0.22876c-0.16767,0.16779 -0.24389,0.35082 -0.24389,0.57958c0,0.21358 0.07621,0.39655 0.24389,0.56434c0.15301,0.15255 0.33593,0.22882 0.56457,0.22882c7.56513,0 11.65255,0.01524 12.27809,0.03049h0.09146c1.05234,0 1.84555,-0.16779 2.40954,-0.50331c0.56457,-0.32033 0.96088,-0.85413 1.18953,-1.60149c0.21399,-0.68634 0.10729,-1.35743 -0.30486,-1.98274c-0.41156,-0.62531 -1.08283,-1.12867 -2.02847,-1.54046l-0.83894,-0.38131c-4.95685,-2.13528 -8.03766,-3.6452 -9.27291,-4.51457c-0.99137,-0.70158 -1.72361,-1.64722 -2.22721,-2.82162c-0.50301,-1.18964 -0.67068,-2.42507 -0.51826,-3.70623c0.2134,-1.87598 1.11331,-3.41644 2.6845,-4.60609c1.32671,-0.99137 3.08081,-1.49468 5.29219,-1.49468h10.24963l0.01524,5.03312h-10.93614c-0.62496,0 -1.17428,0.16779 -1.64681,0.48806c-0.45787,0.32033 -0.76273,0.76261 -0.89991,1.3117c-0.15243,0.53379 -0.1067,1.06764 0.13719,1.57095c0.22864,0.50331 0.62496,0.9151 1.15904,1.22013c0.41156,0.22882 3.56917,1.60149 9.4869,4.11808c1.0371,0.44228 1.9675,1.09813 2.7912,1.9675c1.50963,1.60143 2.11992,3.5232 1.79924,5.75c-0.28961,2.10474 -1.37244,3.75196 -3.21799,4.95685c-1.61633,1.0524 -3.47712,1.58619 -5.58239,1.58619h-12.10984c-0.22864,0 -0.41156,0.07627 -0.56457,0.24406c-0.16767,0.15255 -0.24389,0.33552 -0.24389,0.56434c0,0.22876 0.07621,0.41179 0.24389,0.57958c0.15301,0.15249 0.33593,0.22876 0.56457,0.22876h12.10984c2.48634,0 4.68248,-0.64061 6.589,-1.92177c2.1809,-1.46419 3.46247,-3.46217 3.81305,-6.00925c0.3201,-2.3488 -0.2134,-4.4536 -1.60167,-6.2991c-1.05234,-1.4184 -2.37905,-2.45556 -3.95024,-3.12665c-5.81103,-2.48605 -8.92233,-3.82823 -9.33388,-4.04175zM227.54411,215.26529h6.51255l-10.35609,12.70489l-3.23341,-3.99602zM258.85609,215.26529h-10.66083v5.03312h10.66083zM267.12298,220.29842h10.66118v-5.03312h-10.66118zM363.31691,223.71486v-8.44957h-5.03306v12.55235zM292.54801,221.88467l7.3359,0.01524c0.44263,0 0.8237,0.15249 1.14438,0.47282c0.3201,0.32028 0.47253,0.70158 0.47253,1.14386c0,0.44233 -0.15243,0.82364 -0.47253,1.14392c-0.32069,0.32028 -0.70176,0.47282 -1.14438,0.47282l-0.07621,0.01524h-7.25969zM151.68077,221.89991h-5.41443v14.73342h5.41443c2.02853,0 3.75202,-0.71688 5.20097,-2.16583c1.43365,-1.43365 2.15047,-3.17238 2.15047,-5.20091c0,-2.02853 -0.71682,-3.7672 -2.15047,-5.20091c-1.44895,-1.44895 -3.17244,-2.16577 -5.20097,-2.16577zM185.54017,230.30375l-1.9828,-4.94166l-1.98274,4.94166zM375.76267,243.26788h7.0158l-14.01636,-14.09281l-3.98072,3.26396zM211.2245,243.26788h-6.43634l10.35609,-12.75062l3.24866,3.96554zM285.92852,233.38461h5.00258v9.88327h-5.00258zM300.93683,243.14588l-7.4127,-9.76127h6.26832c0.01524,0.06103 0.04573,0.10676 0.09146,0.15255l7.36697,9.60872zM358.28385,237.80773v5.46015h5.03306v-9.60872zM190.66482,238.78385l1.79973,4.48403h5.44495l-1.79973,-4.48403z">
                </path>
            </g>
            <g data-paper-data="{&quot;isContainerElementsWrapper&quot;:true}">
                <path
                    d="M275,106c-60.65488,0 -111.53231,41.86142 -125.31733,98.26936h38.42311c12.65389,-35.77959 46.78063,-61.41233 86.89423,-61.41233c40.11383,0 74.24016,25.63274 86.89405,61.41233h38.42305c-13.78479,-56.40794 -64.66239,-98.26936 -125.3171,-98.26936zM275,364c-62.03154,0 -113.83679,-43.78325 -126.19831,-102.13218c0.01536,-0.00352 0.03072,-0.00645 0.04608,-0.00997c0.06595,-0.01466 0.13097,-0.03283 0.19511,-0.05452c0.06408,-0.02169 0.12704,-0.04573 0.18878,-0.07328c0.06173,-0.02755 0.12194,-0.05804 0.18069,-0.09146c0.05868,-0.03342 0.11567,-0.06977 0.17084,-0.10904c0.05515,-0.03908 0.10826,-0.08071 0.15935,-0.12487c0.05106,-0.04456 0.09984,-0.09146 0.14633,-0.14012c0.04647,-0.04925 0.09042,-0.10045 0.13185,-0.1536c0.04145,-0.05335 0.0802,-0.10904 0.1162,-0.16591c0.03606,-0.05745 0.06918,-0.11608 0.09937,-0.17646c0.05059,-0.10142 0.09263,-0.20578 0.12599,-0.31424c0.03336,-0.10846 0.05769,-0.21809 0.07299,-0.33007c0.0153,-0.11198 0.02134,-0.22512 0.01812,-0.33827c-0.00322,-0.11315 -0.01571,-0.22512 -0.03734,-0.33593c-0.33587,-1.72127 -0.63598,-3.45015 -0.90021,-5.18608h35.35789c8.85732,41.64163 45.84384,72.87886 90.12629,72.87886c44.28274,0 81.26886,-31.23723 90.12611,-72.87886h35.35807c-0.26382,1.73182 -0.56398,3.46071 -0.9005,5.18608c-0.0258,0.13308 -0.03869,0.26734 -0.03811,0.40276c0.00059,0.13543 0.01466,0.26968 0.04162,0.40276c0.02697,0.13308 0.06683,0.26206 0.11901,0.38693c0.05218,0.12487 0.11608,0.2433 0.19171,0.35586c0.07563,0.11256 0.16181,0.21633 0.25796,0.31189c0.09615,0.09556 0.2005,0.18057 0.31365,0.25561c0.11315,0.07446 0.23216,0.13777 0.35762,0.18936c0.12018,0.04925 0.24389,0.08677 0.3711,0.11256c-12.36193,58.34894 -64.167,102.13218 -126.19825,102.13218zM351.78396,306.46304l6.72795,0.45553l-0.02521,-0.02169c0.03752,0.03283 0.09732,0.03987 0.12077,0.03811c0.08149,-0.01817 0.13894,-0.03459 0.16064,-0.0598c0.02345,-0.00176 0.06859,-0.02873 0.09028,-0.05452l0.11901,-0.13894l0.01759,-0.07211c0.04338,-0.05042 0.03987,-0.09732 0.03635,-0.14422c-0.00176,-0.02345 -0.00586,-0.07035 -0.01993,-0.10494l-1.4938,-6.59956c-0.06508,-0.23099 -0.31658,-0.42387 -0.58333,-0.36759c-0.25444,0.06683 -0.40921,0.35058 -0.35527,0.59447l1.34723,5.92594l-6.06371,-0.41273c-0.27261,-0.01407 -0.51591,0.19347 -0.53174,0.44263c-0.0129,0.29606 0.19523,0.53936 0.46608,0.53057zM193.09351,299.84238l2.29311,2.72436c1.13584,1.34958 0.95166,3.35342 -0.41072,4.50015c-1.34964,1.13559 -3.34272,0.9644 -4.47857,-0.38517l-1.12513,-1.33668c-0.18216,-0.21692 -0.15594,-0.52177 0.06051,-0.70351c0.19099,-0.16122 0.50855,-0.14539 0.69071,0.07094l1.12513,1.33726c0.78223,0.92923 2.17638,1.06113 3.10585,0.27847c0.9422,-0.79263 1.06323,-2.19966 0.281,-3.12888l-1.98237,-2.3556l-8.47986,7.13657c-0.20373,0.17119 -0.51925,0.1325 -0.68001,-0.05863c-0.18215,-0.21633 -0.15595,-0.52119 0.04778,-0.69296l8.84911,-7.44729c0.20372,-0.17119 0.52128,-0.15595 0.70344,0.06097zM366.14211,307.139l-6.72795,-0.45553l-0.13015,-0.00176l-0.05745,0.01583c-0.07973,0.04162 -0.11373,0.05628 -0.13543,0.08149c-0.03459,0.01466 -0.05569,0.03987 -0.05569,0.03987l-0.04338,0.05042c-0.04338,0.051 -0.05218,0.08677 -0.06156,0.12312c-0.00352,0.01583 -0.00997,0.02931 -0.01583,0.04162c-0.00762,0.01642 -0.01407,0.0299 -0.0129,0.04338c-0.00293,0.08735 -0.00059,0.13484 0.01524,0.17412l1.49145,6.58959c0.06683,0.25444 0.30368,0.41273 0.58333,0.36759c0.1026,-0.04338 0.19464,-0.07446 0.25971,-0.15008c0.08677,-0.10142 0.14422,-0.27085 0.10787,-0.43325l-1.35954,-5.93708l6.07602,0.42328c0.16591,0.01114 0.32479,-0.07211 0.41156,-0.17353c0.06508,-0.07563 0.0809,-0.17177 0.10787,-0.27965c0.01407,-0.27261 -0.17881,-0.48191 -0.45318,-0.51943zM194.798,318.8449l4.64093,4.22168c0.19696,0.1794 0.21142,0.48484 0.03225,0.68182c-0.17917,0.19698 -0.48478,0.21164 -0.68174,0.03224l-4.99793,-4.54646c-0.20927,-0.19054 -0.22373,-0.49598 -0.04456,-0.69296l7.51396,-8.25985c0.17916,-0.19698 0.48478,-0.21164 0.69402,-0.02111c0.18467,0.16767 0.21141,0.48484 0.03224,0.68182zM346.11187,327.89503c-0.0639,0.05394 -0.12546,0.08442 -0.18526,0.09087c-0.25502,0.08501 -0.49246,-0.04162 -0.59623,-0.34589l-2.94011,-12.15205c-0.03283,-0.16826 0.05511,-0.37345 0.16943,-0.47018c0.14012,-0.11784 0.34238,-0.13601 0.49187,-0.08794c3.78374,1.61867 7.71287,3.3329 11.48605,4.93926c0.29489,0.14305 0.3541,0.41976 0.25327,0.63551c-0.09028,0.22864 -0.39455,0.333 -0.64606,0.24037l-10.57617,-4.53181l2.70795,11.12902c0.02521,0.26206 -0.02521,0.43501 -0.16474,0.55285zM205.90534,329.35541c0.02339,0.05511 0.06982,0.10553 0.1393,0.15126c0.1529,0.10084 0.33288,0.09966 0.57694,0.00176l9.9059,-5.75006l-1.34981,11.42625c-0.017,0.26792 0.16908,0.52998 0.41378,0.55167c0.23562,0.03576 0.48414,-0.09966 0.53772,-0.4227c0.47159,-4.07394 1.00216,-8.32786 1.48283,-12.41528c0.00375,-0.15653 -0.07111,-0.34531 -0.22395,-0.44615c-0.12511,-0.08266 -0.34677,-0.10904 -0.49867,-0.0299l-10.82152,6.26304c-0.26206,0.18585 -0.31605,0.44908 -0.16251,0.6701zM331.91318,337.21836c0.21281,-0.13015 0.29899,-0.43618 0.16064,-0.66306l-5.57301,-9.13455l2.75543,-1.6814c0.11373,-0.06977 0.2644,-0.14188 0.39221,-0.21985c0.1366,-0.0639 0.30486,-0.10787 0.44146,-0.17177l0.47839,-0.17471l-0.01466,0.00879c0.16826,-0.04456 0.33945,-0.051 0.5077,-0.09556l-0.02286,-0.00528c0.17646,-0.0299 0.37052,-0.03107 0.5247,-0.06683l-0.01466,0.00879l0.55109,-0.02404l-0.02286,-0.00586c0.16533,0.01642 0.3629,0.05159 0.54229,0.05921l-0.01407,0.00879l0.50008,0.08442l0.53467,0.14188l-0.00879,-0.01466l0.49012,0.22806l-0.02286,-0.00586l0.47546,0.23626l-0.00879,-0.01407l0.42739,0.28492l-0.02286,-0.00528l0.40218,0.33945l0.32772,0.34531l-0.00879,-0.01407l0.31717,0.39162l-0.00879,-0.01407l0.27144,0.38048c0.07504,0.12312 0.15301,0.28082 0.22806,0.40628l0.19464,0.44673l-0.00879,-0.01407l0.14363,0.45846l0.13191,0.50419l0.00586,-0.02286c0.02111,0.16239 0.02228,0.35645 0.05218,0.53291l-0.00879,-0.01407l0.00117,0.54522l0.00586,-0.02286l-0.03049,0.52529l-0.00879,-0.01407c-0.02462,0.15126 -0.08853,0.36583 -0.11315,0.51708l-0.15008,0.5206l0.01407,-0.00879c-0.07563,0.16357 -0.13425,0.35527 -0.19581,0.51005l0.00528,-0.02345l-0.28199,0.46491l0.01407,-0.00879l-0.26206,0.43266l0.00586,-0.02286l-0.33945,0.40218l-0.3371,0.34238l0.01407,-0.00879l-0.37755,0.30837l0.01407,-0.00879l-0.40862,0.28844l-0.70996,0.43325c-0.22747,0.13894 -0.29958,0.43618 -0.16943,0.64899c0.13836,0.22747 0.43618,0.29958 0.66306,0.16064l0.74748,-0.43618l0.43735,-0.30603l0.47663,-0.36876l0.37638,-0.40511l0.3201,-0.37052l0.42094,-0.58861l0.2644,-0.49246l0.21281,-0.57805l0.2093,-0.61558l0.11784,-0.63727l0.04749,-0.59388l0.00938,-0.59095l-0.11667,-0.76683l-0.10084,-0.48425l-0.1495,-0.53291l-0.25502,-0.54581l-0.27203,-0.4778l-0.30017,-0.45963l-0.36583,-0.4397l-0.35938,-0.36583l-0.56809,-0.45259l-0.41918,-0.27085l-0.54698,-0.28961l-0.56692,-0.25854l-0.61206,-0.17236l-0.63727,-0.11784c-0.17998,-0.00704 -0.37755,-0.0428 -0.54288,-0.05863c-0.03166,-0.01993 -0.10553,-0.01348 -0.10553,-0.01348l-0.58802,0.02697l-0.68182,0.06508l-0.48953,0.12312l-0.56692,0.18995l-0.51767,0.23802l-0.45787,0.24037l-3.1963,1.94991c-0.25561,0.15595 -0.32186,0.43032 -0.17471,0.67186l5.82452,9.5467c0.13894,0.22747 0.43618,0.29958 0.67772,0.15184zM234.20956,330.99108c0.2202,-0.11725 0.53485,-0.04397 0.66752,0.1835c0.12558,0.24213 0.00686,0.53584 -0.19827,0.66013l-5.95971,3.20451c-0.02914,0.02286 -0.0734,0.03869 -0.0955,0.0469c-0.04426,0.01642 -0.08853,0.03224 -0.14879,0.0041l-0.0744,0.00176l-0.16585,-0.07739c-0.03019,-0.01407 -0.06836,-0.05042 -0.07639,-0.07211c-0.03019,-0.01407 -0.06132,-0.06566 -0.10049,-0.13894c-0.00809,-0.02228 -0.01712,-0.08149 0.00405,-0.12663l-0.01407,0.0299l-1.36019,-6.60425l-0.00704,0.01466c-0.08137,-0.25796 0.09767,-0.52353 0.38623,-0.59095c0.2443,-0.051 0.5097,0.12781 0.56891,0.39455l1.22365,5.95291zM309.57131,334.51218c-0.07973,-0.25385 0.06156,-0.52529 0.33182,-0.60971c0.23802,-0.07504 0.52529,0.06156 0.60502,0.31541l3.34814,10.65239c0.07973,0.25444 -0.07739,0.53057 -0.316,0.60561c-0.26968,0.08442 -0.54112,-0.05687 -0.62085,-0.31072zM227.61212,335.40329c0.10559,-0.22571 0.38512,-0.35234 0.64149,-0.23275c0.24125,0.11256 0.33863,0.41507 0.23304,0.64137l-2.2958,4.91522c-0.11262,0.24154 -0.40018,0.34589 -0.64149,0.23333c-0.25631,-0.1196 -0.34566,-0.40042 -0.23304,-0.64137zM305.15558,341.55201l5.11162,-1.60636c0.23802,-0.07504 0.52529,0.06156 0.60502,0.31541c0.08501,0.26968 -0.07739,0.53057 -0.31541,0.60502l-5.11221,1.60695l1.44221,4.58809c0.07973,0.25385 -0.06156,0.52529 -0.31541,0.60502c-0.27027,0.08501 -0.52529,-0.06156 -0.60561,-0.31541l-3.34814,-10.65297c-0.07973,-0.25385 0.04573,-0.52001 0.316,-0.60502c0.25385,-0.07973 0.52529,0.06156 0.60502,0.31541zM249.95845,337.50035l3.9877,12.01486c0.03811,0.0897 0.14422,0.17119 0.27378,0.20636c0.03049,0.02111 0.0469,0.02345 0.07973,0.02814c0.14891,0.02052 0.27085,-0.0129 0.38342,-0.09791l4.85894,-3.75853l3.64597,4.94395c0.08501,0.11256 0.19347,0.17822 0.34179,0.19874c0.03342,0.00469 0.08266,0.01173 0.11784,-0.00059c0.1366,-0.01407 0.26792,-0.11373 0.33358,-0.22219l7.09084,-10.36981c0.11432,-0.21926 0.07152,-0.51122 -0.14129,-0.67537c-0.21457,-0.14715 -0.50829,-0.08735 -0.67479,0.14129l-6.69277,9.80407c-1.11859,-1.50025 -2.13282,-2.902 -3.23675,-4.3829l1.4082,-1.06407l-0.00235,0.01642c0.22337,-0.1536 0.26675,-0.46666 0.09673,-0.69238l-1.36189,-1.80276c-0.17471,-0.19229 -0.47135,-0.23333 -0.67596,-0.0938l-1.81917,1.35954c-0.22512,0.17002 -0.26909,0.48308 -0.09615,0.69179l0.00176,-0.01642l1.06407,1.40879c-1.50435,1.15083 -2.80702,2.17914 -4.31196,3.33056l-3.75677,-11.26034c-0.0809,-0.26323 -0.36378,-0.40335 -0.61065,-0.32069c-0.23263,0.10201 -0.37058,0.36876 -0.30386,0.61323zM295.73141,337.8099l-3.12243,0.49539c-0.27965,0.04456 -0.44263,0.28961 -0.401,0.55226c0.04397,0.27965 0.27261,0.44556 0.55226,0.401l3.12243,-0.49539c0.26323,-0.04221 0.44556,-0.2732 0.401,-0.55226c-0.04162,-0.26323 -0.28903,-0.44321 -0.55226,-0.401zM291.45814,338.48821l-4.28968,0.68065c-0.26265,0.04162 -0.44263,0.28961 -0.401,0.55226c0.04456,0.27965 0.28961,0.44263 0.55226,0.401l3.81305,-0.60502l1.67495,10.55155c0.04162,0.26265 0.2732,0.44556 0.55226,0.401c0.24682,-0.03928 0.44263,-0.28961 0.401,-0.55226l-1.75058,-11.02818c-0.04162,-0.26323 -0.30544,-0.44028 -0.55226,-0.401zM278.55392,350.99729l0.316,-0.01173l-0.38224,-10.19393l-0.316,0.01173c-0.28316,0.01055 -0.49012,-0.18116 -0.50067,-0.46432c-0.00997,-0.26558 0.18174,-0.48953 0.46432,-0.50008l1.62981,-0.06097c0.26616,-0.00997 0.49012,0.19816 0.50008,0.46373c0.01055,0.28316 -0.19816,0.4907 -0.46432,0.50067l-0.33241,0.01231l0.38224,10.19393l0.33241,-0.01231c0.26616,-0.00997 0.4907,0.19816 0.50067,0.46432c0.00997,0.26616 -0.19816,0.49012 -0.46432,0.50008l-1.62981,0.06156c-0.28258,0.01055 -0.49012,-0.19816 -0.50008,-0.46432c-0.00997,-0.26616 0.18116,-0.49012 0.46432,-0.50067zM258.94579,343.54179l1.03299,-0.78032l0.79673,1.03534l-1.04941,0.77797z"
                    data-paper-data="{&quot;isBaseLogoContainer&quot;:true}"></path>
            </g>
        </g>
    </g>
</svg>