<svg xmlns:mydata="http://www.w3.org/2000/svg" mydata:contrastcolor="00C1D5" mydata:template="Contrast"
    mydata:presentation="2.5" mydata:layouttype="undefined" mydata:specialfontid="undefined" mydata:id1="345"
    mydata:id2="724" mydata:companyname="Dax Tricks"
    mydata:companytagline="&lrm;&lrm;&lrm;&rlm;&rlm;&lrm; &lrm;&rlm;&rlm;&lrm; &lrm;play with DAX" version="1.1"
    xmlns="http://www.w3.org/2000/svg" xmlns:xlink="http://www.w3.org/1999/xlink" viewBox="0 0 550 470">
    <g fill="#00594c" fill-rule="none" stroke="none" stroke-width="1" stroke-linecap="butt" stroke-linejoin="miter"
        stroke-miterlimit="10" stroke-dasharray="" stroke-dashoffset="0" font-family="none" font-weight="none"
        font-size="none" text-anchor="none" style="mix-blend-mode: normal">
        <g
            data-paper-data="{&quot;isGlobalGroup&quot;:true,&quot;bounds&quot;:{&quot;x&quot;:65,&quot;y&quot;:115.0946436101351,&quot;width&quot;:420,&quot;height&quot;:239.81071277972978}}">
            <g data-paper-data="{&quot;textHeightFactor&quot;:0.4919334137668266,&quot;isSecondaryText&quot;:true}"
                fill-rule="nonzero">
                <path
                    d="M127.54906,340.41308h-4.11319c-0.32675,0 -0.57662,0.26909 -0.57662,0.57662v13.35826c0,0.30753 0.24987,0.5574 0.57662,0.5574c0.28831,0 0.5574,-0.24987 0.5574,-0.5574v-12.80087h3.5558c1.4031,0 2.55633,1.15323 2.55633,2.57555c0,1.4031 -1.15323,2.53711 -2.55633,2.53711h-2.01815c-0.32675,0 -0.57662,0.26909 -0.57662,0.5574c0,0.32675 0.24987,0.57662 0.57662,0.57662h2.01815c2.03738,0 3.67112,-1.63374 3.67112,-3.67112c0,-2.0566 -1.63374,-3.70956 -3.67112,-3.70956z"
                    data-paper-data="{&quot;glyphName&quot;:&quot;P&quot;,&quot;glyphIndex&quot;:0,&quot;firstGlyphOfWord&quot;:true,&quot;word&quot;:1}"
                    id="path-id-28362"></path>
                <path
                    d="M153.31796,353.79057h-7.24614v-12.33957c0,-0.30753 -0.26909,-0.5574 -0.5574,-0.5574c-0.32675,0 -0.57662,0.24987 -0.57662,0.5574v12.89697c0,0.30753 0.24987,0.5574 0.57662,0.5574h7.80353c0.30753,0 0.5574,-0.24987 0.5574,-0.5574c0,-0.30753 -0.24987,-0.5574 -0.5574,-0.5574z"
                    data-paper-data="{&quot;glyphName&quot;:&quot;L&quot;,&quot;glyphIndex&quot;:1,&quot;word&quot;:1}"
                    id="path-id-66124"></path>
                <path
                    d="M169.43414,354.84769c0.05766,0.03844 0.13454,0.05766 0.23065,0.05766c0.21143,0 0.38441,-0.11532 0.5574,-0.36519l5.9007,-11.83984l5.95836,11.87828c0.15376,0.26909 0.49973,0.40363 0.7496,0.26909c0.24987,-0.11532 0.40363,-0.40363 0.24987,-0.7496c-2.13348,-4.22851 -4.32462,-8.66846 -6.4581,-12.91619c-0.0961,-0.15376 -0.28831,-0.28831 -0.49973,-0.28831c-0.17298,0 -0.40363,0.11532 -0.49973,0.28831l-6.4581,12.91619c-0.13454,0.34597 -0.01922,0.63428 0.26909,0.7496z"
                    data-paper-data="{&quot;glyphName&quot;:&quot;A&quot;,&quot;glyphIndex&quot;:2,&quot;word&quot;:1}"
                    id="path-id-22372"></path>
                <path
                    d="M205.9272,340.10555c-0.24987,-0.17298 -0.61506,-0.0961 -0.78804,0.13454l-4.19007,5.63161l-4.19007,-5.63161c-0.19221,-0.24987 -0.5574,-0.30753 -0.78804,-0.13454c-0.26909,0.21143 -0.32675,0.57662 -0.11532,0.80726v-0.01922l4.65137,6.24667v-0.03844c0,0.05766 0.03844,0.11532 0.05766,0.13454c0.07688,0.05766 0.13454,0.0961 0.17298,0.0961c0.01922,0.01922 0.07688,0.03844 0.11532,0.03844h0.21143l0.07688,-0.03844c0.07688,0 0.11532,-0.03844 0.15376,-0.07688c0.01922,-0.01922 0.05766,-0.05766 0.07688,-0.0961l4.67059,-6.26589c0.15376,-0.23065 0.13454,-0.59584 -0.11532,-0.78804zM200.94909,347.52468c-0.32675,0 -0.5574,0.26909 -0.5574,0.5574v6.26589c0,0.30753 0.23065,0.5574 0.5574,0.5574c0.30753,0 0.5574,-0.24987 0.5574,-0.5574v-6.26589c0,-0.28831 -0.24987,-0.5574 -0.5574,-0.5574z"
                    data-paper-data="{&quot;glyphName&quot;:&quot;Y&quot;,&quot;glyphIndex&quot;:3,&quot;lastGlyphOfWord&quot;:true,&quot;word&quot;:1}"
                    id="path-id-469"></path>
                <path
                    d="M239.50493,341.58553l6.47732,13.1084c0.05766,0.0961 0.19221,0.17298 0.34597,0.19221c0.03844,0.01922 0.05766,0.01922 0.0961,0.01922c0.17298,0 0.30753,-0.05766 0.42285,-0.17298l4.95889,-5.07422l4.95889,5.07422c0.11532,0.11532 0.24987,0.17298 0.42285,0.17298c0.03844,0 0.0961,0 0.13454,-0.01922c0.15376,-0.03844 0.28831,-0.17298 0.34597,-0.30753l6.4581,-12.99307c0.0961,-0.26909 0,-0.59584 -0.26909,-0.7496c-0.26909,-0.13454 -0.59584,-0.01922 -0.7496,0.26909l-6.09291,12.28191c-1.51842,-1.53764 -2.9023,-2.97918 -4.4015,-4.4976l1.44154,-1.44154v0.01922c0.23065,-0.21143 0.23065,-0.57662 0,-0.80726l-1.84517,-1.84517c-0.23065,-0.19221 -0.57662,-0.19221 -0.78804,0l-1.86439,1.84517c-0.23065,0.23065 -0.23065,0.59584 0,0.80726v-0.01922l1.44154,1.44154c-1.53764,1.55686 -2.86386,2.94074 -4.4015,4.4976l-6.09291,-12.28191c-0.13454,-0.28831 -0.48051,-0.40363 -0.7496,-0.26909c-0.24987,0.15376 -0.36519,0.48051 -0.24987,0.7496zM250.74893,347.06338l1.05713,-1.05713l1.07635,1.05713l-1.07635,1.05713z"
                    data-paper-data="{&quot;glyphName&quot;:&quot;W&quot;,&quot;glyphIndex&quot;:4,&quot;firstGlyphOfWord&quot;:true,&quot;word&quot;:2}"
                    id="path-id-43524"></path>
                <path
                    d="M281.85928,353.79057h-0.36519c-0.32675,0 -0.5574,0.24987 -0.5574,0.5574c0,0.30753 0.23065,0.5574 0.5574,0.5574h1.88361c0.30753,0 0.5574,-0.24987 0.5574,-0.5574c0,-0.30753 -0.24987,-0.5574 -0.5574,-0.5574h-0.38441v-11.78218h0.38441c0.30753,0 0.5574,-0.23065 0.5574,-0.5574c0,-0.30753 -0.24987,-0.5574 -0.5574,-0.5574h-1.88361c-0.32675,0 -0.5574,0.24987 -0.5574,0.5574c0,0.32675 0.23065,0.5574 0.5574,0.5574h0.36519z"
                    data-paper-data="{&quot;glyphName&quot;:&quot;I&quot;,&quot;glyphIndex&quot;:5,&quot;word&quot;:2}"
                    id="path-id-24824"></path>
                <path
                    d="M302.32983,340.8936h-5.01656c-0.30753,0 -0.5574,0.24987 -0.5574,0.5574c0,0.32675 0.24987,0.5574 0.5574,0.5574h4.45916v12.33957c0,0.30753 0.23065,0.5574 0.5574,0.5574c0.28831,0 0.5574,-0.24987 0.5574,-0.5574v-12.89697c0,-0.30753 -0.26909,-0.5574 -0.5574,-0.5574zM307.32717,340.8936h-3.6519c-0.32675,0 -0.5574,0.24987 -0.5574,0.5574c0,0.32675 0.23065,0.5574 0.5574,0.5574h3.6519c0.30753,0 0.5574,-0.23065 0.5574,-0.5574c0,-0.30753 -0.24987,-0.5574 -0.5574,-0.5574z"
                    data-paper-data="{&quot;glyphName&quot;:&quot;T&quot;,&quot;glyphIndex&quot;:6,&quot;word&quot;:2}"
                    id="path-id-8216"></path>
                <path
                    d="M329.85499,347.67844h-6.18901v-6.22745c0,-0.30753 -0.24987,-0.5574 -0.5574,-0.5574c-0.32675,0 -0.5574,0.24987 -0.5574,0.5574v12.89697c0,0.30753 0.23065,0.5574 0.5574,0.5574c0.30753,0 0.5574,-0.24987 0.5574,-0.5574v-5.55473h6.18901c0.28831,0 0.5574,-0.23065 0.5574,-0.5574c0,-0.30753 -0.26909,-0.5574 -0.5574,-0.5574zM331.5464,340.8936c-0.32675,0 -0.57662,0.24987 -0.57662,0.5574v12.89697c0,0.30753 0.24987,0.5574 0.57662,0.5574c0.28831,0 0.5574,-0.24987 0.5574,-0.5574v-12.89697c0,-0.30753 -0.26909,-0.5574 -0.5574,-0.5574z"
                    data-paper-data="{&quot;glyphName&quot;:&quot;H&quot;,&quot;glyphIndex&quot;:7,&quot;lastGlyphOfWord&quot;:true,&quot;word&quot;:2}"
                    id="path-id-27914"></path>
                <path
                    d="M362.3841,354.90536c0.28831,0 0.5574,-0.24987 0.5574,-0.5574v-12.3588h3.72878c0.15376,0 0.34597,0.01922 0.51895,0.01922c0.17298,0.01922 0.36519,0.07688 0.53817,0.0961l0.57662,0.11532h-0.01922c0.19221,0.05766 0.36519,0.15376 0.5574,0.21143l-0.01922,-0.01922c0.19221,0.07688 0.38441,0.19221 0.5574,0.24987h-0.01922l0.5574,0.30753l-0.01922,-0.01922c0.15376,0.11532 0.32675,0.26909 0.49973,0.38441h-0.01922l0.44207,0.38441l0.44207,0.46129v-0.01922l0.34597,0.51895l-0.01922,-0.01922l0.32675,0.51895v-0.01922l0.24987,0.53817l-0.01922,-0.01922l0.19221,0.57662l0.11532,0.53817v-0.01922l0.07688,0.57662v-0.01922l0.03844,0.53817c0,0.17298 -0.01922,0.38441 -0.01922,0.5574v-0.01922l-0.07688,0.5574v-0.01922l-0.13454,0.53817l-0.17298,0.57662l0.01922,-0.01922c-0.07688,0.17298 -0.19221,0.36519 -0.26909,0.5574v-0.01922l-0.32675,0.53817l0.01922,-0.01922l-0.34597,0.49973v-0.01922c-0.11532,0.13454 -0.30753,0.30753 -0.42285,0.44207l-0.46129,0.42285h0.01922c-0.17298,0.11532 -0.34597,0.26909 -0.49973,0.38441l0.01922,-0.01922l-0.5574,0.28831h0.01922l-0.51895,0.26909l0.01922,-0.01922l-0.57662,0.19221l-0.53817,0.13454h0.01922l-0.5574,0.07688h0.01922l-0.57662,0.03844h-0.96103c-0.30753,0 -0.5574,0.24987 -0.5574,0.53817c0,0.30753 0.24987,0.5574 0.5574,0.5574l0.99947,0.01922l0.61506,-0.03844l0.69194,-0.07688l0.61506,-0.17298l0.53817,-0.17298l0.76882,-0.32675l0.5574,-0.32675l0.5574,-0.44207l0.57662,-0.48051l0.49973,-0.5574l0.40363,-0.5574l0.36519,-0.57662l0.34597,-0.82648l0.19221,-0.53817l0.17298,-0.61506l0.07688,-0.69194l0.01922,-0.63428l-0.01922,-0.63428l-0.0961,-0.6535l-0.13454,-0.57662l-0.28831,-0.78804l-0.24987,-0.51895l-0.36519,-0.61506l-0.40363,-0.59584l-0.49973,-0.53817l-0.5574,-0.49973c-0.17298,-0.11532 -0.34597,-0.26909 -0.49973,-0.38441c-0.01922,-0.03844 -0.0961,-0.07688 -0.0961,-0.07688l-0.59584,-0.32675l-0.71116,-0.34597l-0.5574,-0.17298l-0.67272,-0.15376l-0.6535,-0.07688l-0.59584,-0.03844h-4.32462c-0.34597,0 -0.57662,0.23065 -0.57662,0.5574v12.91619c0,0.30753 0.24987,0.5574 0.57662,0.5574z"
                    data-paper-data="{&quot;glyphName&quot;:&quot;D&quot;,&quot;glyphIndex&quot;:8,&quot;firstGlyphOfWord&quot;:true,&quot;word&quot;:3}"
                    id="path-id-79147"></path>
                <path
                    d="M387.32458,354.84769c0.05766,0.03844 0.13454,0.05766 0.23065,0.05766c0.21143,0 0.38441,-0.11532 0.5574,-0.36519l5.9007,-11.83984l5.95836,11.87828c0.15376,0.26909 0.49973,0.40363 0.7496,0.26909c0.24987,-0.11532 0.40363,-0.40363 0.24987,-0.7496c-2.13348,-4.22851 -4.32462,-8.66846 -6.4581,-12.91619c-0.0961,-0.15376 -0.28831,-0.28831 -0.49973,-0.28831c-0.17298,0 -0.40363,0.11532 -0.49973,0.28831l-6.4581,12.91619c-0.13454,0.34597 -0.01922,0.63428 0.26909,0.7496z"
                    data-paper-data="{&quot;glyphName&quot;:&quot;A&quot;,&quot;glyphIndex&quot;:9,&quot;word&quot;:3}"
                    id="path-id-25787"></path>
                <path
                    d="M416.84772,340.8936l4.65137,6.24667v-0.03844c0,0.05766 0.03844,0.11532 0.05766,0.13454c0.07688,0.05766 0.13454,0.0961 0.17298,0.0961c0.01922,0.01922 0.07688,0.03844 0.11532,0.03844h0.21143l0.07688,-0.03844c0.07688,0 0.11532,-0.03844 0.15376,-0.07688c0.01922,-0.01922 0.05766,-0.05766 0.07688,-0.0961l4.67059,-6.26589c0.15376,-0.23065 0.13454,-0.59584 -0.11532,-0.78804c-0.24987,-0.17298 -0.61506,-0.0961 -0.78804,0.13454l-4.19007,5.63161l-4.19007,-5.63161c-0.19221,-0.24987 -0.5574,-0.30753 -0.78804,-0.13454c-0.26909,0.21143 -0.32675,0.57662 -0.11532,0.80726zM427.0346,354.00199l-4.65137,-6.24667l-0.0961,-0.11532l-0.05766,-0.03844c-0.0961,-0.03844 -0.13454,-0.05766 -0.17298,-0.05766c-0.03844,-0.01922 -0.07688,-0.01922 -0.07688,-0.01922h-0.07688c-0.07688,0 -0.11532,0.01922 -0.15376,0.03844c-0.03844,0.01922 -0.07688,0.01922 -0.0961,0.03844c-0.0961,0.07688 -0.13454,0.11532 -0.15376,0.17298l0.01922,-0.03844l-4.67059,6.26589c-0.17298,0.24987 -0.13454,0.57662 0.11532,0.78804c0.11532,0.05766 0.21143,0.11532 0.32675,0.11532c0.15376,0 0.34597,-0.07688 0.46129,-0.23065l4.19007,-5.65083l4.19007,5.65083c0.11532,0.15376 0.30753,0.23065 0.46129,0.23065c0.11532,0 0.21143,-0.05766 0.32675,-0.11532c0.24987,-0.19221 0.28831,-0.51895 0.11532,-0.78804z"
                    data-paper-data="{&quot;glyphName&quot;:&quot;X&quot;,&quot;glyphIndex&quot;:10,&quot;lastGlyphOfWord&quot;:true,&quot;word&quot;:3}"
                    id="path-id-92854"></path>
                <path d="M65,325.76372v-1.14545h420v1.14545z"
                    data-paper-data="{&quot;isContainerTopLineAboveSecondaryText&quot;:true}" id="path-id-96022"></path>
            </g>
            <g data-paper-data="{&quot;isPrimaryText&quot;:true}" fill-rule="nonzero">
                <path
                    d="M77.6494,275.92387h8.30044c3.10974,0 5.75185,1.09893 7.9731,3.32018c2.19786,2.19786 3.29679,4.86336 3.29679,7.9731c0,3.10974 -1.09893,5.77523 -3.29679,7.9731c-2.22124,2.22124 -4.86336,3.32018 -7.9731,3.32018h-8.30044zM66.23922,263.27447c-0.35072,0 -0.6313,0.11691 -0.8885,0.35072c-0.23382,0.2572 -0.35072,0.53777 -0.35072,0.8885c0,0 0,0.04676 0.02338,0.11691c-0.02338,0.07014 -0.02338,0.11691 -0.02338,0.11691v34.97875c0,0.35072 0.11691,0.6313 0.35072,0.8885c0.2572,0.23382 0.53777,0.35072 0.8885,0.35072h19.71062c3.78781,0 7.01446,-1.33275 9.70333,-4.02162c2.68887,-2.68887 4.045,-5.93891 4.045,-9.72671c0,-3.78781 -1.35613,-7.03784 -4.045,-9.72671c-2.68887,-2.68887 -5.91552,-4.02162 -9.70333,-4.02162h-9.51628c-0.35072,0 -0.6313,0.11691 -0.8885,0.35072c-0.23382,0.2572 -0.35072,0.53777 -0.35072,0.8885v23.80238h-7.7159v-32.75751h18.4714c5.91552,0 10.98931,2.10434 15.1746,6.28963c4.18529,4.18529 6.28963,9.25908 6.28963,15.1746c0,5.91552 -2.10434,10.98931 -6.28963,15.1746c-4.18529,4.18529 -9.25908,6.28963 -15.1746,6.28963h-19.71062c-0.35072,0 -0.6313,0.11691 -0.8885,0.3741c-0.23382,0.23382 -0.35072,0.51439 -0.35072,0.86512c0,0.35072 0.11691,0.6313 0.35072,0.8885c0.2572,0.23382 0.53777,0.35072 0.8885,0.35072h19.71062c6.59359,0 12.22853,-2.33815 16.92822,-7.01446c4.6763,-4.69968 7.01446,-10.33463 7.01446,-16.92822c0,-6.59359 -2.33815,-12.22853 -7.01446,-16.92822c-4.69968,-4.6763 -10.33463,-7.01446 -16.92822,-7.01446z"
                    data-paper-data="{&quot;glyphName&quot;:&quot;D&quot;,&quot;glyphIndex&quot;:0,&quot;firstGlyphOfWord&quot;:true,&quot;word&quot;:1}"
                    id="path-id-25117"></path>
                <path
                    d="M148.47202,308.68137l-2.75902,-6.87417h8.3472l2.75902,6.87417zM134.81721,281.23147l3.0396,7.57561h-6.07919zM156.04763,300.12374c-0.02338,-0.02338 -0.02338,-0.02338 -0.02338,-0.02338l-0.04676,-0.09353c-0.21043,-0.44425 -0.58454,-0.67806 -1.07555,-0.65468h-28.94632c-0.65468,-0.11691 -1.09893,0.11691 -1.35613,0.74821l-3.46046,8.58102h-8.32382l17.2088,-42.92847h9.56304l9.25908,23.05418h-8.3472l-4.53601,-11.34004c-0.21043,-0.51439 -0.60792,-0.77159 -1.14569,-0.77159c-0.56116,0 -0.93526,0.2572 -1.14569,0.77159l-4.86336,12.11163c0,-0.02338 0,0.02338 -0.02338,0.09353c-0.02338,0.07014 -0.04676,0.11691 -0.04676,0.14029c0,0.02338 0,0.09353 -0.02338,0.16367c0,0.07014 0,0.09353 0,0.07014v0.02338c0,0.02338 0,0.09353 0.02338,0.16367c0,0.07014 0,0.09353 0,0.07014c0,0.02338 0.02338,0.07014 0.04676,0.14029c0.02338,0.07014 0.02338,0.09353 0.02338,0.09353c0,-0.02338 0.02338,0 0.04676,0.07014l0.07014,0.14029l0.09353,0.11691c0.07014,0.07014 0.07014,0.09353 0.04676,0.07014l0.09353,0.07014c0.07014,0.04676 0.09353,0.07014 0.09353,0.07014c-0.02338,-0.02338 0,0 0.07014,0.04676c0.07014,0.02338 0.14029,0.04676 0.16367,0.07014l0.11691,0.04676c0.07014,0.02338 0.09353,0.02338 0.11691,0.02338c0.07014,0.02338 0.16367,0.02338 0.23382,0.02338h20.71602c0,0 0.04676,0 0.11691,-0.02338c0.07014,0 0.11691,0 0.11691,0l0.18705,-0.04676c0.09353,-0.04676 0.11691,-0.04676 0.04676,-0.02338l0.18705,-0.09353c0,0 0,0 0.02338,-0.02338l0.16367,-0.11691c0,-0.02338 0,-0.02338 0.02338,-0.02338c0.14029,-0.14029 0.23382,-0.32734 0.30396,-0.53777c0.02338,-0.07014 0.04676,-0.09353 0.04676,-0.09353c-0.02338,0.02338 -0.02338,0 0,-0.07014c0.02338,-0.07014 0.02338,-0.14029 0.02338,-0.16367v-0.02338c0,0.02338 0,0 0,-0.07014c-0.02338,-0.07014 -0.02338,-0.14029 -0.02338,-0.16367c0,-0.02338 -0.02338,-0.07014 -0.04676,-0.14029c-0.02338,-0.07014 -0.02338,-0.11691 -0.02338,-0.09353l-10.2411,-25.53262c-0.21043,-0.51439 -0.58454,-0.77159 -1.14569,-0.77159h-11.22313c-0.56116,0 -0.93526,0.2572 -1.14569,0.77159l-18.23758,45.43029c-0.16367,0.39749 -0.11691,0.79497 0.14029,1.14569c0.23382,0.35072 0.56116,0.53777 1.00541,0.53777h11.01269c0.56116,0 0.93526,-0.2572 1.14569,-0.77159l3.43708,-8.58102h16.50735l3.43708,8.58102c0.21043,0.51439 0.58454,0.77159 1.14569,0.77159h10.98931c0.44425,0 0.77159,-0.18705 1.02879,-0.53777c0.2572,-0.35072 0.28058,-0.74821 0.11691,-1.14569z"
                    data-paper-data="{&quot;glyphName&quot;:&quot;A&quot;,&quot;glyphIndex&quot;:1,&quot;word&quot;:1}"
                    id="path-id-52706"></path>
                <path
                    d="M202.24951,265.75291h9.98391l-15.87605,19.4768l-4.95688,-6.12596zM177.23128,308.68137h-9.867l15.87605,-19.54695l4.98026,6.07919zM197.94731,287.17038l17.8401,-21.8851c0.32734,-0.39749 0.3741,-0.84173 0.16367,-1.30936c-0.21043,-0.46763 -0.58454,-0.70145 -1.12231,-0.70145h-13.16379c-0.39749,0 -0.70145,0.14029 -0.95864,0.44425l-10.89579,13.44437l-10.91917,-13.44437c-0.2572,-0.30396 -0.56116,-0.44425 -0.95864,-0.44425h-13.16379c-0.51439,0 -0.8885,0.23382 -1.12231,0.70145c-0.21043,0.46763 -0.16367,0.91188 0.16367,1.30936l17.8401,21.8851l-17.8401,21.97863c-0.32734,0.39749 -0.3741,0.84173 -0.16367,1.30936c0.23382,0.46763 0.60792,0.70145 1.12231,0.70145h13.04689c0.39749,0 0.70145,-0.14029 0.95864,-0.44425l11.03608,-13.5379l11.01269,13.5379c0.21043,0.2572 0.49101,0.39749 0.84173,0.44425c0.35072,0.02338 0.65468,-0.07014 0.91188,-0.28058c0.2572,-0.21043 0.42087,-0.49101 0.44425,-0.81835c0.02338,-0.35072 -0.07014,-0.65468 -0.28058,-0.91188l-35.37624,-43.3961h9.98391l36.52193,44.93928c0.2572,0.30396 0.56116,0.46763 0.95864,0.46763c0.30396,0 0.56116,-0.09353 0.79497,-0.28058c0.2572,-0.21043 0.42087,-0.49101 0.44425,-0.81835c0.02338,-0.35072 -0.07014,-0.65468 -0.28058,-0.91188z"
                    data-paper-data="{&quot;glyphName&quot;:&quot;X&quot;,&quot;glyphIndex&quot;:2,&quot;lastGlyphOfWord&quot;:true,&quot;word&quot;:1}"
                    id="path-id-7146"></path>
                <path
                    d="M279.26822,273.46881h-16.34368v-7.7159h16.34368zM233.90808,265.75291h16.34368v7.7159h-16.34368zM261.68532,263.27447c-0.35072,0 -0.6313,0.11691 -0.86512,0.35072c-0.2572,0.2572 -0.3741,0.53777 -0.3741,0.8885v44.16769h-7.7159v-44.16769c0,-0.35072 -0.11691,-0.6313 -0.3741,-0.8885c-0.23382,-0.23382 -0.51439,-0.35072 -0.86512,-0.35072h-18.82212c-0.35072,0 -0.6313,0.11691 -0.8885,0.35072c-0.23382,0.2572 -0.35072,0.53777 -0.35072,0.8885v10.19434c0,0.32734 0.11691,0.60792 0.35072,0.86512c0.2572,0.23382 0.53777,0.35072 0.8885,0.35072h17.5829v33.99673c0,0.35072 0.11691,0.6313 0.3741,0.8885c0.23382,0.23382 0.51439,0.35072 0.86512,0.35072h10.19434c0.35072,0 0.6313,-0.11691 0.86512,-0.35072c0.2572,-0.2572 0.3741,-0.53777 0.3741,-0.8885v-33.99673h17.5829c0.35072,0 0.6313,-0.11691 0.86512,-0.35072c0.2572,-0.2572 0.3741,-0.53777 0.3741,-0.86512v-10.19434c0,-0.35072 -0.11691,-0.6313 -0.3741,-0.8885c-0.23382,-0.23382 -0.51439,-0.35072 -0.86512,-0.35072z"
                    data-paper-data="{&quot;glyphName&quot;:&quot;T&quot;,&quot;glyphIndex&quot;:3,&quot;firstGlyphOfWord&quot;:true,&quot;word&quot;:2}"
                    id="path-id-93511"></path>
                <path
                    d="M314.76137,308.49432l-11.36342,-14.96417h9.6098c0.02338,0.09353 0.07014,0.16367 0.14029,0.23382l11.29327,14.73036zM291.75395,293.53015h7.66914v15.15122h-7.66914zM301.90153,275.90049l11.24651,0.02338c0.67806,0 1.2626,0.23382 1.75361,0.72483c0.49101,0.49101 0.72483,1.07555 0.72483,1.75361c0,0.67806 -0.23382,1.2626 -0.72483,1.75361c-0.49101,0.49101 -1.07555,0.72483 -1.75361,0.72483l-0.11691,0.02338h-11.1296zM315.8603,293.24957c3.55399,-0.6313 6.50006,-2.36153 8.86159,-5.14393c2.36153,-2.80578 3.55399,-6.05581 3.55399,-9.72671c0,-4.16191 -1.47304,-7.7159 -4.41911,-10.68535c-2.96945,-2.94607 -6.52344,-4.41911 -10.68535,-4.41911c0.02338,0 0.02338,0 0,0c-0.02338,0 -0.02338,0 -0.02338,0h-22.63331c-0.35072,0 -0.6313,0.11691 -0.8885,0.35072c-0.23382,0.2572 -0.35072,0.53777 -0.35072,0.8885v17.62966c0,0.35072 0.11691,0.6313 0.35072,0.86512c0.2572,0.2572 0.53777,0.3741 0.8885,0.3741h22.63331c0.07014,0 0.16367,0 0.2572,-0.02338c1.30936,-0.07014 2.4083,-0.58454 3.32018,-1.54318c0.91188,-0.95864 1.37951,-2.08096 1.37951,-3.4137c0,-1.35613 -0.49101,-2.5252 -1.44965,-3.50723c-0.95864,-0.95864 -2.12772,-1.44965 -3.50723,-1.44965l-12.48573,-0.02338c-0.35072,0 -0.6313,0.11691 -0.86512,0.3741c-0.2572,0.23382 -0.3741,0.51439 -0.3741,0.86512v6.24287h-7.66914v-15.15122h21.39409c0,0 0,0 0.02338,0c0.02338,0 0.02338,0 0,0c3.48385,0 6.47668,1.23922 8.93174,3.69428c2.47844,2.45506 3.71766,5.44789 3.71766,8.93174c0,3.48385 -1.23922,6.4533 -3.71766,8.93174c-2.45506,2.45506 -5.44789,3.69428 -8.93174,3.69428c-0.09353,0 -0.21043,0.02338 -0.32734,0.04676h-22.32935c-0.35072,0 -0.6313,0.11691 -0.8885,0.3741c-0.23382,0.23382 -0.35072,0.51439 -0.35072,0.86512v17.62966c0,0.35072 0.11691,0.6313 0.35072,0.8885c0.2572,0.23382 0.53777,0.35072 0.8885,0.35072h10.14758c0.35072,0 0.6313,-0.11691 0.86512,-0.35072c0.2572,-0.2572 0.3741,-0.53777 0.3741,-0.8885v-14.26273l11.24651,14.82388c0.2572,0.32734 0.58454,0.49101 0.98202,0.49101h12.81307c0.51439,0 0.8885,-0.23382 1.09893,-0.67806c0.23382,-0.46763 0.18705,-0.91188 -0.11691,-1.30936z"
                    data-paper-data="{&quot;glyphName&quot;:&quot;R&quot;,&quot;glyphIndex&quot;:4,&quot;word&quot;:2}"
                    id="path-id-41433"></path>
                <path
                    d="M346.77066,311.15981c0.32734,0 0.60792,-0.11691 0.86512,-0.35072c0.23382,-0.2572 0.35072,-0.53777 0.35072,-0.8885v-45.40691c0,-0.35072 -0.11691,-0.6313 -0.35072,-0.8885c-0.2572,-0.23382 -0.53777,-0.35072 -0.86512,-0.35072c-0.35072,0 -0.6313,0.11691 -0.8885,0.35072c-0.23382,0.2572 -0.35072,0.53777 -0.35072,0.8885v44.16769h-7.7159v-44.16769c0,-0.35072 -0.11691,-0.6313 -0.3741,-0.8885c-0.23382,-0.23382 -0.51439,-0.35072 -0.86512,-0.35072c-0.35072,0 -0.6313,0.11691 -0.8885,0.35072c-0.23382,0.2572 -0.35072,0.53777 -0.35072,0.8885v45.40691c0,0.35072 0.11691,0.6313 0.35072,0.8885c0.2572,0.23382 0.53777,0.35072 0.8885,0.35072z"
                    data-paper-data="{&quot;glyphName&quot;:&quot;I&quot;,&quot;glyphIndex&quot;:5,&quot;word&quot;:2}"
                    id="path-id-35711"></path>
                <path
                    d="M391.82685,311.15981c0.35072,0 0.6313,-0.11691 0.8885,-0.35072c0.23382,-0.2572 0.35072,-0.53777 0.35072,-0.8885v-11.10622c0,-0.35072 -0.11691,-0.6313 -0.35072,-0.8885c-0.2572,-0.23382 -0.53777,-0.35072 -0.8885,-0.35072h-14.00553c-2.85255,0 -5.28422,-1.00541 -7.31841,-3.0396c-2.03419,-2.03419 -3.0396,-4.46587 -3.0396,-7.31841c0,-2.85255 1.00541,-5.28422 3.0396,-7.31841c2.03419,-2.03419 4.46587,-3.0396 7.31841,-3.0396h14.00553c0.35072,0 0.6313,-0.11691 0.8885,-0.35072c0.23382,-0.2572 0.35072,-0.53777 0.35072,-0.8885c0,-0.35072 -0.11691,-0.6313 -0.35072,-0.86512c-0.2572,-0.2572 -0.53777,-0.3741 -0.8885,-0.3741h-14.00553c-3.53061,0 -6.57021,1.2626 -9.07203,3.76442c-2.50182,2.50182 -3.76442,5.54142 -3.76442,9.07203c0,3.53061 1.2626,6.57021 3.76442,9.07203c2.50182,2.50182 5.54142,3.76442 9.07203,3.76442h12.78969v8.62778h-11.78428c-5.91552,0 -10.98931,-2.10434 -15.1746,-6.28963c-4.18529,-4.18529 -6.28963,-9.25908 -6.28963,-15.1746c0,-5.91552 2.10434,-10.98931 6.28963,-15.1746c4.18529,-4.18529 9.25908,-6.28963 15.1746,-6.28963h13.00012c0.35072,0 0.6313,-0.11691 0.8885,-0.3741c0.23382,-0.23382 0.35072,-0.51439 0.35072,-0.86512c0,-0.35072 -0.11691,-0.6313 -0.35072,-0.8885c-0.2572,-0.23382 -0.53777,-0.35072 -0.8885,-0.35072h-13.00012c-6.59359,0 -12.22853,2.33815 -16.92822,7.01446c-4.6763,4.69968 -7.01446,10.33463 -7.01446,16.92822c0,6.59359 2.33815,12.22853 7.01446,16.92822c4.69968,4.6763 10.33463,7.01446 16.92822,7.01446z"
                    data-paper-data="{&quot;glyphName&quot;:&quot;C&quot;,&quot;glyphIndex&quot;:6,&quot;word&quot;:2}"
                    id="path-id-17077"></path>
                <path
                    d="M440.22659,308.68137h-10.7555l-16.83469,-16.60088l6.10258,-5.00364zM402.67587,308.68137v-8.37058l7.7159,-6.35977v14.73036zM410.39177,265.75291v12.95336l-7.7159,6.28963v-19.24299zM443.94425,263.46152h-14.40301c-0.30396,0 -0.56116,0.09353 -0.79497,0.28058l-15.89943,12.95336v-12.18177c0,-0.35072 -0.11691,-0.6313 -0.35072,-0.8885c-0.2572,-0.23382 -0.53777,-0.35072 -0.86512,-0.35072h-10.19434c-0.35072,0 -0.6313,0.11691 -0.8885,0.35072c-0.23382,0.2572 -0.35072,0.53777 -0.35072,0.8885v23.07756c0,-0.04676 0,-0.02338 0,0.04676c0,0.04676 0,0.09353 0.02338,0.14029c0,0.04676 0,0.09353 0.02338,0.11691c0,0.02338 0,0.07014 0.02338,0.11691l0.04676,0.09353l0.07014,0.11691l0.07014,0.11691c0.02338,0.04676 0.04676,0.04676 0.02338,0.02338c-0.02338,-0.02338 -0.02338,-0.02338 0.04676,0.04676c0.02338,0.02338 0.04676,0.07014 0.09353,0.09353l0.07014,0.07014l0.11691,0.07014l0.09353,0.07014c0.02338,0.02338 0.07014,0.02338 0.11691,0.04676c0.04676,0 0.09353,0 0.11691,0.02338c0.02338,0.02338 0.07014,0.02338 0.11691,0.02338c0.04676,0 0.09353,0 0.11691,0.02338c0.11691,0 0.14029,0 0.07014,0c-0.07014,0 -0.04676,0 0.04676,0c0.04676,0 0.09353,0 0.14029,-0.02338c0.04676,0 0.07014,0 0.09353,-0.02338c0.04676,0 0.09353,0 0.11691,-0.02338c0.04676,-0.02338 0.09353,-0.02338 0.11691,-0.04676l0.11691,-0.07014l0.09353,-0.07014c0.09353,-0.07014 0.11691,-0.07014 0.04676,-0.02338l27.77724,-22.63331h10.52168l-39.86549,32.85103c0.02338,-0.02338 0.02338,0 -0.02338,0.04676l-0.09353,0.09353l-0.09353,0.09353l-0.04676,0.09353l-0.07014,0.11691l-0.04676,0.09353c-0.02338,0.04676 -0.02338,0.09353 -0.02338,0.11691c-0.02338,0.02338 -0.02338,0.07014 -0.02338,0.11691c-0.02338,0.04676 -0.02338,0.09353 -0.02338,0.14029c0,0.09353 0,0.11691 0,0.04676v10.19434c0,0.35072 0.11691,0.6313 0.35072,0.8885c0.2572,0.23382 0.53777,0.35072 0.8885,0.35072h10.19434c0.32734,0 0.60792,-0.11691 0.86512,-0.35072c0.23382,-0.2572 0.35072,-0.53777 0.35072,-0.8885v-14.14582l15.24475,15.03432c0.23382,0.23382 0.51439,0.35072 0.86512,0.35072h14.21596c0.56116,0 0.93526,-0.2572 1.14569,-0.77159c0.21043,-0.49101 0.14029,-0.93526 -0.2572,-1.33275l-23.4049,-23.56857l24.08296,-19.85091c0.44425,-0.35072 0.56116,-0.81835 0.3741,-1.35613c-0.21043,-0.53777 -0.58454,-0.81835 -1.16908,-0.81835z"
                    data-paper-data="{&quot;glyphName&quot;:&quot;K&quot;,&quot;glyphIndex&quot;:7,&quot;word&quot;:2}"
                    id="path-id-2071"></path>
                <path
                    d="M462.04154,278.35555c-0.70145,-0.39749 -0.98202,-0.91188 -0.81835,-1.49642c0.16367,-0.60792 0.65468,-0.91188 1.5198,-0.91188h18.00377c0.35072,0 0.6313,-0.11691 0.86512,-0.3741c0.2572,-0.23382 0.3741,-0.51439 0.3741,-0.86512l-0.02338,-10.19434c0,-0.35072 -0.11691,-0.6313 -0.3741,-0.8885c-0.23382,-0.23382 -0.51439,-0.35072 -0.86512,-0.35072c0,0 -0.04676,0 -0.11691,0.02338v-0.02338h-16.83469c-3.92809,0 -7.13136,0.93526 -9.6098,2.80578c-2.96945,2.24463 -4.6763,5.16732 -5.07379,8.74469c-0.28058,2.4083 0.04676,4.72307 1.00541,6.96769c0.95864,2.22124 2.36153,3.99824 4.23205,5.33099c2.01081,1.42627 6.89755,3.83457 14.66021,7.17813l1.28598,0.58454c1.73023,0.72483 2.45506,1.54318 2.19786,2.4083c-0.16367,0.51439 -0.3741,0.86512 -0.65468,1.02879c-0.46763,0.30396 -1.30936,0.44425 -2.50182,0.44425h-0.09353c-0.95864,-0.02338 -7.24827,-0.02338 -18.86888,-0.02338c-0.35072,0 -0.6313,0.11691 -0.86512,0.35072c-0.2572,0.2572 -0.3741,0.53777 -0.3741,0.8885c0,0.32734 0.11691,0.60792 0.3741,0.86512c0.23382,0.23382 0.51439,0.35072 0.86512,0.35072c11.59723,0 17.86348,0.02338 18.82212,0.04676h0.14029c1.61332,0 2.82916,-0.2572 3.69428,-0.77159c0.86512,-0.49101 1.47304,-1.30936 1.82376,-2.45506c0.32734,-1.05217 0.16367,-2.08096 -0.46763,-3.0396c-0.6313,-0.95864 -1.66009,-1.73023 -3.10974,-2.36153l-1.28598,-0.58454c-7.59899,-3.27341 -12.32206,-5.58818 -14.21596,-6.92093c-1.5198,-1.07555 -2.64211,-2.5252 -3.4137,-4.32558c-0.77159,-1.82376 -1.02879,-3.71766 -0.79497,-5.68171c0.32734,-2.87593 1.70685,-5.23746 4.11515,-7.06122c2.03419,-1.5198 4.72307,-2.29139 8.11339,-2.29139h15.71238l0.02338,7.7159h-16.76455c-0.95864,0 -1.80038,0.2572 -2.5252,0.74821c-0.70145,0.49101 -1.16908,1.16908 -1.37951,2.01081c-0.23382,0.81835 -0.16367,1.63671 0.21043,2.4083c0.35072,0.77159 0.95864,1.40289 1.777,1.87052c0.6313,0.35072 5.47128,2.45506 14.5433,6.31301c1.58994,0.67806 3.01622,1.68347 4.27882,3.01622c2.31477,2.45506 3.25003,5.40113 2.75902,8.81483c-0.44425,3.22665 -2.10434,5.75185 -4.9335,7.59899c-2.47844,1.61332 -5.33099,2.43168 -8.55764,2.43168h-18.56492c-0.35072,0 -0.6313,0.11691 -0.86512,0.3741c-0.2572,0.23382 -0.3741,0.51439 -0.3741,0.86512c0,0.35072 0.11691,0.6313 0.3741,0.8885c0.23382,0.23382 0.51439,0.35072 0.86512,0.35072h18.56492c3.81119,0 7.17813,-0.98202 10.10082,-2.94607c3.34356,-2.24463 5.3076,-5.3076 5.84538,-9.21232c0.49101,-3.60075 -0.32734,-6.8274 -2.45506,-9.65657c-1.61332,-2.17448 -3.64752,-3.76442 -6.05581,-4.79321c-8.90836,-3.81119 -13.67819,-5.86876 -14.30949,-6.1961z"
                    data-paper-data="{&quot;glyphName&quot;:&quot;S&quot;,&quot;glyphIndex&quot;:8,&quot;lastGlyphOfWord&quot;:true,&quot;word&quot;:2}"
                    id="path-id-36804"></path>
            </g>
            <g data-paper-data="{&quot;fillRule&quot;:&quot;undefined&quot;,&quot;isIcon&quot;:&quot;true&quot;,&quot;rawInitialId&quot;:&quot;314&quot;,&quot;iconType&quot;:&quot;initial&quot;,&quot;initialText&quot;:&quot;DT&quot;,&quot;selectedEffects&quot;:{&quot;container&quot;:&quot;&quot;,&quot;transformation&quot;:&quot;&quot;,&quot;pattern&quot;:&quot;&quot;},&quot;iconStyle&quot;:&quot;standalone&quot;,&quot;bounds&quot;:{&quot;x&quot;:170.55092756009253,&quot;y&quot;:115.0946436101351,&quot;width&quot;:208.89814487981494,&quot;height&quot;:122.60564884074951},&quot;suitableAsStandaloneIcon&quot;:true}"
                fill-rule="undefined">
                <path
                    d="M177.57926,155.89811c0,-1.1714 -0.78092,-2.34278 -1.75708,-2.92848v-34.16559h61.10759c16.00901,0 29.08956,12.88531 29.08956,28.89432v41.58439h3.51418v-41.58439c0,-17.96133 -14.64239,-32.60373 -32.60373,-32.60373h-64.81699v37.87499c-0.97616,0.78092 -1.56186,1.75708 -1.56186,2.92848c0,1.95232 1.56186,3.51418 3.51418,3.51418c1.95232,0 3.51418,-1.56186 3.51418,-3.51418zM236.92977,122.31823h-37.48453h-5.46649h-14.44717v108.15848h14.44717h5.46649h37.48453c14.05669,0 25.38015,-11.32345 25.38015,-25.38015v-57.39818c0,-14.05669 -11.32345,-25.38015 -25.38015,-25.38015zM231.85374,213.10107h-32.4085v-73.60243h32.21327c5.85696,0 10.73775,4.8808 10.73775,10.93299c0,35.72744 0.19524,19.71842 0.19524,51.73646c0,6.05219 -4.68556,10.93299 -10.73775,10.93299zM231.65851,143.20804h-28.50386v66.18363h28.6991c3.90464,0 7.22358,-3.12371 7.22358,-7.22358c0,-17.18041 -0.19524,-34.55605 -0.19524,-51.73646c0,-3.90464 -3.31894,-7.22358 -7.22358,-7.22358zM231.85374,205.87749h-25.18492v-59.15527h24.98968c1.95232,0 3.51418,1.75708 3.51418,3.7094c0,17.18041 0.19524,34.55605 0.19524,51.73646c0,2.14755 -1.56186,3.7094 -3.51418,3.7094zM267.58119,197.67775c-1.95232,0 -3.31894,1.56186 -3.31894,3.31894c0,1.36662 0.5857,2.53802 1.75708,3.12371v0.97616c0,16.00901 -13.08053,29.08956 -29.08956,29.08956h-61.10759v-64.2313h-3.7094v67.74547h64.81699c17.96133,0 32.60373,-14.64239 32.60373,-32.60373v-1.1714c0.97616,-0.5857 1.56186,-1.56186 1.56186,-2.92848c0,-1.75708 -1.56186,-3.31894 -3.51418,-3.31894zM346.45487,198.26344c-1.95232,0 -3.51418,1.56186 -3.51418,3.51418c0,1.1714 0.78092,2.34278 1.75708,2.92848v29.48002h-27.13724v-64.2313h-3.7094v67.74547h34.55605v-33.18943c0.78092,-0.5857 1.36662,-1.56186 1.36662,-2.73324c0,-1.95232 -1.36662,-3.51418 -3.31894,-3.51418zM282.80928,115.09464v34.55605h31.04188v2.53802c-0.97616,0.5857 -1.56186,1.75708 -1.56186,2.92848c0,1.95232 1.56186,3.51418 3.31894,3.51418c1.95232,0 3.51418,-1.56186 3.51418,-3.51418c0,-1.1714 -0.5857,-2.34278 -1.56186,-2.92848v-6.24742h-31.04188v-27.13724h89.22099v27.13724h-31.04188v43.34149h3.7094v-39.63208h31.04188v-34.55605zM341.18362,230.47671v-88.0496h31.04188v-20.10889h-82.19264v20.10889h31.04188v88.0496z"
                    data-paper-data="{&quot;isPathIcon&quot;:true}" id="path-id-6783"></path>
            </g>
        </g>
    </g>
    <rect data-path-id="path-id-6783" class="invisible-bbox" x="171" y="115" fill="transparent" width="209"
        height="123"></rect>
    <rect data-path-id="path-id-7146" class="invisible-bbox" x="164" y="263" fill="transparent" width="53" height="48">
    </rect>
    <rect data-path-id="path-id-52706" class="invisible-bbox" x="110" y="263" fill="transparent" width="50" height="48">
    </rect>
    <rect data-path-id="path-id-93511" class="invisible-bbox" x="231" y="263" fill="transparent" width="50" height="48">
    </rect>
    <rect data-path-id="path-id-25117" class="invisible-bbox" x="65" y="263" fill="transparent" width="45" height="48">
    </rect>
    <rect data-path-id="path-id-2071" class="invisible-bbox" x="400" y="263" fill="transparent" width="45" height="48">
    </rect>
    <rect data-path-id="path-id-41433" class="invisible-bbox" x="289" y="263" fill="transparent" width="39" height="48">
    </rect>
    <rect data-path-id="path-id-17077" class="invisible-bbox" x="355" y="263" fill="transparent" width="38" height="48">
    </rect>
    <rect data-path-id="path-id-36804" class="invisible-bbox" x="449" y="263" fill="transparent" width="36" height="48">
    </rect>
    <rect data-path-id="path-id-35711" class="invisible-bbox" x="335" y="263" fill="transparent" width="13" height="48">
    </rect>
    <rect data-path-id="path-id-96022" class="invisible-bbox" x="65" y="325" fill="transparent" width="420" height="1">
    </rect>
    <rect data-path-id="path-id-43524" class="invisible-bbox" x="239" y="341" fill="transparent" width="25" height="14">
    </rect>
    <rect data-path-id="path-id-22372" class="invisible-bbox" x="169" y="341" fill="transparent" width="14" height="14">
    </rect>
    <rect data-path-id="path-id-25787" class="invisible-bbox" x="387" y="341" fill="transparent" width="14" height="14">
    </rect>
    <rect data-path-id="path-id-79147" class="invisible-bbox" x="362" y="341" fill="transparent" width="12" height="14">
    </rect>
    <rect data-path-id="path-id-8216" class="invisible-bbox" x="297" y="341" fill="transparent" width="11" height="14">
    </rect>
    <rect data-path-id="path-id-469" class="invisible-bbox" x="196" y="340" fill="transparent" width="10" height="15">
    </rect>
    <rect data-path-id="path-id-92854" class="invisible-bbox" x="417" y="340" fill="transparent" width="10" height="15">
    </rect>
    <rect data-path-id="path-id-27914" class="invisible-bbox" x="323" y="341" fill="transparent" width="10" height="14">
    </rect>
    <rect data-path-id="path-id-66124" class="invisible-bbox" x="145" y="341" fill="transparent" width="9" height="14">
    </rect>
    <rect data-path-id="path-id-28362" class="invisible-bbox" x="123" y="340" fill="transparent" width="8" height="14">
    </rect>
    <rect data-path-id="path-id-24824" class="invisible-bbox" x="281" y="341" fill="transparent" width="3" height="14">
    </rect>
</svg>