<svg xmlns="http://www.w3.org/2000/svg" xmlns:xlink="http://www.w3.org/1999/xlink" version="1.1" width="280" height="45"
	viewBox="0 0 280 45" xml:space="preserve">

	<g transform="matrix(0.65 0 0 0.65 140.44 22.31)">
		<g style="">
			<g transform="matrix(1 0 0 1 -186.82 0)" id="path-id-40522">
				<path
					style="stroke: none; stroke-width: 1; stroke-dasharray: none; stroke-linecap: butt; stroke-dashoffset: 0; stroke-linejoin: miter; stroke-miterlimit: 10; fill: rgb(234,118,0); fill-rule: nonzero; opacity: 1;"
					transform=" translate(-88.18, -235)"
					d="M 88.18049 203.97198 h -18.31235 c -2.68784 0 -4.86707 2.17923 -4.86707 4.86707 v 15.6963 c 0 1.29099 0.51287 2.52905 1.42544 3.44163 l 18.31235 18.31235 c 1.90059 1.90059 4.98205 1.90059 6.88264 0 c 1.9012 -1.90059 1.9012 -4.98205 0 -6.88264 l -16.88691 -16.88691 v -8.81366 h 13.44528 c 7.41376 0 13.44528 6.03152 13.44528 13.44528 v 15.6963 c 0 6.77435 -5.0362 12.39461 -11.56112 13.31387 l -16.7555 -16.7555 c -1.90059 -1.90059 -4.98205 -1.90059 -6.88264 0 c -1.9012 1.90059 -1.9012 4.98205 0 6.88264 l 18.31235 18.31235 c 0.91258 0.91258 2.15064 1.42544 3.44163 1.42544 c 12.78093 0 23.17943 -10.3985 23.17943 -23.17943 v -15.6963 c 0.00061 -12.78032 -10.39789 -23.17882 -23.17882 -23.17882 z"
					stroke-linecap="round" />
			</g>
			<g transform="matrix(1 0 0 1 -133.73 8.21)" id="path-id-97763">
				<path
					style="stroke: none; stroke-width: 1; stroke-dasharray: none; stroke-linecap: butt; stroke-dashoffset: 0; stroke-linejoin: miter; stroke-miterlimit: 10; fill: rgb(234,118,0); fill-rule: nonzero; opacity: 1;"
					transform=" translate(-141.27, -243.21)"
					d="M 159.21799 220.39923 c -2.45361 0 -4.4771 1.81663 -4.81292 4.17777 c -3.71662 -2.62761 -8.24664 -4.17777 -13.1344 -4.17777 c -12.58016 0 -22.81439 10.23423 -22.81439 22.81439 c 0 12.58016 10.23423 22.81439 22.81439 22.81439 c 4.88776 0 9.41778 -1.55016 13.1344 -4.17777 c 0.33583 2.36114 2.35931 4.17777 4.81292 4.17777 c 2.68784 0 4.86707 -2.17923 4.86707 -4.86707 v -35.89465 c 0 -2.68784 -2.17923 -4.86707 -4.86707 -4.86707 z M 141.27067 256.29387 c -7.21239 0 -13.08025 -5.86786 -13.08025 -13.08025 c 0 -7.21239 5.86786 -13.08025 13.08025 -13.08025 c 7.21239 0 13.08025 5.86786 13.08025 13.08025 c 0 7.21239 -5.86786 13.08025 -13.08025 13.08025 z"
					stroke-linecap="round" />
			</g>
			<g transform="matrix(1 0 0 1 -80.98 8.21)" id="path-id-34149">
				<path
					style="stroke: none; stroke-width: 1; stroke-dasharray: none; stroke-linecap: butt; stroke-dashoffset: 0; stroke-linejoin: miter; stroke-miterlimit: 10; fill: rgb(234,118,0); fill-rule: nonzero; opacity: 1;"
					transform=" translate(-194.02, -243.21)"
					d="M 200.90099 243.21362 l 14.5057 -14.5057 c 1.90059 -1.90059 1.90059 -4.98205 0 -6.88264 c -1.9012 -1.90059 -4.98206 -1.90059 -6.88325 0 l -14.5057 14.50509 l -14.5057 -14.5057 c -1.9012 -1.90059 -4.98206 -1.90059 -6.88325 0 c -1.90059 1.90059 -1.90059 4.98205 0 6.88264 l 14.5057 14.5057 l -14.5057 14.5057 c -1.90059 1.90059 -1.90059 4.98205 0 6.88264 c 0.9503 0.9503 2.19566 1.42544 3.44163 1.42544 c 1.24597 0 2.49133 -0.47515 3.44163 -1.42544 l 14.5057 -14.5057 l 14.5057 14.5057 c 0.9503 0.9503 2.19566 1.42544 3.44163 1.42544 c 1.24597 0 2.49133 -0.47515 3.44163 -1.42544 c 1.90059 -1.90059 1.90059 -4.98205 0 -6.88264 z"
					stroke-linecap="round" />
			</g>
			<g transform="matrix(1 0 0 1 -0.83 0)" id="path-id-83830">
				<path
					style="stroke: none; stroke-width: 1; stroke-dasharray: none; stroke-linecap: butt; stroke-dashoffset: 0; stroke-linejoin: miter; stroke-miterlimit: 10; fill: rgb(234,118,0); fill-rule: nonzero; opacity: 1;"
					transform=" translate(-274.17, -235)"
					d="M 292.48056 203.97286 h -36.6241 c -1.96812 0 -3.74278 1.18574 -4.49656 3.0042 c -0.75379 1.81846 -0.33765 3.91191 1.05433 5.30389 l 18.31235 18.31235 c 0.9503 0.9503 2.19566 1.42544 3.44163 1.42544 c 1.24536 0 2.49133 -0.47515 3.44163 -1.42544 c 1.90059 -1.90059 1.90059 -4.98205 0 -6.88264 l -10.00366 -10.00366 h 24.87438 c 2.68784 0 4.86707 -2.17923 4.86707 -4.86707 c 0 -2.68784 -2.17923 -4.86707 -4.86707 -4.86707 z M 259.29809 223.71066 c -1.89998 -1.90059 -4.98145 -1.9012 -6.88325 0 c -1.90059 1.90059 -1.90059 4.98205 0 6.88264 l 16.88691 16.88691 v 13.68012 c 0 2.68784 2.17923 4.86707 4.86707 4.86707 c 2.68784 0 4.86707 -2.17923 4.86707 -4.86707 v -15.6963 c 0 -1.29099 -0.51287 -2.52905 -1.42544 -3.44163 z"
					stroke-linecap="round" />
			</g>
			<g transform="matrix(1 0 0 1 29.99 8.21)" id="path-id-15041">
				<path
					style="stroke: none; stroke-width: 1; stroke-dasharray: none; stroke-linecap: butt; stroke-dashoffset: 0; stroke-linejoin: miter; stroke-miterlimit: 10; fill: rgb(234,118,0); fill-rule: nonzero; opacity: 1;"
					transform=" translate(-304.99, -243.21)"
					d="M 313.96191 220.39923 c -4.88776 0 -9.41778 1.55016 -13.1344 4.17777 c -0.33583 -2.36053 -2.35931 -4.17777 -4.81292 -4.17777 c -2.68784 0 -4.86707 2.17923 -4.86707 4.86707 v 35.89465 c 0 2.68784 2.17923 4.86707 4.86707 4.86707 c 2.68784 0 4.86707 -2.17923 4.86707 -4.86707 v -17.94732 c 0 -7.21239 5.86786 -13.08025 13.08025 -13.08025 c 2.68784 0 4.86707 -2.17923 4.86707 -4.86707 c 0 -2.68784 -2.17923 -4.86707 -4.86707 -4.86707 z"
					stroke-linecap="round" />
			</g>
			<g transform="matrix(1 0 0 1 55.77 0)" id="path-id-24890">
				<path
					style="stroke: none; stroke-width: 1; stroke-dasharray: none; stroke-linecap: butt; stroke-dashoffset: 0; stroke-linejoin: miter; stroke-miterlimit: 10; fill: rgb(234,118,0); fill-rule: nonzero; opacity: 1;"
					transform=" translate(-330.77, -235)"
					d="M 330.7656 220.39923 c -2.68784 0 -4.86707 2.17923 -4.86707 4.86707 v 35.89465 c 0 2.68784 2.17923 4.86707 4.86707 4.86707 c 2.68784 0 4.86707 -2.17923 4.86707 -4.86707 v -35.89465 c 0 -2.68784 -2.17923 -4.86707 -4.86707 -4.86707 z M 326.26964 210.70159 c 0.12168 0.29202 0.27377 0.57796 0.4502 0.83957 c 0.17643 0.26769 0.3772 0.51713 0.6023 0.74223 c 0.2251 0.2251 0.47454 0.42587 0.74223 0.6023 c 0.26161 0.17643 0.54755 0.32853 0.83957 0.4502 c 0.29202 0.12168 0.6023 0.21293 0.91258 0.27377 c 0.31028 0.06692 0.63272 0.09734 0.94908 0.09734 c 0.31636 0 0.6388 -0.03042 0.94908 -0.09734 c 0.31028 -0.06084 0.62055 -0.15209 0.91257 -0.27377 c 0.29202 -0.12168 0.57796 -0.27377 0.83957 -0.4502 c 0.26769 -0.17643 0.51713 -0.3772 0.74223 -0.6023 c 0.21902 -0.2251 0.42587 -0.47454 0.6023 -0.74223 c 0.17643 -0.26161 0.32853 -0.54755 0.4502 -0.83957 c 0.12168 -0.29202 0.21293 -0.6023 0.27377 -0.91258 c 0.06692 -0.31028 0.09734 -0.63272 0.09734 -0.94908 c 0 -0.31636 -0.03042 -0.6388 -0.09734 -0.94908 c -0.06084 -0.31028 -0.15209 -0.62055 -0.27377 -0.91257 c -0.12168 -0.29202 -0.27377 -0.57796 -0.4502 -0.83957 c -0.17643 -0.26769 -0.38328 -0.51713 -0.6023 -0.74223 c -1.13159 -1.12551 -2.81073 -1.64872 -4.39253 -1.32628 c -0.31028 0.06084 -0.62055 0.15209 -0.91257 0.27377 c -0.29202 0.12168 -0.57796 0.27377 -0.83957 0.4502 c -0.26769 0.17643 -0.51713 0.3772 -0.74223 0.6023 c -0.2251 0.2251 -0.42587 0.47454 -0.6023 0.74223 c -0.17643 0.26161 -0.32853 0.54755 -0.4502 0.83957 c -0.12168 0.29202 -0.21293 0.6023 -0.27377 0.91258 c -0.06692 0.31028 -0.09734 0.63272 -0.09734 0.94908 c 0 0.31636 0.03042 0.6388 0.09734 0.94908 c 0.06084 0.31028 0.15209 0.62055 0.27377 0.91257 z"
					stroke-linecap="round" />
			</g>
			<g transform="matrix(1 0 0 1 88.02 8.21)" id="path-id-76683">
				<path
					style="stroke: none; stroke-width: 1; stroke-dasharray: none; stroke-linecap: butt; stroke-dashoffset: 0; stroke-linejoin: miter; stroke-miterlimit: 10; fill: rgb(234,118,0); fill-rule: nonzero; opacity: 1;"
					transform=" translate(-363.02, -243.21)"
					d="M 374.89443 252.46288 c -2.47065 2.47065 -5.75531 3.83099 -9.24926 3.83099 c -7.21239 0 -13.08025 -5.86786 -13.08025 -13.08025 c 0 -7.21239 5.86786 -13.08025 13.08025 -13.08025 c 3.49395 0 6.77922 1.36035 9.24926 3.83099 c 1.90059 1.90059 4.98205 1.90059 6.88264 0 c 1.9012 -1.90059 1.9012 -4.98205 0 -6.88264 c -4.30857 -4.30979 -10.03773 -6.68249 -16.13191 -6.68249 c -12.58016 0 -22.81439 10.23423 -22.81439 22.81439 c 0 12.58016 10.23423 22.81439 22.81439 22.81439 c 6.09418 0 11.82333 -2.3727 16.13251 -6.68188 c 1.9012 -1.90059 1.9012 -4.98205 0 -6.88264 c -1.90059 -1.9012 -4.98266 -1.9012 -6.88325 -0.00061 z"
					stroke-linecap="round" />
			</g>
			<g transform="matrix(1 0 0 1 138.1 0)" id="path-id-89640">
				<path
					style="stroke: none; stroke-width: 1; stroke-dasharray: none; stroke-linecap: butt; stroke-dashoffset: 0; stroke-linejoin: miter; stroke-miterlimit: 10; fill: rgb(234,118,0); fill-rule: nonzero; opacity: 1;"
					transform=" translate(-413.1, -235)"
					d="M 419.98367 243.27446 l 14.44486 -14.44486 c 1.9012 -1.90059 1.9012 -4.98205 0 -6.88264 c -1.90059 -1.90059 -4.98205 -1.90059 -6.88264 0 l -27.46427 27.46427 v -40.56764 c 0 -2.68784 -2.17923 -4.86707 -4.86707 -4.86707 c -2.68784 0 -4.86707 2.17923 -4.86707 4.86707 v 52.31736 c 0 1.96873 1.18574 3.74339 3.0042 4.49656 c 0.6023 0.24944 1.23441 0.37051 1.86165 0.37051 c 1.26665 0 2.51141 -0.49462 3.44284 -1.42544 l 14.44486 -14.44486 l 14.44486 14.44486 c 0.9503 0.9503 2.19566 1.42544 3.44163 1.42544 c 1.24597 0 2.49133 -0.47515 3.44163 -1.42544 c 1.9012 -1.90059 1.9012 -4.98205 0 -6.88264 z"
					stroke-linecap="round" />
			</g>
			<g transform="matrix(1 0 0 1 187.19 8.21)" id="path-id-27969">
				<path
					style="stroke: none; stroke-width: 1; stroke-dasharray: none; stroke-linecap: butt; stroke-dashoffset: 0; stroke-linejoin: miter; stroke-miterlimit: 10; fill: rgb(234,118,0); fill-rule: nonzero; opacity: 1;"
					transform=" translate(-462.19, -243.21)"
					d="M 471.15927 238.34655 h -17.94732 c -2.2644 0 -4.10659 -1.84219 -4.10659 -4.10659 c 0 -2.2644 1.84219 -4.10659 4.10659 -4.10659 h 17.94732 c 2.68784 0 4.86707 -2.17923 4.86707 -4.86707 c 0 -2.68784 -2.17923 -4.86707 -4.86707 -4.86707 h -17.94732 c -7.63157 0 -13.84073 6.20917 -13.84073 13.84073 c 0 7.63157 6.20917 13.84073 13.84073 13.84073 h 17.94732 c 2.2644 0 4.10659 1.84219 4.10659 4.10659 c 0 2.2644 -1.84219 4.10659 -4.10659 4.10659 h -17.94732 c -2.68784 0 -4.86707 2.17923 -4.86707 4.86707 c 0 2.68784 2.17923 4.86707 4.86707 4.86707 h 17.94732 c 7.63157 0 13.84073 -6.20917 13.84073 -13.84073 c 0 -7.63157 -6.20917 -13.84073 -13.84073 -13.84073 z"
					stroke-linecap="round" />
			</g>
			<g transform="matrix(1 0 0 1 -187 0)">
				<rect
					style="stroke: none; stroke-width: 1; stroke-dasharray: none; stroke-linecap: butt; stroke-dashoffset: 0; stroke-linejoin: miter; stroke-miterlimit: 4; fill: rgb(255,255,255); fill-opacity: 0; fill-rule: nonzero; opacity: 1;"
					x="-23" y="-31" rx="0" ry="0" width="46" height="62" />
			</g>
			<g transform="matrix(1 0 0 1 -1 0)">
				<rect
					style="stroke: none; stroke-width: 1; stroke-dasharray: none; stroke-linecap: butt; stroke-dashoffset: 0; stroke-linejoin: miter; stroke-miterlimit: 4; fill: rgb(255,255,255); fill-opacity: 0; fill-rule: nonzero; opacity: 1;"
					x="-23" y="-31" rx="0" ry="0" width="46" height="62" />
			</g>
			<g transform="matrix(1 0 0 1 138 0)">
				<rect
					style="stroke: none; stroke-width: 1; stroke-dasharray: none; stroke-linecap: butt; stroke-dashoffset: 0; stroke-linejoin: miter; stroke-miterlimit: 4; fill: rgb(255,255,255); fill-opacity: 0; fill-rule: nonzero; opacity: 1;"
					x="-23" y="-31" rx="0" ry="0" width="46" height="62" />
			</g>
			<g transform="matrix(1 0 0 1 -134 8)">
				<rect
					style="stroke: none; stroke-width: 1; stroke-dasharray: none; stroke-linecap: butt; stroke-dashoffset: 0; stroke-linejoin: miter; stroke-miterlimit: 4; fill: rgb(255,255,255); fill-opacity: 0; fill-rule: nonzero; opacity: 1;"
					x="-23" y="-23" rx="0" ry="0" width="46" height="46" />
			</g>
			<g transform="matrix(1 0 0 1 -81 8)">
				<rect
					style="stroke: none; stroke-width: 1; stroke-dasharray: none; stroke-linecap: butt; stroke-dashoffset: 0; stroke-linejoin: miter; stroke-miterlimit: 4; fill: rgb(255,255,255); fill-opacity: 0; fill-rule: nonzero; opacity: 1;"
					x="-23" y="-23" rx="0" ry="0" width="46" height="46" />
			</g>
			<g transform="matrix(1 0 0 1 187 8)">
				<rect
					style="stroke: none; stroke-width: 1; stroke-dasharray: none; stroke-linecap: butt; stroke-dashoffset: 0; stroke-linejoin: miter; stroke-miterlimit: 4; fill: rgb(255,255,255); fill-opacity: 0; fill-rule: nonzero; opacity: 1;"
					x="-23" y="-23" rx="0" ry="0" width="46" height="46" />
			</g>
			<g transform="matrix(1 0 0 1 88 8)">
				<rect
					style="stroke: none; stroke-width: 1; stroke-dasharray: none; stroke-linecap: butt; stroke-dashoffset: 0; stroke-linejoin: miter; stroke-miterlimit: 4; fill: rgb(255,255,255); fill-opacity: 0; fill-rule: nonzero; opacity: 1;"
					x="-20" y="-23" rx="0" ry="0" width="40" height="46" />
			</g>
			<g transform="matrix(1 0 0 1 30 8)">
				<rect
					style="stroke: none; stroke-width: 1; stroke-dasharray: none; stroke-linecap: butt; stroke-dashoffset: 0; stroke-linejoin: miter; stroke-miterlimit: 4; fill: rgb(255,255,255); fill-opacity: 0; fill-rule: nonzero; opacity: 1;"
					x="-14" y="-23" rx="0" ry="0" width="28" height="46" />
			</g>
			<g transform="matrix(1 0 0 1 56 0)">
				<rect
					style="stroke: none; stroke-width: 1; stroke-dasharray: none; stroke-linecap: butt; stroke-dashoffset: 0; stroke-linejoin: miter; stroke-miterlimit: 4; fill: rgb(255,255,255); fill-opacity: 0; fill-rule: nonzero; opacity: 1;"
					x="-5" y="-31" rx="0" ry="0" width="10" height="62" />
			</g>
		</g>
	</g>
</svg>