<?xml version="1.0" encoding="utf-8"?>
<svg viewBox="65 203.972 420 62.056" xmlns="http://www.w3.org/2000/svg">
  <g fill="#ea7600" fill-rule="nonzero" stroke="none" stroke-width="1" stroke-linecap="butt" stroke-linejoin="miter" stroke-miterlimit="10" stroke-dasharray="" stroke-dashoffset="0" font-family="none" font-weight="none" font-size="none" text-anchor="none" style="mix-blend-mode: normal">
    <g data-paper-data="{&quot;isGlobalGroup&quot;:true,&quot;bounds&quot;:{&quot;x&quot;:65,&quot;y&quot;:203.971976721141,&quot;width&quot;:420,&quot;height&quot;:62.05604655771799}}">
      <g data-paper-data="{&quot;isPrimaryText&quot;:true}">
        <path d="M88.18049,203.97198h-18.31235c-2.68784,0 -4.86707,2.17923 -4.86707,4.86707v15.6963c0,1.29099 0.51287,2.52905 1.42544,3.44163l18.31235,18.31235c1.90059,1.90059 4.98205,1.90059 6.88264,0c1.9012,-1.90059 1.9012,-4.98205 0,-6.88264l-16.88691,-16.88691v-8.81366h13.44528c7.41376,0 13.44528,6.03152 13.44528,13.44528v15.6963c0,6.77435 -5.0362,12.39461 -11.56112,13.31387l-16.7555,-16.7555c-1.90059,-1.90059 -4.98205,-1.90059 -6.88264,0c-1.9012,1.90059 -1.9012,4.98205 0,6.88264l18.31235,18.31235c0.91258,0.91258 2.15064,1.42544 3.44163,1.42544c12.78093,0 23.17943,-10.3985 23.17943,-23.17943v-15.6963c0.00061,-12.78032 -10.39789,-23.17882 -23.17882,-23.17882z" data-paper-data="{&quot;glyphName&quot;:&quot;D&quot;,&quot;glyphIndex&quot;:0,&quot;firstGlyphOfWord&quot;:true,&quot;word&quot;:1}" id="path-id-40522"/>
        <path d="M159.21799,220.39923c-2.45361,0 -4.4771,1.81663 -4.81292,4.17777c-3.71662,-2.62761 -8.24664,-4.17777 -13.1344,-4.17777c-12.58016,0 -22.81439,10.23423 -22.81439,22.81439c0,12.58016 10.23423,22.81439 22.81439,22.81439c4.88776,0 9.41778,-1.55016 13.1344,-4.17777c0.33583,2.36114 2.35931,4.17777 4.81292,4.17777c2.68784,0 4.86707,-2.17923 4.86707,-4.86707v-35.89465c0,-2.68784 -2.17923,-4.86707 -4.86707,-4.86707zM141.27067,256.29387c-7.21239,0 -13.08025,-5.86786 -13.08025,-13.08025c0,-7.21239 5.86786,-13.08025 13.08025,-13.08025c7.21239,0 13.08025,5.86786 13.08025,13.08025c0,7.21239 -5.86786,13.08025 -13.08025,13.08025z" data-paper-data="{&quot;glyphName&quot;:&quot;a&quot;,&quot;glyphIndex&quot;:1,&quot;word&quot;:1}" id="path-id-97763"/>
        <path d="M200.90099,243.21362l14.5057,-14.5057c1.90059,-1.90059 1.90059,-4.98205 0,-6.88264c-1.9012,-1.90059 -4.98206,-1.90059 -6.88325,0l-14.5057,14.50509l-14.5057,-14.5057c-1.9012,-1.90059 -4.98206,-1.90059 -6.88325,0c-1.90059,1.90059 -1.90059,4.98205 0,6.88264l14.5057,14.5057l-14.5057,14.5057c-1.90059,1.90059 -1.90059,4.98205 0,6.88264c0.9503,0.9503 2.19566,1.42544 3.44163,1.42544c1.24597,0 2.49133,-0.47515 3.44163,-1.42544l14.5057,-14.5057l14.5057,14.5057c0.9503,0.9503 2.19566,1.42544 3.44163,1.42544c1.24597,0 2.49133,-0.47515 3.44163,-1.42544c1.90059,-1.90059 1.90059,-4.98205 0,-6.88264z" data-paper-data="{&quot;glyphName&quot;:&quot;x&quot;,&quot;glyphIndex&quot;:2,&quot;lastGlyphOfWord&quot;:true,&quot;word&quot;:1}" id="path-id-34149"/>
        <path d="M292.48056,203.97286h-36.6241c-1.96812,0 -3.74278,1.18574 -4.49656,3.0042c-0.75379,1.81846 -0.33765,3.91191 1.05433,5.30389l18.31235,18.31235c0.9503,0.9503 2.19566,1.42544 3.44163,1.42544c1.24536,0 2.49133,-0.47515 3.44163,-1.42544c1.90059,-1.90059 1.90059,-4.98205 0,-6.88264l-10.00366,-10.00366h24.87438c2.68784,0 4.86707,-2.17923 4.86707,-4.86707c0,-2.68784 -2.17923,-4.86707 -4.86707,-4.86707zM259.29809,223.71066c-1.89998,-1.90059 -4.98145,-1.9012 -6.88325,0c-1.90059,1.90059 -1.90059,4.98205 0,6.88264l16.88691,16.88691v13.68012c0,2.68784 2.17923,4.86707 4.86707,4.86707c2.68784,0 4.86707,-2.17923 4.86707,-4.86707v-15.6963c0,-1.29099 -0.51287,-2.52905 -1.42544,-3.44163z" data-paper-data="{&quot;glyphName&quot;:&quot;T&quot;,&quot;glyphIndex&quot;:3,&quot;firstGlyphOfWord&quot;:true,&quot;word&quot;:2}" id="path-id-83830"/>
        <path d="M313.96191,220.39923c-4.88776,0 -9.41778,1.55016 -13.1344,4.17777c-0.33583,-2.36053 -2.35931,-4.17777 -4.81292,-4.17777c-2.68784,0 -4.86707,2.17923 -4.86707,4.86707v35.89465c0,2.68784 2.17923,4.86707 4.86707,4.86707c2.68784,0 4.86707,-2.17923 4.86707,-4.86707v-17.94732c0,-7.21239 5.86786,-13.08025 13.08025,-13.08025c2.68784,0 4.86707,-2.17923 4.86707,-4.86707c0,-2.68784 -2.17923,-4.86707 -4.86707,-4.86707z" data-paper-data="{&quot;glyphName&quot;:&quot;r&quot;,&quot;glyphIndex&quot;:4,&quot;word&quot;:2}" id="path-id-15041"/>
        <path d="M330.7656,220.39923c-2.68784,0 -4.86707,2.17923 -4.86707,4.86707v35.89465c0,2.68784 2.17923,4.86707 4.86707,4.86707c2.68784,0 4.86707,-2.17923 4.86707,-4.86707v-35.89465c0,-2.68784 -2.17923,-4.86707 -4.86707,-4.86707zM326.26964,210.70159c0.12168,0.29202 0.27377,0.57796 0.4502,0.83957c0.17643,0.26769 0.3772,0.51713 0.6023,0.74223c0.2251,0.2251 0.47454,0.42587 0.74223,0.6023c0.26161,0.17643 0.54755,0.32853 0.83957,0.4502c0.29202,0.12168 0.6023,0.21293 0.91258,0.27377c0.31028,0.06692 0.63272,0.09734 0.94908,0.09734c0.31636,0 0.6388,-0.03042 0.94908,-0.09734c0.31028,-0.06084 0.62055,-0.15209 0.91257,-0.27377c0.29202,-0.12168 0.57796,-0.27377 0.83957,-0.4502c0.26769,-0.17643 0.51713,-0.3772 0.74223,-0.6023c0.21902,-0.2251 0.42587,-0.47454 0.6023,-0.74223c0.17643,-0.26161 0.32853,-0.54755 0.4502,-0.83957c0.12168,-0.29202 0.21293,-0.6023 0.27377,-0.91258c0.06692,-0.31028 0.09734,-0.63272 0.09734,-0.94908c0,-0.31636 -0.03042,-0.6388 -0.09734,-0.94908c-0.06084,-0.31028 -0.15209,-0.62055 -0.27377,-0.91257c-0.12168,-0.29202 -0.27377,-0.57796 -0.4502,-0.83957c-0.17643,-0.26769 -0.38328,-0.51713 -0.6023,-0.74223c-1.13159,-1.12551 -2.81073,-1.64872 -4.39253,-1.32628c-0.31028,0.06084 -0.62055,0.15209 -0.91257,0.27377c-0.29202,0.12168 -0.57796,0.27377 -0.83957,0.4502c-0.26769,0.17643 -0.51713,0.3772 -0.74223,0.6023c-0.2251,0.2251 -0.42587,0.47454 -0.6023,0.74223c-0.17643,0.26161 -0.32853,0.54755 -0.4502,0.83957c-0.12168,0.29202 -0.21293,0.6023 -0.27377,0.91258c-0.06692,0.31028 -0.09734,0.63272 -0.09734,0.94908c0,0.31636 0.03042,0.6388 0.09734,0.94908c0.06084,0.31028 0.15209,0.62055 0.27377,0.91257z" data-paper-data="{&quot;glyphName&quot;:&quot;i&quot;,&quot;glyphIndex&quot;:5,&quot;word&quot;:2}" id="path-id-24890"/>
        <path d="M374.89443,252.46288c-2.47065,2.47065 -5.75531,3.83099 -9.24926,3.83099c-7.21239,0 -13.08025,-5.86786 -13.08025,-13.08025c0,-7.21239 5.86786,-13.08025 13.08025,-13.08025c3.49395,0 6.77922,1.36035 9.24926,3.83099c1.90059,1.90059 4.98205,1.90059 6.88264,0c1.9012,-1.90059 1.9012,-4.98205 0,-6.88264c-4.30857,-4.30979 -10.03773,-6.68249 -16.13191,-6.68249c-12.58016,0 -22.81439,10.23423 -22.81439,22.81439c0,12.58016 10.23423,22.81439 22.81439,22.81439c6.09418,0 11.82333,-2.3727 16.13251,-6.68188c1.9012,-1.90059 1.9012,-4.98205 0,-6.88264c-1.90059,-1.9012 -4.98266,-1.9012 -6.88325,-0.00061z" data-paper-data="{&quot;glyphName&quot;:&quot;c&quot;,&quot;glyphIndex&quot;:6,&quot;word&quot;:2}" id="path-id-76683"/>
        <path d="M419.98367,243.27446l14.44486,-14.44486c1.9012,-1.90059 1.9012,-4.98205 0,-6.88264c-1.90059,-1.90059 -4.98205,-1.90059 -6.88264,0l-27.46427,27.46427v-40.56764c0,-2.68784 -2.17923,-4.86707 -4.86707,-4.86707c-2.68784,0 -4.86707,2.17923 -4.86707,4.86707v52.31736c0,1.96873 1.18574,3.74339 3.0042,4.49656c0.6023,0.24944 1.23441,0.37051 1.86165,0.37051c1.26665,0 2.51141,-0.49462 3.44284,-1.42544l14.44486,-14.44486l14.44486,14.44486c0.9503,0.9503 2.19566,1.42544 3.44163,1.42544c1.24597,0 2.49133,-0.47515 3.44163,-1.42544c1.9012,-1.90059 1.9012,-4.98205 0,-6.88264z" data-paper-data="{&quot;glyphName&quot;:&quot;k&quot;,&quot;glyphIndex&quot;:7,&quot;word&quot;:2}" id="path-id-89640"/>
        <path d="M471.15927,238.34655h-17.94732c-2.2644,0 -4.10659,-1.84219 -4.10659,-4.10659c0,-2.2644 1.84219,-4.10659 4.10659,-4.10659h17.94732c2.68784,0 4.86707,-2.17923 4.86707,-4.86707c0,-2.68784 -2.17923,-4.86707 -4.86707,-4.86707h-17.94732c-7.63157,0 -13.84073,6.20917 -13.84073,13.84073c0,7.63157 6.20917,13.84073 13.84073,13.84073h17.94732c2.2644,0 4.10659,1.84219 4.10659,4.10659c0,2.2644 -1.84219,4.10659 -4.10659,4.10659h-17.94732c-2.68784,0 -4.86707,2.17923 -4.86707,4.86707c0,2.68784 2.17923,4.86707 4.86707,4.86707h17.94732c7.63157,0 13.84073,-6.20917 13.84073,-13.84073c0,-7.63157 -6.20917,-13.84073 -13.84073,-13.84073z" data-paper-data="{&quot;glyphName&quot;:&quot;s&quot;,&quot;glyphIndex&quot;:8,&quot;lastGlyphOfWord&quot;:true,&quot;word&quot;:2}" id="path-id-27969"/>
      </g>
    </g>
  </g>
  <rect data-path-id="path-id-40522" class="invisible-bbox" x="65" y="204" fill="transparent" width="46" height="62"/>
  <rect data-path-id="path-id-83830" class="invisible-bbox" x="251" y="204" fill="transparent" width="46" height="62"/>
  <rect data-path-id="path-id-89640" class="invisible-bbox" x="390" y="204" fill="transparent" width="46" height="62"/>
  <rect data-path-id="path-id-97763" class="invisible-bbox" x="118" y="220" fill="transparent" width="46" height="46"/>
  <rect data-path-id="path-id-34149" class="invisible-bbox" x="171" y="220" fill="transparent" width="46" height="46"/>
  <rect data-path-id="path-id-27969" class="invisible-bbox" x="439" y="220" fill="transparent" width="46" height="46"/>
  <rect data-path-id="path-id-76683" class="invisible-bbox" x="343" y="220" fill="transparent" width="40" height="46"/>
  <rect data-path-id="path-id-15041" class="invisible-bbox" x="291" y="220" fill="transparent" width="28" height="46"/>
  <rect data-path-id="path-id-24890" class="invisible-bbox" x="326" y="204" fill="transparent" width="10" height="62"/>
</svg>