<?xml version="1.0" standalone="no"?>
<!DOCTYPE svg PUBLIC "-//W3C//DTD SVG 20010904//EN"
 "http://www.w3.org/TR/2001/REC-SVG-20010904/DTD/svg10.dtd">
<svg version="1.0" xmlns="http://www.w3.org/2000/svg"
 width="1100.000000pt" height="1100.000000pt" viewBox="0 0 1100.000000 1100.000000"
 preserveAspectRatio="xMidYMid meet">
<metadata>
Created by potrace 1.14, written by Peter Selinger 2001-2017
</metadata>
<g transform="translate(0.000000,1100.000000) scale(0.100000,-0.100000)"
fill="#000000" stroke="none">
<path d="M5118 8075 c-1 -1 -64 -6 -138 -9 -74 -3 -164 -8 -200 -11 -36 -3
-101 -8 -145 -10 -44 -2 -80 -5 -80 -5 0 -4 -54 -11 -113 -14 -37 -3 -67 -5
-67 -6 0 -2 -17 -4 -120 -14 -33 -4 -71 -8 -85 -10 -14 -2 -52 -7 -85 -11 -33
-4 -67 -9 -75 -10 -8 -2 -51 -8 -95 -15 -44 -7 -87 -14 -97 -15 -9 -2 -38 -7
-65 -11 -26 -5 -50 -9 -53 -9 -3 -1 -24 -5 -47 -9 -24 -4 -43 -12 -43 -17 0
-5 -7 -9 -15 -9 -28 0 -119 -105 -140 -162 -19 -52 -20 -84 -21 -1245 -1 -656
1 -1193 5 -1193 3 0 7 -19 9 -43 5 -84 76 -382 112 -470 5 -12 23 -60 40 -107
17 -47 35 -94 39 -105 27 -62 165 -338 191 -380 16 -27 33 -57 37 -65 4 -8 11
-19 15 -25 5 -5 29 -41 53 -79 44 -66 114 -159 165 -220 51 -60 247 -254 315
-312 39 -32 72 -62 73 -66 2 -5 8 -8 13 -8 8 0 29 -15 63 -45 20 -18 189 -131
260 -174 117 -71 379 -197 399 -193 4 1 7 -3 7 -8 0 -5 3 -9 8 -8 4 0 14 -1
22 -4 8 -4 24 -9 35 -14 11 -4 22 -8 25 -9 3 -1 23 -7 45 -14 70 -23 185 -22
272 1 43 12 80 24 83 27 3 3 12 7 20 9 33 7 328 144 355 165 5 4 60 37 120 73
61 36 112 70 113 75 2 5 8 9 14 9 9 0 119 82 228 170 59 47 297 285 340 339
19 24 40 48 45 55 79 87 226 325 322 517 134 273 268 691 278 870 1 19 4 39 7
45 7 11 3 2369 -4 2404 -22 101 -139 207 -248 224 -19 3 -46 8 -60 10 -51 9
-106 18 -138 21 -18 2 -45 6 -60 9 -15 3 -45 8 -67 11 -23 3 -51 7 -65 10 -21
4 -66 9 -165 20 -16 2 -50 6 -75 9 -53 6 -146 16 -210 21 -25 2 -67 6 -95 9
-27 2 -97 7 -155 11 -58 4 -132 9 -165 12 -72 5 -932 13 -937 8z m897 -99 c61
-4 137 -9 170 -11 235 -18 287 -22 365 -31 30 -3 69 -7 85 -9 17 -1 55 -6 85
-9 30 -4 73 -8 95 -11 22 -2 40 -5 40 -5 0 -2 37 -8 90 -14 41 -4 110 -14 155
-22 14 -2 54 -9 90 -14 36 -6 81 -13 100 -16 90 -15 164 -90 178 -180 9 -59 8
-2350 -1 -2379 -3 -11 -9 -45 -12 -75 -4 -30 -10 -59 -13 -65 -3 -5 -7 -16 -8
-25 -1 -8 -4 -26 -7 -40 -3 -14 -8 -34 -10 -45 -6 -23 -36 -133 -43 -155 -3
-8 -5 -16 -5 -17 0 -2 -6 -18 -15 -38 -8 -19 -15 -38 -15 -42 -8 -52 -155
-385 -205 -464 -13 -20 -20 -40 -17 -43 4 -3 1 -6 -5 -6 -7 0 -12 -7 -12 -15
0 -8 -4 -15 -10 -15 -5 0 -10 -5 -10 -10 0 -20 -123 -206 -198 -299 -76 -97
-256 -281 -352 -361 -36 -30 -67 -57 -70 -60 -20 -20 -91 -70 -99 -70 -6 0
-11 -4 -11 -8 0 -8 -85 -72 -96 -72 -3 0 -20 -10 -37 -23 -63 -44 -148 -92
-159 -89 -5 1 -8 -2 -8 -7 0 -7 -58 -41 -80 -47 -3 0 -57 -26 -120 -56 -281
-136 -383 -144 -596 -48 -24 11 -65 30 -91 41 -121 55 -286 142 -314 165 -8 8
-18 14 -22 14 -6 0 -129 80 -137 89 -3 3 -30 23 -60 43 -30 21 -68 49 -85 63
-16 15 -57 50 -90 78 -75 64 -215 206 -275 277 -25 29 -50 58 -55 64 -66 72
-217 310 -295 466 -54 109 -67 137 -106 228 -9 20 -20 46 -25 57 -9 20 -67
187 -74 215 -3 8 -18 65 -35 125 -16 61 -28 116 -25 123 2 6 1 12 -3 12 -4 0
-8 8 -9 18 -1 9 -4 31 -8 47 -16 76 -19 294 -19 1340 l0 1120 23 44 c31 60 83
108 126 117 33 7 84 16 110 20 17 2 41 6 55 9 14 3 45 8 70 10 25 3 55 8 68
10 12 3 44 8 70 11 26 3 58 7 72 10 24 4 83 11 165 19 22 2 40 4 40 5 0 1 14
3 30 4 79 7 183 18 205 21 14 2 72 7 130 10 58 4 121 8 140 10 19 2 100 6 180
10 80 4 146 8 147 9 6 5 758 -2 858 -8z"/>
<path d="M4723 6928 c-1 -79 -3 -152 -5 -163 -2 -16 3 -20 22 -20 17 0 24 5
21 15 -3 8 -5 75 -7 148 l-2 132 37 1 c201 3 443 -1 452 -7 8 -5 9 -3 4 7 -7
11 -6 12 6 3 8 -6 26 -14 42 -18 37 -9 103 -74 123 -121 12 -29 16 -78 16
-216 1 -134 4 -179 13 -179 7 0 13 17 14 45 1 25 1 51 2 58 0 6 -1 73 -3 148
-4 126 -6 139 -31 182 -15 25 -43 58 -62 73 -65 50 -90 53 -375 54 l-265 0 -2
-142z"/>
<path d="M5559 7058 c-4 -81 -2 -168 4 -168 5 0 5 -5 1 -12 -4 -6 -8 -24 -8
-40 -1 -32 -11 -30 143 -29 90 1 93 0 88 -20 -7 -26 1 -49 17 -49 16 0 38 38
26 45 -6 3 -10 16 -10 29 0 22 -2 23 -111 22 -61 -1 -113 3 -116 8 -4 5 -7 51
-7 102 l-1 94 50 0 c64 1 526 1 583 0 l43 0 -3 -102 -3 -103 -112 2 c-62 0
-114 -2 -114 -6 -1 -3 -2 -77 -3 -163 -1 -136 1 -158 14 -158 13 0 15 21 14
149 l-1 149 56 0 c31 0 84 1 118 1 l61 1 1 130 0 130 -364 0 c-285 0 -365 -3
-366 -12z"/>
<path d="M4779 6965 c-1 -27 0 -54 1 -60 1 -5 1 -35 1 -65 -3 -219 -2 -340 4
-349 3 -6 1 -11 -5 -11 -8 0 -8 -6 0 -20 8 -14 8 -20 0 -20 -8 0 -8 -6 0 -20
8 -14 8 -20 0 -20 -8 0 -8 -6 0 -20 8 -14 8 -20 0 -20 -8 0 -8 -6 0 -20 8 -14
8 -20 0 -20 -8 0 -8 -6 0 -20 8 -14 8 -20 0 -20 -8 0 -8 -6 0 -20 7 -13 7 -20
1 -20 -7 0 -7 -9 1 -25 8 -18 15 -22 23 -15 7 5 14 7 17 4 9 -9 108 -10 108
-1 0 5 5 5 11 1 14 -8 264 -8 278 0 5 4 12 2 16 -3 3 -6 24 0 49 13 113 60
119 80 121 386 1 271 -4 302 -57 357 -50 52 -79 57 -335 58 l-233 0 -1 -50z
m436 -94 c11 -7 25 -23 30 -34 6 -13 10 -118 10 -241 l-1 -219 -28 -22 c-26
-21 -39 -23 -162 -23 l-134 -1 0 273 c1 150 3 276 6 278 11 12 260 2 279 -11z"/>
<path d="M4959 6837 c-4 -132 0 -467 6 -476 4 -8 11 -9 19 -2 6 5 17 7 23 3
13 -8 153 -7 188 2 33 8 35 30 32 269 -2 175 -4 200 -19 211 -12 9 -57 13
-133 14 -112 1 -115 1 -116 -21z m235 -29 c-1 -10 2 -18 6 -18 5 0 5 -13 0
-29 -4 -16 -6 -32 -3 -35 10 -9 8 -76 -2 -76 -6 0 -5 -3 1 -8 7 -4 8 -15 4
-27 -4 -11 -4 -32 1 -47 4 -16 4 -28 0 -28 -4 0 -8 -7 -8 -15 0 -8 3 -15 6
-15 7 0 5 -81 -3 -106 -5 -17 -16 -19 -93 -18 -49 0 -95 1 -103 2 -13 2 -15
33 -14 219 1 120 2 219 3 221 0 1 47 1 104 0 90 -3 102 -5 101 -20z"/>
<path d="M5615 7005 c-9 -26 0 -131 11 -143 7 -6 15 -9 17 -4 4 6 98 7 188 3
15 -1 16 -33 16 -326 0 -179 3 -328 7 -332 10 -10 136 -10 136 0 0 5 5 5 12 1
7 -5 8 -3 3 6 -13 21 -10 193 3 198 14 4 13 10 16 -125 2 -66 -1 -104 -8 -106
-6 -3 -52 -5 -103 -6 l-92 -2 0 208 c0 114 0 225 -1 246 0 24 -5 37 -14 37
-11 0 -13 -47 -13 -255 0 -140 2 -256 6 -256 20 -5 251 -4 252 1 0 3 2 61 3
130 1 69 5 130 9 137 4 7 -1 14 -14 18 -14 5 -25 2 -30 -6 -6 -11 -11 -11 -21
-1 -9 9 -9 12 0 12 9 0 10 6 5 18 -5 9 -7 31 -6 47 4 42 4 46 3 130 -2 90 1
169 7 177 3 6 2 8 -4 5 -5 -3 -8 5 -5 22 4 26 32 41 32 17 0 -7 3 -7 8 -1 9
13 72 15 72 2 0 -6 5 -6 13 0 6 6 28 9 47 7 62 -5 66 -1 64 71 0 36 -4 69 -8
73 -12 11 -608 9 -611 -3z"/>
<path d="M4726 6413 c1 -137 2 -253 3 -258 1 -7 92 -10 269 -10 l268 1 57 28
c31 15 57 31 57 34 0 4 10 18 23 32 27 30 44 70 53 125 11 66 10 79 -8 83 -19
4 -38 -40 -20 -46 7 -2 8 -11 2 -27 -5 -12 -6 -25 -4 -28 8 -7 -30 -78 -57
-107 -13 -14 -41 -34 -62 -45 -35 -18 -57 -20 -295 -20 l-257 0 0 235 c0 215
-3 249 -25 250 -3 0 -5 -111 -4 -247z"/>
<path d="M3586 6033 c-5 -5 3 -678 9 -733 2 -30 8 -71 11 -90 4 -19 7 -44 8
-55 1 -11 4 -22 7 -25 4 -3 9 -23 12 -45 10 -66 92 -330 132 -420 7 -16 27
-64 45 -105 38 -88 134 -273 161 -312 11 -14 19 -29 19 -32 0 -6 121 -188 130
-196 3 -3 16 -20 28 -37 82 -117 328 -357 487 -475 6 -4 24 -19 41 -33 18 -14
36 -25 42 -25 6 0 12 -4 14 -8 8 -21 358 -229 358 -214 0 4 4 2 8 -3 14 -20
266 -130 320 -140 81 -14 101 -15 125 -6 20 8 27 7 27 -1 0 -9 3 -9 12 0 7 7
20 12 30 12 10 0 18 5 18 10 0 6 9 10 20 10 11 0 50 14 87 31 38 17 91 42 118
54 28 13 78 39 113 59 34 19 62 32 62 28 0 -4 4 -2 8 4 4 6 45 33 92 61 134
81 349 242 431 322 9 9 36 35 60 57 59 55 135 137 189 204 25 30 53 63 63 74
9 11 17 23 17 27 0 4 6 14 13 21 27 28 223 350 227 373 0 3 19 44 42 92 22 48
41 92 42 98 1 5 5 16 9 22 4 7 16 36 27 65 10 29 26 73 36 98 18 49 62 193 69
225 2 11 7 31 10 45 3 14 10 45 15 70 5 25 12 56 15 70 12 56 16 161 18 485
l2 340 -1913 0 c-1053 0 -1915 -1 -1916 -2z m512 -117 c17 -4 32 -11 32 -16 0
-5 9 -11 20 -15 10 -3 31 -30 45 -60 42 -84 28 -156 -41 -222 -19 -18 -37 -33
-42 -34 -4 0 -16 -3 -27 -6 -33 -8 -206 -9 -211 -1 -6 9 -12 9 106 12 101 3
132 12 167 45 23 21 58 81 49 81 -3 0 -2 10 3 23 10 24 -16 105 -40 130 -42
42 -70 50 -170 53 l-100 2 3 -127 3 -126 28 -1 c27 -1 27 0 28 60 2 136 0 131
39 134 83 8 150 -41 150 -111 0 -37 -33 -83 -67 -94 -22 -7 -166 -11 -194 -4
-10 2 -7 276 3 282 12 8 175 4 216 -5z m387 -46 c36 -88 38 -95 39 -102 1 -3
4 -10 9 -14 4 -4 7 -16 7 -26 0 -16 -9 -18 -85 -18 -61 0 -85 3 -85 13 0 15
37 97 44 97 7 0 36 -61 36 -77 0 -8 13 -13 36 -13 25 0 35 4 31 13 -3 6 -15
37 -27 67 -40 100 -39 98 -78 95 -39 -2 -44 -8 -67 -75 -1 -3 -5 -14 -10 -25
-4 -11 -21 -51 -36 -90 -15 -38 -34 -86 -43 -106 l-15 -35 32 0 c27 1 35 7 49
37 l17 36 113 0 c106 0 145 -8 133 -27 -3 -5 -1 -11 5 -15 6 -4 8 -11 5 -16
-4 -5 -1 -9 5 -9 7 0 10 -5 8 -12 -3 -7 -25 -12 -53 -13 -47 0 -49 1 -63 37
l-15 38 -64 0 -63 0 -15 -38 c-15 -36 -18 -38 -58 -38 -46 1 -63 16 -48 43 12
21 28 59 70 168 18 44 36 88 41 97 6 10 10 24 10 31 0 24 20 34 66 32 46 -1
46 -1 69 -55z m291 25 c14 -17 34 -40 45 -53 l20 -23 43 54 c43 52 45 53 94
53 59 -1 69 -8 48 -33 -8 -10 -37 -45 -63 -78 -26 -33 -52 -62 -56 -63 -7 -3
8 -27 55 -87 4 -5 24 -28 43 -50 34 -39 44 -60 26 -53 -5 2 -36 37 -70 78 -34
41 -74 91 -90 110 -16 19 -52 63 -80 97 -44 54 -54 61 -83 60 -18 -1 -32 -6
-31 -10 1 -5 17 -27 37 -50 134 -160 226 -278 226 -289 0 -12 -34 21 -82 82
l-20 25 -16 -24 c-9 -13 -30 -38 -47 -55 -27 -28 -37 -32 -80 -31 -27 0 -50 5
-52 10 -1 6 29 48 67 94 55 66 67 86 57 96 -50 52 -128 155 -123 163 3 5 28 8
56 8 43 -1 54 -5 76 -31z m549 10 c2 -11 3 -89 3 -173 0 -84 2 -155 5 -158 3
-4 17 -4 31 0 l24 6 1 165 c0 91 2 169 5 174 3 5 39 8 78 7 l73 -2 3 -47 3
-47 -70 0 c-50 0 -71 -4 -72 -12 0 -7 -1 -65 -1 -128 0 -63 -4 -120 -9 -126
-5 -6 -25 -10 -46 -9 l-38 1 -3 137 -3 137 -72 0 -73 0 -2 40 c-2 22 -1 44 2
49 3 4 39 7 81 7 68 -1 76 -3 80 -21z m515 11 c14 -4 35 -22 48 -40 40 -58 22
-139 -38 -168 l-31 -15 34 -45 c35 -45 60 -87 55 -89 -2 0 -27 -2 -56 -3 l-53
-2 -40 54 c-23 29 -38 56 -35 60 8 7 65 -58 66 -75 0 -7 6 -13 13 -14 6 0 26
-2 43 -3 26 -2 30 1 26 16 -2 10 -8 18 -12 18 -4 0 -19 18 -34 40 -23 35 -31
40 -65 40 -45 0 -51 -9 -51 -80 0 -52 -5 -56 -60 -56 l-35 1 -3 78 -3 77 97 0
c147 0 184 21 184 105 0 23 -8 42 -25 60 -30 29 -23 28 -142 30 l-93 2 0 -58
c0 -59 0 -59 29 -59 25 0 30 4 33 28 3 26 5 27 63 28 63 0 75 -7 75 -43 0 -29
-17 -33 -127 -31 l-93 1 0 72 c0 39 2 74 5 77 8 7 195 2 225 -6z m224 -173
c-1 -98 -2 -180 -3 -183 0 -3 -20 -5 -43 -5 l-43 0 -5 55 c-7 78 0 310 9 310
4 0 8 -72 9 -160 0 -88 1 -167 1 -175 1 -11 9 -15 29 -12 l27 4 2 159 c1 198
1 196 11 190 4 -2 7 -85 6 -183z m352 174 c8 -7 3 -8 -91 -11 -95 -3 -166 -50
-179 -120 -3 -14 -7 -29 -10 -34 -6 -10 14 -79 29 -102 19 -29 78 -71 91 -66
8 3 14 2 14 -2 0 -9 119 -12 121 -3 6 29 5 53 -4 58 -6 3 -33 6 -61 6 -86 -1
-136 47 -122 118 11 57 51 79 140 79 37 0 66 -4 66 -10 0 -6 -29 -10 -66 -10
-77 0 -101 -11 -119 -53 -11 -27 -11 -36 1 -59 20 -38 43 -48 111 -48 32 0 63
-4 69 -8 11 -8 13 -70 2 -87 -9 -15 -125 -12 -170 4 -52 17 -103 80 -115 141
-6 27 -7 52 -4 56 3 3 6 9 7 12 7 55 69 126 121 138 16 3 32 7 37 8 22 5 125
0 132 -7z m150 -35 c1 -52 7 -59 34 -34 11 10 40 32 63 49 41 29 50 30 142 24
21 -2 13 -11 -79 -86 -20 -16 -50 -41 -67 -55 l-30 -25 92 -93 c50 -51 88 -96
85 -99 -4 -4 -30 -8 -59 -9 -51 -1 -53 0 -114 60 -50 48 -63 56 -64 41 0 -11
-1 -38 -2 -60 l-2 -40 -45 0 -45 0 -3 45 c-3 45 -3 45 75 110 43 35 85 70 93
77 24 21 93 79 119 100 l23 19 -39 -1 c-36 -1 -77 -22 -124 -65 -56 -51 -67
-60 -73 -60 -4 0 -18 -11 -32 -25 -14 -14 -29 -25 -34 -25 -15 0 -13 187 2
192 6 2 28 4 47 3 35 -1 36 -2 37 -43z m535 38 c0 -3 2 -24 4 -47 l3 -43 -57
-1 c-31 -1 -66 0 -78 0 -45 4 -31 -18 27 -41 94 -36 134 -79 124 -133 -14 -78
-48 -98 -171 -100 -52 -1 -96 3 -99 7 -3 4 5 8 18 9 143 4 176 7 195 19 22 14
43 57 43 87 0 24 -55 71 -98 85 -23 7 -42 16 -42 20 0 5 -9 8 -19 8 -22 0 -33
21 -20 41 6 10 30 14 81 15 71 1 73 2 75 28 2 31 -15 37 -104 33 -74 -3 -113
-31 -113 -79 0 -48 17 -66 96 -104 122 -58 111 -91 -31 -92 -47 0 -85 4 -85 9
0 10 19 12 92 9 49 -2 88 6 88 18 0 4 -33 22 -74 41 -79 36 -106 67 -106 120
0 35 42 86 75 93 28 5 175 4 176 -2z m-2753 -484 c45 -15 16 -98 -31 -91 -27
5 -34 15 -11 15 33 0 54 22 48 48 -6 19 -12 23 -43 20 l-36 -3 0 -82 c0 -45
-3 -85 -7 -89 -5 -4 -8 37 -8 92 l0 100 33 -1 c17 -1 42 -4 55 -9z m542 -48
c0 -5 5 -8 10 -8 10 0 25 15 54 55 12 15 15 16 15 5 0 -8 -13 -31 -29 -50
l-30 -35 -35 39 c-19 22 -35 44 -35 50 1 12 50 -44 50 -56z m1814 27 c19 22
35 35 36 28 0 -6 -3 -13 -7 -15 -5 -1 -20 -20 -35 -42 l-26 -38 34 -45 c19
-25 32 -48 28 -52 -4 -3 -9 -1 -11 6 -2 6 -17 26 -32 43 l-27 32 -12 -26 c-6
-14 -16 -26 -22 -26 -5 0 -10 -7 -10 -15 0 -8 -4 -15 -10 -15 -16 0 -12 10 20
50 17 21 30 43 30 50 0 7 -13 29 -30 50 -41 52 -37 64 5 15 l34 -40 35 40z
m-2258 -56 c1 -38 -2 -69 -7 -69 -4 0 -7 34 -6 75 1 93 12 88 13 -6z m314 -11
c22 -45 39 -86 37 -92 -2 -5 -20 25 -41 67 -20 42 -40 79 -45 81 -4 3 -25 -31
-46 -74 -22 -44 -43 -80 -47 -80 -5 0 1 19 13 43 56 114 74 145 81 141 4 -3
25 -41 48 -86z m444 0 c33 -69 44 -78 66 -50 10 12 20 18 24 15 3 -4 6 1 6 10
0 9 -5 19 -11 22 -7 5 -4 14 7 26 13 15 20 16 31 7 8 -6 13 -22 10 -34 -3 -16
5 -31 22 -48 l27 -26 42 86 c24 48 45 84 47 82 7 -6 -18 -68 -27 -68 -4 0 -8
-5 -8 -10 0 -15 -44 -110 -51 -110 -3 0 -20 16 -39 35 l-33 34 -40 -35 -39
-36 -44 86 c-24 47 -44 91 -44 98 0 18 23 -18 54 -84z m370 -8 c1 -84 0 -90
-19 -90 -12 0 -16 3 -9 8 6 4 10 40 9 87 -1 44 1 84 3 88 10 20 15 -9 16 -93z
m216 90 c0 -3 -10 -6 -22 -5 -41 3 -44 -3 -42 -86 1 -44 -3 -82 -7 -85 -5 -3
-9 36 -9 86 0 90 0 90 -24 84 -13 -3 -26 -1 -29 4 -4 5 24 9 63 9 39 0 70 -3
70 -7z m123 -85 c21 1 40 -2 43 -6 3 -5 -15 -9 -40 -9 l-46 0 0 -42 c-1 -28
-3 -38 -9 -28 -7 13 -8 167 -1 180 2 3 6 -18 9 -46 l6 -50 38 1z m72 5 c1 -44
-2 -85 -7 -92 -4 -7 -8 32 -8 86 0 55 3 96 7 93 4 -4 7 -43 8 -87z m293 67
c27 -22 41 -68 30 -99 -13 -36 -53 -68 -86 -68 -29 0 -22 12 10 17 53 8 82 74
53 119 -18 27 -67 43 -113 35 -4 0 -7 -39 -6 -86 1 -47 -3 -85 -7 -85 -11 0
-12 174 -2 184 11 11 104 -2 121 -17z m202 -44 c18 -38 32 -69 31 -71 -1 -1 5
-10 14 -18 8 -9 12 -20 9 -26 -4 -6 -26 27 -50 73 -35 70 -44 81 -50 64 -4
-11 -22 -46 -40 -77 -18 -31 -30 -59 -26 -62 3 -3 0 -6 -7 -6 -7 0 -10 7 -7
18 8 23 86 172 91 172 2 0 18 -30 35 -67z m-1566 -72 c0 -23 -4 -44 -7 -48 -7
-6 -9 5 -9 52 0 40 2 46 10 41 4 -2 7 -23 6 -45z m-459 -31 c3 -6 23 -9 43 -8
20 2 38 -1 40 -6 2 -8 -18 -10 -88 -7 -11 1 -20 8 -20 16 0 17 16 20 25 5z"/>
<path d="M3970 5741 l0 -90 52 4 c45 2 57 8 79 35 22 26 25 37 19 59 -18 63
-45 81 -121 81 l-29 0 0 -89z"/>
<path d="M4401 5759 c-10 -29 -6 -40 14 -33 8 3 13 14 12 25 -5 30 -16 34 -26
8z"/>
<path d="M4500 5626 c0 -27 22 -53 44 -53 33 0 40 11 26 37 -7 13 -21 20 -40
20 -17 0 -30 -2 -30 -4z"/>
<path d="M4920 5889 c-61 -65 -71 -88 -49 -113 11 -12 22 -16 27 -10 46 55
100 121 105 130 10 17 -66 11 -83 -7z"/>
<path d="M4775 5707 c-6 -7 -18 -23 -28 -37 -9 -13 -17 -20 -17 -15 0 6 -9 -4
-19 -21 -11 -18 -24 -35 -30 -38 -20 -13 -11 -22 23 -23 28 0 42 7 66 33 43
48 56 79 40 99 -15 18 -22 18 -35 2z"/>
<path d="M5180 5879 c0 -16 5 -29 10 -30 6 0 28 -1 50 -1 70 0 70 0 70 30 0
28 0 28 -65 29 l-65 1 0 -29z"/>
<path d="M5410 5877 l0 -32 57 1 c52 2 58 4 64 27 6 22 3 27 -20 31 -14 2 -43
5 -63 5 -36 0 -38 -1 -38 -32z"/>
<path d="M5710 5810 c0 -17 7 -20 50 -20 43 0 50 3 50 20 0 17 -7 20 -50 20
-43 0 -50 -3 -50 -20z"/>
<path d="M5630 5630 l0 -60 30 2 c30 2 30 3 30 60 0 58 0 58 -30 58 l-30 0 0
-60z"/>
<path d="M6496 5903 c-3 -3 -6 -37 -6 -75 l0 -69 30 23 c27 19 30 28 30 73 0
46 -2 51 -24 53 -13 1 -26 -1 -30 -5z"/>
<path d="M6590 5722 l-23 -19 65 -64 c55 -55 71 -65 102 -66 20 0 36 2 36 6 0
8 -33 44 -101 109 l-56 53 -23 -19z"/>
<path d="M6513 5657 c-14 -14 -23 -35 -23 -54 0 -28 3 -31 30 -29 29 1 30 2
30 53 0 29 -3 53 -7 52 -5 0 -18 -10 -30 -22z"/>
<path d="M5306 5361 c-4 -5 -2 -12 3 -15 5 -4 12 -2 15 3 4 5 2 12 -3 15 -5 4
-12 2 -15 -3z"/>
</g>
</svg>
